<mxfile host="app.diagrams.net" modified="2023-08-28T16:40:45.922Z" agent="Mozilla/5.0 (X11; Linux x86_64) AppleWebKit/537.36 (KHTML, like Gecko) Chrome/116.0.0.0 Safari/537.36" etag="NQp1g9mFq1NiEitPxar8" version="21.6.9" type="device">
  <diagram name="Seite-1" id="WZ_wdC7cQI_H8ijr2G0n">
    <mxGraphModel dx="2868" dy="1470" grid="1" gridSize="10" guides="1" tooltips="1" connect="1" arrows="1" fold="1" page="1" pageScale="1" pageWidth="1169" pageHeight="827" math="0" shadow="0">
      <root>
        <mxCell id="0" />
        <mxCell id="1" parent="0" />
        <mxCell id="NtnivCIWtNz2SDZSWIoE-2" value="" style="shape=image;verticalLabelPosition=bottom;labelBackgroundColor=default;verticalAlign=top;aspect=fixed;imageAspect=0;image=data:image/svg+xml,PHN2ZyB4bWxucz0iaHR0cDovL3d3dy53My5vcmcvMjAwMC9zdmciIHhtbG5zOnhsaW5rPSJodHRwOi8vd3d3LnczLm9yZy8xOTk5L3hsaW5rIiB2ZXJzaW9uPSIxLjEiIHZpZXdCb3g9IjAgMCAyMTYgMTA4MCIgaGVpZ2h0PSIxMDgwcHQiIHdpZHRoPSIyMTZwdCI+JiN4YTsgPG1ldGFkYXRhPiYjeGE7ICAmI3hhOyAgICYjeGE7ICAgICYjeGE7ICAgIDIwMjMtMDgtMjhUMTg6MTc6MTMuMTEzODM3JiN4YTsgICAgaW1hZ2Uvc3ZnK3htbCYjeGE7ICAgICYjeGE7ICAgICAmI3hhOyAgICAgIE1hdHBsb3RsaWIgdjMuNy4xLCBodHRwczovL21hdHBsb3RsaWIub3JnLyYjeGE7ICAgICAmI3hhOyAgICAmI3hhOyAgICYjeGE7ICAmI3hhOyA8L21ldGFkYXRhPiYjeGE7IDxkZWZzPiYjeGE7ICA8c3R5bGUgdHlwZT0idGV4dC9jc3MiPip7c3Ryb2tlLWxpbmVqb2luOiByb3VuZDsgc3Ryb2tlLWxpbmVjYXA6IGJ1dHR9PC9zdHlsZT4mI3hhOyA8L2RlZnM+JiN4YTsgPGcgaWQ9ImZpZ3VyZV8xIj4mI3hhOyAgPGcgaWQ9InBhdGNoXzEiPiYjeGE7ICAgPHBhdGggc3R5bGU9ImZpbGw6ICNmZmZmZmYiIGQ9Ik0gMCAxMDgwICYjMTA7TCAyMTYgMTA4MCAmIzEwO0wgMjE2IDAgJiMxMDtMIDAgMCAmIzEwO3oiLz4mI3hhOyAgPC9nPiYjeGE7ICA8ZyBpZD0iYXhlc18xIj4mI3hhOyAgIDxnIGlkPSJwYXRjaF8yIj4mI3hhOyAgICA8cGF0aCBzdHlsZT0iZmlsbDogI2ZmZmZmZiIgZD0iTSA4Mi42MSA4NDIuNSAmIzEwO0wgMjA4LjggODQyLjUgJiMxMDtMIDIwOC44IDExLjQ1NDU0NSAmIzEwO0wgODIuNjEgMTEuNDU0NTQ1ICYjMTA7eiIvPiYjeGE7ICAgPC9nPiYjeGE7ICAgPGcgaWQ9Im1hdHBsb3RsaWIuYXhpc18xIj4mI3hhOyAgICA8ZyBpZD0ieHRpY2tfMSI+JiN4YTsgICAgIDxnIGlkPSJsaW5lMmRfMSI+JiN4YTsgICAgICA8cGF0aCBzdHlsZT0iZmlsbDogbm9uZTsgc3Ryb2tlOiAjY2NjY2NjOyBzdHJva2UtbGluZWNhcDogcm91bmQiIGNsaXAtcGF0aD0idXJsKCNwYWNmMWEyNWYzYykiIGQ9Ik0gMTQ1LjcwNSA4NDIuNSAmIzEwO0wgMTQ1LjcwNSAxMS40NTQ1NDUiLz4mI3hhOyAgICAgPC9nPiYjeGE7ICAgICA8ZyBpZD0idGV4dF8xIj4mI3hhOyAgICAgICYjeGE7ICAgICAgPGcgdHJhbnNmb3JtPSJ0cmFuc2xhdGUoMTU0LjgxMDkzNyAxMDcyLjc2MzkwNikgcm90YXRlKC05MCkgc2NhbGUoMC4zMyAtMC4zMykiIHN0eWxlPSJmaWxsOiAjMjYyNjI2Ij4mI3hhOyAgICAgICA8ZGVmcz4mI3hhOyAgICAgICAgPHBhdGggdHJhbnNmb3JtPSJzY2FsZSgwLjAxNTYyNSkiIGQ9Ik0gMjYzMSAyOTYzICYjMTA7USAyNTM0IDMwMTkgMjQyMCAzMDQ1ICYjMTA7USAyMzA2IDMwNzIgMjE2OSAzMDcyICYjMTA7USAxNjgxIDMwNzIgMTQyMCAyNzU1ICYjMTA7USAxMTU5IDI0MzggMTE1OSAxODQ0ICYjMTA7TCAxMTU5IDAgJiMxMDtMIDU4MSAwICYjMTA7TCA1ODEgMzUwMCAmIzEwO0wgMTE1OSAzNTAwICYjMTA7TCAxMTU5IDI5NTYgJiMxMDtRIDEzNDEgMzI3NSAxNjMxIDM0MjkgJiMxMDtRIDE5MjIgMzU4NCAyMzM4IDM1ODQgJiMxMDtRIDIzOTcgMzU4NCAyNDY5IDM1NzYgJiMxMDtRIDI1NDEgMzU2OSAyNjI4IDM1NTMgJiMxMDtMIDI2MzEgMjk2MyAmIzEwO3oiIGlkPSJEZWphVnVTYW5zLTcyIi8+JiN4YTsgICAgICAgIDxwYXRoIHRyYW5zZm9ybT0ic2NhbGUoMC4wMTU2MjUpIiBkPSJNIDU0NCAxMzgxICYjMTA7TCA1NDQgMzUwMCAmIzEwO0wgMTExOSAzNTAwICYjMTA7TCAxMTE5IDE0MDMgJiMxMDtRIDExMTkgOTA2IDEzMTIgNjU3ICYjMTA7USAxNTA2IDQwOSAxODk0IDQwOSAmIzEwO1EgMjM1OSA0MDkgMjYyOSA3MDYgJiMxMDtRIDI5MDAgMTAwMyAyOTAwIDE1MTYgJiMxMDtMIDI5MDAgMzUwMCAmIzEwO0wgMzQ3NSAzNTAwICYjMTA7TCAzNDc1IDAgJiMxMDtMIDI5MDAgMCAmIzEwO0wgMjkwMCA1MzggJiMxMDtRIDI2OTEgMjE5IDI0MTQgNjQgJiMxMDtRIDIxMzggLTkxIDE3NzIgLTkxICYjMTA7USAxMTY5IC05MSA4NTYgMjg0ICYjMTA7USA1NDQgNjU5IDU0NCAxMzgxICYjMTA7eiYjMTA7TSAxOTkxIDM1ODQgJiMxMDtMIDE5OTEgMzU4NCAmIzEwO3oiIGlkPSJEZWphVnVTYW5zLTc1Ii8+JiN4YTsgICAgICAgIDxwYXRoIHRyYW5zZm9ybT0ic2NhbGUoMC4wMTU2MjUpIiBkPSJNIDI4MzQgMzM5NyAmIzEwO0wgMjgzNCAyODUzICYjMTA7USAyNTkxIDI5NzggMjMyOCAzMDQwICYjMTA7USAyMDY2IDMxMDMgMTc4NCAzMTAzICYjMTA7USAxMzU2IDMxMDMgMTE0MiAyOTcyICYjMTA7USA5MjggMjg0MSA5MjggMjU3OCAmIzEwO1EgOTI4IDIzNzggMTA4MSAyMjY0ICYjMTA7USAxMjM0IDIxNTAgMTY5NyAyMDQ3ICYjMTA7TCAxODk0IDIwMDMgJiMxMDtRIDI1MDYgMTg3MiAyNzY0IDE2MzMgJiMxMDtRIDMwMjIgMTM5NCAzMDIyIDk2NiAmIzEwO1EgMzAyMiA0NzggMjYzNiAxOTMgJiMxMDtRIDIyNTAgLTkxIDE1NzUgLTkxICYjMTA7USAxMjk0IC05MSA5ODkgLTM2ICYjMTA7USA2ODQgMTkgMzQ3IDEyOCAmIzEwO0wgMzQ3IDcyMiAmIzEwO1EgNjY2IDU1NiA5NzUgNDczICYjMTA7USAxMjg0IDM5MSAxNTg4IDM5MSAmIzEwO1EgMTk5NCAzOTEgMjIxMiA1MzAgJiMxMDtRIDI0MzEgNjY5IDI0MzEgOTIyICYjMTA7USAyNDMxIDExNTYgMjI3MyAxMjgxICYjMTA7USAyMTE2IDE0MDYgMTU4MSAxNTIyICYjMTA7TCAxMzgxIDE1NjkgJiMxMDtRIDg0NyAxNjgxIDYwOSAxOTE0ICYjMTA7USAzNzIgMjE0NyAzNzIgMjU1MyAmIzEwO1EgMzcyIDMwNDcgNzIyIDMzMTUgJiMxMDtRIDEwNzIgMzU4NCAxNzE2IDM1ODQgJiMxMDtRIDIwMzQgMzU4NCAyMzE1IDM1MzcgJiMxMDtRIDI1OTcgMzQ5MSAyODM0IDMzOTcgJiMxMDt6IiBpZD0iRGVqYVZ1U2Fucy03MyIvPiYjeGE7ICAgICAgICA8cGF0aCB0cmFuc2Zvcm09InNjYWxlKDAuMDE1NjI1KSIgZD0iTSAxMTcyIDQ0OTQgJiMxMDtMIDExNzIgMzUwMCAmIzEwO0wgMjM1NiAzNTAwICYjMTA7TCAyMzU2IDMwNTMgJiMxMDtMIDExNzIgMzA1MyAmIzEwO0wgMTE3MiAxMTUzICYjMTA7USAxMTcyIDcyNSAxMjg5IDYwMyAmIzEwO1EgMTQwNiA0ODEgMTc2NiA0ODEgJiMxMDtMIDIzNTYgNDgxICYjMTA7TCAyMzU2IDAgJiMxMDtMIDE3NjYgMCAmIzEwO1EgMTEwMCAwIDg0NyAyNDggJiMxMDtRIDU5NCA0OTcgNTk0IDExNTMgJiMxMDtMIDU5NCAzMDUzICYjMTA7TCAxNzIgMzA1MyAmIzEwO0wgMTcyIDM1MDAgJiMxMDtMIDU5NCAzNTAwICYjMTA7TCA1OTQgNDQ5NCAmIzEwO0wgMTE3MiA0NDk0ICYjMTA7eiIgaWQ9IkRlamFWdVNhbnMtNzQiLz4mI3hhOyAgICAgICAgPHBhdGggdHJhbnNmb3JtPSJzY2FsZSgwLjAxNTYyNSkiIGQ9Ik0gMzEzIDIwMDkgJiMxMDtMIDE5OTcgMjAwOSAmIzEwO0wgMTk5NyAxNDk3ICYjMTA7TCAzMTMgMTQ5NyAmIzEwO0wgMzEzIDIwMDkgJiMxMDt6IiBpZD0iRGVqYVZ1U2Fucy0yZCIvPiYjeGE7ICAgICAgICA8cGF0aCB0cmFuc2Zvcm09InNjYWxlKDAuMDE1NjI1KSIgZD0iTSAyMTk0IDE3NTkgJiMxMDtRIDE0OTcgMTc1OSAxMjI4IDE2MDAgJiMxMDtRIDk1OSAxNDQxIDk1OSAxMDU2ICYjMTA7USA5NTkgNzUwIDExNjEgNTcwICYjMTA7USAxMzYzIDM5MSAxNzA5IDM5MSAmIzEwO1EgMjE4OCAzOTEgMjQ3NyA3MzAgJiMxMDtRIDI3NjYgMTA2OSAyNzY2IDE2MzEgJiMxMDtMIDI3NjYgMTc1OSAmIzEwO0wgMjE5NCAxNzU5ICYjMTA7eiYjMTA7TSAzMzQxIDE5OTcgJiMxMDtMIDMzNDEgMCAmIzEwO0wgMjc2NiAwICYjMTA7TCAyNzY2IDUzMSAmIzEwO1EgMjU2OSAyMTMgMjI3NSA2MSAmIzEwO1EgMTk4MSAtOTEgMTU1NiAtOTEgJiMxMDtRIDEwMTkgLTkxIDcwMSAyMTEgJiMxMDtRIDM4NCA1MTMgMzg0IDEwMTkgJiMxMDtRIDM4NCAxNjA5IDc3OSAxOTA5ICYjMTA7USAxMTc1IDIyMDkgMTk1OSAyMjA5ICYjMTA7TCAyNzY2IDIyMDkgJiMxMDtMIDI3NjYgMjI2NiAmIzEwO1EgMjc2NiAyNjYzIDI1MDUgMjg4MCAmIzEwO1EgMjI0NCAzMDk3IDE3NzIgMzA5NyAmIzEwO1EgMTQ3MiAzMDk3IDExODcgMzAyNSAmIzEwO1EgOTAzIDI5NTMgNjQxIDI4MDkgJiMxMDtMIDY0MSAzMzQxICYjMTA7USA5NTYgMzQ2MyAxMjUzIDM1MjMgJiMxMDtRIDE1NTAgMzU4NCAxODMxIDM1ODQgJiMxMDtRIDI1OTEgMzU4NCAyOTY2IDMxOTAgJiMxMDtRIDMzNDEgMjc5NyAzMzQxIDE5OTcgJiMxMDt6IiBpZD0iRGVqYVZ1U2Fucy02MSIvPiYjeGE7ICAgICAgICA8cGF0aCB0cmFuc2Zvcm09InNjYWxlKDAuMDE1NjI1KSIgZD0iTSAzNTEzIDIxMTMgJiMxMDtMIDM1MTMgMCAmIzEwO0wgMjkzOCAwICYjMTA7TCAyOTM4IDIwOTQgJiMxMDtRIDI5MzggMjU5MSAyNzQ0IDI4MzcgJiMxMDtRIDI1NTAgMzA4NCAyMTYzIDMwODQgJiMxMDtRIDE2OTcgMzA4NCAxNDI4IDI3ODcgJiMxMDtRIDExNTkgMjQ5MSAxMTU5IDE5NzggJiMxMDtMIDExNTkgMCAmIzEwO0wgNTgxIDAgJiMxMDtMIDU4MSAzNTAwICYjMTA7TCAxMTU5IDM1MDAgJiMxMDtMIDExNTkgMjk1NiAmIzEwO1EgMTM2NiAzMjcyIDE2NDUgMzQyOCAmIzEwO1EgMTkyNSAzNTg0IDIyOTEgMzU4NCAmIzEwO1EgMjg5NCAzNTg0IDMyMDMgMzIxMSAmIzEwO1EgMzUxMyAyODM4IDM1MTMgMjExMyAmIzEwO3oiIGlkPSJEZWphVnVTYW5zLTZlIi8+JiN4YTsgICAgICAgIDxwYXRoIHRyYW5zZm9ybT0ic2NhbGUoMC4wMTU2MjUpIiBkPSJNIDYwMyA0ODYzICYjMTA7TCAxMTc4IDQ4NjMgJiMxMDtMIDExNzggMCAmIzEwO0wgNjAzIDAgJiMxMDtMIDYwMyA0ODYzICYjMTA7eiIgaWQ9IkRlamFWdVNhbnMtNmMiLz4mI3hhOyAgICAgICAgPHBhdGggdHJhbnNmb3JtPSJzY2FsZSgwLjAxNTYyNSkiIGQ9Ik0gMjA1OSAtMzI1ICYjMTA7USAxODE2IC05NTAgMTU4NCAtMTE0MCAmIzEwO1EgMTM1MyAtMTMzMSA5NjYgLTEzMzEgJiMxMDtMIDUwNiAtMTMzMSAmIzEwO0wgNTA2IC04NTAgJiMxMDtMIDg0NCAtODUwICYjMTA7USAxMDgxIC04NTAgMTIxMiAtNzM3ICYjMTA7USAxMzQ0IC02MjUgMTUwMyAtMjA2ICYjMTA7TCAxNjA2IDU2ICYjMTA7TCAxOTEgMzUwMCAmIzEwO0wgODAwIDM1MDAgJiMxMDtMIDE4OTQgNzYzICYjMTA7TCAyOTg4IDM1MDAgJiMxMDtMIDM1OTcgMzUwMCAmIzEwO0wgMjA1OSAtMzI1ICYjMTA7eiIgaWQ9IkRlamFWdVNhbnMtNzkiLz4mI3hhOyAgICAgICAgPHBhdGggdHJhbnNmb3JtPSJzY2FsZSgwLjAxNTYyNSkiIGQ9Ik0gMzUzIDM1MDAgJiMxMDtMIDMwODQgMzUwMCAmIzEwO0wgMzA4NCAyOTc1ICYjMTA7TCA5MjIgNDU5ICYjMTA7TCAzMDg0IDQ1OSAmIzEwO0wgMzA4NCAwICYjMTA7TCAyNzUgMCAmIzEwO0wgMjc1IDUyNSAmIzEwO0wgMjQzOCAzMDQxICYjMTA7TCAzNTMgMzA0MSAmIzEwO0wgMzUzIDM1MDAgJiMxMDt6IiBpZD0iRGVqYVZ1U2Fucy03YSIvPiYjeGE7ICAgICAgICA8cGF0aCB0cmFuc2Zvcm09InNjYWxlKDAuMDE1NjI1KSIgZD0iTSAzNTk3IDE4OTQgJiMxMDtMIDM1OTcgMTYxMyAmIzEwO0wgOTUzIDE2MTMgJiMxMDtRIDk5MSAxMDE5IDEzMTEgNzA4ICYjMTA7USAxNjMxIDM5NyAyMjAzIDM5NyAmIzEwO1EgMjUzNCAzOTcgMjg0NSA0NzggJiMxMDtRIDMxNTYgNTU5IDM0NjMgNzIyICYjMTA7TCAzNDYzIDE3OCAmIzEwO1EgMzE1MyA0NyAyODI4IC0yMiAmIzEwO1EgMjUwMyAtOTEgMjE2OSAtOTEgJiMxMDtRIDEzMzEgLTkxIDg0MiAzOTYgJiMxMDtRIDM1MyA4ODQgMzUzIDE3MTYgJiMxMDtRIDM1MyAyNTc1IDgxNyAzMDc5ICYjMTA7USAxMjgxIDM1ODQgMjA2OSAzNTg0ICYjMTA7USAyNzc1IDM1ODQgMzE4NiAzMTI5ICYjMTA7USAzNTk3IDI2NzUgMzU5NyAxODk0ICYjMTA7eiYjMTA7TSAzMDIyIDIwNjMgJiMxMDtRIDMwMTYgMjUzNCAyNzU4IDI4MTUgJiMxMDtRIDI1MDAgMzA5NyAyMDc1IDMwOTcgJiMxMDtRIDE1OTQgMzA5NyAxMzA1IDI4MjUgJiMxMDtRIDEwMTYgMjU1MyA5NzIgMjA1OSAmIzEwO0wgMzAyMiAyMDYzICYjMTA7eiIgaWQ9IkRlamFWdVNhbnMtNjUiLz4mI3hhOyAgICAgICA8L2RlZnM+JiN4YTsgICAgICAgPHVzZSB4bGluazpocmVmPSIjRGVqYVZ1U2Fucy03MiIvPiYjeGE7ICAgICAgIDx1c2UgeD0iNDEuMTEzMjgxIiB4bGluazpocmVmPSIjRGVqYVZ1U2Fucy03NSIvPiYjeGE7ICAgICAgIDx1c2UgeD0iMTA0LjQ5MjE4OCIgeGxpbms6aHJlZj0iI0RlamFWdVNhbnMtNzMiLz4mI3hhOyAgICAgICA8dXNlIHg9IjE1Ni41OTE3OTciIHhsaW5rOmhyZWY9IiNEZWphVnVTYW5zLTc0Ii8+JiN4YTsgICAgICAgPHVzZSB4PSIxOTUuODAwNzgxIiB4bGluazpocmVmPSIjRGVqYVZ1U2Fucy0yZCIvPiYjeGE7ICAgICAgIDx1c2UgeD0iMjMxLjg4NDc2NiIgeGxpbms6aHJlZj0iI0RlamFWdVNhbnMtNjEiLz4mI3hhOyAgICAgICA8dXNlIHg9IjI5My4xNjQwNjIiIHhsaW5rOmhyZWY9IiNEZWphVnVTYW5zLTZlIi8+JiN4YTsgICAgICAgPHVzZSB4PSIzNTYuNTQyOTY5IiB4bGluazpocmVmPSIjRGVqYVZ1U2Fucy02MSIvPiYjeGE7ICAgICAgIDx1c2UgeD0iNDE3LjgyMjI2NiIgeGxpbms6aHJlZj0iI0RlamFWdVNhbnMtNmMiLz4mI3hhOyAgICAgICA8dXNlIHg9IjQ0NS42MDU0NjkiIHhsaW5rOmhyZWY9IiNEZWphVnVTYW5zLTc5Ii8+JiN4YTsgICAgICAgPHVzZSB4PSI1MDQuNzg1MTU2IiB4bGluazpocmVmPSIjRGVqYVZ1U2Fucy03YSIvPiYjeGE7ICAgICAgIDx1c2UgeD0iNTU3LjI3NTM5MSIgeGxpbms6aHJlZj0iI0RlamFWdVNhbnMtNjUiLz4mI3hhOyAgICAgICA8dXNlIHg9IjYxOC43OTg4MjgiIHhsaW5rOmhyZWY9IiNEZWphVnVTYW5zLTcyIi8+JiN4YTsgICAgICA8L2c+JiN4YTsgICAgIDwvZz4mI3hhOyAgICA8L2c+JiN4YTsgICA8L2c+JiN4YTsgICA8ZyBpZD0ibWF0cGxvdGxpYi5heGlzXzIiPiYjeGE7ICAgIDxnIGlkPSJ5dGlja18xIj4mI3hhOyAgICAgPGcgaWQ9ImxpbmUyZF8yIj4mI3hhOyAgICAgIDxwYXRoIHN0eWxlPSJmaWxsOiBub25lOyBzdHJva2U6ICNjY2NjY2M7IHN0cm9rZS1saW5lY2FwOiByb3VuZCIgY2xpcC1wYXRoPSJ1cmwoI3BhY2YxYTI1ZjNjKSIgZD0iTSA4Mi42MSA4MDQuNzI1MjA3ICYjMTA7TCAyMDguOCA4MDQuNzI1MjA3Ii8+JiN4YTsgICAgIDwvZz4mI3hhOyAgICAgPGcgaWQ9InRleHRfMiI+JiN4YTsgICAgICAmI3hhOyAgICAgIDxnIHRyYW5zZm9ybT0idHJhbnNsYXRlKDQ5LjExMzc1IDgxNy4yNjI2MjgpIHNjYWxlKDAuMzMgLTAuMzMpIiBzdHlsZT0iZmlsbDogIzI2MjYyNiI+JiN4YTsgICAgICAgPGRlZnM+JiN4YTsgICAgICAgIDxwYXRoIHRyYW5zZm9ybT0ic2NhbGUoMC4wMTU2MjUpIiBkPSJNIDIwMzQgNDI1MCAmIzEwO1EgMTU0NyA0MjUwIDEzMDEgMzc3MCAmIzEwO1EgMTA1NiAzMjkxIDEwNTYgMjMyOCAmIzEwO1EgMTA1NiAxMzY5IDEzMDEgODg5ICYjMTA7USAxNTQ3IDQwOSAyMDM0IDQwOSAmIzEwO1EgMjUyNSA0MDkgMjc3MCA4ODkgJiMxMDtRIDMwMTYgMTM2OSAzMDE2IDIzMjggJiMxMDtRIDMwMTYgMzI5MSAyNzcwIDM3NzAgJiMxMDtRIDI1MjUgNDI1MCAyMDM0IDQyNTAgJiMxMDt6JiMxMDtNIDIwMzQgNDc1MCAmIzEwO1EgMjgxOSA0NzUwIDMyMzMgNDEyOSAmIzEwO1EgMzY0NyAzNTA5IDM2NDcgMjMyOCAmIzEwO1EgMzY0NyAxMTUwIDMyMzMgNTI5ICYjMTA7USAyODE5IC05MSAyMDM0IC05MSAmIzEwO1EgMTI1MCAtOTEgODM2IDUyOSAmIzEwO1EgNDIyIDExNTAgNDIyIDIzMjggJiMxMDtRIDQyMiAzNTA5IDgzNiA0MTI5ICYjMTA7USAxMjUwIDQ3NTAgMjAzNCA0NzUwICYjMTA7eiIgaWQ9IkRlamFWdVNhbnMtMzAiLz4mI3hhOyAgICAgICA8L2RlZnM+JiN4YTsgICAgICAgPHVzZSB4bGluazpocmVmPSIjRGVqYVZ1U2Fucy0zMCIvPiYjeGE7ICAgICAgPC9nPiYjeGE7ICAgICA8L2c+JiN4YTsgICAgPC9nPiYjeGE7ICAgIDxnIGlkPSJ5dGlja18yIj4mI3hhOyAgICAgPGcgaWQ9ImxpbmUyZF8zIj4mI3hhOyAgICAgIDxwYXRoIHN0eWxlPSJmaWxsOiBub25lOyBzdHJva2U6ICNjY2NjY2M7IHN0cm9rZS1saW5lY2FwOiByb3VuZCIgY2xpcC1wYXRoPSJ1cmwoI3BhY2YxYTI1ZjNjKSIgZD0iTSA4Mi42MSA3MDYuNjA4ODYgJiMxMDtMIDIwOC44IDcwNi42MDg4NiIvPiYjeGE7ICAgICA8L2c+JiN4YTsgICAgIDxnIGlkPSJ0ZXh0XzMiPiYjeGE7ICAgICAgJiN4YTsgICAgICA8ZyB0cmFuc2Zvcm09InRyYW5zbGF0ZSg3LjEyMTI1IDcxOS4xNDYyODIpIHNjYWxlKDAuMzMgLTAuMzMpIiBzdHlsZT0iZmlsbDogIzI2MjYyNiI+JiN4YTsgICAgICAgPGRlZnM+JiN4YTsgICAgICAgIDxwYXRoIHRyYW5zZm9ybT0ic2NhbGUoMC4wMTU2MjUpIiBkPSJNIDc5NCA1MzEgJiMxMDtMIDE4MjUgNTMxICYjMTA7TCAxODI1IDQwOTEgJiMxMDtMIDcwMyAzODY2ICYjMTA7TCA3MDMgNDQ0MSAmIzEwO0wgMTgxOSA0NjY2ICYjMTA7TCAyNDUwIDQ2NjYgJiMxMDtMIDI0NTAgNTMxICYjMTA7TCAzNDgxIDUzMSAmIzEwO0wgMzQ4MSAwICYjMTA7TCA3OTQgMCAmIzEwO0wgNzk0IDUzMSAmIzEwO3oiIGlkPSJEZWphVnVTYW5zLTMxIi8+JiN4YTsgICAgICAgPC9kZWZzPiYjeGE7ICAgICAgIDx1c2UgeGxpbms6aHJlZj0iI0RlamFWdVNhbnMtMzEiLz4mI3hhOyAgICAgICA8dXNlIHg9IjYzLjYyMzA0NyIgeGxpbms6aHJlZj0iI0RlamFWdVNhbnMtMzAiLz4mI3hhOyAgICAgICA8dXNlIHg9IjEyNy4yNDYwOTQiIHhsaW5rOmhyZWY9IiNEZWphVnVTYW5zLTMwIi8+JiN4YTsgICAgICA8L2c+JiN4YTsgICAgIDwvZz4mI3hhOyAgICA8L2c+JiN4YTsgICAgPGcgaWQ9Inl0aWNrXzMiPiYjeGE7ICAgICA8ZyBpZD0ibGluZTJkXzQiPiYjeGE7ICAgICAgPHBhdGggc3R5bGU9ImZpbGw6IG5vbmU7IHN0cm9rZTogI2NjY2NjYzsgc3Ryb2tlLWxpbmVjYXA6IHJvdW5kIiBjbGlwLXBhdGg9InVybCgjcGFjZjFhMjVmM2MpIiBkPSJNIDgyLjYxIDYwOC40OTI1MTQgJiMxMDtMIDIwOC44IDYwOC40OTI1MTQiLz4mI3hhOyAgICAgPC9nPiYjeGE7ICAgICA8ZyBpZD0idGV4dF80Ij4mI3hhOyAgICAgICYjeGE7ICAgICAgPGcgdHJhbnNmb3JtPSJ0cmFuc2xhdGUoNy4xMjEyNSA2MjEuMDI5OTM2KSBzY2FsZSgwLjMzIC0wLjMzKSIgc3R5bGU9ImZpbGw6ICMyNjI2MjYiPiYjeGE7ICAgICAgIDxkZWZzPiYjeGE7ICAgICAgICA8cGF0aCB0cmFuc2Zvcm09InNjYWxlKDAuMDE1NjI1KSIgZD0iTSAxMjI4IDUzMSAmIzEwO0wgMzQzMSA1MzEgJiMxMDtMIDM0MzEgMCAmIzEwO0wgNDY5IDAgJiMxMDtMIDQ2OSA1MzEgJiMxMDtRIDgyOCA5MDMgMTQ0OCAxNTI5ICYjMTA7USAyMDY5IDIxNTYgMjIyOCAyMzM4ICYjMTA7USAyNTMxIDI2NzggMjY1MSAyOTE0ICYjMTA7USAyNzcyIDMxNTAgMjc3MiAzMzc4ICYjMTA7USAyNzcyIDM3NTAgMjUxMSAzOTg0ICYjMTA7USAyMjUwIDQyMTkgMTgzMSA0MjE5ICYjMTA7USAxNTM0IDQyMTkgMTIwNCA0MTE2ICYjMTA7USA4NzUgNDAxMyA1MDAgMzgwMyAmIzEwO0wgNTAwIDQ0NDEgJiMxMDtRIDg4MSA0NTk0IDEyMTIgNDY3MiAmIzEwO1EgMTU0NCA0NzUwIDE4MTkgNDc1MCAmIzEwO1EgMjU0NCA0NzUwIDI5NzUgNDM4NyAmIzEwO1EgMzQwNiA0MDI1IDM0MDYgMzQxOSAmIzEwO1EgMzQwNiAzMTMxIDMyOTggMjg3MyAmIzEwO1EgMzE5MSAyNjE2IDI5MDYgMjI2NiAmIzEwO1EgMjgyOCAyMTc1IDI0MDkgMTc0MiAmIzEwO1EgMTk5MSAxMzA5IDEyMjggNTMxICYjMTA7eiIgaWQ9IkRlamFWdVNhbnMtMzIiLz4mI3hhOyAgICAgICA8L2RlZnM+JiN4YTsgICAgICAgPHVzZSB4bGluazpocmVmPSIjRGVqYVZ1U2Fucy0zMiIvPiYjeGE7ICAgICAgIDx1c2UgeD0iNjMuNjIzMDQ3IiB4bGluazpocmVmPSIjRGVqYVZ1U2Fucy0zMCIvPiYjeGE7ICAgICAgIDx1c2UgeD0iMTI3LjI0NjA5NCIgeGxpbms6aHJlZj0iI0RlamFWdVNhbnMtMzAiLz4mI3hhOyAgICAgIDwvZz4mI3hhOyAgICAgPC9nPiYjeGE7ICAgIDwvZz4mI3hhOyAgICA8ZyBpZD0ieXRpY2tfNCI+JiN4YTsgICAgIDxnIGlkPSJsaW5lMmRfNSI+JiN4YTsgICAgICA8cGF0aCBzdHlsZT0iZmlsbDogbm9uZTsgc3Ryb2tlOiAjY2NjY2NjOyBzdHJva2UtbGluZWNhcDogcm91bmQiIGNsaXAtcGF0aD0idXJsKCNwYWNmMWEyNWYzYykiIGQ9Ik0gODIuNjEgNTEwLjM3NjE2NyAmIzEwO0wgMjA4LjggNTEwLjM3NjE2NyIvPiYjeGE7ICAgICA8L2c+JiN4YTsgICAgIDxnIGlkPSJ0ZXh0XzUiPiYjeGE7ICAgICAgJiN4YTsgICAgICA8ZyB0cmFuc2Zvcm09InRyYW5zbGF0ZSg3LjEyMTI1IDUyMi45MTM1ODkpIHNjYWxlKDAuMzMgLTAuMzMpIiBzdHlsZT0iZmlsbDogIzI2MjYyNiI+JiN4YTsgICAgICAgPGRlZnM+JiN4YTsgICAgICAgIDxwYXRoIHRyYW5zZm9ybT0ic2NhbGUoMC4wMTU2MjUpIiBkPSJNIDI1OTcgMjUxNiAmIzEwO1EgMzA1MCAyNDE5IDMzMDQgMjExMiAmIzEwO1EgMzU1OSAxODA2IDM1NTkgMTM1NiAmIzEwO1EgMzU1OSA2NjYgMzA4NCAyODcgJiMxMDtRIDI2MDkgLTkxIDE3MzQgLTkxICYjMTA7USAxNDQxIC05MSAxMTMwIC0zMyAmIzEwO1EgODE5IDI1IDQ4OCAxNDEgJiMxMDtMIDQ4OCA3NTAgJiMxMDtRIDc1MCA1OTcgMTA2MiA1MTkgJiMxMDtRIDEzNzUgNDQxIDE3MTYgNDQxICYjMTA7USAyMzA5IDQ0MSAyNjIwIDY3NSAmIzEwO1EgMjkzMSA5MDkgMjkzMSAxMzU2ICYjMTA7USAyOTMxIDE3NjkgMjY0MiAyMDAxICYjMTA7USAyMzUzIDIyMzQgMTgzOCAyMjM0ICYjMTA7TCAxMjk0IDIyMzQgJiMxMDtMIDEyOTQgMjc1MyAmIzEwO0wgMTg2MyAyNzUzICYjMTA7USAyMzI4IDI3NTMgMjU3NSAyOTM5ICYjMTA7USAyODIyIDMxMjUgMjgyMiAzNDc1ICYjMTA7USAyODIyIDM4MzQgMjU2NyA0MDI2ICYjMTA7USAyMzEzIDQyMTkgMTgzOCA0MjE5ICYjMTA7USAxNTc4IDQyMTkgMTI4MSA0MTYyICYjMTA7USA5ODQgNDEwNiA2MjggMzk4OCAmIzEwO0wgNjI4IDQ1NTAgJiMxMDtRIDk4OCA0NjUwIDEzMDIgNDcwMCAmIzEwO1EgMTYxNiA0NzUwIDE4OTQgNDc1MCAmIzEwO1EgMjYxMyA0NzUwIDMwMzEgNDQyMyAmIzEwO1EgMzQ1MCA0MDk3IDM0NTAgMzU0MSAmIzEwO1EgMzQ1MCAzMTUzIDMyMjggMjg4NiAmIzEwO1EgMzAwNiAyNjE5IDI1OTcgMjUxNiAmIzEwO3oiIGlkPSJEZWphVnVTYW5zLTMzIi8+JiN4YTsgICAgICAgPC9kZWZzPiYjeGE7ICAgICAgIDx1c2UgeGxpbms6aHJlZj0iI0RlamFWdVNhbnMtMzMiLz4mI3hhOyAgICAgICA8dXNlIHg9IjYzLjYyMzA0NyIgeGxpbms6aHJlZj0iI0RlamFWdVNhbnMtMzAiLz4mI3hhOyAgICAgICA8dXNlIHg9IjEyNy4yNDYwOTQiIHhsaW5rOmhyZWY9IiNEZWphVnVTYW5zLTMwIi8+JiN4YTsgICAgICA8L2c+JiN4YTsgICAgIDwvZz4mI3hhOyAgICA8L2c+JiN4YTsgICAgPGcgaWQ9Inl0aWNrXzUiPiYjeGE7ICAgICA8ZyBpZD0ibGluZTJkXzYiPiYjeGE7ICAgICAgPHBhdGggc3R5bGU9ImZpbGw6IG5vbmU7IHN0cm9rZTogI2NjY2NjYzsgc3Ryb2tlLWxpbmVjYXA6IHJvdW5kIiBjbGlwLXBhdGg9InVybCgjcGFjZjFhMjVmM2MpIiBkPSJNIDgyLjYxIDQxMi4yNTk4MjEgJiMxMDtMIDIwOC44IDQxMi4yNTk4MjEiLz4mI3hhOyAgICAgPC9nPiYjeGE7ICAgICA8ZyBpZD0idGV4dF82Ij4mI3hhOyAgICAgICYjeGE7ICAgICAgPGcgdHJhbnNmb3JtPSJ0cmFuc2xhdGUoNy4xMjEyNSA0MjQuNzk3MjQzKSBzY2FsZSgwLjMzIC0wLjMzKSIgc3R5bGU9ImZpbGw6ICMyNjI2MjYiPiYjeGE7ICAgICAgIDxkZWZzPiYjeGE7ICAgICAgICA8cGF0aCB0cmFuc2Zvcm09InNjYWxlKDAuMDE1NjI1KSIgZD0iTSAyNDE5IDQxMTYgJiMxMDtMIDgyNSAxNjI1ICYjMTA7TCAyNDE5IDE2MjUgJiMxMDtMIDI0MTkgNDExNiAmIzEwO3omIzEwO00gMjI1MyA0NjY2ICYjMTA7TCAzMDQ3IDQ2NjYgJiMxMDtMIDMwNDcgMTYyNSAmIzEwO0wgMzcxMyAxNjI1ICYjMTA7TCAzNzEzIDExMDAgJiMxMDtMIDMwNDcgMTEwMCAmIzEwO0wgMzA0NyAwICYjMTA7TCAyNDE5IDAgJiMxMDtMIDI0MTkgMTEwMCAmIzEwO0wgMzEzIDExMDAgJiMxMDtMIDMxMyAxNzA5ICYjMTA7TCAyMjUzIDQ2NjYgJiMxMDt6IiBpZD0iRGVqYVZ1U2Fucy0zNCIvPiYjeGE7ICAgICAgIDwvZGVmcz4mI3hhOyAgICAgICA8dXNlIHhsaW5rOmhyZWY9IiNEZWphVnVTYW5zLTM0Ii8+JiN4YTsgICAgICAgPHVzZSB4PSI2My42MjMwNDciIHhsaW5rOmhyZWY9IiNEZWphVnVTYW5zLTMwIi8+JiN4YTsgICAgICAgPHVzZSB4PSIxMjcuMjQ2MDk0IiB4bGluazpocmVmPSIjRGVqYVZ1U2Fucy0zMCIvPiYjeGE7ICAgICAgPC9nPiYjeGE7ICAgICA8L2c+JiN4YTsgICAgPC9nPiYjeGE7ICAgIDxnIGlkPSJ5dGlja182Ij4mI3hhOyAgICAgPGcgaWQ9ImxpbmUyZF83Ij4mI3hhOyAgICAgIDxwYXRoIHN0eWxlPSJmaWxsOiBub25lOyBzdHJva2U6ICNjY2NjY2M7IHN0cm9rZS1saW5lY2FwOiByb3VuZCIgY2xpcC1wYXRoPSJ1cmwoI3BhY2YxYTI1ZjNjKSIgZD0iTSA4Mi42MSAzMTQuMTQzNDc0ICYjMTA7TCAyMDguOCAzMTQuMTQzNDc0Ii8+JiN4YTsgICAgIDwvZz4mI3hhOyAgICAgPGcgaWQ9InRleHRfNyI+JiN4YTsgICAgICAmI3hhOyAgICAgIDxnIHRyYW5zZm9ybT0idHJhbnNsYXRlKDcuMTIxMjUgMzI2LjY4MDg5Nikgc2NhbGUoMC4zMyAtMC4zMykiIHN0eWxlPSJmaWxsOiAjMjYyNjI2Ij4mI3hhOyAgICAgICA8ZGVmcz4mI3hhOyAgICAgICAgPHBhdGggdHJhbnNmb3JtPSJzY2FsZSgwLjAxNTYyNSkiIGQ9Ik0gNjkxIDQ2NjYgJiMxMDtMIDMxNjkgNDY2NiAmIzEwO0wgMzE2OSA0MTM0ICYjMTA7TCAxMjY5IDQxMzQgJiMxMDtMIDEyNjkgMjk5MSAmIzEwO1EgMTQwNiAzMDM4IDE1NDMgMzA2MSAmIzEwO1EgMTY4MSAzMDg0IDE4MTkgMzA4NCAmIzEwO1EgMjYwMCAzMDg0IDMwNTYgMjY1NiAmIzEwO1EgMzUxMyAyMjI4IDM1MTMgMTQ5NyAmIzEwO1EgMzUxMyA3NDQgMzA0NCAzMjYgJiMxMDtRIDI1NzUgLTkxIDE3MjIgLTkxICYjMTA7USAxNDI4IC05MSAxMTIzIC00MSAmIzEwO1EgODE5IDkgNDk0IDEwOSAmIzEwO0wgNDk0IDc0NCAmIzEwO1EgNzc1IDU5MSAxMDc1IDUxNiAmIzEwO1EgMTM3NSA0NDEgMTcwOSA0NDEgJiMxMDtRIDIyNTAgNDQxIDI1NjUgNzI1ICYjMTA7USAyODgxIDEwMDkgMjg4MSAxNDk3ICYjMTA7USAyODgxIDE5ODQgMjU2NSAyMjY4ICYjMTA7USAyMjUwIDI1NTMgMTcwOSAyNTUzICYjMTA7USAxNDU2IDI1NTMgMTIwNCAyNDk3ICYjMTA7USA5NTMgMjQ0MSA2OTEgMjMyMiAmIzEwO0wgNjkxIDQ2NjYgJiMxMDt6IiBpZD0iRGVqYVZ1U2Fucy0zNSIvPiYjeGE7ICAgICAgIDwvZGVmcz4mI3hhOyAgICAgICA8dXNlIHhsaW5rOmhyZWY9IiNEZWphVnVTYW5zLTM1Ii8+JiN4YTsgICAgICAgPHVzZSB4PSI2My42MjMwNDciIHhsaW5rOmhyZWY9IiNEZWphVnVTYW5zLTMwIi8+JiN4YTsgICAgICAgPHVzZSB4PSIxMjcuMjQ2MDk0IiB4bGluazpocmVmPSIjRGVqYVZ1U2Fucy0zMCIvPiYjeGE7ICAgICAgPC9nPiYjeGE7ICAgICA8L2c+JiN4YTsgICAgPC9nPiYjeGE7ICAgIDxnIGlkPSJ5dGlja183Ij4mI3hhOyAgICAgPGcgaWQ9ImxpbmUyZF84Ij4mI3hhOyAgICAgIDxwYXRoIHN0eWxlPSJmaWxsOiBub25lOyBzdHJva2U6ICNjY2NjY2M7IHN0cm9rZS1saW5lY2FwOiByb3VuZCIgY2xpcC1wYXRoPSJ1cmwoI3BhY2YxYTI1ZjNjKSIgZD0iTSA4Mi42MSAyMTYuMDI3MTI4ICYjMTA7TCAyMDguOCAyMTYuMDI3MTI4Ii8+JiN4YTsgICAgIDwvZz4mI3hhOyAgICAgPGcgaWQ9InRleHRfOCI+JiN4YTsgICAgICAmI3hhOyAgICAgIDxnIHRyYW5zZm9ybT0idHJhbnNsYXRlKDcuMTIxMjUgMjI4LjU2NDU1KSBzY2FsZSgwLjMzIC0wLjMzKSIgc3R5bGU9ImZpbGw6ICMyNjI2MjYiPiYjeGE7ICAgICAgIDxkZWZzPiYjeGE7ICAgICAgICA8cGF0aCB0cmFuc2Zvcm09InNjYWxlKDAuMDE1NjI1KSIgZD0iTSAyMTEzIDI1ODQgJiMxMDtRIDE2ODggMjU4NCAxNDM5IDIyOTMgJiMxMDtRIDExOTEgMjAwMyAxMTkxIDE0OTcgJiMxMDtRIDExOTEgOTk0IDE0MzkgNzAxICYjMTA7USAxNjg4IDQwOSAyMTEzIDQwOSAmIzEwO1EgMjUzOCA0MDkgMjc4NiA3MDEgJiMxMDtRIDMwMzQgOTk0IDMwMzQgMTQ5NyAmIzEwO1EgMzAzNCAyMDAzIDI3ODYgMjI5MyAmIzEwO1EgMjUzOCAyNTg0IDIxMTMgMjU4NCAmIzEwO3omIzEwO00gMzM2NiA0NTYzICYjMTA7TCAzMzY2IDM5ODggJiMxMDtRIDMxMjggNDEwMCAyODg2IDQxNTkgJiMxMDtRIDI2NDQgNDIxOSAyNDA2IDQyMTkgJiMxMDtRIDE3ODEgNDIxOSAxNDUxIDM3OTcgJiMxMDtRIDExMjIgMzM3NSAxMDc1IDI1MjIgJiMxMDtRIDEyNTkgMjc5NCAxNTM3IDI5MzkgJiMxMDtRIDE4MTYgMzA4NCAyMTUwIDMwODQgJiMxMDtRIDI4NTMgMzA4NCAzMjYxIDI2NTcgJiMxMDtRIDM2NjkgMjIzMSAzNjY5IDE0OTcgJiMxMDtRIDM2NjkgNzc4IDMyNDQgMzQzICYjMTA7USAyODE5IC05MSAyMTEzIC05MSAmIzEwO1EgMTMwMyAtOTEgODc1IDUyOSAmIzEwO1EgNDQ3IDExNTAgNDQ3IDIzMjggJiMxMDtRIDQ0NyAzNDM0IDk3MiA0MDkyICYjMTA7USAxNDk3IDQ3NTAgMjM4MSA0NzUwICYjMTA7USAyNjE5IDQ3NTAgMjg2MSA0NzAzICYjMTA7USAzMTAzIDQ2NTYgMzM2NiA0NTYzICYjMTA7eiIgaWQ9IkRlamFWdVNhbnMtMzYiLz4mI3hhOyAgICAgICA8L2RlZnM+JiN4YTsgICAgICAgPHVzZSB4bGluazpocmVmPSIjRGVqYVZ1U2Fucy0zNiIvPiYjeGE7ICAgICAgIDx1c2UgeD0iNjMuNjIzMDQ3IiB4bGluazpocmVmPSIjRGVqYVZ1U2Fucy0zMCIvPiYjeGE7ICAgICAgIDx1c2UgeD0iMTI3LjI0NjA5NCIgeGxpbms6aHJlZj0iI0RlamFWdVNhbnMtMzAiLz4mI3hhOyAgICAgIDwvZz4mI3hhOyAgICAgPC9nPiYjeGE7ICAgIDwvZz4mI3hhOyAgICA8ZyBpZD0ieXRpY2tfOCI+JiN4YTsgICAgIDxnIGlkPSJsaW5lMmRfOSI+JiN4YTsgICAgICA8cGF0aCBzdHlsZT0iZmlsbDogbm9uZTsgc3Ryb2tlOiAjY2NjY2NjOyBzdHJva2UtbGluZWNhcDogcm91bmQiIGNsaXAtcGF0aD0idXJsKCNwYWNmMWEyNWYzYykiIGQ9Ik0gODIuNjEgMTE3LjkxMDc4MSAmIzEwO0wgMjA4LjggMTE3LjkxMDc4MSIvPiYjeGE7ICAgICA8L2c+JiN4YTsgICAgIDxnIGlkPSJ0ZXh0XzkiPiYjeGE7ICAgICAgJiN4YTsgICAgICA8ZyB0cmFuc2Zvcm09InRyYW5zbGF0ZSg3LjEyMTI1IDEzMC40NDgyMDMpIHNjYWxlKDAuMzMgLTAuMzMpIiBzdHlsZT0iZmlsbDogIzI2MjYyNiI+JiN4YTsgICAgICAgPGRlZnM+JiN4YTsgICAgICAgIDxwYXRoIHRyYW5zZm9ybT0ic2NhbGUoMC4wMTU2MjUpIiBkPSJNIDUyNSA0NjY2ICYjMTA7TCAzNTI1IDQ2NjYgJiMxMDtMIDM1MjUgNDM5NyAmIzEwO0wgMTgzMSAwICYjMTA7TCAxMTcyIDAgJiMxMDtMIDI3NjYgNDEzNCAmIzEwO0wgNTI1IDQxMzQgJiMxMDtMIDUyNSA0NjY2ICYjMTA7eiIgaWQ9IkRlamFWdVNhbnMtMzciLz4mI3hhOyAgICAgICA8L2RlZnM+JiN4YTsgICAgICAgPHVzZSB4bGluazpocmVmPSIjRGVqYVZ1U2Fucy0zNyIvPiYjeGE7ICAgICAgIDx1c2UgeD0iNjMuNjIzMDQ3IiB4bGluazpocmVmPSIjRGVqYVZ1U2Fucy0zMCIvPiYjeGE7ICAgICAgIDx1c2UgeD0iMTI3LjI0NjA5NCIgeGxpbms6aHJlZj0iI0RlamFWdVNhbnMtMzAiLz4mI3hhOyAgICAgIDwvZz4mI3hhOyAgICAgPC9nPiYjeGE7ICAgIDwvZz4mI3hhOyAgICA8ZyBpZD0ieXRpY2tfOSI+JiN4YTsgICAgIDxnIGlkPSJsaW5lMmRfMTAiPiYjeGE7ICAgICAgPHBhdGggc3R5bGU9ImZpbGw6IG5vbmU7IHN0cm9rZTogI2NjY2NjYzsgc3Ryb2tlLWxpbmVjYXA6IHJvdW5kIiBjbGlwLXBhdGg9InVybCgjcGFjZjFhMjVmM2MpIiBkPSJNIDgyLjYxIDE5Ljc5NDQzNSAmIzEwO0wgMjA4LjggMTkuNzk0NDM1Ii8+JiN4YTsgICAgIDwvZz4mI3hhOyAgICAgPGcgaWQ9InRleHRfMTAiPiYjeGE7ICAgICAgJiN4YTsgICAgICA8ZyB0cmFuc2Zvcm09InRyYW5zbGF0ZSg3LjEyMTI1IDMyLjMzMTg1Nykgc2NhbGUoMC4zMyAtMC4zMykiIHN0eWxlPSJmaWxsOiAjMjYyNjI2Ij4mI3hhOyAgICAgICA8ZGVmcz4mI3hhOyAgICAgICAgPHBhdGggdHJhbnNmb3JtPSJzY2FsZSgwLjAxNTYyNSkiIGQ9Ik0gMjAzNCAyMjE2ICYjMTA7USAxNTg0IDIyMTYgMTMyNiAxOTc1ICYjMTA7USAxMDY5IDE3MzQgMTA2OSAxMzEzICYjMTA7USAxMDY5IDg5MSAxMzI2IDY1MCAmIzEwO1EgMTU4NCA0MDkgMjAzNCA0MDkgJiMxMDtRIDI0ODQgNDA5IDI3NDMgNjUxICYjMTA7USAzMDAzIDg5NCAzMDAzIDEzMTMgJiMxMDtRIDMwMDMgMTczNCAyNzQ1IDE5NzUgJiMxMDtRIDI0ODggMjIxNiAyMDM0IDIyMTYgJiMxMDt6JiMxMDtNIDE0MDMgMjQ4NCAmIzEwO1EgOTk3IDI1ODQgNzcwIDI4NjIgJiMxMDtRIDU0NCAzMTQxIDU0NCAzNTQxICYjMTA7USA1NDQgNDEwMCA5NDIgNDQyNSAmIzEwO1EgMTM0MSA0NzUwIDIwMzQgNDc1MCAmIzEwO1EgMjczMSA0NzUwIDMxMjggNDQyNSAmIzEwO1EgMzUyNSA0MTAwIDM1MjUgMzU0MSAmIzEwO1EgMzUyNSAzMTQxIDMyOTggMjg2MiAmIzEwO1EgMzA3MiAyNTg0IDI2NjkgMjQ4NCAmIzEwO1EgMzEyNSAyMzc4IDMzNzkgMjA2OCAmIzEwO1EgMzYzNCAxNzU5IDM2MzQgMTMxMyAmIzEwO1EgMzYzNCA2MzQgMzIyMCAyNzEgJiMxMDtRIDI4MDYgLTkxIDIwMzQgLTkxICYjMTA7USAxMjYzIC05MSA4NDggMjcxICYjMTA7USA0MzQgNjM0IDQzNCAxMzEzICYjMTA7USA0MzQgMTc1OSA2OTAgMjA2OCAmIzEwO1EgOTQ3IDIzNzggMTQwMyAyNDg0ICYjMTA7eiYjMTA7TSAxMTcyIDM0ODEgJiMxMDtRIDExNzIgMzExOSAxMzk4IDI5MTYgJiMxMDtRIDE2MjUgMjcxMyAyMDM0IDI3MTMgJiMxMDtRIDI0NDEgMjcxMyAyNjcwIDI5MTYgJiMxMDtRIDI5MDAgMzExOSAyOTAwIDM0ODEgJiMxMDtRIDI5MDAgMzg0NCAyNjcwIDQwNDcgJiMxMDtRIDI0NDEgNDI1MCAyMDM0IDQyNTAgJiMxMDtRIDE2MjUgNDI1MCAxMzk4IDQwNDcgJiMxMDtRIDExNzIgMzg0NCAxMTcyIDM0ODEgJiMxMDt6IiBpZD0iRGVqYVZ1U2Fucy0zOCIvPiYjeGE7ICAgICAgIDwvZGVmcz4mI3hhOyAgICAgICA8dXNlIHhsaW5rOmhyZWY9IiNEZWphVnVTYW5zLTM4Ii8+JiN4YTsgICAgICAgPHVzZSB4PSI2My42MjMwNDciIHhsaW5rOmhyZWY9IiNEZWphVnVTYW5zLTMwIi8+JiN4YTsgICAgICAgPHVzZSB4PSIxMjcuMjQ2MDk0IiB4bGluazpocmVmPSIjRGVqYVZ1U2Fucy0zMCIvPiYjeGE7ICAgICAgPC9nPiYjeGE7ICAgICA8L2c+JiN4YTsgICAgPC9nPiYjeGE7ICAgIDxnIGlkPSJ5dGlja18xMCI+JiN4YTsgICAgIDxnIGlkPSJsaW5lMmRfMTEiPiYjeGE7ICAgICAgPHBhdGggc3R5bGU9ImZpbGw6IG5vbmU7IHN0cm9rZTogI2NjY2NjYzsgc3Ryb2tlLXdpZHRoOiAwLjU7IHN0cm9rZS1saW5lY2FwOiByb3VuZCIgY2xpcC1wYXRoPSJ1cmwoI3BhY2YxYTI1ZjNjKSIgZD0iTSA4Mi42MSA4MjQuMzQ4NDc2ICYjMTA7TCAyMDguOCA4MjQuMzQ4NDc2Ii8+JiN4YTsgICAgIDwvZz4mI3hhOyAgICA8L2c+JiN4YTsgICAgPGcgaWQ9Inl0aWNrXzExIj4mI3hhOyAgICAgPGcgaWQ9ImxpbmUyZF8xMiI+JiN4YTsgICAgICA8cGF0aCBzdHlsZT0iZmlsbDogbm9uZTsgc3Ryb2tlOiAjY2NjY2NjOyBzdHJva2Utd2lkdGg6IDAuNTsgc3Ryb2tlLWxpbmVjYXA6IHJvdW5kIiBjbGlwLXBhdGg9InVybCgjcGFjZjFhMjVmM2MpIiBkPSJNIDgyLjYxIDc4NS4xMDE5MzcgJiMxMDtMIDIwOC44IDc4NS4xMDE5MzciLz4mI3hhOyAgICAgPC9nPiYjeGE7ICAgIDwvZz4mI3hhOyAgICA8ZyBpZD0ieXRpY2tfMTIiPiYjeGE7ICAgICA8ZyBpZD0ibGluZTJkXzEzIj4mI3hhOyAgICAgIDxwYXRoIHN0eWxlPSJmaWxsOiBub25lOyBzdHJva2U6ICNjY2NjY2M7IHN0cm9rZS13aWR0aDogMC41OyBzdHJva2UtbGluZWNhcDogcm91bmQiIGNsaXAtcGF0aD0idXJsKCNwYWNmMWEyNWYzYykiIGQ9Ik0gODIuNjEgNzY1LjQ3ODY2OCAmIzEwO0wgMjA4LjggNzY1LjQ3ODY2OCIvPiYjeGE7ICAgICA8L2c+JiN4YTsgICAgPC9nPiYjeGE7ICAgIDxnIGlkPSJ5dGlja18xMyI+JiN4YTsgICAgIDxnIGlkPSJsaW5lMmRfMTQiPiYjeGE7ICAgICAgPHBhdGggc3R5bGU9ImZpbGw6IG5vbmU7IHN0cm9rZTogI2NjY2NjYzsgc3Ryb2tlLXdpZHRoOiAwLjU7IHN0cm9rZS1saW5lY2FwOiByb3VuZCIgY2xpcC1wYXRoPSJ1cmwoI3BhY2YxYTI1ZjNjKSIgZD0iTSA4Mi42MSA3NDUuODU1Mzk5ICYjMTA7TCAyMDguOCA3NDUuODU1Mzk5Ii8+JiN4YTsgICAgIDwvZz4mI3hhOyAgICA8L2c+JiN4YTsgICAgPGcgaWQ9Inl0aWNrXzE0Ij4mI3hhOyAgICAgPGcgaWQ9ImxpbmUyZF8xNSI+JiN4YTsgICAgICA8cGF0aCBzdHlsZT0iZmlsbDogbm9uZTsgc3Ryb2tlOiAjY2NjY2NjOyBzdHJva2Utd2lkdGg6IDAuNTsgc3Ryb2tlLWxpbmVjYXA6IHJvdW5kIiBjbGlwLXBhdGg9InVybCgjcGFjZjFhMjVmM2MpIiBkPSJNIDgyLjYxIDcyNi4yMzIxMjkgJiMxMDtMIDIwOC44IDcyNi4yMzIxMjkiLz4mI3hhOyAgICAgPC9nPiYjeGE7ICAgIDwvZz4mI3hhOyAgICA8ZyBpZD0ieXRpY2tfMTUiPiYjeGE7ICAgICA8ZyBpZD0ibGluZTJkXzE2Ij4mI3hhOyAgICAgIDxwYXRoIHN0eWxlPSJmaWxsOiBub25lOyBzdHJva2U6ICNjY2NjY2M7IHN0cm9rZS13aWR0aDogMC41OyBzdHJva2UtbGluZWNhcDogcm91bmQiIGNsaXAtcGF0aD0idXJsKCNwYWNmMWEyNWYzYykiIGQ9Ik0gODIuNjEgNjg2Ljk4NTU5MSAmIzEwO0wgMjA4LjggNjg2Ljk4NTU5MSIvPiYjeGE7ICAgICA8L2c+JiN4YTsgICAgPC9nPiYjeGE7ICAgIDxnIGlkPSJ5dGlja18xNiI+JiN4YTsgICAgIDxnIGlkPSJsaW5lMmRfMTciPiYjeGE7ICAgICAgPHBhdGggc3R5bGU9ImZpbGw6IG5vbmU7IHN0cm9rZTogI2NjY2NjYzsgc3Ryb2tlLXdpZHRoOiAwLjU7IHN0cm9rZS1saW5lY2FwOiByb3VuZCIgY2xpcC1wYXRoPSJ1cmwoI3BhY2YxYTI1ZjNjKSIgZD0iTSA4Mi42MSA2NjcuMzYyMzIyICYjMTA7TCAyMDguOCA2NjcuMzYyMzIyIi8+JiN4YTsgICAgIDwvZz4mI3hhOyAgICA8L2c+JiN4YTsgICAgPGcgaWQ9Inl0aWNrXzE3Ij4mI3hhOyAgICAgPGcgaWQ9ImxpbmUyZF8xOCI+JiN4YTsgICAgICA8cGF0aCBzdHlsZT0iZmlsbDogbm9uZTsgc3Ryb2tlOiAjY2NjY2NjOyBzdHJva2Utd2lkdGg6IDAuNTsgc3Ryb2tlLWxpbmVjYXA6IHJvdW5kIiBjbGlwLXBhdGg9InVybCgjcGFjZjFhMjVmM2MpIiBkPSJNIDgyLjYxIDY0Ny43MzkwNTIgJiMxMDtMIDIwOC44IDY0Ny43MzkwNTIiLz4mI3hhOyAgICAgPC9nPiYjeGE7ICAgIDwvZz4mI3hhOyAgICA8ZyBpZD0ieXRpY2tfMTgiPiYjeGE7ICAgICA8ZyBpZD0ibGluZTJkXzE5Ij4mI3hhOyAgICAgIDxwYXRoIHN0eWxlPSJmaWxsOiBub25lOyBzdHJva2U6ICNjY2NjY2M7IHN0cm9rZS13aWR0aDogMC41OyBzdHJva2UtbGluZWNhcDogcm91bmQiIGNsaXAtcGF0aD0idXJsKCNwYWNmMWEyNWYzYykiIGQ9Ik0gODIuNjEgNjI4LjExNTc4MyAmIzEwO0wgMjA4LjggNjI4LjExNTc4MyIvPiYjeGE7ICAgICA8L2c+JiN4YTsgICAgPC9nPiYjeGE7ICAgIDxnIGlkPSJ5dGlja18xOSI+JiN4YTsgICAgIDxnIGlkPSJsaW5lMmRfMjAiPiYjeGE7ICAgICAgPHBhdGggc3R5bGU9ImZpbGw6IG5vbmU7IHN0cm9rZTogI2NjY2NjYzsgc3Ryb2tlLXdpZHRoOiAwLjU7IHN0cm9rZS1saW5lY2FwOiByb3VuZCIgY2xpcC1wYXRoPSJ1cmwoI3BhY2YxYTI1ZjNjKSIgZD0iTSA4Mi42MSA1ODguODY5MjQ0ICYjMTA7TCAyMDguOCA1ODguODY5MjQ0Ii8+JiN4YTsgICAgIDwvZz4mI3hhOyAgICA8L2c+JiN4YTsgICAgPGcgaWQ9Inl0aWNrXzIwIj4mI3hhOyAgICAgPGcgaWQ9ImxpbmUyZF8yMSI+JiN4YTsgICAgICA8cGF0aCBzdHlsZT0iZmlsbDogbm9uZTsgc3Ryb2tlOiAjY2NjY2NjOyBzdHJva2Utd2lkdGg6IDAuNTsgc3Ryb2tlLWxpbmVjYXA6IHJvdW5kIiBjbGlwLXBhdGg9InVybCgjcGFjZjFhMjVmM2MpIiBkPSJNIDgyLjYxIDU2OS4yNDU5NzUgJiMxMDtMIDIwOC44IDU2OS4yNDU5NzUiLz4mI3hhOyAgICAgPC9nPiYjeGE7ICAgIDwvZz4mI3hhOyAgICA8ZyBpZD0ieXRpY2tfMjEiPiYjeGE7ICAgICA8ZyBpZD0ibGluZTJkXzIyIj4mI3hhOyAgICAgIDxwYXRoIHN0eWxlPSJmaWxsOiBub25lOyBzdHJva2U6ICNjY2NjY2M7IHN0cm9rZS13aWR0aDogMC41OyBzdHJva2UtbGluZWNhcDogcm91bmQiIGNsaXAtcGF0aD0idXJsKCNwYWNmMWEyNWYzYykiIGQ9Ik0gODIuNjEgNTQ5LjYyMjcwNiAmIzEwO0wgMjA4LjggNTQ5LjYyMjcwNiIvPiYjeGE7ICAgICA8L2c+JiN4YTsgICAgPC9nPiYjeGE7ICAgIDxnIGlkPSJ5dGlja18yMiI+JiN4YTsgICAgIDxnIGlkPSJsaW5lMmRfMjMiPiYjeGE7ICAgICAgPHBhdGggc3R5bGU9ImZpbGw6IG5vbmU7IHN0cm9rZTogI2NjY2NjYzsgc3Ryb2tlLXdpZHRoOiAwLjU7IHN0cm9rZS1saW5lY2FwOiByb3VuZCIgY2xpcC1wYXRoPSJ1cmwoI3BhY2YxYTI1ZjNjKSIgZD0iTSA4Mi42MSA1MjkuOTk5NDM3ICYjMTA7TCAyMDguOCA1MjkuOTk5NDM3Ii8+JiN4YTsgICAgIDwvZz4mI3hhOyAgICA8L2c+JiN4YTsgICAgPGcgaWQ9Inl0aWNrXzIzIj4mI3hhOyAgICAgPGcgaWQ9ImxpbmUyZF8yNCI+JiN4YTsgICAgICA8cGF0aCBzdHlsZT0iZmlsbDogbm9uZTsgc3Ryb2tlOiAjY2NjY2NjOyBzdHJva2Utd2lkdGg6IDAuNTsgc3Ryb2tlLWxpbmVjYXA6IHJvdW5kIiBjbGlwLXBhdGg9InVybCgjcGFjZjFhMjVmM2MpIiBkPSJNIDgyLjYxIDQ5MC43NTI4OTggJiMxMDtMIDIwOC44IDQ5MC43NTI4OTgiLz4mI3hhOyAgICAgPC9nPiYjeGE7ICAgIDwvZz4mI3hhOyAgICA8ZyBpZD0ieXRpY2tfMjQiPiYjeGE7ICAgICA8ZyBpZD0ibGluZTJkXzI1Ij4mI3hhOyAgICAgIDxwYXRoIHN0eWxlPSJmaWxsOiBub25lOyBzdHJva2U6ICNjY2NjY2M7IHN0cm9rZS13aWR0aDogMC41OyBzdHJva2UtbGluZWNhcDogcm91bmQiIGNsaXAtcGF0aD0idXJsKCNwYWNmMWEyNWYzYykiIGQ9Ik0gODIuNjEgNDcxLjEyOTYyOSAmIzEwO0wgMjA4LjggNDcxLjEyOTYyOSIvPiYjeGE7ICAgICA8L2c+JiN4YTsgICAgPC9nPiYjeGE7ICAgIDxnIGlkPSJ5dGlja18yNSI+JiN4YTsgICAgIDxnIGlkPSJsaW5lMmRfMjYiPiYjeGE7ICAgICAgPHBhdGggc3R5bGU9ImZpbGw6IG5vbmU7IHN0cm9rZTogI2NjY2NjYzsgc3Ryb2tlLXdpZHRoOiAwLjU7IHN0cm9rZS1saW5lY2FwOiByb3VuZCIgY2xpcC1wYXRoPSJ1cmwoI3BhY2YxYTI1ZjNjKSIgZD0iTSA4Mi42MSA0NTEuNTA2MzU5ICYjMTA7TCAyMDguOCA0NTEuNTA2MzU5Ii8+JiN4YTsgICAgIDwvZz4mI3hhOyAgICA8L2c+JiN4YTsgICAgPGcgaWQ9Inl0aWNrXzI2Ij4mI3hhOyAgICAgPGcgaWQ9ImxpbmUyZF8yNyI+JiN4YTsgICAgICA8cGF0aCBzdHlsZT0iZmlsbDogbm9uZTsgc3Ryb2tlOiAjY2NjY2NjOyBzdHJva2Utd2lkdGg6IDAuNTsgc3Ryb2tlLWxpbmVjYXA6IHJvdW5kIiBjbGlwLXBhdGg9InVybCgjcGFjZjFhMjVmM2MpIiBkPSJNIDgyLjYxIDQzMS44ODMwOSAmIzEwO0wgMjA4LjggNDMxLjg4MzA5Ii8+JiN4YTsgICAgIDwvZz4mI3hhOyAgICA8L2c+JiN4YTsgICAgPGcgaWQ9Inl0aWNrXzI3Ij4mI3hhOyAgICAgPGcgaWQ9ImxpbmUyZF8yOCI+JiN4YTsgICAgICA8cGF0aCBzdHlsZT0iZmlsbDogbm9uZTsgc3Ryb2tlOiAjY2NjY2NjOyBzdHJva2Utd2lkdGg6IDAuNTsgc3Ryb2tlLWxpbmVjYXA6IHJvdW5kIiBjbGlwLXBhdGg9InVybCgjcGFjZjFhMjVmM2MpIiBkPSJNIDgyLjYxIDM5Mi42MzY1NTEgJiMxMDtMIDIwOC44IDM5Mi42MzY1NTEiLz4mI3hhOyAgICAgPC9nPiYjeGE7ICAgIDwvZz4mI3hhOyAgICA8ZyBpZD0ieXRpY2tfMjgiPiYjeGE7ICAgICA8ZyBpZD0ibGluZTJkXzI5Ij4mI3hhOyAgICAgIDxwYXRoIHN0eWxlPSJmaWxsOiBub25lOyBzdHJva2U6ICNjY2NjY2M7IHN0cm9rZS13aWR0aDogMC41OyBzdHJva2UtbGluZWNhcDogcm91bmQiIGNsaXAtcGF0aD0idXJsKCNwYWNmMWEyNWYzYykiIGQ9Ik0gODIuNjEgMzczLjAxMzI4MiAmIzEwO0wgMjA4LjggMzczLjAxMzI4MiIvPiYjeGE7ICAgICA8L2c+JiN4YTsgICAgPC9nPiYjeGE7ICAgIDxnIGlkPSJ5dGlja18yOSI+JiN4YTsgICAgIDxnIGlkPSJsaW5lMmRfMzAiPiYjeGE7ICAgICAgPHBhdGggc3R5bGU9ImZpbGw6IG5vbmU7IHN0cm9rZTogI2NjY2NjYzsgc3Ryb2tlLXdpZHRoOiAwLjU7IHN0cm9rZS1saW5lY2FwOiByb3VuZCIgY2xpcC1wYXRoPSJ1cmwoI3BhY2YxYTI1ZjNjKSIgZD0iTSA4Mi42MSAzNTMuMzkwMDEzICYjMTA7TCAyMDguOCAzNTMuMzkwMDEzIi8+JiN4YTsgICAgIDwvZz4mI3hhOyAgICA8L2c+JiN4YTsgICAgPGcgaWQ9Inl0aWNrXzMwIj4mI3hhOyAgICAgPGcgaWQ9ImxpbmUyZF8zMSI+JiN4YTsgICAgICA8cGF0aCBzdHlsZT0iZmlsbDogbm9uZTsgc3Ryb2tlOiAjY2NjY2NjOyBzdHJva2Utd2lkdGg6IDAuNTsgc3Ryb2tlLWxpbmVjYXA6IHJvdW5kIiBjbGlwLXBhdGg9InVybCgjcGFjZjFhMjVmM2MpIiBkPSJNIDgyLjYxIDMzMy43NjY3NDQgJiMxMDtMIDIwOC44IDMzMy43NjY3NDQiLz4mI3hhOyAgICAgPC9nPiYjeGE7ICAgIDwvZz4mI3hhOyAgICA8ZyBpZD0ieXRpY2tfMzEiPiYjeGE7ICAgICA8ZyBpZD0ibGluZTJkXzMyIj4mI3hhOyAgICAgIDxwYXRoIHN0eWxlPSJmaWxsOiBub25lOyBzdHJva2U6ICNjY2NjY2M7IHN0cm9rZS13aWR0aDogMC41OyBzdHJva2UtbGluZWNhcDogcm91bmQiIGNsaXAtcGF0aD0idXJsKCNwYWNmMWEyNWYzYykiIGQ9Ik0gODIuNjEgMjk0LjUyMDIwNSAmIzEwO0wgMjA4LjggMjk0LjUyMDIwNSIvPiYjeGE7ICAgICA8L2c+JiN4YTsgICAgPC9nPiYjeGE7ICAgIDxnIGlkPSJ5dGlja18zMiI+JiN4YTsgICAgIDxnIGlkPSJsaW5lMmRfMzMiPiYjeGE7ICAgICAgPHBhdGggc3R5bGU9ImZpbGw6IG5vbmU7IHN0cm9rZTogI2NjY2NjYzsgc3Ryb2tlLXdpZHRoOiAwLjU7IHN0cm9rZS1saW5lY2FwOiByb3VuZCIgY2xpcC1wYXRoPSJ1cmwoI3BhY2YxYTI1ZjNjKSIgZD0iTSA4Mi42MSAyNzQuODk2OTM2ICYjMTA7TCAyMDguOCAyNzQuODk2OTM2Ii8+JiN4YTsgICAgIDwvZz4mI3hhOyAgICA8L2c+JiN4YTsgICAgPGcgaWQ9Inl0aWNrXzMzIj4mI3hhOyAgICAgPGcgaWQ9ImxpbmUyZF8zNCI+JiN4YTsgICAgICA8cGF0aCBzdHlsZT0iZmlsbDogbm9uZTsgc3Ryb2tlOiAjY2NjY2NjOyBzdHJva2Utd2lkdGg6IDAuNTsgc3Ryb2tlLWxpbmVjYXA6IHJvdW5kIiBjbGlwLXBhdGg9InVybCgjcGFjZjFhMjVmM2MpIiBkPSJNIDgyLjYxIDI1NS4yNzM2NjYgJiMxMDtMIDIwOC44IDI1NS4yNzM2NjYiLz4mI3hhOyAgICAgPC9nPiYjeGE7ICAgIDwvZz4mI3hhOyAgICA8ZyBpZD0ieXRpY2tfMzQiPiYjeGE7ICAgICA8ZyBpZD0ibGluZTJkXzM1Ij4mI3hhOyAgICAgIDxwYXRoIHN0eWxlPSJmaWxsOiBub25lOyBzdHJva2U6ICNjY2NjY2M7IHN0cm9rZS13aWR0aDogMC41OyBzdHJva2UtbGluZWNhcDogcm91bmQiIGNsaXAtcGF0aD0idXJsKCNwYWNmMWEyNWYzYykiIGQ9Ik0gODIuNjEgMjM1LjY1MDM5NyAmIzEwO0wgMjA4LjggMjM1LjY1MDM5NyIvPiYjeGE7ICAgICA8L2c+JiN4YTsgICAgPC9nPiYjeGE7ICAgIDxnIGlkPSJ5dGlja18zNSI+JiN4YTsgICAgIDxnIGlkPSJsaW5lMmRfMzYiPiYjeGE7ICAgICAgPHBhdGggc3R5bGU9ImZpbGw6IG5vbmU7IHN0cm9rZTogI2NjY2NjYzsgc3Ryb2tlLXdpZHRoOiAwLjU7IHN0cm9rZS1saW5lY2FwOiByb3VuZCIgY2xpcC1wYXRoPSJ1cmwoI3BhY2YxYTI1ZjNjKSIgZD0iTSA4Mi42MSAxOTYuNDAzODU5ICYjMTA7TCAyMDguOCAxOTYuNDAzODU5Ii8+JiN4YTsgICAgIDwvZz4mI3hhOyAgICA8L2c+JiN4YTsgICAgPGcgaWQ9Inl0aWNrXzM2Ij4mI3hhOyAgICAgPGcgaWQ9ImxpbmUyZF8zNyI+JiN4YTsgICAgICA8cGF0aCBzdHlsZT0iZmlsbDogbm9uZTsgc3Ryb2tlOiAjY2NjY2NjOyBzdHJva2Utd2lkdGg6IDAuNTsgc3Ryb2tlLWxpbmVjYXA6IHJvdW5kIiBjbGlwLXBhdGg9InVybCgjcGFjZjFhMjVmM2MpIiBkPSJNIDgyLjYxIDE3Ni43ODA1ODkgJiMxMDtMIDIwOC44IDE3Ni43ODA1ODkiLz4mI3hhOyAgICAgPC9nPiYjeGE7ICAgIDwvZz4mI3hhOyAgICA8ZyBpZD0ieXRpY2tfMzciPiYjeGE7ICAgICA8ZyBpZD0ibGluZTJkXzM4Ij4mI3hhOyAgICAgIDxwYXRoIHN0eWxlPSJmaWxsOiBub25lOyBzdHJva2U6ICNjY2NjY2M7IHN0cm9rZS13aWR0aDogMC41OyBzdHJva2UtbGluZWNhcDogcm91bmQiIGNsaXAtcGF0aD0idXJsKCNwYWNmMWEyNWYzYykiIGQ9Ik0gODIuNjEgMTU3LjE1NzMyICYjMTA7TCAyMDguOCAxNTcuMTU3MzIiLz4mI3hhOyAgICAgPC9nPiYjeGE7ICAgIDwvZz4mI3hhOyAgICA8ZyBpZD0ieXRpY2tfMzgiPiYjeGE7ICAgICA8ZyBpZD0ibGluZTJkXzM5Ij4mI3hhOyAgICAgIDxwYXRoIHN0eWxlPSJmaWxsOiBub25lOyBzdHJva2U6ICNjY2NjY2M7IHN0cm9rZS13aWR0aDogMC41OyBzdHJva2UtbGluZWNhcDogcm91bmQiIGNsaXAtcGF0aD0idXJsKCNwYWNmMWEyNWYzYykiIGQ9Ik0gODIuNjEgMTM3LjUzNDA1MSAmIzEwO0wgMjA4LjggMTM3LjUzNDA1MSIvPiYjeGE7ICAgICA8L2c+JiN4YTsgICAgPC9nPiYjeGE7ICAgIDxnIGlkPSJ5dGlja18zOSI+JiN4YTsgICAgIDxnIGlkPSJsaW5lMmRfNDAiPiYjeGE7ICAgICAgPHBhdGggc3R5bGU9ImZpbGw6IG5vbmU7IHN0cm9rZTogI2NjY2NjYzsgc3Ryb2tlLXdpZHRoOiAwLjU7IHN0cm9rZS1saW5lY2FwOiByb3VuZCIgY2xpcC1wYXRoPSJ1cmwoI3BhY2YxYTI1ZjNjKSIgZD0iTSA4Mi42MSA5OC4yODc1MTIgJiMxMDtMIDIwOC44IDk4LjI4NzUxMiIvPiYjeGE7ICAgICA8L2c+JiN4YTsgICAgPC9nPiYjeGE7ICAgIDxnIGlkPSJ5dGlja180MCI+JiN4YTsgICAgIDxnIGlkPSJsaW5lMmRfNDEiPiYjeGE7ICAgICAgPHBhdGggc3R5bGU9ImZpbGw6IG5vbmU7IHN0cm9rZTogI2NjY2NjYzsgc3Ryb2tlLXdpZHRoOiAwLjU7IHN0cm9rZS1saW5lY2FwOiByb3VuZCIgY2xpcC1wYXRoPSJ1cmwoI3BhY2YxYTI1ZjNjKSIgZD0iTSA4Mi42MSA3OC42NjQyNDMgJiMxMDtMIDIwOC44IDc4LjY2NDI0MyIvPiYjeGE7ICAgICA8L2c+JiN4YTsgICAgPC9nPiYjeGE7ICAgIDxnIGlkPSJ5dGlja180MSI+JiN4YTsgICAgIDxnIGlkPSJsaW5lMmRfNDIiPiYjeGE7ICAgICAgPHBhdGggc3R5bGU9ImZpbGw6IG5vbmU7IHN0cm9rZTogI2NjY2NjYzsgc3Ryb2tlLXdpZHRoOiAwLjU7IHN0cm9rZS1saW5lY2FwOiByb3VuZCIgY2xpcC1wYXRoPSJ1cmwoI3BhY2YxYTI1ZjNjKSIgZD0iTSA4Mi42MSA1OS4wNDA5NzMgJiMxMDtMIDIwOC44IDU5LjA0MDk3MyIvPiYjeGE7ICAgICA8L2c+JiN4YTsgICAgPC9nPiYjeGE7ICAgIDxnIGlkPSJ5dGlja180MiI+JiN4YTsgICAgIDxnIGlkPSJsaW5lMmRfNDMiPiYjeGE7ICAgICAgPHBhdGggc3R5bGU9ImZpbGw6IG5vbmU7IHN0cm9rZTogI2NjY2NjYzsgc3Ryb2tlLXdpZHRoOiAwLjU7IHN0cm9rZS1saW5lY2FwOiByb3VuZCIgY2xpcC1wYXRoPSJ1cmwoI3BhY2YxYTI1ZjNjKSIgZD0iTSA4Mi42MSAzOS40MTc3MDQgJiMxMDtMIDIwOC44IDM5LjQxNzcwNCIvPiYjeGE7ICAgICA8L2c+JiN4YTsgICAgPC9nPiYjeGE7ICAgPC9nPiYjeGE7ICAgPGcgaWQ9IlBhdGhDb2xsZWN0aW9uXzEiLz4mI3hhOyAgIDxnIGlkPSJwYXRjaF8zIj4mI3hhOyAgICA8cGF0aCBzdHlsZT0iZmlsbDogbm9uZTsgc3Ryb2tlOiAjY2NjY2NjOyBzdHJva2Utd2lkdGg6IDEuODc1OyBzdHJva2UtbGluZWpvaW46IG1pdGVyOyBzdHJva2UtbGluZWNhcDogc3F1YXJlIiBkPSJNIDgyLjYxIDg0Mi41ICYjMTA7TCA4Mi42MSAxMS40NTQ1NDUiLz4mI3hhOyAgIDwvZz4mI3hhOyAgIDxnIGlkPSJwYXRjaF80Ij4mI3hhOyAgICA8cGF0aCBzdHlsZT0iZmlsbDogbm9uZTsgc3Ryb2tlOiAjY2NjY2NjOyBzdHJva2Utd2lkdGg6IDEuODc1OyBzdHJva2UtbGluZWpvaW46IG1pdGVyOyBzdHJva2UtbGluZWNhcDogc3F1YXJlIiBkPSJNIDIwOC44IDg0Mi41ICYjMTA7TCAyMDguOCAxMS40NTQ1NDUiLz4mI3hhOyAgIDwvZz4mI3hhOyAgIDxnIGlkPSJwYXRjaF81Ij4mI3hhOyAgICA8cGF0aCBzdHlsZT0iZmlsbDogbm9uZTsgc3Ryb2tlOiAjY2NjY2NjOyBzdHJva2Utd2lkdGg6IDEuODc1OyBzdHJva2UtbGluZWpvaW46IG1pdGVyOyBzdHJva2UtbGluZWNhcDogc3F1YXJlIiBkPSJNIDgyLjYxIDg0Mi41ICYjMTA7TCAyMDguOCA4NDIuNSIvPiYjeGE7ICAgPC9nPiYjeGE7ICAgPGcgaWQ9InBhdGNoXzYiPiYjeGE7ICAgIDxwYXRoIHN0eWxlPSJmaWxsOiBub25lOyBzdHJva2U6ICNjY2NjY2M7IHN0cm9rZS13aWR0aDogMS44NzU7IHN0cm9rZS1saW5lam9pbjogbWl0ZXI7IHN0cm9rZS1saW5lY2FwOiBzcXVhcmUiIGQ9Ik0gODIuNjEgMTEuNDU0NTQ1ICYjMTA7TCAyMDguOCAxMS40NTQ1NDUiLz4mI3hhOyAgIDwvZz4mI3hhOyAgIDxnIGlkPSJQYXRoQ29sbGVjdGlvbl8yIj4mI3hhOyAgICA8ZGVmcz4mI3hhOyAgICAgPHBhdGggZD0iTSAwIDQgJiMxMDtDIDEuMDYwODEyIDQgMi4wNzgzMTkgMy41Nzg1MzUgMi44Mjg0MjcgMi44Mjg0MjcgJiMxMDtDIDMuNTc4NTM1IDIuMDc4MzE5IDQgMS4wNjA4MTIgNCAtMCAmIzEwO0MgNCAtMS4wNjA4MTIgMy41Nzg1MzUgLTIuMDc4MzE5IDIuODI4NDI3IC0yLjgyODQyNyAmIzEwO0MgMi4wNzgzMTkgLTMuNTc4NTM1IDEuMDYwODEyIC00IDAgLTQgJiMxMDtDIC0xLjA2MDgxMiAtNCAtMi4wNzgzMTkgLTMuNTc4NTM1IC0yLjgyODQyNyAtMi44Mjg0MjcgJiMxMDtDIC0zLjU3ODUzNSAtMi4wNzgzMTkgLTQgLTEuMDYwODEyIC00IDAgJiMxMDtDIC00IDEuMDYwODEyIC0zLjU3ODUzNSAyLjA3ODMxOSAtMi44Mjg0MjcgMi44Mjg0MjcgJiMxMDtDIC0yLjA3ODMxOSAzLjU3ODUzNSAtMS4wNjA4MTIgNCAwIDQgJiMxMDt6IiBpZD0iQzBfMF82MTZjMWMwODc3Ii8+JiN4YTsgICAgPC9kZWZzPiYjeGE7ICAgIDxnIGNsaXAtcGF0aD0idXJsKCNwYWNmMWEyNWYzYykiPiYjeGE7ICAgICA8dXNlIHN0eWxlPSJmaWxsOiAjZTM3MjIyOyBzdHJva2U6ICM0ZTRlNGUiIHk9IjgwNC43MjUyMDciIHg9IjEzNC40NzU0OSIgeGxpbms6aHJlZj0iI0MwXzBfNjE2YzFjMDg3NyIvPiYjeGE7ICAgIDwvZz4mI3hhOyAgICA8ZyBjbGlwLXBhdGg9InVybCgjcGFjZjFhMjVmM2MpIj4mI3hhOyAgICAgPHVzZSBzdHlsZT0iZmlsbDogI2UzNzIyMjsgc3Ryb2tlOiAjNGU0ZTRlIiB5PSI4MDQuNzI1MjA3IiB4PSIxMjkuNzgzMDc3IiB4bGluazpocmVmPSIjQzBfMF82MTZjMWMwODc3Ii8+JiN4YTsgICAgPC9nPiYjeGE7ICAgIDxnIGNsaXAtcGF0aD0idXJsKCNwYWNmMWEyNWYzYykiPiYjeGE7ICAgICA8dXNlIHN0eWxlPSJmaWxsOiAjZTM3MjIyOyBzdHJva2U6ICM0ZTRlNGUiIHk9IjgwNC43MjUyMDciIHg9IjExOS43MTYiIHhsaW5rOmhyZWY9IiNDMF8wXzYxNmMxYzA4NzciLz4mI3hhOyAgICA8L2c+JiN4YTsgICAgPGcgY2xpcC1wYXRoPSJ1cmwoI3BhY2YxYTI1ZjNjKSI+JiN4YTsgICAgIDx1c2Ugc3R5bGU9ImZpbGw6ICNlMzcyMjI7IHN0cm9rZTogIzRlNGU0ZSIgeT0iODA0LjcyNTIwNyIgeD0iMTE1Ljc1NTM4NyIgeGxpbms6aHJlZj0iI0MwXzBfNjE2YzFjMDg3NyIvPiYjeGE7ICAgIDwvZz4mI3hhOyAgICA8ZyBjbGlwLXBhdGg9InVybCgjcGFjZjFhMjVmM2MpIj4mI3hhOyAgICAgPHVzZSBzdHlsZT0iZmlsbDogI2UzNzIyMjsgc3Ryb2tlOiAjNGU0ZTRlIiB5PSI4MDQuNzI1MjA3IiB4PSIxMzMuMzY4NjMzIiB4bGluazpocmVmPSIjQzBfMF82MTZjMWMwODc3Ii8+JiN4YTsgICAgPC9nPiYjeGE7ICAgIDxnIGNsaXAtcGF0aD0idXJsKCNwYWNmMWEyNWYzYykiPiYjeGE7ICAgICA8dXNlIHN0eWxlPSJmaWxsOiAjZTM3MjIyOyBzdHJva2U6ICM0ZTRlNGUiIHk9IjgwNC43MjUyMDciIHg9IjE1My41MjIyODgiIHhsaW5rOmhyZWY9IiNDMF8wXzYxNmMxYzA4NzciLz4mI3hhOyAgICA8L2c+JiN4YTsgICAgPGcgY2xpcC1wYXRoPSJ1cmwoI3BhY2YxYTI1ZjNjKSI+JiN4YTsgICAgIDx1c2Ugc3R5bGU9ImZpbGw6ICNlMzcyMjI7IHN0cm9rZTogIzRlNGU0ZSIgeT0iODA0LjcyNTIwNyIgeD0iMTU0LjEzNDYwNyIgeGxpbms6aHJlZj0iI0MwXzBfNjE2YzFjMDg3NyIvPiYjeGE7ICAgIDwvZz4mI3hhOyAgICA8ZyBjbGlwLXBhdGg9InVybCgjcGFjZjFhMjVmM2MpIj4mI3hhOyAgICAgPHVzZSBzdHlsZT0iZmlsbDogI2UzNzIyMjsgc3Ryb2tlOiAjNGU0ZTRlIiB5PSI4MDQuNzI1MjA3IiB4PSIxNTcuNzg5ODEiIHhsaW5rOmhyZWY9IiNDMF8wXzYxNmMxYzA4NzciLz4mI3hhOyAgICA8L2c+JiN4YTsgICAgPGcgY2xpcC1wYXRoPSJ1cmwoI3BhY2YxYTI1ZjNjKSI+JiN4YTsgICAgIDx1c2Ugc3R5bGU9ImZpbGw6ICNlMzcyMjI7IHN0cm9rZTogIzRlNGU0ZSIgeT0iODA0LjcyNTIwNyIgeD0iMTIzLjYzMzQ0OSIgeGxpbms6aHJlZj0iI0MwXzBfNjE2YzFjMDg3NyIvPiYjeGE7ICAgIDwvZz4mI3hhOyAgICA8ZyBjbGlwLXBhdGg9InVybCgjcGFjZjFhMjVmM2MpIj4mI3hhOyAgICAgPHVzZSBzdHlsZT0iZmlsbDogI2UzNzIyMjsgc3Ryb2tlOiAjNGU0ZTRlIiB5PSI4MDQuNzI1MjA3IiB4PSIxMTguMTUxMzc3IiB4bGluazpocmVmPSIjQzBfMF82MTZjMWMwODc3Ii8+JiN4YTsgICAgPC9nPiYjeGE7ICAgIDxnIGNsaXAtcGF0aD0idXJsKCNwYWNmMWEyNWYzYykiPiYjeGE7ICAgICA8dXNlIHN0eWxlPSJmaWxsOiAjZTM3MjIyOyBzdHJva2U6ICM0ZTRlNGUiIHk9IjgwNC43MjUyMDciIHg9IjEzNS45OTUwMTkiIHhsaW5rOmhyZWY9IiNDMF8wXzYxNmMxYzA4NzciLz4mI3hhOyAgICA8L2c+JiN4YTsgICAgPGcgY2xpcC1wYXRoPSJ1cmwoI3BhY2YxYTI1ZjNjKSI+JiN4YTsgICAgIDx1c2Ugc3R5bGU9ImZpbGw6ICNlMzcyMjI7IHN0cm9rZTogIzRlNGU0ZSIgeT0iODA0LjcyNTIwNyIgeD0iMTcxLjI5Nzg5OSIgeGxpbms6aHJlZj0iI0MwXzBfNjE2YzFjMDg3NyIvPiYjeGE7ICAgIDwvZz4mI3hhOyAgICA8ZyBjbGlwLXBhdGg9InVybCgjcGFjZjFhMjVmM2MpIj4mI3hhOyAgICAgPHVzZSBzdHlsZT0iZmlsbDogI2UzNzIyMjsgc3Ryb2tlOiAjNGU0ZTRlIiB5PSI4MDQuNzI1MjA3IiB4PSIxMjEuNTI5MTY1IiB4bGluazpocmVmPSIjQzBfMF82MTZjMWMwODc3Ii8+JiN4YTsgICAgPC9nPiYjeGE7ICAgIDxnIGNsaXAtcGF0aD0idXJsKCNwYWNmMWEyNWYzYykiPiYjeGE7ICAgICA8dXNlIHN0eWxlPSJmaWxsOiAjZTM3MjIyOyBzdHJva2U6ICM0ZTRlNGUiIHk9IjgwNC43MjUyMDciIHg9IjE2Mi43MzY3NiIgeGxpbms6aHJlZj0iI0MwXzBfNjE2YzFjMDg3NyIvPiYjeGE7ICAgIDwvZz4mI3hhOyAgICA8ZyBjbGlwLXBhdGg9InVybCgjcGFjZjFhMjVmM2MpIj4mI3hhOyAgICAgPHVzZSBzdHlsZT0iZmlsbDogI2UzNzIyMjsgc3Ryb2tlOiAjNGU0ZTRlIiB5PSI4MDQuNzI1MjA3IiB4PSIxMTguNjEwMjA1IiB4bGluazpocmVmPSIjQzBfMF82MTZjMWMwODc3Ii8+JiN4YTsgICAgPC9nPiYjeGE7ICAgIDxnIGNsaXAtcGF0aD0idXJsKCNwYWNmMWEyNWYzYykiPiYjeGE7ICAgICA8dXNlIHN0eWxlPSJmaWxsOiAjZTM3MjIyOyBzdHJva2U6ICM0ZTRlNGUiIHk9IjgwNC43MjUyMDciIHg9IjE0NC4zNDk2MzUiIHhsaW5rOmhyZWY9IiNDMF8wXzYxNmMxYzA4NzciLz4mI3hhOyAgICA8L2c+JiN4YTsgICAgPGcgY2xpcC1wYXRoPSJ1cmwoI3BhY2YxYTI1ZjNjKSI+JiN4YTsgICAgIDx1c2Ugc3R5bGU9ImZpbGw6ICNlMzcyMjI7IHN0cm9rZTogIzRlNGU0ZSIgeT0iODA0LjcyNTIwNyIgeD0iMTU2LjQxNTQ4IiB4bGluazpocmVmPSIjQzBfMF82MTZjMWMwODc3Ii8+JiN4YTsgICAgPC9nPiYjeGE7ICAgIDxnIGNsaXAtcGF0aD0idXJsKCNwYWNmMWEyNWYzYykiPiYjeGE7ICAgICA8dXNlIHN0eWxlPSJmaWxsOiAjZTM3MjIyOyBzdHJva2U6ICM0ZTRlNGUiIHk9IjgwNC43MjUyMDciIHg9IjEyOC44MTQ4MzYiIHhsaW5rOmhyZWY9IiNDMF8wXzYxNmMxYzA4NzciLz4mI3hhOyAgICA8L2c+JiN4YTsgICAgPGcgY2xpcC1wYXRoPSJ1cmwoI3BhY2YxYTI1ZjNjKSI+JiN4YTsgICAgIDx1c2Ugc3R5bGU9ImZpbGw6ICNlMzcyMjI7IHN0cm9rZTogIzRlNGU0ZSIgeT0iODA0LjcyNTIwNyIgeD0iMTQ5LjY3ODg3IiB4bGluazpocmVmPSIjQzBfMF82MTZjMWMwODc3Ii8+JiN4YTsgICAgPC9nPiYjeGE7ICAgIDxnIGNsaXAtcGF0aD0idXJsKCNwYWNmMWEyNWYzYykiPiYjeGE7ICAgICA8dXNlIHN0eWxlPSJmaWxsOiAjZTM3MjIyOyBzdHJva2U6ICM0ZTRlNGUiIHk9IjgwNC43MjUyMDciIHg9IjE3My41NTg0NSIgeGxpbms6aHJlZj0iI0MwXzBfNjE2YzFjMDg3NyIvPiYjeGE7ICAgIDwvZz4mI3hhOyAgICA8ZyBjbGlwLXBhdGg9InVybCgjcGFjZjFhMjVmM2MpIj4mI3hhOyAgICAgPHVzZSBzdHlsZT0iZmlsbDogI2UzNzIyMjsgc3Ryb2tlOiAjNGU0ZTRlIiB5PSI4MDQuNzI1MjA3IiB4PSIxNjcuNjAzODA4IiB4bGluazpocmVmPSIjQzBfMF82MTZjMWMwODc3Ii8+JiN4YTsgICAgPC9nPiYjeGE7ICAgIDxnIGNsaXAtcGF0aD0idXJsKCNwYWNmMWEyNWYzYykiPiYjeGE7ICAgICA8dXNlIHN0eWxlPSJmaWxsOiAjZTM3MjIyOyBzdHJva2U6ICM0ZTRlNGUiIHk9IjgwNC43MjUyMDciIHg9IjEzMC44OTAyMTgiIHhsaW5rOmhyZWY9IiNDMF8wXzYxNmMxYzA4NzciLz4mI3hhOyAgICA8L2c+JiN4YTsgICAgPGcgY2xpcC1wYXRoPSJ1cmwoI3BhY2YxYTI1ZjNjKSI+JiN4YTsgICAgIDx1c2Ugc3R5bGU9ImZpbGw6ICNlMzcyMjI7IHN0cm9rZTogIzRlNGU0ZSIgeT0iODA0LjcyNTIwNyIgeD0iMTM2LjI2MDI5MSIgeGxpbms6aHJlZj0iI0MwXzBfNjE2YzFjMDg3NyIvPiYjeGE7ICAgIDwvZz4mI3hhOyAgICA8ZyBjbGlwLXBhdGg9InVybCgjcGFjZjFhMjVmM2MpIj4mI3hhOyAgICAgPHVzZSBzdHlsZT0iZmlsbDogI2UzNzIyMjsgc3Ryb2tlOiAjNGU0ZTRlIiB5PSI4MDQuNzI1MjA3IiB4PSIxNjguMTU4NjIzIiB4bGluazpocmVmPSIjQzBfMF82MTZjMWMwODc3Ii8+JiN4YTsgICAgPC9nPiYjeGE7ICAgIDxnIGNsaXAtcGF0aD0idXJsKCNwYWNmMWEyNWYzYykiPiYjeGE7ICAgICA8dXNlIHN0eWxlPSJmaWxsOiAjZTM3MjIyOyBzdHJva2U6ICM0ZTRlNGUiIHk9IjgwNC43MjUyMDciIHg9IjExMi42ODQ3MzkiIHhsaW5rOmhyZWY9IiNDMF8wXzYxNmMxYzA4NzciLz4mI3hhOyAgICA8L2c+JiN4YTsgICAgPGcgY2xpcC1wYXRoPSJ1cmwoI3BhY2YxYTI1ZjNjKSI+JiN4YTsgICAgIDx1c2Ugc3R5bGU9ImZpbGw6ICNlMzcyMjI7IHN0cm9rZTogIzRlNGU0ZSIgeT0iODA0LjcyNTIwNyIgeD0iMTI0Ljg0NzczMyIgeGxpbms6aHJlZj0iI0MwXzBfNjE2YzFjMDg3NyIvPiYjeGE7ICAgIDwvZz4mI3hhOyAgICA8ZyBjbGlwLXBhdGg9InVybCgjcGFjZjFhMjVmM2MpIj4mI3hhOyAgICAgPHVzZSBzdHlsZT0iZmlsbDogI2UzNzIyMjsgc3Ryb2tlOiAjNGU0ZTRlIiB5PSI4MDQuNzI1MjA3IiB4PSIxNjEuMTAzMTI2IiB4bGluazpocmVmPSIjQzBfMF82MTZjMWMwODc3Ii8+JiN4YTsgICAgPC9nPiYjeGE7ICAgIDxnIGNsaXAtcGF0aD0idXJsKCNwYWNmMWEyNWYzYykiPiYjeGE7ICAgICA8dXNlIHN0eWxlPSJmaWxsOiAjZTM3MjIyOyBzdHJva2U6ICM0ZTRlNGUiIHk9IjQ5LjIyOTMzOSIgeD0iMTY0Ljk1NzI2NyIgeGxpbms6aHJlZj0iI0MwXzBfNjE2YzFjMDg3NyIvPiYjeGE7ICAgIDwvZz4mI3hhOyAgICA8ZyBjbGlwLXBhdGg9InVybCgjcGFjZjFhMjVmM2MpIj4mI3hhOyAgICAgPHVzZSBzdHlsZT0iZmlsbDogI2UzNzIyMjsgc3Ryb2tlOiAjNGU0ZTRlIiB5PSI4MDQuNzI1MjA3IiB4PSIxMjcuMTc4NzAxIiB4bGluazpocmVmPSIjQzBfMF82MTZjMWMwODc3Ii8+JiN4YTsgICAgPC9nPiYjeGE7ICAgIDxnIGNsaXAtcGF0aD0idXJsKCNwYWNmMWEyNWYzYykiPiYjeGE7ICAgICA8dXNlIHN0eWxlPSJmaWxsOiAjZTM3MjIyOyBzdHJva2U6ICM0ZTRlNGUiIHk9IjgwNC43MjUyMDciIHg9IjE2Mi41NTU3ODciIHhsaW5rOmhyZWY9IiNDMF8wXzYxNmMxYzA4NzciLz4mI3hhOyAgICA8L2c+JiN4YTsgICA8L2c+JiN4YTsgICA8ZyBpZD0ibGVnZW5kXzEiLz4mI3hhOyAgPC9nPiYjeGE7IDwvZz4mI3hhOyA8ZGVmcz4mI3hhOyAgPGNsaXBQYXRoIGlkPSJwYWNmMWEyNWYzYyI+JiN4YTsgICA8cmVjdCBoZWlnaHQ9IjgzMS4wNDU0NTUiIHdpZHRoPSIxMjYuMTkiIHk9IjExLjQ1NDU0NSIgeD0iODIuNjEiLz4mI3hhOyAgPC9jbGlwUGF0aD4mI3hhOyA8L2RlZnM+JiN4YTs8L3N2Zz4=;" parent="1" vertex="1">
          <mxGeometry x="1850" width="280" height="1400" as="geometry" />
        </mxCell>
        <mxCell id="NtnivCIWtNz2SDZSWIoE-1" value="" style="shape=image;verticalLabelPosition=bottom;labelBackgroundColor=default;verticalAlign=top;aspect=fixed;imageAspect=0;image=data:image/svg+xml,PHN2ZyB4bWxucz0iaHR0cDovL3d3dy53My5vcmcvMjAwMC9zdmciIHhtbG5zOnhsaW5rPSJodHRwOi8vd3d3LnczLm9yZy8xOTk5L3hsaW5rIiB2ZXJzaW9uPSIxLjEiIHZpZXdCb3g9IjAgMCAxMjk2IDEwODAiIGhlaWdodD0iMTA4MHB0IiB3aWR0aD0iMTI5NnB0Ij4mI3hhOyA8bWV0YWRhdGE+JiN4YTsgICYjeGE7ICAgJiN4YTsgICAgJiN4YTsgICAgMjAyMy0wOC0yOFQxODoxNzoxMi44MjA4NTkmI3hhOyAgICBpbWFnZS9zdmcreG1sJiN4YTsgICAgJiN4YTsgICAgICYjeGE7ICAgICAgTWF0cGxvdGxpYiB2My43LjEsIGh0dHBzOi8vbWF0cGxvdGxpYi5vcmcvJiN4YTsgICAgICYjeGE7ICAgICYjeGE7ICAgJiN4YTsgICYjeGE7IDwvbWV0YWRhdGE+JiN4YTsgPGRlZnM+JiN4YTsgIDxzdHlsZSB0eXBlPSJ0ZXh0L2NzcyI+KntzdHJva2UtbGluZWpvaW46IHJvdW5kOyBzdHJva2UtbGluZWNhcDogYnV0dH08L3N0eWxlPiYjeGE7IDwvZGVmcz4mI3hhOyA8ZyBpZD0iZmlndXJlXzEiPiYjeGE7ICA8ZyBpZD0icGF0Y2hfMSI+JiN4YTsgICA8cGF0aCBzdHlsZT0iZmlsbDogI2ZmZmZmZiIgZD0iTSAwIDEwODAgJiMxMDtMIDEyOTYgMTA4MCAmIzEwO0wgMTI5NiAwICYjMTA7TCAwIDAgJiMxMDt6Ii8+JiN4YTsgIDwvZz4mI3hhOyAgPGcgaWQ9ImF4ZXNfMSI+JiN4YTsgICA8ZyBpZD0icGF0Y2hfMiI+JiN4YTsgICAgPHBhdGggc3R5bGU9ImZpbGw6ICNmZmZmZmYiIGQ9Ik0gMTAwLjIgNzgxLjAzICYjMTA7TCAxMjg4LjggNzgxLjAzICYjMTA7TCAxMjg4LjggNy4yICYjMTA7TCAxMDAuMiA3LjIgJiMxMDt6Ii8+JiN4YTsgICA8L2c+JiN4YTsgICA8ZyBpZD0ibWF0cGxvdGxpYi5heGlzXzEiPiYjeGE7ICAgIDxnIGlkPSJ4dGlja18xIj4mI3hhOyAgICAgPGcgaWQ9ImxpbmUyZF8xIj4mI3hhOyAgICAgIDxwYXRoIHN0eWxlPSJmaWxsOiBub25lOyBzdHJva2U6ICNjY2NjY2M7IHN0cm9rZS1saW5lY2FwOiByb3VuZCIgY2xpcC1wYXRoPSJ1cmwoI3BkZTcyYmNjMjQ3KSIgZD0iTSAxNTQuMjI3MjczIDc4MS4wMyAmIzEwO0wgMTU0LjIyNzI3MyA3LjIiLz4mI3hhOyAgICAgPC9nPiYjeGE7ICAgICA8ZyBpZD0idGV4dF8xIj4mI3hhOyAgICAgICYjeGE7ICAgICAgPGcgdHJhbnNmb3JtPSJ0cmFuc2xhdGUoMTYzLjMzMzIxIDk1My42ODMxMjUpIHJvdGF0ZSgtOTApIHNjYWxlKDAuMzMgLTAuMzMpIiBzdHlsZT0iZmlsbDogIzI2MjYyNiI+JiN4YTsgICAgICAgPGRlZnM+JiN4YTsgICAgICAgIDxwYXRoIHRyYW5zZm9ybT0ic2NhbGUoMC4wMTU2MjUpIiBkPSJNIDIxOTQgMTc1OSAmIzEwO1EgMTQ5NyAxNzU5IDEyMjggMTYwMCAmIzEwO1EgOTU5IDE0NDEgOTU5IDEwNTYgJiMxMDtRIDk1OSA3NTAgMTE2MSA1NzAgJiMxMDtRIDEzNjMgMzkxIDE3MDkgMzkxICYjMTA7USAyMTg4IDM5MSAyNDc3IDczMCAmIzEwO1EgMjc2NiAxMDY5IDI3NjYgMTYzMSAmIzEwO0wgMjc2NiAxNzU5ICYjMTA7TCAyMTk0IDE3NTkgJiMxMDt6JiMxMDtNIDMzNDEgMTk5NyAmIzEwO0wgMzM0MSAwICYjMTA7TCAyNzY2IDAgJiMxMDtMIDI3NjYgNTMxICYjMTA7USAyNTY5IDIxMyAyMjc1IDYxICYjMTA7USAxOTgxIC05MSAxNTU2IC05MSAmIzEwO1EgMTAxOSAtOTEgNzAxIDIxMSAmIzEwO1EgMzg0IDUxMyAzODQgMTAxOSAmIzEwO1EgMzg0IDE2MDkgNzc5IDE5MDkgJiMxMDtRIDExNzUgMjIwOSAxOTU5IDIyMDkgJiMxMDtMIDI3NjYgMjIwOSAmIzEwO0wgMjc2NiAyMjY2ICYjMTA7USAyNzY2IDI2NjMgMjUwNSAyODgwICYjMTA7USAyMjQ0IDMwOTcgMTc3MiAzMDk3ICYjMTA7USAxNDcyIDMwOTcgMTE4NyAzMDI1ICYjMTA7USA5MDMgMjk1MyA2NDEgMjgwOSAmIzEwO0wgNjQxIDMzNDEgJiMxMDtRIDk1NiAzNDYzIDEyNTMgMzUyMyAmIzEwO1EgMTU1MCAzNTg0IDE4MzEgMzU4NCAmIzEwO1EgMjU5MSAzNTg0IDI5NjYgMzE5MCAmIzEwO1EgMzM0MSAyNzk3IDMzNDEgMTk5NyAmIzEwO3oiIGlkPSJEZWphVnVTYW5zLTYxIi8+JiN4YTsgICAgICAgIDxwYXRoIHRyYW5zZm9ybT0ic2NhbGUoMC4wMTU2MjUpIiBkPSJNIDMxMjIgMzM2NiAmIzEwO0wgMzEyMiAyODI4ICYjMTA7USAyODc4IDI5NjMgMjYzMyAzMDMwICYjMTA7USAyMzg4IDMwOTcgMjEzOCAzMDk3ICYjMTA7USAxNTc4IDMwOTcgMTI2OCAyNzQyICYjMTA7USA5NTkgMjM4OCA5NTkgMTc0NyAmIzEwO1EgOTU5IDExMDYgMTI2OCA3NTEgJiMxMDtRIDE1NzggMzk3IDIxMzggMzk3ICYjMTA7USAyMzg4IDM5NyAyNjMzIDQ2NCAmIzEwO1EgMjg3OCA1MzEgMzEyMiA2NjYgJiMxMDtMIDMxMjIgMTM0ICYjMTA7USAyODgxIDIyIDI2MjMgLTM0ICYjMTA7USAyMzY2IC05MSAyMDc1IC05MSAmIzEwO1EgMTI4NCAtOTEgODE4IDQwNiAmIzEwO1EgMzUzIDkwMyAzNTMgMTc0NyAmIzEwO1EgMzUzIDI2MDMgODIzIDMwOTMgJiMxMDtRIDEyOTQgMzU4NCAyMTEzIDM1ODQgJiMxMDtRIDIzNzggMzU4NCAyNjMxIDM1MjkgJiMxMDtRIDI4ODQgMzQ3NSAzMTIyIDMzNjYgJiMxMDt6IiBpZD0iRGVqYVZ1U2Fucy02MyIvPiYjeGE7ICAgICAgICA8cGF0aCB0cmFuc2Zvcm09InNjYWxlKDAuMDE1NjI1KSIgZD0iTSAxMTcyIDQ0OTQgJiMxMDtMIDExNzIgMzUwMCAmIzEwO0wgMjM1NiAzNTAwICYjMTA7TCAyMzU2IDMwNTMgJiMxMDtMIDExNzIgMzA1MyAmIzEwO0wgMTE3MiAxMTUzICYjMTA7USAxMTcyIDcyNSAxMjg5IDYwMyAmIzEwO1EgMTQwNiA0ODEgMTc2NiA0ODEgJiMxMDtMIDIzNTYgNDgxICYjMTA7TCAyMzU2IDAgJiMxMDtMIDE3NjYgMCAmIzEwO1EgMTEwMCAwIDg0NyAyNDggJiMxMDtRIDU5NCA0OTcgNTk0IDExNTMgJiMxMDtMIDU5NCAzMDUzICYjMTA7TCAxNzIgMzA1MyAmIzEwO0wgMTcyIDM1MDAgJiMxMDtMIDU5NCAzNTAwICYjMTA7TCA1OTQgNDQ5NCAmIzEwO0wgMTE3MiA0NDk0ICYjMTA7eiIgaWQ9IkRlamFWdVNhbnMtNzQiLz4mI3hhOyAgICAgICAgPHBhdGggdHJhbnNmb3JtPSJzY2FsZSgwLjAxNTYyNSkiIGQ9Ik0gNjAzIDM1MDAgJiMxMDtMIDExNzggMzUwMCAmIzEwO0wgMTE3OCAwICYjMTA7TCA2MDMgMCAmIzEwO0wgNjAzIDM1MDAgJiMxMDt6JiMxMDtNIDYwMyA0ODYzICYjMTA7TCAxMTc4IDQ4NjMgJiMxMDtMIDExNzggNDEzNCAmIzEwO0wgNjAzIDQxMzQgJiMxMDtMIDYwMyA0ODYzICYjMTA7eiIgaWQ9IkRlamFWdVNhbnMtNjkiLz4mI3hhOyAgICAgICAgPHBhdGggdHJhbnNmb3JtPSJzY2FsZSgwLjAxNTYyNSkiIGQ9Ik0gMzUxMyAzNTAwICYjMTA7TCAyMjQ3IDE3OTcgJiMxMDtMIDM1NzggMCAmIzEwO0wgMjkwMCAwICYjMTA7TCAxODgxIDEzNzUgJiMxMDtMIDg2MyAwICYjMTA7TCAxODQgMCAmIzEwO0wgMTU0NCAxODMxICYjMTA7TCAzMDAgMzUwMCAmIzEwO0wgOTc4IDM1MDAgJiMxMDtMIDE5MDYgMjI1MyAmIzEwO0wgMjgzNCAzNTAwICYjMTA7TCAzNTEzIDM1MDAgJiMxMDt6IiBpZD0iRGVqYVZ1U2Fucy03OCIvPiYjeGE7ICAgICAgICA8cGF0aCB0cmFuc2Zvcm09InNjYWxlKDAuMDE1NjI1KSIgZD0iTSAzMTMgMjAwOSAmIzEwO0wgMTk5NyAyMDA5ICYjMTA7TCAxOTk3IDE0OTcgJiMxMDtMIDMxMyAxNDk3ICYjMTA7TCAzMTMgMjAwOSAmIzEwO3oiIGlkPSJEZWphVnVTYW5zLTJkIi8+JiN4YTsgICAgICAgIDxwYXRoIHRyYW5zZm9ybT0ic2NhbGUoMC4wMTU2MjUpIiBkPSJNIDI2OSAzNTAwICYjMTA7TCA4NDQgMzUwMCAmIzEwO0wgMTU2MyA3NjkgJiMxMDtMIDIyNzggMzUwMCAmIzEwO0wgMjk1NiAzNTAwICYjMTA7TCAzNjc1IDc2OSAmIzEwO0wgNDM5MSAzNTAwICYjMTA7TCA0OTY2IDM1MDAgJiMxMDtMIDQwNTAgMCAmIzEwO0wgMzM3MiAwICYjMTA7TCAyNjE5IDI4NjkgJiMxMDtMIDE4NjMgMCAmIzEwO0wgMTE4NCAwICYjMTA7TCAyNjkgMzUwMCAmIzEwO3oiIGlkPSJEZWphVnVTYW5zLTc3Ii8+JiN4YTsgICAgICAgIDxwYXRoIHRyYW5zZm9ybT0ic2NhbGUoMC4wMTU2MjUpIiBkPSJNIDM1OTcgMTg5NCAmIzEwO0wgMzU5NyAxNjEzICYjMTA7TCA5NTMgMTYxMyAmIzEwO1EgOTkxIDEwMTkgMTMxMSA3MDggJiMxMDtRIDE2MzEgMzk3IDIyMDMgMzk3ICYjMTA7USAyNTM0IDM5NyAyODQ1IDQ3OCAmIzEwO1EgMzE1NiA1NTkgMzQ2MyA3MjIgJiMxMDtMIDM0NjMgMTc4ICYjMTA7USAzMTUzIDQ3IDI4MjggLTIyICYjMTA7USAyNTAzIC05MSAyMTY5IC05MSAmIzEwO1EgMTMzMSAtOTEgODQyIDM5NiAmIzEwO1EgMzUzIDg4NCAzNTMgMTcxNiAmIzEwO1EgMzUzIDI1NzUgODE3IDMwNzkgJiMxMDtRIDEyODEgMzU4NCAyMDY5IDM1ODQgJiMxMDtRIDI3NzUgMzU4NCAzMTg2IDMxMjkgJiMxMDtRIDM1OTcgMjY3NSAzNTk3IDE4OTQgJiMxMDt6JiMxMDtNIDMwMjIgMjA2MyAmIzEwO1EgMzAxNiAyNTM0IDI3NTggMjgxNSAmIzEwO1EgMjUwMCAzMDk3IDIwNzUgMzA5NyAmIzEwO1EgMTU5NCAzMDk3IDEzMDUgMjgyNSAmIzEwO1EgMTAxNiAyNTUzIDk3MiAyMDU5ICYjMTA7TCAzMDIyIDIwNjMgJiMxMDt6IiBpZD0iRGVqYVZ1U2Fucy02NSIvPiYjeGE7ICAgICAgICA8cGF0aCB0cmFuc2Zvcm09InNjYWxlKDAuMDE1NjI1KSIgZD0iTSAzMTE2IDE3NDcgJiMxMDtRIDMxMTYgMjM4MSAyODU1IDI3NDIgJiMxMDtRIDI1OTQgMzEwMyAyMTM4IDMxMDMgJiMxMDtRIDE2ODEgMzEwMyAxNDIwIDI3NDIgJiMxMDtRIDExNTkgMjM4MSAxMTU5IDE3NDcgJiMxMDtRIDExNTkgMTExMyAxNDIwIDc1MiAmIzEwO1EgMTY4MSAzOTEgMjEzOCAzOTEgJiMxMDtRIDI1OTQgMzkxIDI4NTUgNzUyICYjMTA7USAzMTE2IDExMTMgMzExNiAxNzQ3ICYjMTA7eiYjMTA7TSAxMTU5IDI5NjkgJiMxMDtRIDEzNDEgMzI4MSAxNjE3IDM0MzIgJiMxMDtRIDE4OTQgMzU4NCAyMjc4IDM1ODQgJiMxMDtRIDI5MTYgMzU4NCAzMzE0IDMwNzggJiMxMDtRIDM3MTMgMjU3MiAzNzEzIDE3NDcgJiMxMDtRIDM3MTMgOTIyIDMzMTQgNDE1ICYjMTA7USAyOTE2IC05MSAyMjc4IC05MSAmIzEwO1EgMTg5NCAtOTEgMTYxNyA2MSAmIzEwO1EgMTM0MSAyMTMgMTE1OSA1MjUgJiMxMDtMIDExNTkgMCAmIzEwO0wgNTgxIDAgJiMxMDtMIDU4MSA0ODYzICYjMTA7TCAxMTU5IDQ4NjMgJiMxMDtMIDExNTkgMjk2OSAmIzEwO3oiIGlkPSJEZWphVnVTYW5zLTYyIi8+JiN4YTsgICAgICAgPC9kZWZzPiYjeGE7ICAgICAgIDx1c2UgeGxpbms6aHJlZj0iI0RlamFWdVNhbnMtNjEiLz4mI3hhOyAgICAgICA8dXNlIHg9IjYxLjI3OTI5NyIgeGxpbms6aHJlZj0iI0RlamFWdVNhbnMtNjMiLz4mI3hhOyAgICAgICA8dXNlIHg9IjExNi4yNTk3NjYiIHhsaW5rOmhyZWY9IiNEZWphVnVTYW5zLTc0Ii8+JiN4YTsgICAgICAgPHVzZSB4PSIxNTUuNDY4NzUiIHhsaW5rOmhyZWY9IiNEZWphVnVTYW5zLTY5Ii8+JiN4YTsgICAgICAgPHVzZSB4PSIxODMuMjUxOTUzIiB4bGluazpocmVmPSIjRGVqYVZ1U2Fucy03OCIvPiYjeGE7ICAgICAgIDx1c2UgeD0iMjQyLjQzMTY0MSIgeGxpbms6aHJlZj0iI0RlamFWdVNhbnMtMmQiLz4mI3hhOyAgICAgICA8dXNlIHg9IjI3OC41MTU2MjUiIHhsaW5rOmhyZWY9IiNEZWphVnVTYW5zLTc3Ii8+JiN4YTsgICAgICAgPHVzZSB4PSIzNjAuMzAyNzM0IiB4bGluazpocmVmPSIjRGVqYVZ1U2Fucy02NSIvPiYjeGE7ICAgICAgIDx1c2UgeD0iNDIxLjgyNjE3MiIgeGxpbms6aHJlZj0iI0RlamFWdVNhbnMtNjIiLz4mI3hhOyAgICAgIDwvZz4mI3hhOyAgICAgPC9nPiYjeGE7ICAgIDwvZz4mI3hhOyAgICA8ZyBpZD0ieHRpY2tfMiI+JiN4YTsgICAgIDxnIGlkPSJsaW5lMmRfMiI+JiN4YTsgICAgICA8cGF0aCBzdHlsZT0iZmlsbDogbm9uZTsgc3Ryb2tlOiAjY2NjY2NjOyBzdHJva2UtbGluZWNhcDogcm91bmQiIGNsaXAtcGF0aD0idXJsKCNwZGU3MmJjYzI0NykiIGQ9Ik0gMjYyLjI4MTgxOCA3ODEuMDMgJiMxMDtMIDI2Mi4yODE4MTggNy4yIi8+JiN4YTsgICAgIDwvZz4mI3hhOyAgICAgPGcgaWQ9InRleHRfMiI+JiN4YTsgICAgICAmI3hhOyAgICAgIDxnIHRyYW5zZm9ybT0idHJhbnNsYXRlKDI3MS4zODc3NTYgMTA3Mi45NzgxMjUpIHJvdGF0ZSgtOTApIHNjYWxlKDAuMzMgLTAuMzMpIiBzdHlsZT0iZmlsbDogIzI2MjYyNiI+JiN4YTsgICAgICAgPGRlZnM+JiN4YTsgICAgICAgIDxwYXRoIHRyYW5zZm9ybT0ic2NhbGUoMC4wMTU2MjUpIiBkPSJNIDI2MzEgMjk2MyAmIzEwO1EgMjUzNCAzMDE5IDI0MjAgMzA0NSAmIzEwO1EgMjMwNiAzMDcyIDIxNjkgMzA3MiAmIzEwO1EgMTY4MSAzMDcyIDE0MjAgMjc1NSAmIzEwO1EgMTE1OSAyNDM4IDExNTkgMTg0NCAmIzEwO0wgMTE1OSAwICYjMTA7TCA1ODEgMCAmIzEwO0wgNTgxIDM1MDAgJiMxMDtMIDExNTkgMzUwMCAmIzEwO0wgMTE1OSAyOTU2ICYjMTA7USAxMzQxIDMyNzUgMTYzMSAzNDI5ICYjMTA7USAxOTIyIDM1ODQgMjMzOCAzNTg0ICYjMTA7USAyMzk3IDM1ODQgMjQ2OSAzNTc2ICYjMTA7USAyNTQxIDM1NjkgMjYyOCAzNTUzICYjMTA7TCAyNjMxIDI5NjMgJiMxMDt6IiBpZD0iRGVqYVZ1U2Fucy03MiIvPiYjeGE7ICAgICAgICA8cGF0aCB0cmFuc2Zvcm09InNjYWxlKDAuMDE1NjI1KSIgZD0iTSAxOTU5IDMwOTcgJiMxMDtRIDE0OTcgMzA5NyAxMjI4IDI3MzYgJiMxMDtRIDk1OSAyMzc1IDk1OSAxNzQ3ICYjMTA7USA5NTkgMTExOSAxMjI2IDc1OCAmIzEwO1EgMTQ5NCAzOTcgMTk1OSAzOTcgJiMxMDtRIDI0MTkgMzk3IDI2ODcgNzU5ICYjMTA7USAyOTU2IDExMjIgMjk1NiAxNzQ3ICYjMTA7USAyOTU2IDIzNjkgMjY4NyAyNzMzICYjMTA7USAyNDE5IDMwOTcgMTk1OSAzMDk3ICYjMTA7eiYjMTA7TSAxOTU5IDM1ODQgJiMxMDtRIDI3MDkgMzU4NCAzMTM3IDMwOTYgJiMxMDtRIDM1NjYgMjYwOSAzNTY2IDE3NDcgJiMxMDtRIDM1NjYgODg4IDMxMzcgMzk4ICYjMTA7USAyNzA5IC05MSAxOTU5IC05MSAmIzEwO1EgMTIwNiAtOTEgNzc5IDM5OCAmIzEwO1EgMzUzIDg4OCAzNTMgMTc0NyAmIzEwO1EgMzUzIDI2MDkgNzc5IDMwOTYgJiMxMDtRIDEyMDYgMzU4NCAxOTU5IDM1ODQgJiMxMDt6IiBpZD0iRGVqYVZ1U2Fucy02ZiIvPiYjeGE7ICAgICAgICA8cGF0aCB0cmFuc2Zvcm09InNjYWxlKDAuMDE1NjI1KSIgZD0iTSAyOTA2IDI5NjkgJiMxMDtMIDI5MDYgNDg2MyAmIzEwO0wgMzQ4MSA0ODYzICYjMTA7TCAzNDgxIDAgJiMxMDtMIDI5MDYgMCAmIzEwO0wgMjkwNiA1MjUgJiMxMDtRIDI3MjUgMjEzIDI0NDggNjEgJiMxMDtRIDIxNzIgLTkxIDE3ODQgLTkxICYjMTA7USAxMTUwIC05MSA3NTEgNDE1ICYjMTA7USAzNTMgOTIyIDM1MyAxNzQ3ICYjMTA7USAzNTMgMjU3MiA3NTEgMzA3OCAmIzEwO1EgMTE1MCAzNTg0IDE3ODQgMzU4NCAmIzEwO1EgMjE3MiAzNTg0IDI0NDggMzQzMiAmIzEwO1EgMjcyNSAzMjgxIDI5MDYgMjk2OSAmIzEwO3omIzEwO00gOTQ3IDE3NDcgJiMxMDtRIDk0NyAxMTEzIDEyMDggNzUyICYjMTA7USAxNDY5IDM5MSAxOTI1IDM5MSAmIzEwO1EgMjM4MSAzOTEgMjY0MyA3NTIgJiMxMDtRIDI5MDYgMTExMyAyOTA2IDE3NDcgJiMxMDtRIDI5MDYgMjM4MSAyNjQzIDI3NDIgJiMxMDtRIDIzODEgMzEwMyAxOTI1IDMxMDMgJiMxMDtRIDE0NjkgMzEwMyAxMjA4IDI3NDIgJiMxMDtRIDk0NyAyMzgxIDk0NyAxNzQ3ICYjMTA7eiIgaWQ9IkRlamFWdVNhbnMtNjQiLz4mI3hhOyAgICAgICAgPHBhdGggdHJhbnNmb3JtPSJzY2FsZSgwLjAxNTYyNSkiIGQ9Ik0gMjM3NSA0ODYzICYjMTA7TCAyMzc1IDQzODQgJiMxMDtMIDE4MjUgNDM4NCAmIzEwO1EgMTUxNiA0Mzg0IDEzOTUgNDI1OSAmIzEwO1EgMTI3NSA0MTM0IDEyNzUgMzgwOSAmIzEwO0wgMTI3NSAzNTAwICYjMTA7TCAyMjIyIDM1MDAgJiMxMDtMIDIyMjIgMzA1MyAmIzEwO0wgMTI3NSAzMDUzICYjMTA7TCAxMjc1IDAgJiMxMDtMIDY5NyAwICYjMTA7TCA2OTcgMzA1MyAmIzEwO0wgMTQ3IDMwNTMgJiMxMDtMIDE0NyAzNTAwICYjMTA7TCA2OTcgMzUwMCAmIzEwO0wgNjk3IDM3NDQgJiMxMDtRIDY5NyA0MzI4IDk2OSA0NTk1ICYjMTA7USAxMjQxIDQ4NjMgMTgzMSA0ODYzICYjMTA7TCAyMzc1IDQ4NjMgJiMxMDt6IiBpZD0iRGVqYVZ1U2Fucy02NiIvPiYjeGE7ICAgICAgICA8cGF0aCB0cmFuc2Zvcm09InNjYWxlKDAuMDE1NjI1KSIgZD0iTSA1NDQgMTM4MSAmIzEwO0wgNTQ0IDM1MDAgJiMxMDtMIDExMTkgMzUwMCAmIzEwO0wgMTExOSAxNDAzICYjMTA7USAxMTE5IDkwNiAxMzEyIDY1NyAmIzEwO1EgMTUwNiA0MDkgMTg5NCA0MDkgJiMxMDtRIDIzNTkgNDA5IDI2MjkgNzA2ICYjMTA7USAyOTAwIDEwMDMgMjkwMCAxNTE2ICYjMTA7TCAyOTAwIDM1MDAgJiMxMDtMIDM0NzUgMzUwMCAmIzEwO0wgMzQ3NSAwICYjMTA7TCAyOTAwIDAgJiMxMDtMIDI5MDAgNTM4ICYjMTA7USAyNjkxIDIxOSAyNDE0IDY0ICYjMTA7USAyMTM4IC05MSAxNzcyIC05MSAmIzEwO1EgMTE2OSAtOTEgODU2IDI4NCAmIzEwO1EgNTQ0IDY1OSA1NDQgMTM4MSAmIzEwO3omIzEwO00gMTk5MSAzNTg0ICYjMTA7TCAxOTkxIDM1ODQgJiMxMDt6IiBpZD0iRGVqYVZ1U2Fucy03NSIvPiYjeGE7ICAgICAgICA8cGF0aCB0cmFuc2Zvcm09InNjYWxlKDAuMDE1NjI1KSIgZD0iTSAyODM0IDMzOTcgJiMxMDtMIDI4MzQgMjg1MyAmIzEwO1EgMjU5MSAyOTc4IDIzMjggMzA0MCAmIzEwO1EgMjA2NiAzMTAzIDE3ODQgMzEwMyAmIzEwO1EgMTM1NiAzMTAzIDExNDIgMjk3MiAmIzEwO1EgOTI4IDI4NDEgOTI4IDI1NzggJiMxMDtRIDkyOCAyMzc4IDEwODEgMjI2NCAmIzEwO1EgMTIzNCAyMTUwIDE2OTcgMjA0NyAmIzEwO0wgMTg5NCAyMDAzICYjMTA7USAyNTA2IDE4NzIgMjc2NCAxNjMzICYjMTA7USAzMDIyIDEzOTQgMzAyMiA5NjYgJiMxMDtRIDMwMjIgNDc4IDI2MzYgMTkzICYjMTA7USAyMjUwIC05MSAxNTc1IC05MSAmIzEwO1EgMTI5NCAtOTEgOTg5IC0zNiAmIzEwO1EgNjg0IDE5IDM0NyAxMjggJiMxMDtMIDM0NyA3MjIgJiMxMDtRIDY2NiA1NTYgOTc1IDQ3MyAmIzEwO1EgMTI4NCAzOTEgMTU4OCAzOTEgJiMxMDtRIDE5OTQgMzkxIDIyMTIgNTMwICYjMTA7USAyNDMxIDY2OSAyNDMxIDkyMiAmIzEwO1EgMjQzMSAxMTU2IDIyNzMgMTI4MSAmIzEwO1EgMjExNiAxNDA2IDE1ODEgMTUyMiAmIzEwO0wgMTM4MSAxNTY5ICYjMTA7USA4NDcgMTY4MSA2MDkgMTkxNCAmIzEwO1EgMzcyIDIxNDcgMzcyIDI1NTMgJiMxMDtRIDM3MiAzMDQ3IDcyMiAzMzE1ICYjMTA7USAxMDcyIDM1ODQgMTcxNiAzNTg0ICYjMTA7USAyMDM0IDM1ODQgMjMxNSAzNTM3ICYjMTA7USAyNTk3IDM0OTEgMjgzNCAzMzk3ICYjMTA7eiIgaWQ9IkRlamFWdVNhbnMtNzMiLz4mI3hhOyAgICAgICAgPHBhdGggdHJhbnNmb3JtPSJzY2FsZSgwLjAxNTYyNSkiIGQ9Ik0gMzUxMyAyMTEzICYjMTA7TCAzNTEzIDAgJiMxMDtMIDI5MzggMCAmIzEwO0wgMjkzOCAyMDk0ICYjMTA7USAyOTM4IDI1OTEgMjc0NCAyODM3ICYjMTA7USAyNTUwIDMwODQgMjE2MyAzMDg0ICYjMTA7USAxNjk3IDMwODQgMTQyOCAyNzg3ICYjMTA7USAxMTU5IDI0OTEgMTE1OSAxOTc4ICYjMTA7TCAxMTU5IDAgJiMxMDtMIDU4MSAwICYjMTA7TCA1ODEgMzUwMCAmIzEwO0wgMTE1OSAzNTAwICYjMTA7TCAxMTU5IDI5NTYgJiMxMDtRIDEzNjYgMzI3MiAxNjQ1IDM0MjggJiMxMDtRIDE5MjUgMzU4NCAyMjkxIDM1ODQgJiMxMDtRIDI4OTQgMzU4NCAzMjAzIDMyMTEgJiMxMDtRIDM1MTMgMjgzOCAzNTEzIDIxMTMgJiMxMDt6IiBpZD0iRGVqYVZ1U2Fucy02ZSIvPiYjeGE7ICAgICAgIDwvZGVmcz4mI3hhOyAgICAgICA8dXNlIHhsaW5rOmhyZWY9IiNEZWphVnVTYW5zLTYxIi8+JiN4YTsgICAgICAgPHVzZSB4PSI2MS4yNzkyOTciIHhsaW5rOmhyZWY9IiNEZWphVnVTYW5zLTcyIi8+JiN4YTsgICAgICAgPHVzZSB4PSIxMDAuNjQyNTc4IiB4bGluazpocmVmPSIjRGVqYVZ1U2Fucy03MiIvPiYjeGE7ICAgICAgIDx1c2UgeD0iMTM5LjUwNTg1OSIgeGxpbms6aHJlZj0iI0RlamFWdVNhbnMtNmYiLz4mI3hhOyAgICAgICA8dXNlIHg9IjIwMC42ODc1IiB4bGluazpocmVmPSIjRGVqYVZ1U2Fucy03NyIvPiYjeGE7ICAgICAgIDx1c2UgeD0iMjgyLjQ3NDYwOSIgeGxpbms6aHJlZj0iI0RlamFWdVNhbnMtMmQiLz4mI3hhOyAgICAgICA8dXNlIHg9IjMxOC41NTg1OTQiIHhsaW5rOmhyZWY9IiNEZWphVnVTYW5zLTY0Ii8+JiN4YTsgICAgICAgPHVzZSB4PSIzODIuMDM1MTU2IiB4bGluazpocmVmPSIjRGVqYVZ1U2Fucy02MSIvPiYjeGE7ICAgICAgIDx1c2UgeD0iNDQzLjMxNDQ1MyIgeGxpbms6aHJlZj0iI0RlamFWdVNhbnMtNzQiLz4mI3hhOyAgICAgICA8dXNlIHg9IjQ4Mi41MjM0MzgiIHhsaW5rOmhyZWY9IiNEZWphVnVTYW5zLTYxIi8+JiN4YTsgICAgICAgPHVzZSB4PSI1NDMuODAyNzM0IiB4bGluazpocmVmPSIjRGVqYVZ1U2Fucy02NiIvPiYjeGE7ICAgICAgIDx1c2UgeD0iNTc5LjAwNzgxMiIgeGxpbms6aHJlZj0iI0RlamFWdVNhbnMtNzUiLz4mI3hhOyAgICAgICA8dXNlIHg9IjY0Mi4zODY3MTkiIHhsaW5rOmhyZWY9IiNEZWphVnVTYW5zLTczIi8+JiN4YTsgICAgICAgPHVzZSB4PSI2OTQuNDg2MzI4IiB4bGluazpocmVmPSIjRGVqYVZ1U2Fucy02OSIvPiYjeGE7ICAgICAgIDx1c2UgeD0iNzIyLjI2OTUzMSIgeGxpbms6aHJlZj0iI0RlamFWdVNhbnMtNmYiLz4mI3hhOyAgICAgICA8dXNlIHg9Ijc4My40NTExNzIiIHhsaW5rOmhyZWY9IiNEZWphVnVTYW5zLTZlIi8+JiN4YTsgICAgICA8L2c+JiN4YTsgICAgIDwvZz4mI3hhOyAgICA8L2c+JiN4YTsgICAgPGcgaWQ9Inh0aWNrXzMiPiYjeGE7ICAgICA8ZyBpZD0ibGluZTJkXzMiPiYjeGE7ICAgICAgPHBhdGggc3R5bGU9ImZpbGw6IG5vbmU7IHN0cm9rZTogI2NjY2NjYzsgc3Ryb2tlLWxpbmVjYXA6IHJvdW5kIiBjbGlwLXBhdGg9InVybCgjcGRlNzJiY2MyNDcpIiBkPSJNIDM3MC4zMzYzNjQgNzgxLjAzICYjMTA7TCAzNzAuMzM2MzY0IDcuMiIvPiYjeGE7ICAgICA8L2c+JiN4YTsgICAgIDxnIGlkPSJ0ZXh0XzMiPiYjeGE7ICAgICAgJiN4YTsgICAgICA8ZyB0cmFuc2Zvcm09InRyYW5zbGF0ZSgzNzkuNDQyMzAxIDkyNS45MjE4NzUpIHJvdGF0ZSgtOTApIHNjYWxlKDAuMzMgLTAuMzMpIiBzdHlsZT0iZmlsbDogIzI2MjYyNiI+JiN4YTsgICAgICAgPGRlZnM+JiN4YTsgICAgICAgIDxwYXRoIHRyYW5zZm9ybT0ic2NhbGUoMC4wMTU2MjUpIiBkPSJNIDMzMjggMjgyOCAmIzEwO1EgMzU0NCAzMjE2IDM4NDQgMzQwMCAmIzEwO1EgNDE0NCAzNTg0IDQ1NTAgMzU4NCAmIzEwO1EgNTA5NyAzNTg0IDUzOTQgMzIwMSAmIzEwO1EgNTY5MSAyODE5IDU2OTEgMjExMyAmIzEwO0wgNTY5MSAwICYjMTA7TCA1MTEzIDAgJiMxMDtMIDUxMTMgMjA5NCAmIzEwO1EgNTExMyAyNTk3IDQ5MzQgMjg0MCAmIzEwO1EgNDc1NiAzMDg0IDQzOTEgMzA4NCAmIzEwO1EgMzk0NCAzMDg0IDM2ODQgMjc4NyAmIzEwO1EgMzQyNSAyNDkxIDM0MjUgMTk3OCAmIzEwO0wgMzQyNSAwICYjMTA7TCAyODQ3IDAgJiMxMDtMIDI4NDcgMjA5NCAmIzEwO1EgMjg0NyAyNjAwIDI2NjkgMjg0MiAmIzEwO1EgMjQ5MSAzMDg0IDIxMTkgMzA4NCAmIzEwO1EgMTY3OCAzMDg0IDE0MTggMjc4NiAmIzEwO1EgMTE1OSAyNDg4IDExNTkgMTk3OCAmIzEwO0wgMTE1OSAwICYjMTA7TCA1ODEgMCAmIzEwO0wgNTgxIDM1MDAgJiMxMDtMIDExNTkgMzUwMCAmIzEwO0wgMTE1OSAyOTU2ICYjMTA7USAxMzU2IDMyNzggMTYzMSAzNDMxICYjMTA7USAxOTA2IDM1ODQgMjI4NCAzNTg0ICYjMTA7USAyNjY2IDM1ODQgMjkzMyAzMzkwICYjMTA7USAzMjAwIDMxOTcgMzMyOCAyODI4ICYjMTA7eiIgaWQ9IkRlamFWdVNhbnMtNmQiLz4mI3hhOyAgICAgICA8L2RlZnM+JiN4YTsgICAgICAgPHVzZSB4bGluazpocmVmPSIjRGVqYVZ1U2Fucy02NSIvPiYjeGE7ICAgICAgIDx1c2UgeD0iNTkuNzczNDM4IiB4bGluazpocmVmPSIjRGVqYVZ1U2Fucy03OCIvPiYjeGE7ICAgICAgIDx1c2UgeD0iMTE1LjgyODEyNSIgeGxpbms6aHJlZj0iI0RlamFWdVNhbnMtNmYiLz4mI3hhOyAgICAgICA8dXNlIHg9IjE3Ny4wMDk3NjYiIHhsaW5rOmhyZWY9IiNEZWphVnVTYW5zLTZlIi8+JiN4YTsgICAgICAgPHVzZSB4PSIyNDAuMzg4NjcyIiB4bGluazpocmVmPSIjRGVqYVZ1U2Fucy03NSIvPiYjeGE7ICAgICAgIDx1c2UgeD0iMzAzLjc2NzU3OCIgeGxpbms6aHJlZj0iI0RlamFWdVNhbnMtNmQiLz4mI3hhOyAgICAgIDwvZz4mI3hhOyAgICAgPC9nPiYjeGE7ICAgIDwvZz4mI3hhOyAgICA8ZyBpZD0ieHRpY2tfNCI+JiN4YTsgICAgIDxnIGlkPSJsaW5lMmRfNCI+JiN4YTsgICAgICA8cGF0aCBzdHlsZT0iZmlsbDogbm9uZTsgc3Ryb2tlOiAjY2NjY2NjOyBzdHJva2UtbGluZWNhcDogcm91bmQiIGNsaXAtcGF0aD0idXJsKCNwZGU3MmJjYzI0NykiIGQ9Ik0gNDc4LjM5MDkwOSA3ODEuMDMgJiMxMDtMIDQ3OC4zOTA5MDkgNy4yIi8+JiN4YTsgICAgIDwvZz4mI3hhOyAgICAgPGcgaWQ9InRleHRfNCI+JiN4YTsgICAgICAmI3hhOyAgICAgIDxnIHRyYW5zZm9ybT0idHJhbnNsYXRlKDQ4Ny40OTY4NDcgOTgyLjgzMTQwNikgcm90YXRlKC05MCkgc2NhbGUoMC4zMyAtMC4zMykiIHN0eWxlPSJmaWxsOiAjMjYyNjI2Ij4mI3hhOyAgICAgICA8dXNlIHhsaW5rOmhyZWY9IiNEZWphVnVTYW5zLTY2Ii8+JiN4YTsgICAgICAgPHVzZSB4PSIzNS4yMDUwNzgiIHhsaW5rOmhyZWY9IiNEZWphVnVTYW5zLTY1Ii8+JiN4YTsgICAgICAgPHVzZSB4PSI5Ni43Mjg1MTYiIHhsaW5rOmhyZWY9IiNEZWphVnVTYW5zLTcyIi8+JiN4YTsgICAgICAgPHVzZSB4PSIxMzUuNTkxNzk3IiB4bGluazpocmVmPSIjRGVqYVZ1U2Fucy02ZiIvPiYjeGE7ICAgICAgIDx1c2UgeD0iMTkzLjY0ODQzOCIgeGxpbms6aHJlZj0iI0RlamFWdVNhbnMtNzgiLz4mI3hhOyAgICAgICA8dXNlIHg9IjI1Mi44MjgxMjUiIHhsaW5rOmhyZWY9IiNEZWphVnVTYW5zLTYyIi8+JiN4YTsgICAgICAgPHVzZSB4PSIzMTYuMzA0Njg4IiB4bGluazpocmVmPSIjRGVqYVZ1U2Fucy03NSIvPiYjeGE7ICAgICAgIDx1c2UgeD0iMzc5LjY4MzU5NCIgeGxpbms6aHJlZj0iI0RlamFWdVNhbnMtNzMiLz4mI3hhOyAgICAgICA8dXNlIHg9IjQzMS43ODMyMDMiIHhsaW5rOmhyZWY9IiNEZWphVnVTYW5zLTc0Ii8+JiN4YTsgICAgICAgPHVzZSB4PSI0NzAuOTkyMTg4IiB4bGluazpocmVmPSIjRGVqYVZ1U2Fucy02NSIvPiYjeGE7ICAgICAgIDx1c2UgeD0iNTMyLjUxNTYyNSIgeGxpbms6aHJlZj0iI0RlamFWdVNhbnMtNzIiLz4mI3hhOyAgICAgIDwvZz4mI3hhOyAgICAgPC9nPiYjeGE7ICAgIDwvZz4mI3hhOyAgICA8ZyBpZD0ieHRpY2tfNSI+JiN4YTsgICAgIDxnIGlkPSJsaW5lMmRfNSI+JiN4YTsgICAgICA8cGF0aCBzdHlsZT0iZmlsbDogbm9uZTsgc3Ryb2tlOiAjY2NjY2NjOyBzdHJva2UtbGluZWNhcDogcm91bmQiIGNsaXAtcGF0aD0idXJsKCNwZGU3MmJjYzI0NykiIGQ9Ik0gNTg2LjQ0NTQ1NSA3ODEuMDMgJiMxMDtMIDU4Ni40NDU0NTUgNy4yIi8+JiN4YTsgICAgIDwvZz4mI3hhOyAgICAgPGcgaWQ9InRleHRfNSI+JiN4YTsgICAgICAmI3hhOyAgICAgIDxnIHRyYW5zZm9ybT0idHJhbnNsYXRlKDU5NS41NTEzOTIgOTgzLjA4NDA2Mykgcm90YXRlKC05MCkgc2NhbGUoMC4zMyAtMC4zMykiIHN0eWxlPSJmaWxsOiAjMjYyNjI2Ij4mI3hhOyAgICAgICA8ZGVmcz4mI3hhOyAgICAgICAgPHBhdGggdHJhbnNmb3JtPSJzY2FsZSgwLjAxNTYyNSkiIGQ9Ik0gNjAzIDQ4NjMgJiMxMDtMIDExNzggNDg2MyAmIzEwO0wgMTE3OCAwICYjMTA7TCA2MDMgMCAmIzEwO0wgNjAzIDQ4NjMgJiMxMDt6IiBpZD0iRGVqYVZ1U2Fucy02YyIvPiYjeGE7ICAgICAgICA8cGF0aCB0cmFuc2Zvcm09InNjYWxlKDAuMDE1NjI1KSIgZD0iTSAzNTEzIDIxMTMgJiMxMDtMIDM1MTMgMCAmIzEwO0wgMjkzOCAwICYjMTA7TCAyOTM4IDIwOTQgJiMxMDtRIDI5MzggMjU5MSAyNzQ0IDI4MzcgJiMxMDtRIDI1NTAgMzA4NCAyMTYzIDMwODQgJiMxMDtRIDE2OTcgMzA4NCAxNDI4IDI3ODcgJiMxMDtRIDExNTkgMjQ5MSAxMTU5IDE5NzggJiMxMDtMIDExNTkgMCAmIzEwO0wgNTgxIDAgJiMxMDtMIDU4MSA0ODYzICYjMTA7TCAxMTU5IDQ4NjMgJiMxMDtMIDExNTkgMjk1NiAmIzEwO1EgMTM2NiAzMjcyIDE2NDUgMzQyOCAmIzEwO1EgMTkyNSAzNTg0IDIyOTEgMzU4NCAmIzEwO1EgMjg5NCAzNTg0IDMyMDMgMzIxMSAmIzEwO1EgMzUxMyAyODM4IDM1MTMgMjExMyAmIzEwO3oiIGlkPSJEZWphVnVTYW5zLTY4Ii8+JiN4YTsgICAgICAgPC9kZWZzPiYjeGE7ICAgICAgIDx1c2UgeGxpbms6aHJlZj0iI0RlamFWdVNhbnMtNmQiLz4mI3hhOyAgICAgICA8dXNlIHg9Ijk3LjQxMjEwOSIgeGxpbms6aHJlZj0iI0RlamFWdVNhbnMtNjUiLz4mI3hhOyAgICAgICA8dXNlIHg9IjE1OC45MzU1NDciIHhsaW5rOmhyZWY9IiNEZWphVnVTYW5zLTY5Ii8+JiN4YTsgICAgICAgPHVzZSB4PSIxODYuNzE4NzUiIHhsaW5rOmhyZWY9IiNEZWphVnVTYW5zLTZjIi8+JiN4YTsgICAgICAgPHVzZSB4PSIyMTQuNTAxOTUzIiB4bGluazpocmVmPSIjRGVqYVZ1U2Fucy02OSIvPiYjeGE7ICAgICAgIDx1c2UgeD0iMjQyLjI4NTE1NiIgeGxpbms6aHJlZj0iI0RlamFWdVNhbnMtNzMiLz4mI3hhOyAgICAgICA8dXNlIHg9IjI5NC4zODQ3NjYiIHhsaW5rOmhyZWY9IiNEZWphVnVTYW5zLTY1Ii8+JiN4YTsgICAgICAgPHVzZSB4PSIzNTUuOTA4MjAzIiB4bGluazpocmVmPSIjRGVqYVZ1U2Fucy02MSIvPiYjeGE7ICAgICAgIDx1c2UgeD0iNDE3LjE4NzUiIHhsaW5rOmhyZWY9IiNEZWphVnVTYW5zLTcyIi8+JiN4YTsgICAgICAgPHVzZSB4PSI0NTYuMDUwNzgxIiB4bGluazpocmVmPSIjRGVqYVZ1U2Fucy02MyIvPiYjeGE7ICAgICAgIDx1c2UgeD0iNTExLjAzMTI1IiB4bGluazpocmVmPSIjRGVqYVZ1U2Fucy02OCIvPiYjeGE7ICAgICAgPC9nPiYjeGE7ICAgICA8L2c+JiN4YTsgICAgPC9nPiYjeGE7ICAgIDxnIGlkPSJ4dGlja182Ij4mI3hhOyAgICAgPGcgaWQ9ImxpbmUyZF82Ij4mI3hhOyAgICAgIDxwYXRoIHN0eWxlPSJmaWxsOiBub25lOyBzdHJva2U6ICNjY2NjY2M7IHN0cm9rZS1saW5lY2FwOiByb3VuZCIgY2xpcC1wYXRoPSJ1cmwoI3BkZTcyYmNjMjQ3KSIgZD0iTSA2OTQuNSA3ODEuMDMgJiMxMDtMIDY5NC41IDcuMiIvPiYjeGE7ICAgICA8L2c+JiN4YTsgICAgIDxnIGlkPSJ0ZXh0XzYiPiYjeGE7ICAgICAgJiN4YTsgICAgICA8ZyB0cmFuc2Zvcm09InRyYW5zbGF0ZSg3MDMuNjA1OTM3IDkxMi4xMDMxMjUpIHJvdGF0ZSgtOTApIHNjYWxlKDAuMzMgLTAuMzMpIiBzdHlsZT0iZmlsbDogIzI2MjYyNiI+JiN4YTsgICAgICAgPHVzZSB4bGluazpocmVmPSIjRGVqYVZ1U2Fucy02ZSIvPiYjeGE7ICAgICAgIDx1c2UgeD0iNjMuMzc4OTA2IiB4bGluazpocmVmPSIjRGVqYVZ1U2Fucy03NSIvPiYjeGE7ICAgICAgIDx1c2UgeD0iMTI2Ljc1NzgxMiIgeGxpbms6aHJlZj0iI0RlamFWdVNhbnMtNzMiLz4mI3hhOyAgICAgICA8dXNlIHg9IjE3OC44NTc0MjIiIHhsaW5rOmhyZWY9IiNEZWphVnVTYW5zLTY4Ii8+JiN4YTsgICAgICAgPHVzZSB4PSIyNDIuMjM2MzI4IiB4bGluazpocmVmPSIjRGVqYVZ1U2Fucy02NSIvPiYjeGE7ICAgICAgIDx1c2UgeD0iMzAzLjc1OTc2NiIgeGxpbms6aHJlZj0iI0RlamFWdVNhbnMtNmMiLz4mI3hhOyAgICAgICA8dXNlIHg9IjMzMS41NDI5NjkiIHhsaW5rOmhyZWY9IiNEZWphVnVTYW5zLTZjIi8+JiN4YTsgICAgICA8L2c+JiN4YTsgICAgIDwvZz4mI3hhOyAgICA8L2c+JiN4YTsgICAgPGcgaWQ9Inh0aWNrXzciPiYjeGE7ICAgICA8ZyBpZD0ibGluZTJkXzciPiYjeGE7ICAgICAgPHBhdGggc3R5bGU9ImZpbGw6IG5vbmU7IHN0cm9rZTogI2NjY2NjYzsgc3Ryb2tlLWxpbmVjYXA6IHJvdW5kIiBjbGlwLXBhdGg9InVybCgjcGRlNzJiY2MyNDcpIiBkPSJNIDgwMi41NTQ1NDUgNzgxLjAzICYjMTA7TCA4MDIuNTU0NTQ1IDcuMiIvPiYjeGE7ICAgICA8L2c+JiN4YTsgICAgIDxnIGlkPSJ0ZXh0XzciPiYjeGE7ICAgICAgJiN4YTsgICAgICA8ZyB0cmFuc2Zvcm09InRyYW5zbGF0ZSg4MTEuNjYwNDgzIDg4Ny45NTY0MDYpIHJvdGF0ZSgtOTApIHNjYWxlKDAuMzMgLTAuMzMpIiBzdHlsZT0iZmlsbDogIzI2MjYyNiI+JiN4YTsgICAgICAgPGRlZnM+JiN4YTsgICAgICAgIDxwYXRoIHRyYW5zZm9ybT0ic2NhbGUoMC4wMTU2MjUpIiBkPSJNIDIwNTkgLTMyNSAmIzEwO1EgMTgxNiAtOTUwIDE1ODQgLTExNDAgJiMxMDtRIDEzNTMgLTEzMzEgOTY2IC0xMzMxICYjMTA7TCA1MDYgLTEzMzEgJiMxMDtMIDUwNiAtODUwICYjMTA7TCA4NDQgLTg1MCAmIzEwO1EgMTA4MSAtODUwIDEyMTIgLTczNyAmIzEwO1EgMTM0NCAtNjI1IDE1MDMgLTIwNiAmIzEwO0wgMTYwNiA1NiAmIzEwO0wgMTkxIDM1MDAgJiMxMDtMIDgwMCAzNTAwICYjMTA7TCAxODk0IDc2MyAmIzEwO0wgMjk4OCAzNTAwICYjMTA7TCAzNTk3IDM1MDAgJiMxMDtMIDIwNTkgLTMyNSAmIzEwO3oiIGlkPSJEZWphVnVTYW5zLTc5Ii8+JiN4YTsgICAgICAgPC9kZWZzPiYjeGE7ICAgICAgIDx1c2UgeGxpbms6aHJlZj0iI0RlamFWdVNhbnMtNzIiLz4mI3hhOyAgICAgICA8dXNlIHg9IjQxLjExMzI4MSIgeGxpbms6aHJlZj0iI0RlamFWdVNhbnMtNjEiLz4mI3hhOyAgICAgICA8dXNlIHg9IjEwMi4zOTI1NzgiIHhsaW5rOmhyZWY9IiNEZWphVnVTYW5zLTc5Ii8+JiN4YTsgICAgICAgPHVzZSB4PSIxNjEuNTcyMjY2IiB4bGluazpocmVmPSIjRGVqYVZ1U2Fucy02ZiIvPiYjeGE7ICAgICAgIDx1c2UgeD0iMjIyLjc1MzkwNiIgeGxpbms6aHJlZj0iI0RlamFWdVNhbnMtNmUiLz4mI3hhOyAgICAgIDwvZz4mI3hhOyAgICAgPC9nPiYjeGE7ICAgIDwvZz4mI3hhOyAgICA8ZyBpZD0ieHRpY2tfOCI+JiN4YTsgICAgIDxnIGlkPSJsaW5lMmRfOCI+JiN4YTsgICAgICA8cGF0aCBzdHlsZT0iZmlsbDogbm9uZTsgc3Ryb2tlOiAjY2NjY2NjOyBzdHJva2UtbGluZWNhcDogcm91bmQiIGNsaXAtcGF0aD0idXJsKCNwZGU3MmJjYzI0NykiIGQ9Ik0gOTEwLjYwOTA5MSA3ODEuMDMgJiMxMDtMIDkxMC42MDkwOTEgNy4yIi8+JiN4YTsgICAgIDwvZz4mI3hhOyAgICAgPGcgaWQ9InRleHRfOCI+JiN4YTsgICAgICAmI3hhOyAgICAgIDxnIHRyYW5zZm9ybT0idHJhbnNsYXRlKDkxOS43MTUwMjggODYxLjE0MzkwNikgcm90YXRlKC05MCkgc2NhbGUoMC4zMyAtMC4zMykiIHN0eWxlPSJmaWxsOiAjMjYyNjI2Ij4mI3hhOyAgICAgICA8dXNlIHhsaW5rOmhyZWY9IiNEZWphVnVTYW5zLTczIi8+JiN4YTsgICAgICAgPHVzZSB4PSI1Mi4wOTk2MDkiIHhsaW5rOmhyZWY9IiNEZWphVnVTYW5zLTZjIi8+JiN4YTsgICAgICAgPHVzZSB4PSI3OS44ODI4MTIiIHhsaW5rOmhyZWY9IiNEZWphVnVTYW5zLTY1Ii8+JiN4YTsgICAgICAgPHVzZSB4PSIxNDEuNDA2MjUiIHhsaW5rOmhyZWY9IiNEZWphVnVTYW5zLTY0Ii8+JiN4YTsgICAgICA8L2c+JiN4YTsgICAgIDwvZz4mI3hhOyAgICA8L2c+JiN4YTsgICAgPGcgaWQ9Inh0aWNrXzkiPiYjeGE7ICAgICA8ZyBpZD0ibGluZTJkXzkiPiYjeGE7ICAgICAgPHBhdGggc3R5bGU9ImZpbGw6IG5vbmU7IHN0cm9rZTogI2NjY2NjYzsgc3Ryb2tlLWxpbmVjYXA6IHJvdW5kIiBjbGlwLXBhdGg9InVybCgjcGRlNzJiY2MyNDcpIiBkPSJNIDEwMTguNjYzNjM2IDc4MS4wMyAmIzEwO0wgMTAxOC42NjM2MzYgNy4yIi8+JiN4YTsgICAgIDwvZz4mI3hhOyAgICAgPGcgaWQ9InRleHRfOSI+JiN4YTsgICAgICAmI3hhOyAgICAgIDxnIHRyYW5zZm9ybT0idHJhbnNsYXRlKDEwMjcuNzY5NTc0IDkwOC43NzIxODcpIHJvdGF0ZSgtOTApIHNjYWxlKDAuMzMgLTAuMzMpIiBzdHlsZT0iZmlsbDogIzI2MjYyNiI+JiN4YTsgICAgICAgPGRlZnM+JiN4YTsgICAgICAgIDxwYXRoIHRyYW5zZm9ybT0ic2NhbGUoMC4wMTU2MjUpIiBkPSJNIDE5MSAzNTAwICYjMTA7TCA4MDAgMzUwMCAmIzEwO0wgMTg5NCA1NjMgJiMxMDtMIDI5ODggMzUwMCAmIzEwO0wgMzU5NyAzNTAwICYjMTA7TCAyMjg0IDAgJiMxMDtMIDE1MDMgMCAmIzEwO0wgMTkxIDM1MDAgJiMxMDt6IiBpZD0iRGVqYVZ1U2Fucy03NiIvPiYjeGE7ICAgICAgIDwvZGVmcz4mI3hhOyAgICAgICA8dXNlIHhsaW5rOmhyZWY9IiNEZWphVnVTYW5zLTc0Ii8+JiN4YTsgICAgICAgPHVzZSB4PSIzOS4yMDg5ODQiIHhsaW5rOmhyZWY9IiNEZWphVnVTYW5zLTYxIi8+JiN4YTsgICAgICAgPHVzZSB4PSIxMDAuNDg4MjgxIiB4bGluazpocmVmPSIjRGVqYVZ1U2Fucy02ZSIvPiYjeGE7ICAgICAgIDx1c2UgeD0iMTYzLjg2NzE4OCIgeGxpbms6aHJlZj0iI0RlamFWdVNhbnMtNzQiLz4mI3hhOyAgICAgICA8dXNlIHg9IjIwMy4wNzYxNzIiIHhsaW5rOmhyZWY9IiNEZWphVnVTYW5zLTY5Ii8+JiN4YTsgICAgICAgPHVzZSB4PSIyMzAuODU5Mzc1IiB4bGluazpocmVmPSIjRGVqYVZ1U2Fucy03NiIvPiYjeGE7ICAgICAgIDx1c2UgeD0iMjkwLjAzOTA2MiIgeGxpbms6aHJlZj0iI0RlamFWdVNhbnMtNzkiLz4mI3hhOyAgICAgIDwvZz4mI3hhOyAgICAgPC9nPiYjeGE7ICAgIDwvZz4mI3hhOyAgICA8ZyBpZD0ieHRpY2tfMTAiPiYjeGE7ICAgICA8ZyBpZD0ibGluZTJkXzEwIj4mI3hhOyAgICAgIDxwYXRoIHN0eWxlPSJmaWxsOiBub25lOyBzdHJva2U6ICNjY2NjY2M7IHN0cm9rZS1saW5lY2FwOiByb3VuZCIgY2xpcC1wYXRoPSJ1cmwoI3BkZTcyYmNjMjQ3KSIgZD0iTSAxMTI2LjcxODE4MiA3ODEuMDMgJiMxMDtMIDExMjYuNzE4MTgyIDcuMiIvPiYjeGE7ICAgICA8L2c+JiN4YTsgICAgIDxnIGlkPSJ0ZXh0XzEwIj4mI3hhOyAgICAgICYjeGE7ICAgICAgPGcgdHJhbnNmb3JtPSJ0cmFuc2xhdGUoMTEzNS44MjQxMTkgOTIzLjk0NzAzMSkgcm90YXRlKC05MCkgc2NhbGUoMC4zMyAtMC4zMykiIHN0eWxlPSJmaWxsOiAjMjYyNjI2Ij4mI3hhOyAgICAgICA8dXNlIHhsaW5rOmhyZWY9IiNEZWphVnVTYW5zLTc3Ii8+JiN4YTsgICAgICAgPHVzZSB4PSI4MS43ODcxMDkiIHhsaW5rOmhyZWY9IiNEZWphVnVTYW5zLTYxIi8+JiN4YTsgICAgICAgPHVzZSB4PSIxNDMuMDY2NDA2IiB4bGluazpocmVmPSIjRGVqYVZ1U2Fucy03MyIvPiYjeGE7ICAgICAgIDx1c2UgeD0iMTk1LjE2NjAxNiIgeGxpbms6aHJlZj0iI0RlamFWdVNhbnMtNmQiLz4mI3hhOyAgICAgICA8dXNlIHg9IjI5Mi41NzgxMjUiIHhsaW5rOmhyZWY9IiNEZWphVnVTYW5zLTY1Ii8+JiN4YTsgICAgICAgPHVzZSB4PSIzNTQuMTAxNTYyIiB4bGluazpocmVmPSIjRGVqYVZ1U2Fucy03MiIvPiYjeGE7ICAgICAgPC9nPiYjeGE7ICAgICA8L2c+JiN4YTsgICAgPC9nPiYjeGE7ICAgIDxnIGlkPSJ4dGlja18xMSI+JiN4YTsgICAgIDxnIGlkPSJsaW5lMmRfMTEiPiYjeGE7ICAgICAgPHBhdGggc3R5bGU9ImZpbGw6IG5vbmU7IHN0cm9rZTogI2NjY2NjYzsgc3Ryb2tlLWxpbmVjYXA6IHJvdW5kIiBjbGlwLXBhdGg9InVybCgjcGRlNzJiY2MyNDcpIiBkPSJNIDEyMzQuNzcyNzI3IDc4MS4wMyAmIzEwO0wgMTIzNC43NzI3MjcgNy4yIi8+JiN4YTsgICAgIDwvZz4mI3hhOyAgICAgPGcgaWQ9InRleHRfMTEiPiYjeGE7ICAgICAgJiN4YTsgICAgICA8ZyB0cmFuc2Zvcm09InRyYW5zbGF0ZSgxMjQzLjg3ODY2NSA4OTMuMTc0NTMxKSByb3RhdGUoLTkwKSBzY2FsZSgwLjMzIC0wLjMzKSIgc3R5bGU9ImZpbGw6ICMyNjI2MjYiPiYjeGE7ICAgICAgIDxkZWZzPiYjeGE7ICAgICAgICA8cGF0aCB0cmFuc2Zvcm09InNjYWxlKDAuMDE1NjI1KSIgZD0iTSAzNTMgMzUwMCAmIzEwO0wgMzA4NCAzNTAwICYjMTA7TCAzMDg0IDI5NzUgJiMxMDtMIDkyMiA0NTkgJiMxMDtMIDMwODQgNDU5ICYjMTA7TCAzMDg0IDAgJiMxMDtMIDI3NSAwICYjMTA7TCAyNzUgNTI1ICYjMTA7TCAyNDM4IDMwNDEgJiMxMDtMIDM1MyAzMDQxICYjMTA7TCAzNTMgMzUwMCAmIzEwO3oiIGlkPSJEZWphVnVTYW5zLTdhIi8+JiN4YTsgICAgICAgPC9kZWZzPiYjeGE7ICAgICAgIDx1c2UgeGxpbms6aHJlZj0iI0RlamFWdVNhbnMtN2EiLz4mI3hhOyAgICAgICA8dXNlIHg9IjUyLjQ5MDIzNCIgeGxpbms6aHJlZj0iI0RlamFWdVNhbnMtNjUiLz4mI3hhOyAgICAgICA8dXNlIHg9IjExNC4wMTM2NzIiIHhsaW5rOmhyZWY9IiNEZWphVnVTYW5zLTZlIi8+JiN4YTsgICAgICAgPHVzZSB4PSIxNzcuMzkyNTc4IiB4bGluazpocmVmPSIjRGVqYVZ1U2Fucy02ZiIvPiYjeGE7ICAgICAgIDx1c2UgeD0iMjM4LjU3NDIxOSIgeGxpbms6aHJlZj0iI0RlamFWdVNhbnMtNjgiLz4mI3hhOyAgICAgIDwvZz4mI3hhOyAgICAgPC9nPiYjeGE7ICAgIDwvZz4mI3hhOyAgIDwvZz4mI3hhOyAgIDxnIGlkPSJtYXRwbG90bGliLmF4aXNfMiI+JiN4YTsgICAgPGcgaWQ9Inl0aWNrXzEiPiYjeGE7ICAgICA8ZyBpZD0ibGluZTJkXzEyIj4mI3hhOyAgICAgIDxwYXRoIHN0eWxlPSJmaWxsOiBub25lOyBzdHJva2U6ICNjY2NjY2M7IHN0cm9rZS1saW5lY2FwOiByb3VuZCIgY2xpcC1wYXRoPSJ1cmwoI3BkZTcyYmNjMjQ3KSIgZD0iTSAxMDAuMiA3NDUuODU1OTA5ICYjMTA7TCAxMjg4LjggNzQ1Ljg1NTkwOSIvPiYjeGE7ICAgICA8L2c+JiN4YTsgICAgIDxnIGlkPSJ0ZXh0XzEyIj4mI3hhOyAgICAgICYjeGE7ICAgICAgPGcgdHJhbnNmb3JtPSJ0cmFuc2xhdGUoNjYuNzAzNzUgNzU4LjM5MzMzMSkgc2NhbGUoMC4zMyAtMC4zMykiIHN0eWxlPSJmaWxsOiAjMjYyNjI2Ij4mI3hhOyAgICAgICA8ZGVmcz4mI3hhOyAgICAgICAgPHBhdGggdHJhbnNmb3JtPSJzY2FsZSgwLjAxNTYyNSkiIGQ9Ik0gMjAzNCA0MjUwICYjMTA7USAxNTQ3IDQyNTAgMTMwMSAzNzcwICYjMTA7USAxMDU2IDMyOTEgMTA1NiAyMzI4ICYjMTA7USAxMDU2IDEzNjkgMTMwMSA4ODkgJiMxMDtRIDE1NDcgNDA5IDIwMzQgNDA5ICYjMTA7USAyNTI1IDQwOSAyNzcwIDg4OSAmIzEwO1EgMzAxNiAxMzY5IDMwMTYgMjMyOCAmIzEwO1EgMzAxNiAzMjkxIDI3NzAgMzc3MCAmIzEwO1EgMjUyNSA0MjUwIDIwMzQgNDI1MCAmIzEwO3omIzEwO00gMjAzNCA0NzUwICYjMTA7USAyODE5IDQ3NTAgMzIzMyA0MTI5ICYjMTA7USAzNjQ3IDM1MDkgMzY0NyAyMzI4ICYjMTA7USAzNjQ3IDExNTAgMzIzMyA1MjkgJiMxMDtRIDI4MTkgLTkxIDIwMzQgLTkxICYjMTA7USAxMjUwIC05MSA4MzYgNTI5ICYjMTA7USA0MjIgMTE1MCA0MjIgMjMyOCAmIzEwO1EgNDIyIDM1MDkgODM2IDQxMjkgJiMxMDtRIDEyNTAgNDc1MCAyMDM0IDQ3NTAgJiMxMDt6IiBpZD0iRGVqYVZ1U2Fucy0zMCIvPiYjeGE7ICAgICAgIDwvZGVmcz4mI3hhOyAgICAgICA8dXNlIHhsaW5rOmhyZWY9IiNEZWphVnVTYW5zLTMwIi8+JiN4YTsgICAgICA8L2c+JiN4YTsgICAgIDwvZz4mI3hhOyAgICA8L2c+JiN4YTsgICAgPGcgaWQ9Inl0aWNrXzIiPiYjeGE7ICAgICA8ZyBpZD0ibGluZTJkXzEzIj4mI3hhOyAgICAgIDxwYXRoIHN0eWxlPSJmaWxsOiBub25lOyBzdHJva2U6ICNjY2NjY2M7IHN0cm9rZS1saW5lY2FwOiByb3VuZCIgY2xpcC1wYXRoPSJ1cmwoI3BkZTcyYmNjMjQ3KSIgZD0iTSAxMDAuMiA2MTMuMTIzNDkxICYjMTA7TCAxMjg4LjggNjEzLjEyMzQ5MSIvPiYjeGE7ICAgICA8L2c+JiN4YTsgICAgIDxnIGlkPSJ0ZXh0XzEzIj4mI3hhOyAgICAgICYjeGE7ICAgICAgPGcgdHJhbnNmb3JtPSJ0cmFuc2xhdGUoNDUuNzA3NSA2MjUuNjYwOTEyKSBzY2FsZSgwLjMzIC0wLjMzKSIgc3R5bGU9ImZpbGw6ICMyNjI2MjYiPiYjeGE7ICAgICAgIDxkZWZzPiYjeGE7ICAgICAgICA8cGF0aCB0cmFuc2Zvcm09InNjYWxlKDAuMDE1NjI1KSIgZD0iTSA3OTQgNTMxICYjMTA7TCAxODI1IDUzMSAmIzEwO0wgMTgyNSA0MDkxICYjMTA7TCA3MDMgMzg2NiAmIzEwO0wgNzAzIDQ0NDEgJiMxMDtMIDE4MTkgNDY2NiAmIzEwO0wgMjQ1MCA0NjY2ICYjMTA7TCAyNDUwIDUzMSAmIzEwO0wgMzQ4MSA1MzEgJiMxMDtMIDM0ODEgMCAmIzEwO0wgNzk0IDAgJiMxMDtMIDc5NCA1MzEgJiMxMDt6IiBpZD0iRGVqYVZ1U2Fucy0zMSIvPiYjeGE7ICAgICAgIDwvZGVmcz4mI3hhOyAgICAgICA8dXNlIHhsaW5rOmhyZWY9IiNEZWphVnVTYW5zLTMxIi8+JiN4YTsgICAgICAgPHVzZSB4PSI2My42MjMwNDciIHhsaW5rOmhyZWY9IiNEZWphVnVTYW5zLTMwIi8+JiN4YTsgICAgICA8L2c+JiN4YTsgICAgIDwvZz4mI3hhOyAgICA8L2c+JiN4YTsgICAgPGcgaWQ9Inl0aWNrXzMiPiYjeGE7ICAgICA8ZyBpZD0ibGluZTJkXzE0Ij4mI3hhOyAgICAgIDxwYXRoIHN0eWxlPSJmaWxsOiBub25lOyBzdHJva2U6ICNjY2NjY2M7IHN0cm9rZS1saW5lY2FwOiByb3VuZCIgY2xpcC1wYXRoPSJ1cmwoI3BkZTcyYmNjMjQ3KSIgZD0iTSAxMDAuMiA0ODAuMzkxMDcyICYjMTA7TCAxMjg4LjggNDgwLjM5MTA3MiIvPiYjeGE7ICAgICA8L2c+JiN4YTsgICAgIDxnIGlkPSJ0ZXh0XzE0Ij4mI3hhOyAgICAgICYjeGE7ICAgICAgPGcgdHJhbnNmb3JtPSJ0cmFuc2xhdGUoNDUuNzA3NSA0OTIuOTI4NDk0KSBzY2FsZSgwLjMzIC0wLjMzKSIgc3R5bGU9ImZpbGw6ICMyNjI2MjYiPiYjeGE7ICAgICAgIDxkZWZzPiYjeGE7ICAgICAgICA8cGF0aCB0cmFuc2Zvcm09InNjYWxlKDAuMDE1NjI1KSIgZD0iTSAxMjI4IDUzMSAmIzEwO0wgMzQzMSA1MzEgJiMxMDtMIDM0MzEgMCAmIzEwO0wgNDY5IDAgJiMxMDtMIDQ2OSA1MzEgJiMxMDtRIDgyOCA5MDMgMTQ0OCAxNTI5ICYjMTA7USAyMDY5IDIxNTYgMjIyOCAyMzM4ICYjMTA7USAyNTMxIDI2NzggMjY1MSAyOTE0ICYjMTA7USAyNzcyIDMxNTAgMjc3MiAzMzc4ICYjMTA7USAyNzcyIDM3NTAgMjUxMSAzOTg0ICYjMTA7USAyMjUwIDQyMTkgMTgzMSA0MjE5ICYjMTA7USAxNTM0IDQyMTkgMTIwNCA0MTE2ICYjMTA7USA4NzUgNDAxMyA1MDAgMzgwMyAmIzEwO0wgNTAwIDQ0NDEgJiMxMDtRIDg4MSA0NTk0IDEyMTIgNDY3MiAmIzEwO1EgMTU0NCA0NzUwIDE4MTkgNDc1MCAmIzEwO1EgMjU0NCA0NzUwIDI5NzUgNDM4NyAmIzEwO1EgMzQwNiA0MDI1IDM0MDYgMzQxOSAmIzEwO1EgMzQwNiAzMTMxIDMyOTggMjg3MyAmIzEwO1EgMzE5MSAyNjE2IDI5MDYgMjI2NiAmIzEwO1EgMjgyOCAyMTc1IDI0MDkgMTc0MiAmIzEwO1EgMTk5MSAxMzA5IDEyMjggNTMxICYjMTA7eiIgaWQ9IkRlamFWdVNhbnMtMzIiLz4mI3hhOyAgICAgICA8L2RlZnM+JiN4YTsgICAgICAgPHVzZSB4bGluazpocmVmPSIjRGVqYVZ1U2Fucy0zMiIvPiYjeGE7ICAgICAgIDx1c2UgeD0iNjMuNjIzMDQ3IiB4bGluazpocmVmPSIjRGVqYVZ1U2Fucy0zMCIvPiYjeGE7ICAgICAgPC9nPiYjeGE7ICAgICA8L2c+JiN4YTsgICAgPC9nPiYjeGE7ICAgIDxnIGlkPSJ5dGlja180Ij4mI3hhOyAgICAgPGcgaWQ9ImxpbmUyZF8xNSI+JiN4YTsgICAgICA8cGF0aCBzdHlsZT0iZmlsbDogbm9uZTsgc3Ryb2tlOiAjY2NjY2NjOyBzdHJva2UtbGluZWNhcDogcm91bmQiIGNsaXAtcGF0aD0idXJsKCNwZGU3MmJjYzI0NykiIGQ9Ik0gMTAwLjIgMzQ3LjY1ODY1NCAmIzEwO0wgMTI4OC44IDM0Ny42NTg2NTQiLz4mI3hhOyAgICAgPC9nPiYjeGE7ICAgICA8ZyBpZD0idGV4dF8xNSI+JiN4YTsgICAgICAmI3hhOyAgICAgIDxnIHRyYW5zZm9ybT0idHJhbnNsYXRlKDQ1LjcwNzUgMzYwLjE5NjA3NSkgc2NhbGUoMC4zMyAtMC4zMykiIHN0eWxlPSJmaWxsOiAjMjYyNjI2Ij4mI3hhOyAgICAgICA8ZGVmcz4mI3hhOyAgICAgICAgPHBhdGggdHJhbnNmb3JtPSJzY2FsZSgwLjAxNTYyNSkiIGQ9Ik0gMjU5NyAyNTE2ICYjMTA7USAzMDUwIDI0MTkgMzMwNCAyMTEyICYjMTA7USAzNTU5IDE4MDYgMzU1OSAxMzU2ICYjMTA7USAzNTU5IDY2NiAzMDg0IDI4NyAmIzEwO1EgMjYwOSAtOTEgMTczNCAtOTEgJiMxMDtRIDE0NDEgLTkxIDExMzAgLTMzICYjMTA7USA4MTkgMjUgNDg4IDE0MSAmIzEwO0wgNDg4IDc1MCAmIzEwO1EgNzUwIDU5NyAxMDYyIDUxOSAmIzEwO1EgMTM3NSA0NDEgMTcxNiA0NDEgJiMxMDtRIDIzMDkgNDQxIDI2MjAgNjc1ICYjMTA7USAyOTMxIDkwOSAyOTMxIDEzNTYgJiMxMDtRIDI5MzEgMTc2OSAyNjQyIDIwMDEgJiMxMDtRIDIzNTMgMjIzNCAxODM4IDIyMzQgJiMxMDtMIDEyOTQgMjIzNCAmIzEwO0wgMTI5NCAyNzUzICYjMTA7TCAxODYzIDI3NTMgJiMxMDtRIDIzMjggMjc1MyAyNTc1IDI5MzkgJiMxMDtRIDI4MjIgMzEyNSAyODIyIDM0NzUgJiMxMDtRIDI4MjIgMzgzNCAyNTY3IDQwMjYgJiMxMDtRIDIzMTMgNDIxOSAxODM4IDQyMTkgJiMxMDtRIDE1NzggNDIxOSAxMjgxIDQxNjIgJiMxMDtRIDk4NCA0MTA2IDYyOCAzOTg4ICYjMTA7TCA2MjggNDU1MCAmIzEwO1EgOTg4IDQ2NTAgMTMwMiA0NzAwICYjMTA7USAxNjE2IDQ3NTAgMTg5NCA0NzUwICYjMTA7USAyNjEzIDQ3NTAgMzAzMSA0NDIzICYjMTA7USAzNDUwIDQwOTcgMzQ1MCAzNTQxICYjMTA7USAzNDUwIDMxNTMgMzIyOCAyODg2ICYjMTA7USAzMDA2IDI2MTkgMjU5NyAyNTE2ICYjMTA7eiIgaWQ9IkRlamFWdVNhbnMtMzMiLz4mI3hhOyAgICAgICA8L2RlZnM+JiN4YTsgICAgICAgPHVzZSB4bGluazpocmVmPSIjRGVqYVZ1U2Fucy0zMyIvPiYjeGE7ICAgICAgIDx1c2UgeD0iNjMuNjIzMDQ3IiB4bGluazpocmVmPSIjRGVqYVZ1U2Fucy0zMCIvPiYjeGE7ICAgICAgPC9nPiYjeGE7ICAgICA8L2c+JiN4YTsgICAgPC9nPiYjeGE7ICAgIDxnIGlkPSJ5dGlja181Ij4mI3hhOyAgICAgPGcgaWQ9ImxpbmUyZF8xNiI+JiN4YTsgICAgICA8cGF0aCBzdHlsZT0iZmlsbDogbm9uZTsgc3Ryb2tlOiAjY2NjY2NjOyBzdHJva2UtbGluZWNhcDogcm91bmQiIGNsaXAtcGF0aD0idXJsKCNwZGU3MmJjYzI0NykiIGQ9Ik0gMTAwLjIgMjE0LjkyNjIzNSAmIzEwO0wgMTI4OC44IDIxNC45MjYyMzUiLz4mI3hhOyAgICAgPC9nPiYjeGE7ICAgICA8ZyBpZD0idGV4dF8xNiI+JiN4YTsgICAgICAmI3hhOyAgICAgIDxnIHRyYW5zZm9ybT0idHJhbnNsYXRlKDQ1LjcwNzUgMjI3LjQ2MzY1Nykgc2NhbGUoMC4zMyAtMC4zMykiIHN0eWxlPSJmaWxsOiAjMjYyNjI2Ij4mI3hhOyAgICAgICA8ZGVmcz4mI3hhOyAgICAgICAgPHBhdGggdHJhbnNmb3JtPSJzY2FsZSgwLjAxNTYyNSkiIGQ9Ik0gMjQxOSA0MTE2ICYjMTA7TCA4MjUgMTYyNSAmIzEwO0wgMjQxOSAxNjI1ICYjMTA7TCAyNDE5IDQxMTYgJiMxMDt6JiMxMDtNIDIyNTMgNDY2NiAmIzEwO0wgMzA0NyA0NjY2ICYjMTA7TCAzMDQ3IDE2MjUgJiMxMDtMIDM3MTMgMTYyNSAmIzEwO0wgMzcxMyAxMTAwICYjMTA7TCAzMDQ3IDExMDAgJiMxMDtMIDMwNDcgMCAmIzEwO0wgMjQxOSAwICYjMTA7TCAyNDE5IDExMDAgJiMxMDtMIDMxMyAxMTAwICYjMTA7TCAzMTMgMTcwOSAmIzEwO0wgMjI1MyA0NjY2ICYjMTA7eiIgaWQ9IkRlamFWdVNhbnMtMzQiLz4mI3hhOyAgICAgICA8L2RlZnM+JiN4YTsgICAgICAgPHVzZSB4bGluazpocmVmPSIjRGVqYVZ1U2Fucy0zNCIvPiYjeGE7ICAgICAgIDx1c2UgeD0iNjMuNjIzMDQ3IiB4bGluazpocmVmPSIjRGVqYVZ1U2Fucy0zMCIvPiYjeGE7ICAgICAgPC9nPiYjeGE7ICAgICA8L2c+JiN4YTsgICAgPC9nPiYjeGE7ICAgIDxnIGlkPSJ5dGlja182Ij4mI3hhOyAgICAgPGcgaWQ9ImxpbmUyZF8xNyI+JiN4YTsgICAgICA8cGF0aCBzdHlsZT0iZmlsbDogbm9uZTsgc3Ryb2tlOiAjY2NjY2NjOyBzdHJva2UtbGluZWNhcDogcm91bmQiIGNsaXAtcGF0aD0idXJsKCNwZGU3MmJjYzI0NykiIGQ9Ik0gMTAwLjIgODIuMTkzODE2ICYjMTA7TCAxMjg4LjggODIuMTkzODE2Ii8+JiN4YTsgICAgIDwvZz4mI3hhOyAgICAgPGcgaWQ9InRleHRfMTciPiYjeGE7ICAgICAgJiN4YTsgICAgICA8ZyB0cmFuc2Zvcm09InRyYW5zbGF0ZSg0NS43MDc1IDk0LjczMTIzOCkgc2NhbGUoMC4zMyAtMC4zMykiIHN0eWxlPSJmaWxsOiAjMjYyNjI2Ij4mI3hhOyAgICAgICA8ZGVmcz4mI3hhOyAgICAgICAgPHBhdGggdHJhbnNmb3JtPSJzY2FsZSgwLjAxNTYyNSkiIGQ9Ik0gNjkxIDQ2NjYgJiMxMDtMIDMxNjkgNDY2NiAmIzEwO0wgMzE2OSA0MTM0ICYjMTA7TCAxMjY5IDQxMzQgJiMxMDtMIDEyNjkgMjk5MSAmIzEwO1EgMTQwNiAzMDM4IDE1NDMgMzA2MSAmIzEwO1EgMTY4MSAzMDg0IDE4MTkgMzA4NCAmIzEwO1EgMjYwMCAzMDg0IDMwNTYgMjY1NiAmIzEwO1EgMzUxMyAyMjI4IDM1MTMgMTQ5NyAmIzEwO1EgMzUxMyA3NDQgMzA0NCAzMjYgJiMxMDtRIDI1NzUgLTkxIDE3MjIgLTkxICYjMTA7USAxNDI4IC05MSAxMTIzIC00MSAmIzEwO1EgODE5IDkgNDk0IDEwOSAmIzEwO0wgNDk0IDc0NCAmIzEwO1EgNzc1IDU5MSAxMDc1IDUxNiAmIzEwO1EgMTM3NSA0NDEgMTcwOSA0NDEgJiMxMDtRIDIyNTAgNDQxIDI1NjUgNzI1ICYjMTA7USAyODgxIDEwMDkgMjg4MSAxNDk3ICYjMTA7USAyODgxIDE5ODQgMjU2NSAyMjY4ICYjMTA7USAyMjUwIDI1NTMgMTcwOSAyNTUzICYjMTA7USAxNDU2IDI1NTMgMTIwNCAyNDk3ICYjMTA7USA5NTMgMjQ0MSA2OTEgMjMyMiAmIzEwO0wgNjkxIDQ2NjYgJiMxMDt6IiBpZD0iRGVqYVZ1U2Fucy0zNSIvPiYjeGE7ICAgICAgIDwvZGVmcz4mI3hhOyAgICAgICA8dXNlIHhsaW5rOmhyZWY9IiNEZWphVnVTYW5zLTM1Ii8+JiN4YTsgICAgICAgPHVzZSB4PSI2My42MjMwNDciIHhsaW5rOmhyZWY9IiNEZWphVnVTYW5zLTMwIi8+JiN4YTsgICAgICA8L2c+JiN4YTsgICAgIDwvZz4mI3hhOyAgICA8L2c+JiN4YTsgICAgPGcgaWQ9Inl0aWNrXzciPiYjeGE7ICAgICA8ZyBpZD0ibGluZTJkXzE4Ij4mI3hhOyAgICAgIDxwYXRoIHN0eWxlPSJmaWxsOiBub25lOyBzdHJva2U6ICNjY2NjY2M7IHN0cm9rZS13aWR0aDogMC41OyBzdHJva2UtbGluZWNhcDogcm91bmQiIGNsaXAtcGF0aD0idXJsKCNwZGU3MmJjYzI0NykiIGQ9Ik0gMTAwLjIgNzcyLjQwMjM5MyAmIzEwO0wgMTI4OC44IDc3Mi40MDIzOTMiLz4mI3hhOyAgICAgPC9nPiYjeGE7ICAgIDwvZz4mI3hhOyAgICA8ZyBpZD0ieXRpY2tfOCI+JiN4YTsgICAgIDxnIGlkPSJsaW5lMmRfMTkiPiYjeGE7ICAgICAgPHBhdGggc3R5bGU9ImZpbGw6IG5vbmU7IHN0cm9rZTogI2NjY2NjYzsgc3Ryb2tlLXdpZHRoOiAwLjU7IHN0cm9rZS1saW5lY2FwOiByb3VuZCIgY2xpcC1wYXRoPSJ1cmwoI3BkZTcyYmNjMjQ3KSIgZD0iTSAxMDAuMiA3MTkuMzA5NDI1ICYjMTA7TCAxMjg4LjggNzE5LjMwOTQyNSIvPiYjeGE7ICAgICA8L2c+JiN4YTsgICAgPC9nPiYjeGE7ICAgIDxnIGlkPSJ5dGlja185Ij4mI3hhOyAgICAgPGcgaWQ9ImxpbmUyZF8yMCI+JiN4YTsgICAgICA8cGF0aCBzdHlsZT0iZmlsbDogbm9uZTsgc3Ryb2tlOiAjY2NjY2NjOyBzdHJva2Utd2lkdGg6IDAuNTsgc3Ryb2tlLWxpbmVjYXA6IHJvdW5kIiBjbGlwLXBhdGg9InVybCgjcGRlNzJiY2MyNDcpIiBkPSJNIDEwMC4yIDY5Mi43NjI5NDIgJiMxMDtMIDEyODguOCA2OTIuNzYyOTQyIi8+JiN4YTsgICAgIDwvZz4mI3hhOyAgICA8L2c+JiN4YTsgICAgPGcgaWQ9Inl0aWNrXzEwIj4mI3hhOyAgICAgPGcgaWQ9ImxpbmUyZF8yMSI+JiN4YTsgICAgICA8cGF0aCBzdHlsZT0iZmlsbDogbm9uZTsgc3Ryb2tlOiAjY2NjY2NjOyBzdHJva2Utd2lkdGg6IDAuNTsgc3Ryb2tlLWxpbmVjYXA6IHJvdW5kIiBjbGlwLXBhdGg9InVybCgjcGRlNzJiY2MyNDcpIiBkPSJNIDEwMC4yIDY2Ni4yMTY0NTggJiMxMDtMIDEyODguOCA2NjYuMjE2NDU4Ii8+JiN4YTsgICAgIDwvZz4mI3hhOyAgICA8L2c+JiN4YTsgICAgPGcgaWQ9Inl0aWNrXzExIj4mI3hhOyAgICAgPGcgaWQ9ImxpbmUyZF8yMiI+JiN4YTsgICAgICA8cGF0aCBzdHlsZT0iZmlsbDogbm9uZTsgc3Ryb2tlOiAjY2NjY2NjOyBzdHJva2Utd2lkdGg6IDAuNTsgc3Ryb2tlLWxpbmVjYXA6IHJvdW5kIiBjbGlwLXBhdGg9InVybCgjcGRlNzJiY2MyNDcpIiBkPSJNIDEwMC4yIDYzOS42Njk5NzQgJiMxMDtMIDEyODguOCA2MzkuNjY5OTc0Ii8+JiN4YTsgICAgIDwvZz4mI3hhOyAgICA8L2c+JiN4YTsgICAgPGcgaWQ9Inl0aWNrXzEyIj4mI3hhOyAgICAgPGcgaWQ9ImxpbmUyZF8yMyI+JiN4YTsgICAgICA8cGF0aCBzdHlsZT0iZmlsbDogbm9uZTsgc3Ryb2tlOiAjY2NjY2NjOyBzdHJva2Utd2lkdGg6IDAuNTsgc3Ryb2tlLWxpbmVjYXA6IHJvdW5kIiBjbGlwLXBhdGg9InVybCgjcGRlNzJiY2MyNDcpIiBkPSJNIDEwMC4yIDU4Ni41NzcwMDcgJiMxMDtMIDEyODguOCA1ODYuNTc3MDA3Ii8+JiN4YTsgICAgIDwvZz4mI3hhOyAgICA8L2c+JiN4YTsgICAgPGcgaWQ9Inl0aWNrXzEzIj4mI3hhOyAgICAgPGcgaWQ9ImxpbmUyZF8yNCI+JiN4YTsgICAgICA8cGF0aCBzdHlsZT0iZmlsbDogbm9uZTsgc3Ryb2tlOiAjY2NjY2NjOyBzdHJva2Utd2lkdGg6IDAuNTsgc3Ryb2tlLWxpbmVjYXA6IHJvdW5kIiBjbGlwLXBhdGg9InVybCgjcGRlNzJiY2MyNDcpIiBkPSJNIDEwMC4yIDU2MC4wMzA1MjMgJiMxMDtMIDEyODguOCA1NjAuMDMwNTIzIi8+JiN4YTsgICAgIDwvZz4mI3hhOyAgICA8L2c+JiN4YTsgICAgPGcgaWQ9Inl0aWNrXzE0Ij4mI3hhOyAgICAgPGcgaWQ9ImxpbmUyZF8yNSI+JiN4YTsgICAgICA8cGF0aCBzdHlsZT0iZmlsbDogbm9uZTsgc3Ryb2tlOiAjY2NjY2NjOyBzdHJva2Utd2lkdGg6IDAuNTsgc3Ryb2tlLWxpbmVjYXA6IHJvdW5kIiBjbGlwLXBhdGg9InVybCgjcGRlNzJiY2MyNDcpIiBkPSJNIDEwMC4yIDUzMy40ODQwMzkgJiMxMDtMIDEyODguOCA1MzMuNDg0MDM5Ii8+JiN4YTsgICAgIDwvZz4mI3hhOyAgICA8L2c+JiN4YTsgICAgPGcgaWQ9Inl0aWNrXzE1Ij4mI3hhOyAgICAgPGcgaWQ9ImxpbmUyZF8yNiI+JiN4YTsgICAgICA8cGF0aCBzdHlsZT0iZmlsbDogbm9uZTsgc3Ryb2tlOiAjY2NjY2NjOyBzdHJva2Utd2lkdGg6IDAuNTsgc3Ryb2tlLWxpbmVjYXA6IHJvdW5kIiBjbGlwLXBhdGg9InVybCgjcGRlNzJiY2MyNDcpIiBkPSJNIDEwMC4yIDUwNi45Mzc1NTYgJiMxMDtMIDEyODguOCA1MDYuOTM3NTU2Ii8+JiN4YTsgICAgIDwvZz4mI3hhOyAgICA8L2c+JiN4YTsgICAgPGcgaWQ9Inl0aWNrXzE2Ij4mI3hhOyAgICAgPGcgaWQ9ImxpbmUyZF8yNyI+JiN4YTsgICAgICA8cGF0aCBzdHlsZT0iZmlsbDogbm9uZTsgc3Ryb2tlOiAjY2NjY2NjOyBzdHJva2Utd2lkdGg6IDAuNTsgc3Ryb2tlLWxpbmVjYXA6IHJvdW5kIiBjbGlwLXBhdGg9InVybCgjcGRlNzJiY2MyNDcpIiBkPSJNIDEwMC4yIDQ1My44NDQ1ODggJiMxMDtMIDEyODguOCA0NTMuODQ0NTg4Ii8+JiN4YTsgICAgIDwvZz4mI3hhOyAgICA8L2c+JiN4YTsgICAgPGcgaWQ9Inl0aWNrXzE3Ij4mI3hhOyAgICAgPGcgaWQ9ImxpbmUyZF8yOCI+JiN4YTsgICAgICA8cGF0aCBzdHlsZT0iZmlsbDogbm9uZTsgc3Ryb2tlOiAjY2NjY2NjOyBzdHJva2Utd2lkdGg6IDAuNTsgc3Ryb2tlLWxpbmVjYXA6IHJvdW5kIiBjbGlwLXBhdGg9InVybCgjcGRlNzJiY2MyNDcpIiBkPSJNIDEwMC4yIDQyNy4yOTgxMDUgJiMxMDtMIDEyODguOCA0MjcuMjk4MTA1Ii8+JiN4YTsgICAgIDwvZz4mI3hhOyAgICA8L2c+JiN4YTsgICAgPGcgaWQ9Inl0aWNrXzE4Ij4mI3hhOyAgICAgPGcgaWQ9ImxpbmUyZF8yOSI+JiN4YTsgICAgICA8cGF0aCBzdHlsZT0iZmlsbDogbm9uZTsgc3Ryb2tlOiAjY2NjY2NjOyBzdHJva2Utd2lkdGg6IDAuNTsgc3Ryb2tlLWxpbmVjYXA6IHJvdW5kIiBjbGlwLXBhdGg9InVybCgjcGRlNzJiY2MyNDcpIiBkPSJNIDEwMC4yIDQwMC43NTE2MjEgJiMxMDtMIDEyODguOCA0MDAuNzUxNjIxIi8+JiN4YTsgICAgIDwvZz4mI3hhOyAgICA8L2c+JiN4YTsgICAgPGcgaWQ9Inl0aWNrXzE5Ij4mI3hhOyAgICAgPGcgaWQ9ImxpbmUyZF8zMCI+JiN4YTsgICAgICA8cGF0aCBzdHlsZT0iZmlsbDogbm9uZTsgc3Ryb2tlOiAjY2NjY2NjOyBzdHJva2Utd2lkdGg6IDAuNTsgc3Ryb2tlLWxpbmVjYXA6IHJvdW5kIiBjbGlwLXBhdGg9InVybCgjcGRlNzJiY2MyNDcpIiBkPSJNIDEwMC4yIDM3NC4yMDUxMzcgJiMxMDtMIDEyODguOCAzNzQuMjA1MTM3Ii8+JiN4YTsgICAgIDwvZz4mI3hhOyAgICA8L2c+JiN4YTsgICAgPGcgaWQ9Inl0aWNrXzIwIj4mI3hhOyAgICAgPGcgaWQ9ImxpbmUyZF8zMSI+JiN4YTsgICAgICA8cGF0aCBzdHlsZT0iZmlsbDogbm9uZTsgc3Ryb2tlOiAjY2NjY2NjOyBzdHJva2Utd2lkdGg6IDAuNTsgc3Ryb2tlLWxpbmVjYXA6IHJvdW5kIiBjbGlwLXBhdGg9InVybCgjcGRlNzJiY2MyNDcpIiBkPSJNIDEwMC4yIDMyMS4xMTIxNyAmIzEwO0wgMTI4OC44IDMyMS4xMTIxNyIvPiYjeGE7ICAgICA8L2c+JiN4YTsgICAgPC9nPiYjeGE7ICAgIDxnIGlkPSJ5dGlja18yMSI+JiN4YTsgICAgIDxnIGlkPSJsaW5lMmRfMzIiPiYjeGE7ICAgICAgPHBhdGggc3R5bGU9ImZpbGw6IG5vbmU7IHN0cm9rZTogI2NjY2NjYzsgc3Ryb2tlLXdpZHRoOiAwLjU7IHN0cm9rZS1saW5lY2FwOiByb3VuZCIgY2xpcC1wYXRoPSJ1cmwoI3BkZTcyYmNjMjQ3KSIgZD0iTSAxMDAuMiAyOTQuNTY1Njg2ICYjMTA7TCAxMjg4LjggMjk0LjU2NTY4NiIvPiYjeGE7ICAgICA8L2c+JiN4YTsgICAgPC9nPiYjeGE7ICAgIDxnIGlkPSJ5dGlja18yMiI+JiN4YTsgICAgIDxnIGlkPSJsaW5lMmRfMzMiPiYjeGE7ICAgICAgPHBhdGggc3R5bGU9ImZpbGw6IG5vbmU7IHN0cm9rZTogI2NjY2NjYzsgc3Ryb2tlLXdpZHRoOiAwLjU7IHN0cm9rZS1saW5lY2FwOiByb3VuZCIgY2xpcC1wYXRoPSJ1cmwoI3BkZTcyYmNjMjQ3KSIgZD0iTSAxMDAuMiAyNjguMDE5MjAyICYjMTA7TCAxMjg4LjggMjY4LjAxOTIwMiIvPiYjeGE7ICAgICA8L2c+JiN4YTsgICAgPC9nPiYjeGE7ICAgIDxnIGlkPSJ5dGlja18yMyI+JiN4YTsgICAgIDxnIGlkPSJsaW5lMmRfMzQiPiYjeGE7ICAgICAgPHBhdGggc3R5bGU9ImZpbGw6IG5vbmU7IHN0cm9rZTogI2NjY2NjYzsgc3Ryb2tlLXdpZHRoOiAwLjU7IHN0cm9rZS1saW5lY2FwOiByb3VuZCIgY2xpcC1wYXRoPSJ1cmwoI3BkZTcyYmNjMjQ3KSIgZD0iTSAxMDAuMiAyNDEuNDcyNzE5ICYjMTA7TCAxMjg4LjggMjQxLjQ3MjcxOSIvPiYjeGE7ICAgICA8L2c+JiN4YTsgICAgPC9nPiYjeGE7ICAgIDxnIGlkPSJ5dGlja18yNCI+JiN4YTsgICAgIDxnIGlkPSJsaW5lMmRfMzUiPiYjeGE7ICAgICAgPHBhdGggc3R5bGU9ImZpbGw6IG5vbmU7IHN0cm9rZTogI2NjY2NjYzsgc3Ryb2tlLXdpZHRoOiAwLjU7IHN0cm9rZS1saW5lY2FwOiByb3VuZCIgY2xpcC1wYXRoPSJ1cmwoI3BkZTcyYmNjMjQ3KSIgZD0iTSAxMDAuMiAxODguMzc5NzUxICYjMTA7TCAxMjg4LjggMTg4LjM3OTc1MSIvPiYjeGE7ICAgICA8L2c+JiN4YTsgICAgPC9nPiYjeGE7ICAgIDxnIGlkPSJ5dGlja18yNSI+JiN4YTsgICAgIDxnIGlkPSJsaW5lMmRfMzYiPiYjeGE7ICAgICAgPHBhdGggc3R5bGU9ImZpbGw6IG5vbmU7IHN0cm9rZTogI2NjY2NjYzsgc3Ryb2tlLXdpZHRoOiAwLjU7IHN0cm9rZS1saW5lY2FwOiByb3VuZCIgY2xpcC1wYXRoPSJ1cmwoI3BkZTcyYmNjMjQ3KSIgZD0iTSAxMDAuMiAxNjEuODMzMjY4ICYjMTA7TCAxMjg4LjggMTYxLjgzMzI2OCIvPiYjeGE7ICAgICA8L2c+JiN4YTsgICAgPC9nPiYjeGE7ICAgIDxnIGlkPSJ5dGlja18yNiI+JiN4YTsgICAgIDxnIGlkPSJsaW5lMmRfMzciPiYjeGE7ICAgICAgPHBhdGggc3R5bGU9ImZpbGw6IG5vbmU7IHN0cm9rZTogI2NjY2NjYzsgc3Ryb2tlLXdpZHRoOiAwLjU7IHN0cm9rZS1saW5lY2FwOiByb3VuZCIgY2xpcC1wYXRoPSJ1cmwoI3BkZTcyYmNjMjQ3KSIgZD0iTSAxMDAuMiAxMzUuMjg2Nzg0ICYjMTA7TCAxMjg4LjggMTM1LjI4Njc4NCIvPiYjeGE7ICAgICA8L2c+JiN4YTsgICAgPC9nPiYjeGE7ICAgIDxnIGlkPSJ5dGlja18yNyI+JiN4YTsgICAgIDxnIGlkPSJsaW5lMmRfMzgiPiYjeGE7ICAgICAgPHBhdGggc3R5bGU9ImZpbGw6IG5vbmU7IHN0cm9rZTogI2NjY2NjYzsgc3Ryb2tlLXdpZHRoOiAwLjU7IHN0cm9rZS1saW5lY2FwOiByb3VuZCIgY2xpcC1wYXRoPSJ1cmwoI3BkZTcyYmNjMjQ3KSIgZD0iTSAxMDAuMiAxMDguNzQwMyAmIzEwO0wgMTI4OC44IDEwOC43NDAzIi8+JiN4YTsgICAgIDwvZz4mI3hhOyAgICA8L2c+JiN4YTsgICAgPGcgaWQ9Inl0aWNrXzI4Ij4mI3hhOyAgICAgPGcgaWQ9ImxpbmUyZF8zOSI+JiN4YTsgICAgICA8cGF0aCBzdHlsZT0iZmlsbDogbm9uZTsgc3Ryb2tlOiAjY2NjY2NjOyBzdHJva2Utd2lkdGg6IDAuNTsgc3Ryb2tlLWxpbmVjYXA6IHJvdW5kIiBjbGlwLXBhdGg9InVybCgjcGRlNzJiY2MyNDcpIiBkPSJNIDEwMC4yIDU1LjY0NzMzMyAmIzEwO0wgMTI4OC44IDU1LjY0NzMzMyIvPiYjeGE7ICAgICA8L2c+JiN4YTsgICAgPC9nPiYjeGE7ICAgIDxnIGlkPSJ5dGlja18yOSI+JiN4YTsgICAgIDxnIGlkPSJsaW5lMmRfNDAiPiYjeGE7ICAgICAgPHBhdGggc3R5bGU9ImZpbGw6IG5vbmU7IHN0cm9rZTogI2NjY2NjYzsgc3Ryb2tlLXdpZHRoOiAwLjU7IHN0cm9rZS1saW5lY2FwOiByb3VuZCIgY2xpcC1wYXRoPSJ1cmwoI3BkZTcyYmNjMjQ3KSIgZD0iTSAxMDAuMiAyOS4xMDA4NDkgJiMxMDtMIDEyODguOCAyOS4xMDA4NDkiLz4mI3hhOyAgICAgPC9nPiYjeGE7ICAgIDwvZz4mI3hhOyAgICA8ZyBpZD0idGV4dF8xOCI+JiN4YTsgICAgICYjeGE7ICAgICA8ZyB0cmFuc2Zvcm09InRyYW5zbGF0ZSgzNC4yMjA2MjUgNjYzLjUwNzUpIHJvdGF0ZSgtOTApIHNjYWxlKDAuMzYgLTAuMzYpIiBzdHlsZT0iZmlsbDogIzI2MjYyNiI+JiN4YTsgICAgICA8ZGVmcz4mI3hhOyAgICAgICA8cGF0aCB0cmFuc2Zvcm09InNjYWxlKDAuMDE1NjI1KSIgZD0iTSAtMTkgNDY2NiAmIzEwO0wgMzkyOCA0NjY2ICYjMTA7TCAzOTI4IDQxMzQgJiMxMDtMIDIyNzIgNDEzNCAmIzEwO0wgMjI3MiAwICYjMTA7TCAxNjM4IDAgJiMxMDtMIDE2MzggNDEzNCAmIzEwO0wgLTE5IDQxMzQgJiMxMDtMIC0xOSA0NjY2ICYjMTA7eiIgaWQ9IkRlamFWdVNhbnMtNTQiLz4mI3hhOyAgICAgICA8cGF0aCB0cmFuc2Zvcm09InNjYWxlKDAuMDE1NjI1KSIgaWQ9IkRlamFWdVNhbnMtMjAiLz4mI3hhOyAgICAgIDwvZGVmcz4mI3hhOyAgICAgIDx1c2UgeGxpbms6aHJlZj0iI0RlamFWdVNhbnMtNTQiLz4mI3hhOyAgICAgIDx1c2UgeD0iNDQuMDgzOTg0IiB4bGluazpocmVmPSIjRGVqYVZ1U2Fucy02NSIvPiYjeGE7ICAgICAgPHVzZSB4PSIxMDUuNjA3NDIyIiB4bGluazpocmVmPSIjRGVqYVZ1U2Fucy03MyIvPiYjeGE7ICAgICAgPHVzZSB4PSIxNTcuNzA3MDMxIiB4bGluazpocmVmPSIjRGVqYVZ1U2Fucy03NCIvPiYjeGE7ICAgICAgPHVzZSB4PSIxOTYuOTE2MDE2IiB4bGluazpocmVmPSIjRGVqYVZ1U2Fucy03MyIvPiYjeGE7ICAgICAgPHVzZSB4PSIyNDkuMDE1NjI1IiB4bGluazpocmVmPSIjRGVqYVZ1U2Fucy0yMCIvPiYjeGE7ICAgICAgPHVzZSB4PSIyODAuODAyNzM0IiB4bGluazpocmVmPSIjRGVqYVZ1U2Fucy03NCIvPiYjeGE7ICAgICAgPHVzZSB4PSIzMjAuMDExNzE5IiB4bGluazpocmVmPSIjRGVqYVZ1U2Fucy02OCIvPiYjeGE7ICAgICAgPHVzZSB4PSIzODMuMzkwNjI1IiB4bGluazpocmVmPSIjRGVqYVZ1U2Fucy02MSIvPiYjeGE7ICAgICAgPHVzZSB4PSI0NDQuNjY5OTIyIiB4bGluazpocmVmPSIjRGVqYVZ1U2Fucy03NCIvPiYjeGE7ICAgICAgPHVzZSB4PSI0ODMuODc4OTA2IiB4bGluazpocmVmPSIjRGVqYVZ1U2Fucy0yMCIvPiYjeGE7ICAgICAgPHVzZSB4PSI1MTUuNjY2MDE2IiB4bGluazpocmVmPSIjRGVqYVZ1U2Fucy02OCIvPiYjeGE7ICAgICAgPHVzZSB4PSI1NzkuMDQ0OTIyIiB4bGluazpocmVmPSIjRGVqYVZ1U2Fucy02MSIvPiYjeGE7ICAgICAgPHVzZSB4PSI2NDAuMzI0MjE5IiB4bGluazpocmVmPSIjRGVqYVZ1U2Fucy03NiIvPiYjeGE7ICAgICAgPHVzZSB4PSI2OTkuNTAzOTA2IiB4bGluazpocmVmPSIjRGVqYVZ1U2Fucy02NSIvPiYjeGE7ICAgICAgPHVzZSB4PSI3NjEuMDI3MzQ0IiB4bGluazpocmVmPSIjRGVqYVZ1U2Fucy0yMCIvPiYjeGE7ICAgICAgPHVzZSB4PSI3OTIuODE0NDUzIiB4bGluazpocmVmPSIjRGVqYVZ1U2Fucy02MiIvPiYjeGE7ICAgICAgPHVzZSB4PSI4NTYuMjkxMDE2IiB4bGluazpocmVmPSIjRGVqYVZ1U2Fucy02NSIvPiYjeGE7ICAgICAgPHVzZSB4PSI5MTcuODE0NDUzIiB4bGluazpocmVmPSIjRGVqYVZ1U2Fucy02NSIvPiYjeGE7ICAgICAgPHVzZSB4PSI5NzkuMzM3ODkxIiB4bGluazpocmVmPSIjRGVqYVZ1U2Fucy02ZSIvPiYjeGE7ICAgICAgPHVzZSB4PSIxMDQyLjcxNjc5NyIgeGxpbms6aHJlZj0iI0RlamFWdVNhbnMtMjAiLz4mI3hhOyAgICAgIDx1c2UgeD0iMTA3NC41MDM5MDYiIHhsaW5rOmhyZWY9IiNEZWphVnVTYW5zLTczIi8+JiN4YTsgICAgICA8dXNlIHg9IjExMjYuNjAzNTE2IiB4bGluazpocmVmPSIjRGVqYVZ1U2Fucy02NSIvPiYjeGE7ICAgICAgPHVzZSB4PSIxMTg4LjEyNjk1MyIgeGxpbms6aHJlZj0iI0RlamFWdVNhbnMtNmMiLz4mI3hhOyAgICAgIDx1c2UgeD0iMTIxNS45MTAxNTYiIHhsaW5rOmhyZWY9IiNEZWphVnVTYW5zLTY1Ii8+JiN4YTsgICAgICA8dXNlIHg9IjEyNzcuNDMzNTk0IiB4bGluazpocmVmPSIjRGVqYVZ1U2Fucy02MyIvPiYjeGE7ICAgICAgPHVzZSB4PSIxMzMyLjQxNDA2MiIgeGxpbms6aHJlZj0iI0RlamFWdVNhbnMtNzQiLz4mI3hhOyAgICAgIDx1c2UgeD0iMTM3MS42MjMwNDciIHhsaW5rOmhyZWY9IiNEZWphVnVTYW5zLTY1Ii8+JiN4YTsgICAgICA8dXNlIHg9IjE0MzMuMTQ2NDg0IiB4bGluazpocmVmPSIjRGVqYVZ1U2Fucy02NCIvPiYjeGE7ICAgICA8L2c+JiN4YTsgICAgPC9nPiYjeGE7ICAgPC9nPiYjeGE7ICAgPGcgaWQ9IlBhdGhDb2xsZWN0aW9uXzEiLz4mI3hhOyAgIDxnIGlkPSJwYXRjaF8zIj4mI3hhOyAgICA8cGF0aCBzdHlsZT0iZmlsbDogbm9uZTsgc3Ryb2tlOiAjY2NjY2NjOyBzdHJva2Utd2lkdGg6IDEuODc1OyBzdHJva2UtbGluZWpvaW46IG1pdGVyOyBzdHJva2UtbGluZWNhcDogc3F1YXJlIiBkPSJNIDEwMC4yIDc4MS4wMyAmIzEwO0wgMTAwLjIgNy4yIi8+JiN4YTsgICA8L2c+JiN4YTsgICA8ZyBpZD0icGF0Y2hfNCI+JiN4YTsgICAgPHBhdGggc3R5bGU9ImZpbGw6IG5vbmU7IHN0cm9rZTogI2NjY2NjYzsgc3Ryb2tlLXdpZHRoOiAxLjg3NTsgc3Ryb2tlLWxpbmVqb2luOiBtaXRlcjsgc3Ryb2tlLWxpbmVjYXA6IHNxdWFyZSIgZD0iTSAxMjg4LjggNzgxLjAzICYjMTA7TCAxMjg4LjggNy4yIi8+JiN4YTsgICA8L2c+JiN4YTsgICA8ZyBpZD0icGF0Y2hfNSI+JiN4YTsgICAgPHBhdGggc3R5bGU9ImZpbGw6IG5vbmU7IHN0cm9rZTogI2NjY2NjYzsgc3Ryb2tlLXdpZHRoOiAxLjg3NTsgc3Ryb2tlLWxpbmVqb2luOiBtaXRlcjsgc3Ryb2tlLWxpbmVjYXA6IHNxdWFyZSIgZD0iTSAxMDAuMiA3ODEuMDMgJiMxMDtMIDEyODguOCA3ODEuMDMiLz4mI3hhOyAgIDwvZz4mI3hhOyAgIDxnIGlkPSJwYXRjaF82Ij4mI3hhOyAgICA8cGF0aCBzdHlsZT0iZmlsbDogbm9uZTsgc3Ryb2tlOiAjY2NjY2NjOyBzdHJva2Utd2lkdGg6IDEuODc1OyBzdHJva2UtbGluZWpvaW46IG1pdGVyOyBzdHJva2UtbGluZWNhcDogc3F1YXJlIiBkPSJNIDEwMC4yIDcuMiAmIzEwO0wgMTI4OC44IDcuMiIvPiYjeGE7ICAgPC9nPiYjeGE7ICAgPGcgaWQ9IlBhdGhDb2xsZWN0aW9uXzIiPiYjeGE7ICAgIDxkZWZzPiYjeGE7ICAgICA8cGF0aCBkPSJNIDAgNCAmIzEwO0MgMS4wNjA4MTIgNCAyLjA3ODMxOSAzLjU3ODUzNSAyLjgyODQyNyAyLjgyODQyNyAmIzEwO0MgMy41Nzg1MzUgMi4wNzgzMTkgNCAxLjA2MDgxMiA0IC0wICYjMTA7QyA0IC0xLjA2MDgxMiAzLjU3ODUzNSAtMi4wNzgzMTkgMi44Mjg0MjcgLTIuODI4NDI3ICYjMTA7QyAyLjA3ODMxOSAtMy41Nzg1MzUgMS4wNjA4MTIgLTQgMCAtNCAmIzEwO0MgLTEuMDYwODEyIC00IC0yLjA3ODMxOSAtMy41Nzg1MzUgLTIuODI4NDI3IC0yLjgyODQyNyAmIzEwO0MgLTMuNTc4NTM1IC0yLjA3ODMxOSAtNCAtMS4wNjA4MTIgLTQgMCAmIzEwO0MgLTQgMS4wNjA4MTIgLTMuNTc4NTM1IDIuMDc4MzE5IC0yLjgyODQyNyAyLjgyODQyNyAmIzEwO0MgLTIuMDc4MzE5IDMuNTc4NTM1IC0xLjA2MDgxMiA0IDAgNCAmIzEwO3oiIGlkPSJDMF8wX2VkMjIzMWQyODIiLz4mI3hhOyAgICA8L2RlZnM+JiN4YTsgICAgPGcgY2xpcC1wYXRoPSJ1cmwoI3BkZTcyYmNjMjQ3KSI+JiN4YTsgICAgIDx1c2Ugc3R5bGU9ImZpbGw6ICNlMzcyMjI7IHN0cm9rZTogIzRlNGU0ZSIgeT0iNzQ1Ljg1NTkwOSIgeD0iMTM1Ljk3MTc3OSIgeGxpbms6aHJlZj0iI0MwXzBfZWQyMjMxZDI4MiIvPiYjeGE7ICAgIDwvZz4mI3hhOyAgICA8ZyBjbGlwLXBhdGg9InVybCgjcGRlNzJiY2MyNDcpIj4mI3hhOyAgICAgPHVzZSBzdHlsZT0iZmlsbDogI2UzNzIyMjsgc3Ryb2tlOiAjNGU0ZTRlIiB5PSI3NDUuODU1OTA5IiB4PSIxNDEuMjMwMjIiIHhsaW5rOmhyZWY9IiNDMF8wX2VkMjIzMWQyODIiLz4mI3hhOyAgICA8L2c+JiN4YTsgICAgPGcgY2xpcC1wYXRoPSJ1cmwoI3BkZTcyYmNjMjQ3KSI+JiN4YTsgICAgIDx1c2Ugc3R5bGU9ImZpbGw6ICNlMzcyMjI7IHN0cm9rZTogIzRlNGU0ZSIgeT0iNzQ1Ljg1NTkwOSIgeD0iMTc2LjEyMzc4IiB4bGluazpocmVmPSIjQzBfMF9lZDIyMzFkMjgyIi8+JiN4YTsgICAgPC9nPiYjeGE7ICAgIDxnIGNsaXAtcGF0aD0idXJsKCNwZGU3MmJjYzI0NykiPiYjeGE7ICAgICA8dXNlIHN0eWxlPSJmaWxsOiAjZTM3MjIyOyBzdHJva2U6ICM0ZTRlNGUiIHk9Ijc0NS44NTU5MDkiIHg9IjE2MC4xMDY4ODgiIHhsaW5rOmhyZWY9IiNDMF8wX2VkMjIzMWQyODIiLz4mI3hhOyAgICA8L2c+JiN4YTsgICAgPGcgY2xpcC1wYXRoPSJ1cmwoI3BkZTcyYmNjMjQ3KSI+JiN4YTsgICAgIDx1c2Ugc3R5bGU9ImZpbGw6ICNlMzcyMjI7IHN0cm9rZTogIzRlNGU0ZSIgeT0iNzQ1Ljg1NTkwOSIgeD0iMTU0LjA0ODc4MiIgeGxpbms6aHJlZj0iI0MwXzBfZWQyMjMxZDI4MiIvPiYjeGE7ICAgIDwvZz4mI3hhOyAgICA8ZyBjbGlwLXBhdGg9InVybCgjcGRlNzJiY2MyNDcpIj4mI3hhOyAgICAgPHVzZSBzdHlsZT0iZmlsbDogI2UzNzIyMjsgc3Ryb2tlOiAjNGU0ZTRlIiB5PSI3NDUuODU1OTA5IiB4PSIxNTkuMjI5MTY0IiB4bGluazpocmVmPSIjQzBfMF9lZDIyMzFkMjgyIi8+JiN4YTsgICAgPC9nPiYjeGE7ICAgIDxnIGNsaXAtcGF0aD0idXJsKCNwZGU3MmJjYzI0NykiPiYjeGE7ICAgICA8dXNlIHN0eWxlPSJmaWxsOiAjZTM3MjIyOyBzdHJva2U6ICM0ZTRlNGUiIHk9Ijc0NS44NTU5MDkiIHg9IjEzMC45NzQzNCIgeGxpbms6aHJlZj0iI0MwXzBfZWQyMjMxZDI4MiIvPiYjeGE7ICAgIDwvZz4mI3hhOyAgICA8ZyBjbGlwLXBhdGg9InVybCgjcGRlNzJiY2MyNDcpIj4mI3hhOyAgICAgPHVzZSBzdHlsZT0iZmlsbDogI2UzNzIyMjsgc3Ryb2tlOiAjNGU0ZTRlIiB5PSI3NDUuODU1OTA5IiB4PSIxNDAuNzUzMTgzIiB4bGluazpocmVmPSIjQzBfMF9lZDIyMzFkMjgyIi8+JiN4YTsgICAgPC9nPiYjeGE7ICAgIDxnIGNsaXAtcGF0aD0idXJsKCNwZGU3MmJjYzI0NykiPiYjeGE7ICAgICA8dXNlIHN0eWxlPSJmaWxsOiAjZTM3MjIyOyBzdHJva2U6ICM0ZTRlNGUiIHk9Ijc0NS44NTU5MDkiIHg9IjE4NC4yMjkzOTciIHhsaW5rOmhyZWY9IiNDMF8wX2VkMjIzMWQyODIiLz4mI3hhOyAgICA8L2c+JiN4YTsgICAgPGcgY2xpcC1wYXRoPSJ1cmwoI3BkZTcyYmNjMjQ3KSI+JiN4YTsgICAgIDx1c2Ugc3R5bGU9ImZpbGw6ICNlMzcyMjI7IHN0cm9rZTogIzRlNGU0ZSIgeT0iNzQ1Ljg1NTkwOSIgeD0iMTUwLjQyMzgxNCIgeGxpbms6aHJlZj0iI0MwXzBfZWQyMjMxZDI4MiIvPiYjeGE7ICAgIDwvZz4mI3hhOyAgICA8ZyBjbGlwLXBhdGg9InVybCgjcGRlNzJiY2MyNDcpIj4mI3hhOyAgICAgPHVzZSBzdHlsZT0iZmlsbDogI2UzNzIyMjsgc3Ryb2tlOiAjNGU0ZTRlIiB5PSI3NDUuODU1OTA5IiB4PSIxMzguMzY3NTc3IiB4bGluazpocmVmPSIjQzBfMF9lZDIyMzFkMjgyIi8+JiN4YTsgICAgPC9nPiYjeGE7ICAgIDxnIGNsaXAtcGF0aD0idXJsKCNwZGU3MmJjYzI0NykiPiYjeGE7ICAgICA8dXNlIHN0eWxlPSJmaWxsOiAjZTM3MjIyOyBzdHJva2U6ICM0ZTRlNGUiIHk9Ijc0NS44NTU5MDkiIHg9IjE1NC44NzcxNjIiIHhsaW5rOmhyZWY9IiNDMF8wX2VkMjIzMWQyODIiLz4mI3hhOyAgICA8L2c+JiN4YTsgICAgPGcgY2xpcC1wYXRoPSJ1cmwoI3BkZTcyYmNjMjQ3KSI+JiN4YTsgICAgIDx1c2Ugc3R5bGU9ImZpbGw6ICNlMzcyMjI7IHN0cm9rZTogIzRlNGU0ZSIgeT0iNzQ1Ljg1NTkwOSIgeD0iMTI4LjgzNDIyOCIgeGxpbms6aHJlZj0iI0MwXzBfZWQyMjMxZDI4MiIvPiYjeGE7ICAgIDwvZz4mI3hhOyAgICA8ZyBjbGlwLXBhdGg9InVybCgjcGRlNzJiY2MyNDcpIj4mI3hhOyAgICAgPHVzZSBzdHlsZT0iZmlsbDogI2UzNzIyMjsgc3Ryb2tlOiAjNGU0ZTRlIiB5PSI3NDUuODU1OTA5IiB4PSIxNDYuOTM3NjU0IiB4bGluazpocmVmPSIjQzBfMF9lZDIyMzFkMjgyIi8+JiN4YTsgICAgPC9nPiYjeGE7ICAgIDxnIGNsaXAtcGF0aD0idXJsKCNwZGU3MmJjYzI0NykiPiYjeGE7ICAgICA8dXNlIHN0eWxlPSJmaWxsOiAjZTM3MjIyOyBzdHJva2U6ICM0ZTRlNGUiIHk9Ijc0NS44NTU5MDkiIHg9IjEyNy4xNTE0NDEiIHhsaW5rOmhyZWY9IiNDMF8wX2VkMjIzMWQyODIiLz4mI3hhOyAgICA8L2c+JiN4YTsgICAgPGcgY2xpcC1wYXRoPSJ1cmwoI3BkZTcyYmNjMjQ3KSI+JiN4YTsgICAgIDx1c2Ugc3R5bGU9ImZpbGw6ICNlMzcyMjI7IHN0cm9rZTogIzRlNGU0ZSIgeT0iNzQ1Ljg1NTkwOSIgeD0iMTQwLjk3MzIxNCIgeGxpbms6aHJlZj0iI0MwXzBfZWQyMjMxZDI4MiIvPiYjeGE7ICAgIDwvZz4mI3hhOyAgICA8ZyBjbGlwLXBhdGg9InVybCgjcGRlNzJiY2MyNDcpIj4mI3hhOyAgICAgPHVzZSBzdHlsZT0iZmlsbDogI2UzNzIyMjsgc3Ryb2tlOiAjNGU0ZTRlIiB5PSI3NDUuODU1OTA5IiB4PSIxNDUuOTE0MzM2IiB4bGluazpocmVmPSIjQzBfMF9lZDIyMzFkMjgyIi8+JiN4YTsgICAgPC9nPiYjeGE7ICAgIDxnIGNsaXAtcGF0aD0idXJsKCNwZGU3MmJjYzI0NykiPiYjeGE7ICAgICA8dXNlIHN0eWxlPSJmaWxsOiAjZTM3MjIyOyBzdHJva2U6ICM0ZTRlNGUiIHk9Ijc0NS44NTU5MDkiIHg9IjE0OS4zNDU2NDgiIHhsaW5rOmhyZWY9IiNDMF8wX2VkMjIzMWQyODIiLz4mI3hhOyAgICA8L2c+JiN4YTsgICAgPGcgY2xpcC1wYXRoPSJ1cmwoI3BkZTcyYmNjMjQ3KSI+JiN4YTsgICAgIDx1c2Ugc3R5bGU9ImZpbGw6ICNlMzcyMjI7IHN0cm9rZTogIzRlNGU0ZSIgeT0iNzQ1Ljg1NTkwOSIgeD0iMTYxLjgzNTE2NiIgeGxpbms6aHJlZj0iI0MwXzBfZWQyMjMxZDI4MiIvPiYjeGE7ICAgIDwvZz4mI3hhOyAgICA8ZyBjbGlwLXBhdGg9InVybCgjcGRlNzJiY2MyNDcpIj4mI3hhOyAgICAgPHVzZSBzdHlsZT0iZmlsbDogI2UzNzIyMjsgc3Ryb2tlOiAjNGU0ZTRlIiB5PSI3NDUuODU1OTA5IiB4PSIxMzQuMDU1OTY3IiB4bGluazpocmVmPSIjQzBfMF9lZDIyMzFkMjgyIi8+JiN4YTsgICAgPC9nPiYjeGE7ICAgIDxnIGNsaXAtcGF0aD0idXJsKCNwZGU3MmJjYzI0NykiPiYjeGE7ICAgICA8dXNlIHN0eWxlPSJmaWxsOiAjZTM3MjIyOyBzdHJva2U6ICM0ZTRlNGUiIHk9Ijc0NS44NTU5MDkiIHg9IjE0NS41OTEyNzUiIHhsaW5rOmhyZWY9IiNDMF8wX2VkMjIzMWQyODIiLz4mI3hhOyAgICA8L2c+JiN4YTsgICAgPGcgY2xpcC1wYXRoPSJ1cmwoI3BkZTcyYmNjMjQ3KSI+JiN4YTsgICAgIDx1c2Ugc3R5bGU9ImZpbGw6ICNlMzcyMjI7IHN0cm9rZTogIzRlNGU0ZSIgeT0iNzQ1Ljg1NTkwOSIgeD0iMTQzLjU2MDM5MyIgeGxpbms6aHJlZj0iI0MwXzBfZWQyMjMxZDI4MiIvPiYjeGE7ICAgIDwvZz4mI3hhOyAgICA8ZyBjbGlwLXBhdGg9InVybCgjcGRlNzJiY2MyNDcpIj4mI3hhOyAgICAgPHVzZSBzdHlsZT0iZmlsbDogI2UzNzIyMjsgc3Ryb2tlOiAjNGU0ZTRlIiB5PSI3NDUuODU1OTA5IiB4PSIxNDYuNzIwMzMzIiB4bGluazpocmVmPSIjQzBfMF9lZDIyMzFkMjgyIi8+JiN4YTsgICAgPC9nPiYjeGE7ICAgIDxnIGNsaXAtcGF0aD0idXJsKCNwZGU3MmJjYzI0NykiPiYjeGE7ICAgICA8dXNlIHN0eWxlPSJmaWxsOiAjZTM3MjIyOyBzdHJva2U6ICM0ZTRlNGUiIHk9Ijc0NS44NTU5MDkiIHg9IjEzMy4zNjMxMzkiIHhsaW5rOmhyZWY9IiNDMF8wX2VkMjIzMWQyODIiLz4mI3hhOyAgICA8L2c+JiN4YTsgICAgPGcgY2xpcC1wYXRoPSJ1cmwoI3BkZTcyYmNjMjQ3KSI+JiN4YTsgICAgIDx1c2Ugc3R5bGU9ImZpbGw6ICNlMzcyMjI7IHN0cm9rZTogIzRlNGU0ZSIgeT0iNzQ1Ljg1NTkwOSIgeD0iMTY1LjUwMTM0NyIgeGxpbms6aHJlZj0iI0MwXzBfZWQyMjMxZDI4MiIvPiYjeGE7ICAgIDwvZz4mI3hhOyAgICA8ZyBjbGlwLXBhdGg9InVybCgjcGRlNzJiY2MyNDcpIj4mI3hhOyAgICAgPHVzZSBzdHlsZT0iZmlsbDogI2UzNzIyMjsgc3Ryb2tlOiAjNGU0ZTRlIiB5PSI3NDUuODU1OTA5IiB4PSIxMjguNzQ2ODY2IiB4bGluazpocmVmPSIjQzBfMF9lZDIyMzFkMjgyIi8+JiN4YTsgICAgPC9nPiYjeGE7ICAgIDxnIGNsaXAtcGF0aD0idXJsKCNwZGU3MmJjYzI0NykiPiYjeGE7ICAgICA8dXNlIHN0eWxlPSJmaWxsOiAjZTM3MjIyOyBzdHJva2U6ICM0ZTRlNGUiIHk9Ijc0NS44NTU5MDkiIHg9IjE3OS42MTU0MSIgeGxpbms6aHJlZj0iI0MwXzBfZWQyMjMxZDI4MiIvPiYjeGE7ICAgIDwvZz4mI3hhOyAgICA8ZyBjbGlwLXBhdGg9InVybCgjcGRlNzJiY2MyNDcpIj4mI3hhOyAgICAgPHVzZSBzdHlsZT0iZmlsbDogI2UzNzIyMjsgc3Ryb2tlOiAjNGU0ZTRlIiB5PSI3NDUuODU1OTA5IiB4PSIxNzAuNjQ5ODk2IiB4bGluazpocmVmPSIjQzBfMF9lZDIyMzFkMjgyIi8+JiN4YTsgICAgPC9nPiYjeGE7ICAgIDxnIGNsaXAtcGF0aD0idXJsKCNwZGU3MmJjYzI0NykiPiYjeGE7ICAgICA8dXNlIHN0eWxlPSJmaWxsOiAjZTM3MjIyOyBzdHJva2U6ICM0ZTRlNGUiIHk9Ijc0NS44NTU5MDkiIHg9IjE0NC4yODk2MTciIHhsaW5rOmhyZWY9IiNDMF8wX2VkMjIzMWQyODIiLz4mI3hhOyAgICA8L2c+JiN4YTsgICAgPGcgY2xpcC1wYXRoPSJ1cmwoI3BkZTcyYmNjMjQ3KSI+JiN4YTsgICAgIDx1c2Ugc3R5bGU9ImZpbGw6ICNlMzcyMjI7IHN0cm9rZTogIzRlNGU0ZSIgeT0iNzQ1Ljg1NTkwOSIgeD0iMTI3LjE4MzU5NSIgeGxpbms6aHJlZj0iI0MwXzBfZWQyMjMxZDI4MiIvPiYjeGE7ICAgIDwvZz4mI3hhOyAgIDwvZz4mI3hhOyAgIDxnIGlkPSJQYXRoQ29sbGVjdGlvbl8zIj4mI3hhOyAgICA8ZGVmcz4mI3hhOyAgICAgPHBhdGggZD0iTSAwIDQgJiMxMDtDIDEuMDYwODEyIDQgMi4wNzgzMTkgMy41Nzg1MzUgMi44Mjg0MjcgMi44Mjg0MjcgJiMxMDtDIDMuNTc4NTM1IDIuMDc4MzE5IDQgMS4wNjA4MTIgNCAtMCAmIzEwO0MgNCAtMS4wNjA4MTIgMy41Nzg1MzUgLTIuMDc4MzE5IDIuODI4NDI3IC0yLjgyODQyNyAmIzEwO0MgMi4wNzgzMTkgLTMuNTc4NTM1IDEuMDYwODEyIC00IDAgLTQgJiMxMDtDIC0xLjA2MDgxMiAtNCAtMi4wNzgzMTkgLTMuNTc4NTM1IC0yLjgyODQyNyAtMi44Mjg0MjcgJiMxMDtDIC0zLjU3ODUzNSAtMi4wNzgzMTkgLTQgLTEuMDYwODEyIC00IDAgJiMxMDtDIC00IDEuMDYwODEyIC0zLjU3ODUzNSAyLjA3ODMxOSAtMi44Mjg0MjcgMi44Mjg0MjcgJiMxMDtDIC0yLjA3ODMxOSAzLjU3ODUzNSAtMS4wNjA4MTIgNCAwIDQgJiMxMDt6IiBpZD0iQzFfMF84ZmI2ZjEzZDEyIi8+JiN4YTsgICAgPC9kZWZzPiYjeGE7ICAgIDxnIGNsaXAtcGF0aD0idXJsKCNwZGU3MmJjYzI0NykiPiYjeGE7ICAgICA8dXNlIHN0eWxlPSJmaWxsOiAjZTM3MjIyOyBzdHJva2U6ICM0ZTRlNGUiIHk9Ijc0NS44NTU5MDkiIHg9IjI3Ni45NjQxNzQiIHhsaW5rOmhyZWY9IiNDMV8wXzhmYjZmMTNkMTIiLz4mI3hhOyAgICA8L2c+JiN4YTsgICAgPGcgY2xpcC1wYXRoPSJ1cmwoI3BkZTcyYmNjMjQ3KSI+JiN4YTsgICAgIDx1c2Ugc3R5bGU9ImZpbGw6ICNlMzcyMjI7IHN0cm9rZTogIzRlNGU0ZSIgeT0iNzQ1Ljg1NTkwOSIgeD0iMjg4LjIzNDk4OCIgeGxpbms6aHJlZj0iI0MxXzBfOGZiNmYxM2QxMiIvPiYjeGE7ICAgIDwvZz4mI3hhOyAgICA8ZyBjbGlwLXBhdGg9InVybCgjcGRlNzJiY2MyNDcpIj4mI3hhOyAgICAgPHVzZSBzdHlsZT0iZmlsbDogI2UzNzIyMjsgc3Ryb2tlOiAjNGU0ZTRlIiB5PSI3NDUuODU1OTA5IiB4PSIyNDIuMzc5NTI1IiB4bGluazpocmVmPSIjQzFfMF84ZmI2ZjEzZDEyIi8+JiN4YTsgICAgPC9nPiYjeGE7ICAgIDxnIGNsaXAtcGF0aD0idXJsKCNwZGU3MmJjYzI0NykiPiYjeGE7ICAgICA8dXNlIHN0eWxlPSJmaWxsOiAjZTM3MjIyOyBzdHJva2U6ICM0ZTRlNGUiIHk9Ijc0NS44NTU5MDkiIHg9IjI0My4zODc5NzEiIHhsaW5rOmhyZWY9IiNDMV8wXzhmYjZmMTNkMTIiLz4mI3hhOyAgICA8L2c+JiN4YTsgICAgPGcgY2xpcC1wYXRoPSJ1cmwoI3BkZTcyYmNjMjQ3KSI+JiN4YTsgICAgIDx1c2Ugc3R5bGU9ImZpbGw6ICNlMzcyMjI7IHN0cm9rZTogIzRlNGU0ZSIgeT0iNzQ1Ljg1NTkwOSIgeD0iMjM0LjY5MDQwMyIgeGxpbms6aHJlZj0iI0MxXzBfOGZiNmYxM2QxMiIvPiYjeGE7ICAgIDwvZz4mI3hhOyAgICA8ZyBjbGlwLXBhdGg9InVybCgjcGRlNzJiY2MyNDcpIj4mI3hhOyAgICAgPHVzZSBzdHlsZT0iZmlsbDogI2UzNzIyMjsgc3Ryb2tlOiAjNGU0ZTRlIiB5PSI3NDUuODU1OTA5IiB4PSIyODYuOTYyMzg0IiB4bGluazpocmVmPSIjQzFfMF84ZmI2ZjEzZDEyIi8+JiN4YTsgICAgPC9nPiYjeGE7ICAgIDxnIGNsaXAtcGF0aD0idXJsKCNwZGU3MmJjYzI0NykiPiYjeGE7ICAgICA8dXNlIHN0eWxlPSJmaWxsOiAjZTM3MjIyOyBzdHJva2U6ICM0ZTRlNGUiIHk9Ijc0NS44NTU5MDkiIHg9IjI2My43MDM2MzMiIHhsaW5rOmhyZWY9IiNDMV8wXzhmYjZmMTNkMTIiLz4mI3hhOyAgICA8L2c+JiN4YTsgICAgPGcgY2xpcC1wYXRoPSJ1cmwoI3BkZTcyYmNjMjQ3KSI+JiN4YTsgICAgIDx1c2Ugc3R5bGU9ImZpbGw6ICNlMzcyMjI7IHN0cm9rZTogIzRlNGU0ZSIgeT0iNzQ1Ljg1NTkwOSIgeD0iMjU3LjY2NzE3OCIgeGxpbms6aHJlZj0iI0MxXzBfOGZiNmYxM2QxMiIvPiYjeGE7ICAgIDwvZz4mI3hhOyAgICA8ZyBjbGlwLXBhdGg9InVybCgjcGRlNzJiY2MyNDcpIj4mI3hhOyAgICAgPHVzZSBzdHlsZT0iZmlsbDogI2UzNzIyMjsgc3Ryb2tlOiAjNGU0ZTRlIiB5PSI3NDUuODU1OTA5IiB4PSIyODIuODU1OTE5IiB4bGluazpocmVmPSIjQzFfMF84ZmI2ZjEzZDEyIi8+JiN4YTsgICAgPC9nPiYjeGE7ICAgIDxnIGNsaXAtcGF0aD0idXJsKCNwZGU3MmJjYzI0NykiPiYjeGE7ICAgICA8dXNlIHN0eWxlPSJmaWxsOiAjZTM3MjIyOyBzdHJva2U6ICM0ZTRlNGUiIHk9Ijc0NS44NTU5MDkiIHg9IjIzMi43NzY3MDMiIHhsaW5rOmhyZWY9IiNDMV8wXzhmYjZmMTNkMTIiLz4mI3hhOyAgICA8L2c+JiN4YTsgICAgPGcgY2xpcC1wYXRoPSJ1cmwoI3BkZTcyYmNjMjQ3KSI+JiN4YTsgICAgIDx1c2Ugc3R5bGU9ImZpbGw6ICNlMzcyMjI7IHN0cm9rZTogIzRlNGU0ZSIgeT0iNzQ1Ljg1NTkwOSIgeD0iMjk0LjQ1NzM3MSIgeGxpbms6aHJlZj0iI0MxXzBfOGZiNmYxM2QxMiIvPiYjeGE7ICAgIDwvZz4mI3hhOyAgICA8ZyBjbGlwLXBhdGg9InVybCgjcGRlNzJiY2MyNDcpIj4mI3hhOyAgICAgPHVzZSBzdHlsZT0iZmlsbDogI2UzNzIyMjsgc3Ryb2tlOiAjNGU0ZTRlIiB5PSI3NDUuODU1OTA5IiB4PSIyNTcuMzkyNCIgeGxpbms6aHJlZj0iI0MxXzBfOGZiNmYxM2QxMiIvPiYjeGE7ICAgIDwvZz4mI3hhOyAgICA8ZyBjbGlwLXBhdGg9InVybCgjcGRlNzJiY2MyNDcpIj4mI3hhOyAgICAgPHVzZSBzdHlsZT0iZmlsbDogI2UzNzIyMjsgc3Ryb2tlOiAjNGU0ZTRlIiB5PSI3NDUuODU1OTA5IiB4PSIyOTEuMjc1MjczIiB4bGluazpocmVmPSIjQzFfMF84ZmI2ZjEzZDEyIi8+JiN4YTsgICAgPC9nPiYjeGE7ICAgIDxnIGNsaXAtcGF0aD0idXJsKCNwZGU3MmJjYzI0NykiPiYjeGE7ICAgICA8dXNlIHN0eWxlPSJmaWxsOiAjZTM3MjIyOyBzdHJva2U6ICM0ZTRlNGUiIHk9Ijc0NS44NTU5MDkiIHg9IjI2MS41OTI5MTgiIHhsaW5rOmhyZWY9IiNDMV8wXzhmYjZmMTNkMTIiLz4mI3hhOyAgICA8L2c+JiN4YTsgICAgPGcgY2xpcC1wYXRoPSJ1cmwoI3BkZTcyYmNjMjQ3KSI+JiN4YTsgICAgIDx1c2Ugc3R5bGU9ImZpbGw6ICNlMzcyMjI7IHN0cm9rZTogIzRlNGU0ZSIgeT0iNzQ1Ljg1NTkwOSIgeD0iMjY3Ljk5MDUzMiIgeGxpbms6aHJlZj0iI0MxXzBfOGZiNmYxM2QxMiIvPiYjeGE7ICAgIDwvZz4mI3hhOyAgICA8ZyBjbGlwLXBhdGg9InVybCgjcGRlNzJiY2MyNDcpIj4mI3hhOyAgICAgPHVzZSBzdHlsZT0iZmlsbDogI2UzNzIyMjsgc3Ryb2tlOiAjNGU0ZTRlIiB5PSI3NDUuODU1OTA5IiB4PSIyNTYuMTk3NjQ3IiB4bGluazpocmVmPSIjQzFfMF84ZmI2ZjEzZDEyIi8+JiN4YTsgICAgPC9nPiYjeGE7ICAgIDxnIGNsaXAtcGF0aD0idXJsKCNwZGU3MmJjYzI0NykiPiYjeGE7ICAgICA8dXNlIHN0eWxlPSJmaWxsOiAjZTM3MjIyOyBzdHJva2U6ICM0ZTRlNGUiIHk9Ijc0NS44NTU5MDkiIHg9IjI3NS4yNzY5MjkiIHhsaW5rOmhyZWY9IiNDMV8wXzhmYjZmMTNkMTIiLz4mI3hhOyAgICA8L2c+JiN4YTsgICAgPGcgY2xpcC1wYXRoPSJ1cmwoI3BkZTcyYmNjMjQ3KSI+JiN4YTsgICAgIDx1c2Ugc3R5bGU9ImZpbGw6ICNlMzcyMjI7IHN0cm9rZTogIzRlNGU0ZSIgeT0iNzQ1Ljg1NTkwOSIgeD0iMjQ2Ljg5NzU2OCIgeGxpbms6aHJlZj0iI0MxXzBfOGZiNmYxM2QxMiIvPiYjeGE7ICAgIDwvZz4mI3hhOyAgICA8ZyBjbGlwLXBhdGg9InVybCgjcGRlNzJiY2MyNDcpIj4mI3hhOyAgICAgPHVzZSBzdHlsZT0iZmlsbDogI2UzNzIyMjsgc3Ryb2tlOiAjNGU0ZTRlIiB5PSI3NDUuODU1OTA5IiB4PSIyOTAuMjE0MDg5IiB4bGluazpocmVmPSIjQzFfMF84ZmI2ZjEzZDEyIi8+JiN4YTsgICAgPC9nPiYjeGE7ICAgIDxnIGNsaXAtcGF0aD0idXJsKCNwZGU3MmJjYzI0NykiPiYjeGE7ICAgICA8dXNlIHN0eWxlPSJmaWxsOiAjZTM3MjIyOyBzdHJva2U6ICM0ZTRlNGUiIHk9Ijc0NS44NTU5MDkiIHg9IjI3Mi4zMDc1OTciIHhsaW5rOmhyZWY9IiNDMV8wXzhmYjZmMTNkMTIiLz4mI3hhOyAgICA8L2c+JiN4YTsgICAgPGcgY2xpcC1wYXRoPSJ1cmwoI3BkZTcyYmNjMjQ3KSI+JiN4YTsgICAgIDx1c2Ugc3R5bGU9ImZpbGw6ICNlMzcyMjI7IHN0cm9rZTogIzRlNGU0ZSIgeT0iNzQ1Ljg1NTkwOSIgeD0iMjUzLjI3MTg2MiIgeGxpbms6aHJlZj0iI0MxXzBfOGZiNmYxM2QxMiIvPiYjeGE7ICAgIDwvZz4mI3hhOyAgICA8ZyBjbGlwLXBhdGg9InVybCgjcGRlNzJiY2MyNDcpIj4mI3hhOyAgICAgPHVzZSBzdHlsZT0iZmlsbDogI2UzNzIyMjsgc3Ryb2tlOiAjNGU0ZTRlIiB5PSI3NDUuODU1OTA5IiB4PSIyODMuNzA1MDA5IiB4bGluazpocmVmPSIjQzFfMF84ZmI2ZjEzZDEyIi8+JiN4YTsgICAgPC9nPiYjeGE7ICAgIDxnIGNsaXAtcGF0aD0idXJsKCNwZGU3MmJjYzI0NykiPiYjeGE7ICAgICA8dXNlIHN0eWxlPSJmaWxsOiAjZTM3MjIyOyBzdHJva2U6ICM0ZTRlNGUiIHk9Ijc0NS44NTU5MDkiIHg9IjI0NC4wODE2NiIgeGxpbms6aHJlZj0iI0MxXzBfOGZiNmYxM2QxMiIvPiYjeGE7ICAgIDwvZz4mI3hhOyAgICA8ZyBjbGlwLXBhdGg9InVybCgjcGRlNzJiY2MyNDcpIj4mI3hhOyAgICAgPHVzZSBzdHlsZT0iZmlsbDogI2UzNzIyMjsgc3Ryb2tlOiAjNGU0ZTRlIiB5PSI3NDUuODU1OTA5IiB4PSIyNzkuNjQwNDMxIiB4bGluazpocmVmPSIjQzFfMF84ZmI2ZjEzZDEyIi8+JiN4YTsgICAgPC9nPiYjeGE7ICAgIDxnIGNsaXAtcGF0aD0idXJsKCNwZGU3MmJjYzI0NykiPiYjeGE7ICAgICA8dXNlIHN0eWxlPSJmaWxsOiAjZTM3MjIyOyBzdHJva2U6ICM0ZTRlNGUiIHk9Ijc0NS44NTU5MDkiIHg9IjI1MC4wMjY1MTIiIHhsaW5rOmhyZWY9IiNDMV8wXzhmYjZmMTNkMTIiLz4mI3hhOyAgICA8L2c+JiN4YTsgICAgPGcgY2xpcC1wYXRoPSJ1cmwoI3BkZTcyYmNjMjQ3KSI+JiN4YTsgICAgIDx1c2Ugc3R5bGU9ImZpbGw6ICNlMzcyMjI7IHN0cm9rZTogIzRlNGU0ZSIgeT0iNzQ1Ljg1NTkwOSIgeD0iMjg3LjI0OTc0NCIgeGxpbms6aHJlZj0iI0MxXzBfOGZiNmYxM2QxMiIvPiYjeGE7ICAgIDwvZz4mI3hhOyAgICA8ZyBjbGlwLXBhdGg9InVybCgjcGRlNzJiY2MyNDcpIj4mI3hhOyAgICAgPHVzZSBzdHlsZT0iZmlsbDogI2UzNzIyMjsgc3Ryb2tlOiAjNGU0ZTRlIiB5PSI3NDUuODU1OTA5IiB4PSIyNDMuMzA4MTY5IiB4bGluazpocmVmPSIjQzFfMF84ZmI2ZjEzZDEyIi8+JiN4YTsgICAgPC9nPiYjeGE7ICAgIDxnIGNsaXAtcGF0aD0idXJsKCNwZGU3MmJjYzI0NykiPiYjeGE7ICAgICA8dXNlIHN0eWxlPSJmaWxsOiAjZTM3MjIyOyBzdHJva2U6ICM0ZTRlNGUiIHk9Ijc0NS44NTU5MDkiIHg9IjI3OC44OTk0NzMiIHhsaW5rOmhyZWY9IiNDMV8wXzhmYjZmMTNkMTIiLz4mI3hhOyAgICA8L2c+JiN4YTsgICAgPGcgY2xpcC1wYXRoPSJ1cmwoI3BkZTcyYmNjMjQ3KSI+JiN4YTsgICAgIDx1c2Ugc3R5bGU9ImZpbGw6ICNlMzcyMjI7IHN0cm9rZTogIzRlNGU0ZSIgeT0iNzQ1Ljg1NTkwOSIgeD0iMjY4LjgyMTYxMSIgeGxpbms6aHJlZj0iI0MxXzBfOGZiNmYxM2QxMiIvPiYjeGE7ICAgIDwvZz4mI3hhOyAgICA8ZyBjbGlwLXBhdGg9InVybCgjcGRlNzJiY2MyNDcpIj4mI3hhOyAgICAgPHVzZSBzdHlsZT0iZmlsbDogI2UzNzIyMjsgc3Ryb2tlOiAjNGU0ZTRlIiB5PSI3NDUuODU1OTA5IiB4PSIyODAuNjY0NjIxIiB4bGluazpocmVmPSIjQzFfMF84ZmI2ZjEzZDEyIi8+JiN4YTsgICAgPC9nPiYjeGE7ICAgPC9nPiYjeGE7ICAgPGcgaWQ9IlBhdGhDb2xsZWN0aW9uXzQiPiYjeGE7ICAgIDxkZWZzPiYjeGE7ICAgICA8cGF0aCBkPSJNIDAgNCAmIzEwO0MgMS4wNjA4MTIgNCAyLjA3ODMxOSAzLjU3ODUzNSAyLjgyODQyNyAyLjgyODQyNyAmIzEwO0MgMy41Nzg1MzUgMi4wNzgzMTkgNCAxLjA2MDgxMiA0IC0wICYjMTA7QyA0IC0xLjA2MDgxMiAzLjU3ODUzNSAtMi4wNzgzMTkgMi44Mjg0MjcgLTIuODI4NDI3ICYjMTA7QyAyLjA3ODMxOSAtMy41Nzg1MzUgMS4wNjA4MTIgLTQgMCAtNCAmIzEwO0MgLTEuMDYwODEyIC00IC0yLjA3ODMxOSAtMy41Nzg1MzUgLTIuODI4NDI3IC0yLjgyODQyNyAmIzEwO0MgLTMuNTc4NTM1IC0yLjA3ODMxOSAtNCAtMS4wNjA4MTIgLTQgMCAmIzEwO0MgLTQgMS4wNjA4MTIgLTMuNTc4NTM1IDIuMDc4MzE5IC0yLjgyODQyNyAyLjgyODQyNyAmIzEwO0MgLTIuMDc4MzE5IDMuNTc4NTM1IC0xLjA2MDgxMiA0IDAgNCAmIzEwO3oiIGlkPSJDMl8wXzQ3YzQwNDBkMjUiLz4mI3hhOyAgICA8L2RlZnM+JiN4YTsgICAgPGcgY2xpcC1wYXRoPSJ1cmwoI3BkZTcyYmNjMjQ3KSI+JiN4YTsgICAgIDx1c2Ugc3R5bGU9ImZpbGw6ICNlMzcyMjI7IHN0cm9rZTogIzRlNGU0ZSIgeT0iNzQ1Ljg1NTkwOSIgeD0iMzM5LjYyODMzMyIgeGxpbms6aHJlZj0iI0MyXzBfNDdjNDA0MGQyNSIvPiYjeGE7ICAgIDwvZz4mI3hhOyAgICA8ZyBjbGlwLXBhdGg9InVybCgjcGRlNzJiY2MyNDcpIj4mI3hhOyAgICAgPHVzZSBzdHlsZT0iZmlsbDogI2UzNzIyMjsgc3Ryb2tlOiAjNGU0ZTRlIiB5PSI3NDUuODU1OTA5IiB4PSI0MDEuMDMxMDkiIHhsaW5rOmhyZWY9IiNDMl8wXzQ3YzQwNDBkMjUiLz4mI3hhOyAgICA8L2c+JiN4YTsgICAgPGcgY2xpcC1wYXRoPSJ1cmwoI3BkZTcyYmNjMjQ3KSI+JiN4YTsgICAgIDx1c2Ugc3R5bGU9ImZpbGw6ICNlMzcyMjI7IHN0cm9rZTogIzRlNGU0ZSIgeT0iNzQ1Ljg1NTkwOSIgeD0iMzM5LjUyMzM5NyIgeGxpbms6aHJlZj0iI0MyXzBfNDdjNDA0MGQyNSIvPiYjeGE7ICAgIDwvZz4mI3hhOyAgICA8ZyBjbGlwLXBhdGg9InVybCgjcGRlNzJiY2MyNDcpIj4mI3hhOyAgICAgPHVzZSBzdHlsZT0iZmlsbDogI2UzNzIyMjsgc3Ryb2tlOiAjNGU0ZTRlIiB5PSI3NDUuODU1OTA5IiB4PSIzNTAuNzk2NTQzIiB4bGluazpocmVmPSIjQzJfMF80N2M0MDQwZDI1Ii8+JiN4YTsgICAgPC9nPiYjeGE7ICAgIDxnIGNsaXAtcGF0aD0idXJsKCNwZGU3MmJjYzI0NykiPiYjeGE7ICAgICA8dXNlIHN0eWxlPSJmaWxsOiAjZTM3MjIyOyBzdHJva2U6ICM0ZTRlNGUiIHk9Ijc0NS44NTU5MDkiIHg9IjMzOC45NTY4MzYiIHhsaW5rOmhyZWY9IiNDMl8wXzQ3YzQwNDBkMjUiLz4mI3hhOyAgICA8L2c+JiN4YTsgICAgPGcgY2xpcC1wYXRoPSJ1cmwoI3BkZTcyYmNjMjQ3KSI+JiN4YTsgICAgIDx1c2Ugc3R5bGU9ImZpbGw6ICNlMzcyMjI7IHN0cm9rZTogIzRlNGU0ZSIgeT0iNzQ1Ljg1NTkwOSIgeD0iNDAyLjM5NjA1OCIgeGxpbms6aHJlZj0iI0MyXzBfNDdjNDA0MGQyNSIvPiYjeGE7ICAgIDwvZz4mI3hhOyAgICA8ZyBjbGlwLXBhdGg9InVybCgjcGRlNzJiY2MyNDcpIj4mI3hhOyAgICAgPHVzZSBzdHlsZT0iZmlsbDogI2UzNzIyMjsgc3Ryb2tlOiAjNGU0ZTRlIiB5PSI3NDUuODU1OTA5IiB4PSIzODYuMTMzMzg4IiB4bGluazpocmVmPSIjQzJfMF80N2M0MDQwZDI1Ii8+JiN4YTsgICAgPC9nPiYjeGE7ICAgIDxnIGNsaXAtcGF0aD0idXJsKCNwZGU3MmJjYzI0NykiPiYjeGE7ICAgICA8dXNlIHN0eWxlPSJmaWxsOiAjZTM3MjIyOyBzdHJva2U6ICM0ZTRlNGUiIHk9Ijc0NS44NTU5MDkiIHg9IjM5OC43MjAyNTUiIHhsaW5rOmhyZWY9IiNDMl8wXzQ3YzQwNDBkMjUiLz4mI3hhOyAgICA8L2c+JiN4YTsgICAgPGcgY2xpcC1wYXRoPSJ1cmwoI3BkZTcyYmNjMjQ3KSI+JiN4YTsgICAgIDx1c2Ugc3R5bGU9ImZpbGw6ICNlMzcyMjI7IHN0cm9rZTogIzRlNGU0ZSIgeT0iNzQ1Ljg1NTkwOSIgeD0iMzYyLjQ1NTg3NyIgeGxpbms6aHJlZj0iI0MyXzBfNDdjNDA0MGQyNSIvPiYjeGE7ICAgIDwvZz4mI3hhOyAgICA8ZyBjbGlwLXBhdGg9InVybCgjcGRlNzJiY2MyNDcpIj4mI3hhOyAgICAgPHVzZSBzdHlsZT0iZmlsbDogI2UzNzIyMjsgc3Ryb2tlOiAjNGU0ZTRlIiB5PSI3NDUuODU1OTA5IiB4PSIzOTAuODcxMzc3IiB4bGluazpocmVmPSIjQzJfMF80N2M0MDQwZDI1Ii8+JiN4YTsgICAgPC9nPiYjeGE7ICAgIDxnIGNsaXAtcGF0aD0idXJsKCNwZGU3MmJjYzI0NykiPiYjeGE7ICAgICA8dXNlIHN0eWxlPSJmaWxsOiAjZTM3MjIyOyBzdHJva2U6ICM0ZTRlNGUiIHk9Ijc0NS44NTU5MDkiIHg9IjM2NC44NDQ3MDQiIHhsaW5rOmhyZWY9IiNDMl8wXzQ3YzQwNDBkMjUiLz4mI3hhOyAgICA8L2c+JiN4YTsgICAgPGcgY2xpcC1wYXRoPSJ1cmwoI3BkZTcyYmNjMjQ3KSI+JiN4YTsgICAgIDx1c2Ugc3R5bGU9ImZpbGw6ICNlMzcyMjI7IHN0cm9rZTogIzRlNGU0ZSIgeT0iNzQ1Ljg1NTkwOSIgeD0iMzg4LjA1NjY1MSIgeGxpbms6aHJlZj0iI0MyXzBfNDdjNDA0MGQyNSIvPiYjeGE7ICAgIDwvZz4mI3hhOyAgICA8ZyBjbGlwLXBhdGg9InVybCgjcGRlNzJiY2MyNDcpIj4mI3hhOyAgICAgPHVzZSBzdHlsZT0iZmlsbDogI2UzNzIyMjsgc3Ryb2tlOiAjNGU0ZTRlIiB5PSI3NDUuODU1OTA5IiB4PSIzNzEuNzc0NDUyIiB4bGluazpocmVmPSIjQzJfMF80N2M0MDQwZDI1Ii8+JiN4YTsgICAgPC9nPiYjeGE7ICAgIDxnIGNsaXAtcGF0aD0idXJsKCNwZGU3MmJjYzI0NykiPiYjeGE7ICAgICA8dXNlIHN0eWxlPSJmaWxsOiAjZTM3MjIyOyBzdHJva2U6ICM0ZTRlNGUiIHk9Ijc0NS44NTU5MDkiIHg9IjM5MC42NzQ5MTYiIHhsaW5rOmhyZWY9IiNDMl8wXzQ3YzQwNDBkMjUiLz4mI3hhOyAgICA8L2c+JiN4YTsgICAgPGcgY2xpcC1wYXRoPSJ1cmwoI3BkZTcyYmNjMjQ3KSI+JiN4YTsgICAgIDx1c2Ugc3R5bGU9ImZpbGw6ICNlMzcyMjI7IHN0cm9rZTogIzRlNGU0ZSIgeT0iNzQ1Ljg1NTkwOSIgeD0iMzc0LjY4NjU0OCIgeGxpbms6aHJlZj0iI0MyXzBfNDdjNDA0MGQyNSIvPiYjeGE7ICAgIDwvZz4mI3hhOyAgICA8ZyBjbGlwLXBhdGg9InVybCgjcGRlNzJiY2MyNDcpIj4mI3hhOyAgICAgPHVzZSBzdHlsZT0iZmlsbDogI2UzNzIyMjsgc3Ryb2tlOiAjNGU0ZTRlIiB5PSI3NDUuODU1OTA5IiB4PSIzNzYuODQ4Njc5IiB4bGluazpocmVmPSIjQzJfMF80N2M0MDQwZDI1Ii8+JiN4YTsgICAgPC9nPiYjeGE7ICAgIDxnIGNsaXAtcGF0aD0idXJsKCNwZGU3MmJjYzI0NykiPiYjeGE7ICAgICA8dXNlIHN0eWxlPSJmaWxsOiAjZTM3MjIyOyBzdHJva2U6ICM0ZTRlNGUiIHk9Ijc0NS44NTU5MDkiIHg9IjM4My4xNzIxMzkiIHhsaW5rOmhyZWY9IiNDMl8wXzQ3YzQwNDBkMjUiLz4mI3hhOyAgICA8L2c+JiN4YTsgICAgPGcgY2xpcC1wYXRoPSJ1cmwoI3BkZTcyYmNjMjQ3KSI+JiN4YTsgICAgIDx1c2Ugc3R5bGU9ImZpbGw6ICNlMzcyMjI7IHN0cm9rZTogIzRlNGU0ZSIgeT0iNzQ1Ljg1NTkwOSIgeD0iMzc3LjQ4MDE2NyIgeGxpbms6aHJlZj0iI0MyXzBfNDdjNDA0MGQyNSIvPiYjeGE7ICAgIDwvZz4mI3hhOyAgICA8ZyBjbGlwLXBhdGg9InVybCgjcGRlNzJiY2MyNDcpIj4mI3hhOyAgICAgPHVzZSBzdHlsZT0iZmlsbDogI2UzNzIyMjsgc3Ryb2tlOiAjNGU0ZTRlIiB5PSI3NDUuODU1OTA5IiB4PSIzOTEuMjc0NDcyIiB4bGluazpocmVmPSIjQzJfMF80N2M0MDQwZDI1Ii8+JiN4YTsgICAgPC9nPiYjeGE7ICAgIDxnIGNsaXAtcGF0aD0idXJsKCNwZGU3MmJjYzI0NykiPiYjeGE7ICAgICA8dXNlIHN0eWxlPSJmaWxsOiAjZTM3MjIyOyBzdHJva2U6ICM0ZTRlNGUiIHk9Ijc0NS44NTU5MDkiIHg9IjM1OC4wODA2MzUiIHhsaW5rOmhyZWY9IiNDMl8wXzQ3YzQwNDBkMjUiLz4mI3hhOyAgICA8L2c+JiN4YTsgICAgPGcgY2xpcC1wYXRoPSJ1cmwoI3BkZTcyYmNjMjQ3KSI+JiN4YTsgICAgIDx1c2Ugc3R5bGU9ImZpbGw6ICNlMzcyMjI7IHN0cm9rZTogIzRlNGU0ZSIgeT0iNzQ1Ljg1NTkwOSIgeD0iMzc2Ljg1ODg0MiIgeGxpbms6aHJlZj0iI0MyXzBfNDdjNDA0MGQyNSIvPiYjeGE7ICAgIDwvZz4mI3hhOyAgICA8ZyBjbGlwLXBhdGg9InVybCgjcGRlNzJiY2MyNDcpIj4mI3hhOyAgICAgPHVzZSBzdHlsZT0iZmlsbDogI2UzNzIyMjsgc3Ryb2tlOiAjNGU0ZTRlIiB5PSI3NDUuODU1OTA5IiB4PSIzNzQuNTIyNDM0IiB4bGluazpocmVmPSIjQzJfMF80N2M0MDQwZDI1Ii8+JiN4YTsgICAgPC9nPiYjeGE7ICAgIDxnIGNsaXAtcGF0aD0idXJsKCNwZGU3MmJjYzI0NykiPiYjeGE7ICAgICA8dXNlIHN0eWxlPSJmaWxsOiAjZTM3MjIyOyBzdHJva2U6ICM0ZTRlNGUiIHk9Ijc0NS44NTU5MDkiIHg9IjM2My4xNzQzNDQiIHhsaW5rOmhyZWY9IiNDMl8wXzQ3YzQwNDBkMjUiLz4mI3hhOyAgICA8L2c+JiN4YTsgICAgPGcgY2xpcC1wYXRoPSJ1cmwoI3BkZTcyYmNjMjQ3KSI+JiN4YTsgICAgIDx1c2Ugc3R5bGU9ImZpbGw6ICNlMzcyMjI7IHN0cm9rZTogIzRlNGU0ZSIgeT0iNzQ1Ljg1NTkwOSIgeD0iMzU0LjU2NDM0MiIgeGxpbms6aHJlZj0iI0MyXzBfNDdjNDA0MGQyNSIvPiYjeGE7ICAgIDwvZz4mI3hhOyAgICA8ZyBjbGlwLXBhdGg9InVybCgjcGRlNzJiY2MyNDcpIj4mI3hhOyAgICAgPHVzZSBzdHlsZT0iZmlsbDogI2UzNzIyMjsgc3Ryb2tlOiAjNGU0ZTRlIiB5PSI3NDUuODU1OTA5IiB4PSIzNTYuNzE2NjE1IiB4bGluazpocmVmPSIjQzJfMF80N2M0MDQwZDI1Ii8+JiN4YTsgICAgPC9nPiYjeGE7ICAgIDxnIGNsaXAtcGF0aD0idXJsKCNwZGU3MmJjYzI0NykiPiYjeGE7ICAgICA8dXNlIHN0eWxlPSJmaWxsOiAjZTM3MjIyOyBzdHJva2U6ICM0ZTRlNGUiIHk9Ijc0NS44NTU5MDkiIHg9IjM1MS42ODM0OTUiIHhsaW5rOmhyZWY9IiNDMl8wXzQ3YzQwNDBkMjUiLz4mI3hhOyAgICA8L2c+JiN4YTsgICAgPGcgY2xpcC1wYXRoPSJ1cmwoI3BkZTcyYmNjMjQ3KSI+JiN4YTsgICAgIDx1c2Ugc3R5bGU9ImZpbGw6ICNlMzcyMjI7IHN0cm9rZTogIzRlNGU0ZSIgeT0iNzQ1Ljg1NTkwOSIgeD0iMzYzLjUzMzMyNSIgeGxpbms6aHJlZj0iI0MyXzBfNDdjNDA0MGQyNSIvPiYjeGE7ICAgIDwvZz4mI3hhOyAgICA8ZyBjbGlwLXBhdGg9InVybCgjcGRlNzJiY2MyNDcpIj4mI3hhOyAgICAgPHVzZSBzdHlsZT0iZmlsbDogI2UzNzIyMjsgc3Ryb2tlOiAjNGU0ZTRlIiB5PSI3NDUuODU1OTA5IiB4PSIzNzMuNjY2MjA4IiB4bGluazpocmVmPSIjQzJfMF80N2M0MDQwZDI1Ii8+JiN4YTsgICAgPC9nPiYjeGE7ICAgIDxnIGNsaXAtcGF0aD0idXJsKCNwZGU3MmJjYzI0NykiPiYjeGE7ICAgICA8dXNlIHN0eWxlPSJmaWxsOiAjZTM3MjIyOyBzdHJva2U6ICM0ZTRlNGUiIHk9Ijc0NS44NTU5MDkiIHg9IjQwMS42ODQ2NDIiIHhsaW5rOmhyZWY9IiNDMl8wXzQ3YzQwNDBkMjUiLz4mI3hhOyAgICA8L2c+JiN4YTsgICAgPGcgY2xpcC1wYXRoPSJ1cmwoI3BkZTcyYmNjMjQ3KSI+JiN4YTsgICAgIDx1c2Ugc3R5bGU9ImZpbGw6ICNlMzcyMjI7IHN0cm9rZTogIzRlNGU0ZSIgeT0iNzQ1Ljg1NTkwOSIgeD0iMzc5LjI0MjQyOCIgeGxpbms6aHJlZj0iI0MyXzBfNDdjNDA0MGQyNSIvPiYjeGE7ICAgIDwvZz4mI3hhOyAgIDwvZz4mI3hhOyAgIDxnIGlkPSJQYXRoQ29sbGVjdGlvbl81Ij4mI3hhOyAgICA8ZGVmcz4mI3hhOyAgICAgPHBhdGggZD0iTSAwIDQgJiMxMDtDIDEuMDYwODEyIDQgMi4wNzgzMTkgMy41Nzg1MzUgMi44Mjg0MjcgMi44Mjg0MjcgJiMxMDtDIDMuNTc4NTM1IDIuMDc4MzE5IDQgMS4wNjA4MTIgNCAtMCAmIzEwO0MgNCAtMS4wNjA4MTIgMy41Nzg1MzUgLTIuMDc4MzE5IDIuODI4NDI3IC0yLjgyODQyNyAmIzEwO0MgMi4wNzgzMTkgLTMuNTc4NTM1IDEuMDYwODEyIC00IDAgLTQgJiMxMDtDIC0xLjA2MDgxMiAtNCAtMi4wNzgzMTkgLTMuNTc4NTM1IC0yLjgyODQyNyAtMi44Mjg0MjcgJiMxMDtDIC0zLjU3ODUzNSAtMi4wNzgzMTkgLTQgLTEuMDYwODEyIC00IDAgJiMxMDtDIC00IDEuMDYwODEyIC0zLjU3ODUzNSAyLjA3ODMxOSAtMi44Mjg0MjcgMi44Mjg0MjcgJiMxMDtDIC0yLjA3ODMxOSAzLjU3ODUzNSAtMS4wNjA4MTIgNCAwIDQgJiMxMDt6IiBpZD0iQzNfMF9jYmI5MmE4NWFkIi8+JiN4YTsgICAgPC9kZWZzPiYjeGE7ICAgIDxnIGNsaXAtcGF0aD0idXJsKCNwZGU3MmJjYzI0NykiPiYjeGE7ICAgICA8dXNlIHN0eWxlPSJmaWxsOiAjZTM3MjIyOyBzdHJva2U6ICM0ZTRlNGUiIHk9Ijc0NS44NTU5MDkiIHg9IjUwMS43NTc4MTEiIHhsaW5rOmhyZWY9IiNDM18wX2NiYjkyYTg1YWQiLz4mI3hhOyAgICA8L2c+JiN4YTsgICAgPGcgY2xpcC1wYXRoPSJ1cmwoI3BkZTcyYmNjMjQ3KSI+JiN4YTsgICAgIDx1c2Ugc3R5bGU9ImZpbGw6ICNlMzcyMjI7IHN0cm9rZTogIzRlNGU0ZSIgeT0iNzQ1Ljg1NTkwOSIgeD0iNTA0Ljk3OTYyMyIgeGxpbms6aHJlZj0iI0MzXzBfY2JiOTJhODVhZCIvPiYjeGE7ICAgIDwvZz4mI3hhOyAgICA8ZyBjbGlwLXBhdGg9InVybCgjcGRlNzJiY2MyNDcpIj4mI3hhOyAgICAgPHVzZSBzdHlsZT0iZmlsbDogI2UzNzIyMjsgc3Ryb2tlOiAjNGU0ZTRlIiB5PSI3NDUuODU1OTA5IiB4PSI1MDEuMjQzMTk2IiB4bGluazpocmVmPSIjQzNfMF9jYmI5MmE4NWFkIi8+JiN4YTsgICAgPC9nPiYjeGE7ICAgIDxnIGNsaXAtcGF0aD0idXJsKCNwZGU3MmJjYzI0NykiPiYjeGE7ICAgICA8dXNlIHN0eWxlPSJmaWxsOiAjZTM3MjIyOyBzdHJva2U6ICM0ZTRlNGUiIHk9Ijc0NS44NTU5MDkiIHg9IjQ1NS4xOTQ5NzIiIHhsaW5rOmhyZWY9IiNDM18wX2NiYjkyYTg1YWQiLz4mI3hhOyAgICA8L2c+JiN4YTsgICAgPGcgY2xpcC1wYXRoPSJ1cmwoI3BkZTcyYmNjMjQ3KSI+JiN4YTsgICAgIDx1c2Ugc3R5bGU9ImZpbGw6ICNlMzcyMjI7IHN0cm9rZTogIzRlNGU0ZSIgeT0iNzQ1Ljg1NTkwOSIgeD0iNDcxLjM3NzgyNyIgeGxpbms6aHJlZj0iI0MzXzBfY2JiOTJhODVhZCIvPiYjeGE7ICAgIDwvZz4mI3hhOyAgICA8ZyBjbGlwLXBhdGg9InVybCgjcGRlNzJiY2MyNDcpIj4mI3hhOyAgICAgPHVzZSBzdHlsZT0iZmlsbDogI2UzNzIyMjsgc3Ryb2tlOiAjNGU0ZTRlIiB5PSI1ODYuNTc3MDA3IiB4PSI0NjkuMjA5MDQ3IiB4bGluazpocmVmPSIjQzNfMF9jYmI5MmE4NWFkIi8+JiN4YTsgICAgPC9nPiYjeGE7ICAgIDxnIGNsaXAtcGF0aD0idXJsKCNwZGU3MmJjYzI0NykiPiYjeGE7ICAgICA8dXNlIHN0eWxlPSJmaWxsOiAjZTM3MjIyOyBzdHJva2U6ICM0ZTRlNGUiIHk9Ijc0NS44NTU5MDkiIHg9IjQ2Ny4wNTAwMjYiIHhsaW5rOmhyZWY9IiNDM18wX2NiYjkyYTg1YWQiLz4mI3hhOyAgICA8L2c+JiN4YTsgICAgPGcgY2xpcC1wYXRoPSJ1cmwoI3BkZTcyYmNjMjQ3KSI+JiN4YTsgICAgIDx1c2Ugc3R5bGU9ImZpbGw6ICNlMzcyMjI7IHN0cm9rZTogIzRlNGU0ZSIgeT0iNzQ1Ljg1NTkwOSIgeD0iNDY1LjY0MTMiIHhsaW5rOmhyZWY9IiNDM18wX2NiYjkyYTg1YWQiLz4mI3hhOyAgICA8L2c+JiN4YTsgICAgPGcgY2xpcC1wYXRoPSJ1cmwoI3BkZTcyYmNjMjQ3KSI+JiN4YTsgICAgIDx1c2Ugc3R5bGU9ImZpbGw6ICNlMzcyMjI7IHN0cm9rZTogIzRlNGU0ZSIgeT0iNzQ1Ljg1NTkwOSIgeD0iNDY4LjMxNTUxMSIgeGxpbms6aHJlZj0iI0MzXzBfY2JiOTJhODVhZCIvPiYjeGE7ICAgIDwvZz4mI3hhOyAgICA8ZyBjbGlwLXBhdGg9InVybCgjcGRlNzJiY2MyNDcpIj4mI3hhOyAgICAgPHVzZSBzdHlsZT0iZmlsbDogI2UzNzIyMjsgc3Ryb2tlOiAjNGU0ZTRlIiB5PSI3NDUuODU1OTA5IiB4PSI0ODcuODA5NTkyIiB4bGluazpocmVmPSIjQzNfMF9jYmI5MmE4NWFkIi8+JiN4YTsgICAgPC9nPiYjeGE7ICAgIDxnIGNsaXAtcGF0aD0idXJsKCNwZGU3MmJjYzI0NykiPiYjeGE7ICAgICA8dXNlIHN0eWxlPSJmaWxsOiAjZTM3MjIyOyBzdHJva2U6ICM0ZTRlNGUiIHk9Ijc0NS44NTU5MDkiIHg9IjQ4MS44NjM0IiB4bGluazpocmVmPSIjQzNfMF9jYmI5MmE4NWFkIi8+JiN4YTsgICAgPC9nPiYjeGE7ICAgIDxnIGNsaXAtcGF0aD0idXJsKCNwZGU3MmJjYzI0NykiPiYjeGE7ICAgICA8dXNlIHN0eWxlPSJmaWxsOiAjZTM3MjIyOyBzdHJva2U6ICM0ZTRlNGUiIHk9Ijc0NS44NTU5MDkiIHg9IjQ4MC45OTg3NjciIHhsaW5rOmhyZWY9IiNDM18wX2NiYjkyYTg1YWQiLz4mI3hhOyAgICA8L2c+JiN4YTsgICAgPGcgY2xpcC1wYXRoPSJ1cmwoI3BkZTcyYmNjMjQ3KSI+JiN4YTsgICAgIDx1c2Ugc3R5bGU9ImZpbGw6ICNlMzcyMjI7IHN0cm9rZTogIzRlNGU0ZSIgeT0iNzQ1Ljg1NTkwOSIgeD0iNDc3LjUxNDkwMSIgeGxpbms6aHJlZj0iI0MzXzBfY2JiOTJhODVhZCIvPiYjeGE7ICAgIDwvZz4mI3hhOyAgICA8ZyBjbGlwLXBhdGg9InVybCgjcGRlNzJiY2MyNDcpIj4mI3hhOyAgICAgPHVzZSBzdHlsZT0iZmlsbDogI2UzNzIyMjsgc3Ryb2tlOiAjNGU0ZTRlIiB5PSI3NDUuODU1OTA5IiB4PSI1MDEuNzE2NjQyIiB4bGluazpocmVmPSIjQzNfMF9jYmI5MmE4NWFkIi8+JiN4YTsgICAgPC9nPiYjeGE7ICAgIDxnIGNsaXAtcGF0aD0idXJsKCNwZGU3MmJjYzI0NykiPiYjeGE7ICAgICA8dXNlIHN0eWxlPSJmaWxsOiAjZTM3MjIyOyBzdHJva2U6ICM0ZTRlNGUiIHk9Ijc0NS44NTU5MDkiIHg9IjQ5OS45MjM2MDkiIHhsaW5rOmhyZWY9IiNDM18wX2NiYjkyYTg1YWQiLz4mI3hhOyAgICA8L2c+JiN4YTsgICAgPGcgY2xpcC1wYXRoPSJ1cmwoI3BkZTcyYmNjMjQ3KSI+JiN4YTsgICAgIDx1c2Ugc3R5bGU9ImZpbGw6ICNlMzcyMjI7IHN0cm9rZTogIzRlNGU0ZSIgeT0iNzQ1Ljg1NTkwOSIgeD0iNDUxLjAyMjk3NCIgeGxpbms6aHJlZj0iI0MzXzBfY2JiOTJhODVhZCIvPiYjeGE7ICAgIDwvZz4mI3hhOyAgICA8ZyBjbGlwLXBhdGg9InVybCgjcGRlNzJiY2MyNDcpIj4mI3hhOyAgICAgPHVzZSBzdHlsZT0iZmlsbDogI2UzNzIyMjsgc3Ryb2tlOiAjNGU0ZTRlIiB5PSI3NDUuODU1OTA5IiB4PSI1MDUuMDU3MDI1IiB4bGluazpocmVmPSIjQzNfMF9jYmI5MmE4NWFkIi8+JiN4YTsgICAgPC9nPiYjeGE7ICAgIDxnIGNsaXAtcGF0aD0idXJsKCNwZGU3MmJjYzI0NykiPiYjeGE7ICAgICA8dXNlIHN0eWxlPSJmaWxsOiAjZTM3MjIyOyBzdHJva2U6ICM0ZTRlNGUiIHk9Ijc0NS44NTU5MDkiIHg9IjUwOC42Nzg4NzUiIHhsaW5rOmhyZWY9IiNDM18wX2NiYjkyYTg1YWQiLz4mI3hhOyAgICA8L2c+JiN4YTsgICAgPGcgY2xpcC1wYXRoPSJ1cmwoI3BkZTcyYmNjMjQ3KSI+JiN4YTsgICAgIDx1c2Ugc3R5bGU9ImZpbGw6ICNlMzcyMjI7IHN0cm9rZTogIzRlNGU0ZSIgeT0iNzQ1Ljg1NTkwOSIgeD0iNDUxLjE2NjY2NSIgeGxpbms6aHJlZj0iI0MzXzBfY2JiOTJhODVhZCIvPiYjeGE7ICAgIDwvZz4mI3hhOyAgICA8ZyBjbGlwLXBhdGg9InVybCgjcGRlNzJiY2MyNDcpIj4mI3hhOyAgICAgPHVzZSBzdHlsZT0iZmlsbDogI2UzNzIyMjsgc3Ryb2tlOiAjNGU0ZTRlIiB5PSI3NDUuODU1OTA5IiB4PSI0NzIuNjk0NzkxIiB4bGluazpocmVmPSIjQzNfMF9jYmI5MmE4NWFkIi8+JiN4YTsgICAgPC9nPiYjeGE7ICAgIDxnIGNsaXAtcGF0aD0idXJsKCNwZGU3MmJjYzI0NykiPiYjeGE7ICAgICA8dXNlIHN0eWxlPSJmaWxsOiAjZTM3MjIyOyBzdHJva2U6ICM0ZTRlNGUiIHk9Ijc0NS44NTU5MDkiIHg9IjUwNy4yOTMwMiIgeGxpbms6aHJlZj0iI0MzXzBfY2JiOTJhODVhZCIvPiYjeGE7ICAgIDwvZz4mI3hhOyAgICA8ZyBjbGlwLXBhdGg9InVybCgjcGRlNzJiY2MyNDcpIj4mI3hhOyAgICAgPHVzZSBzdHlsZT0iZmlsbDogI2UzNzIyMjsgc3Ryb2tlOiAjNGU0ZTRlIiB5PSI3NDUuODU1OTA5IiB4PSI0NTEuMTk5MTEiIHhsaW5rOmhyZWY9IiNDM18wX2NiYjkyYTg1YWQiLz4mI3hhOyAgICA8L2c+JiN4YTsgICAgPGcgY2xpcC1wYXRoPSJ1cmwoI3BkZTcyYmNjMjQ3KSI+JiN4YTsgICAgIDx1c2Ugc3R5bGU9ImZpbGw6ICNlMzcyMjI7IHN0cm9rZTogIzRlNGU0ZSIgeT0iNzQ1Ljg1NTkwOSIgeD0iNTA1LjU4MzU0MiIgeGxpbms6aHJlZj0iI0MzXzBfY2JiOTJhODVhZCIvPiYjeGE7ICAgIDwvZz4mI3hhOyAgICA8ZyBjbGlwLXBhdGg9InVybCgjcGRlNzJiY2MyNDcpIj4mI3hhOyAgICAgPHVzZSBzdHlsZT0iZmlsbDogI2UzNzIyMjsgc3Ryb2tlOiAjNGU0ZTRlIiB5PSI3NDUuODU1OTA5IiB4PSI0NjkuMTUxMDM3IiB4bGluazpocmVmPSIjQzNfMF9jYmI5MmE4NWFkIi8+JiN4YTsgICAgPC9nPiYjeGE7ICAgIDxnIGNsaXAtcGF0aD0idXJsKCNwZGU3MmJjYzI0NykiPiYjeGE7ICAgICA8dXNlIHN0eWxlPSJmaWxsOiAjZTM3MjIyOyBzdHJva2U6ICM0ZTRlNGUiIHk9IjYxMy4xMjM0OTEiIHg9IjUwNS44MzM0MzYiIHhsaW5rOmhyZWY9IiNDM18wX2NiYjkyYTg1YWQiLz4mI3hhOyAgICA8L2c+JiN4YTsgICAgPGcgY2xpcC1wYXRoPSJ1cmwoI3BkZTcyYmNjMjQ3KSI+JiN4YTsgICAgIDx1c2Ugc3R5bGU9ImZpbGw6ICNlMzcyMjI7IHN0cm9rZTogIzRlNGU0ZSIgeT0iNzQ1Ljg1NTkwOSIgeD0iNDUzLjMzMDMyNiIgeGxpbms6aHJlZj0iI0MzXzBfY2JiOTJhODVhZCIvPiYjeGE7ICAgIDwvZz4mI3hhOyAgICA8ZyBjbGlwLXBhdGg9InVybCgjcGRlNzJiY2MyNDcpIj4mI3hhOyAgICAgPHVzZSBzdHlsZT0iZmlsbDogI2UzNzIyMjsgc3Ryb2tlOiAjNGU0ZTRlIiB5PSI3NDUuODU1OTA5IiB4PSI0ODQuNDc3NCIgeGxpbms6aHJlZj0iI0MzXzBfY2JiOTJhODVhZCIvPiYjeGE7ICAgIDwvZz4mI3hhOyAgICA8ZyBjbGlwLXBhdGg9InVybCgjcGRlNzJiY2MyNDcpIj4mI3hhOyAgICAgPHVzZSBzdHlsZT0iZmlsbDogI2UzNzIyMjsgc3Ryb2tlOiAjNGU0ZTRlIiB5PSI3NDUuODU1OTA5IiB4PSI1MDMuMTI3MTIyIiB4bGluazpocmVmPSIjQzNfMF9jYmI5MmE4NWFkIi8+JiN4YTsgICAgPC9nPiYjeGE7ICAgIDxnIGNsaXAtcGF0aD0idXJsKCNwZGU3MmJjYzI0NykiPiYjeGE7ICAgICA8dXNlIHN0eWxlPSJmaWxsOiAjZTM3MjIyOyBzdHJva2U6ICM0ZTRlNGUiIHk9IjQyLjM3NDA5MSIgeD0iNTEwLjU1ODEzOCIgeGxpbms6aHJlZj0iI0MzXzBfY2JiOTJhODVhZCIvPiYjeGE7ICAgIDwvZz4mI3hhOyAgICA8ZyBjbGlwLXBhdGg9InVybCgjcGRlNzJiY2MyNDcpIj4mI3hhOyAgICAgPHVzZSBzdHlsZT0iZmlsbDogI2UzNzIyMjsgc3Ryb2tlOiAjNGU0ZTRlIiB5PSI3NDUuODU1OTA5IiB4PSI0OTAuMzM0MTI1IiB4bGluazpocmVmPSIjQzNfMF9jYmI5MmE4NWFkIi8+JiN4YTsgICAgPC9nPiYjeGE7ICAgPC9nPiYjeGE7ICAgPGcgaWQ9IlBhdGhDb2xsZWN0aW9uXzYiPiYjeGE7ICAgIDxkZWZzPiYjeGE7ICAgICA8cGF0aCBkPSJNIDAgNCAmIzEwO0MgMS4wNjA4MTIgNCAyLjA3ODMxOSAzLjU3ODUzNSAyLjgyODQyNyAyLjgyODQyNyAmIzEwO0MgMy41Nzg1MzUgMi4wNzgzMTkgNCAxLjA2MDgxMiA0IC0wICYjMTA7QyA0IC0xLjA2MDgxMiAzLjU3ODUzNSAtMi4wNzgzMTkgMi44Mjg0MjcgLTIuODI4NDI3ICYjMTA7QyAyLjA3ODMxOSAtMy41Nzg1MzUgMS4wNjA4MTIgLTQgMCAtNCAmIzEwO0MgLTEuMDYwODEyIC00IC0yLjA3ODMxOSAtMy41Nzg1MzUgLTIuODI4NDI3IC0yLjgyODQyNyAmIzEwO0MgLTMuNTc4NTM1IC0yLjA3ODMxOSAtNCAtMS4wNjA4MTIgLTQgMCAmIzEwO0MgLTQgMS4wNjA4MTIgLTMuNTc4NTM1IDIuMDc4MzE5IC0yLjgyODQyNyAyLjgyODQyNyAmIzEwO0MgLTIuMDc4MzE5IDMuNTc4NTM1IC0xLjA2MDgxMiA0IDAgNCAmIzEwO3oiIGlkPSJDNF8wXzQ4MGI0MTQxM2EiLz4mI3hhOyAgICA8L2RlZnM+JiN4YTsgICAgPGcgY2xpcC1wYXRoPSJ1cmwoI3BkZTcyYmNjMjQ3KSI+JiN4YTsgICAgIDx1c2Ugc3R5bGU9ImZpbGw6ICNlMzcyMjI7IHN0cm9rZTogIzRlNGU0ZSIgeT0iNzQ1Ljg1NTkwOSIgeD0iNTk3LjgxNjAxMSIgeGxpbms6aHJlZj0iI0M0XzBfNDgwYjQxNDEzYSIvPiYjeGE7ICAgIDwvZz4mI3hhOyAgICA8ZyBjbGlwLXBhdGg9InVybCgjcGRlNzJiY2MyNDcpIj4mI3hhOyAgICAgPHVzZSBzdHlsZT0iZmlsbDogI2UzNzIyMjsgc3Ryb2tlOiAjNGU0ZTRlIiB5PSI3NDUuODU1OTA5IiB4PSI1NzIuMzE4NzE2IiB4bGluazpocmVmPSIjQzRfMF80ODBiNDE0MTNhIi8+JiN4YTsgICAgPC9nPiYjeGE7ICAgIDxnIGNsaXAtcGF0aD0idXJsKCNwZGU3MmJjYzI0NykiPiYjeGE7ICAgICA8dXNlIHN0eWxlPSJmaWxsOiAjZTM3MjIyOyBzdHJva2U6ICM0ZTRlNGUiIHk9Ijc0NS44NTU5MDkiIHg9IjU3MC40MDgwNDIiIHhsaW5rOmhyZWY9IiNDNF8wXzQ4MGI0MTQxM2EiLz4mI3hhOyAgICA8L2c+JiN4YTsgICAgPGcgY2xpcC1wYXRoPSJ1cmwoI3BkZTcyYmNjMjQ3KSI+JiN4YTsgICAgIDx1c2Ugc3R5bGU9ImZpbGw6ICNlMzcyMjI7IHN0cm9rZTogIzRlNGU0ZSIgeT0iNzQ1Ljg1NTkwOSIgeD0iNTczLjU3NDI1NSIgeGxpbms6aHJlZj0iI0M0XzBfNDgwYjQxNDEzYSIvPiYjeGE7ICAgIDwvZz4mI3hhOyAgICA8ZyBjbGlwLXBhdGg9InVybCgjcGRlNzJiY2MyNDcpIj4mI3hhOyAgICAgPHVzZSBzdHlsZT0iZmlsbDogI2UzNzIyMjsgc3Ryb2tlOiAjNGU0ZTRlIiB5PSI3MzIuNTgyNjY3IiB4PSI2MDEuMjI3NDExIiB4bGluazpocmVmPSIjQzRfMF80ODBiNDE0MTNhIi8+JiN4YTsgICAgPC9nPiYjeGE7ICAgIDxnIGNsaXAtcGF0aD0idXJsKCNwZGU3MmJjYzI0NykiPiYjeGE7ICAgICA8dXNlIHN0eWxlPSJmaWxsOiAjZTM3MjIyOyBzdHJva2U6ICM0ZTRlNGUiIHk9Ijc0NS44NTU5MDkiIHg9IjU3Mi41MjA0NjYiIHhsaW5rOmhyZWY9IiNDNF8wXzQ4MGI0MTQxM2EiLz4mI3hhOyAgICA8L2c+JiN4YTsgICAgPGcgY2xpcC1wYXRoPSJ1cmwoI3BkZTcyYmNjMjQ3KSI+JiN4YTsgICAgIDx1c2Ugc3R5bGU9ImZpbGw6ICNlMzcyMjI7IHN0cm9rZTogIzRlNGU0ZSIgeT0iNzQ1Ljg1NTkwOSIgeD0iNTc3LjU0NTE4NyIgeGxpbms6aHJlZj0iI0M0XzBfNDgwYjQxNDEzYSIvPiYjeGE7ICAgIDwvZz4mI3hhOyAgICA8ZyBjbGlwLXBhdGg9InVybCgjcGRlNzJiY2MyNDcpIj4mI3hhOyAgICAgPHVzZSBzdHlsZT0iZmlsbDogI2UzNzIyMjsgc3Ryb2tlOiAjNGU0ZTRlIiB5PSI3NDUuODU1OTA5IiB4PSI1NjUuMjY3MDEzIiB4bGluazpocmVmPSIjQzRfMF80ODBiNDE0MTNhIi8+JiN4YTsgICAgPC9nPiYjeGE7ICAgIDxnIGNsaXAtcGF0aD0idXJsKCNwZGU3MmJjYzI0NykiPiYjeGE7ICAgICA8dXNlIHN0eWxlPSJmaWxsOiAjZTM3MjIyOyBzdHJva2U6ICM0ZTRlNGUiIHk9Ijc0NS44NTU5MDkiIHg9IjU2NC41Mzc0MjgiIHhsaW5rOmhyZWY9IiNDNF8wXzQ4MGI0MTQxM2EiLz4mI3hhOyAgICA8L2c+JiN4YTsgICAgPGcgY2xpcC1wYXRoPSJ1cmwoI3BkZTcyYmNjMjQ3KSI+JiN4YTsgICAgIDx1c2Ugc3R5bGU9ImZpbGw6ICNlMzcyMjI7IHN0cm9rZTogIzRlNGU0ZSIgeT0iNzQ1Ljg1NTkwOSIgeD0iNTU2LjQwMDEwOSIgeGxpbms6aHJlZj0iI0M0XzBfNDgwYjQxNDEzYSIvPiYjeGE7ICAgIDwvZz4mI3hhOyAgICA8ZyBjbGlwLXBhdGg9InVybCgjcGRlNzJiY2MyNDcpIj4mI3hhOyAgICAgPHVzZSBzdHlsZT0iZmlsbDogI2UzNzIyMjsgc3Ryb2tlOiAjNGU0ZTRlIiB5PSI3NDUuODU1OTA5IiB4PSI1NzguNDM5NDg3IiB4bGluazpocmVmPSIjQzRfMF80ODBiNDE0MTNhIi8+JiN4YTsgICAgPC9nPiYjeGE7ICAgIDxnIGNsaXAtcGF0aD0idXJsKCNwZGU3MmJjYzI0NykiPiYjeGE7ICAgICA8dXNlIHN0eWxlPSJmaWxsOiAjZTM3MjIyOyBzdHJva2U6ICM0ZTRlNGUiIHk9Ijc0NS44NTU5MDkiIHg9IjU3NC4xNzk5ODgiIHhsaW5rOmhyZWY9IiNDNF8wXzQ4MGI0MTQxM2EiLz4mI3hhOyAgICA8L2c+JiN4YTsgICAgPGcgY2xpcC1wYXRoPSJ1cmwoI3BkZTcyYmNjMjQ3KSI+JiN4YTsgICAgIDx1c2Ugc3R5bGU9ImZpbGw6ICNlMzcyMjI7IHN0cm9rZTogIzRlNGU0ZSIgeT0iNzQ1Ljg1NTkwOSIgeD0iNTY1LjIyODcxNSIgeGxpbms6aHJlZj0iI0M0XzBfNDgwYjQxNDEzYSIvPiYjeGE7ICAgIDwvZz4mI3hhOyAgICA8ZyBjbGlwLXBhdGg9InVybCgjcGRlNzJiY2MyNDcpIj4mI3hhOyAgICAgPHVzZSBzdHlsZT0iZmlsbDogI2UzNzIyMjsgc3Ryb2tlOiAjNGU0ZTRlIiB5PSI3NDUuODU1OTA5IiB4PSI1ODQuNzg5MTE3IiB4bGluazpocmVmPSIjQzRfMF80ODBiNDE0MTNhIi8+JiN4YTsgICAgPC9nPiYjeGE7ICAgIDxnIGNsaXAtcGF0aD0idXJsKCNwZGU3MmJjYzI0NykiPiYjeGE7ICAgICA8dXNlIHN0eWxlPSJmaWxsOiAjZTM3MjIyOyBzdHJva2U6ICM0ZTRlNGUiIHk9Ijc0NS44NTU5MDkiIHg9IjU4My41OTc3MDgiIHhsaW5rOmhyZWY9IiNDNF8wXzQ4MGI0MTQxM2EiLz4mI3hhOyAgICA8L2c+JiN4YTsgICAgPGcgY2xpcC1wYXRoPSJ1cmwoI3BkZTcyYmNjMjQ3KSI+JiN4YTsgICAgIDx1c2Ugc3R5bGU9ImZpbGw6ICNlMzcyMjI7IHN0cm9rZTogIzRlNGU0ZSIgeT0iNzQ1Ljg1NTkwOSIgeD0iNTY0LjU2MTk0NCIgeGxpbms6aHJlZj0iI0M0XzBfNDgwYjQxNDEzYSIvPiYjeGE7ICAgIDwvZz4mI3hhOyAgICA8ZyBjbGlwLXBhdGg9InVybCgjcGRlNzJiY2MyNDcpIj4mI3hhOyAgICAgPHVzZSBzdHlsZT0iZmlsbDogI2UzNzIyMjsgc3Ryb2tlOiAjNGU0ZTRlIiB5PSI3NDUuODU1OTA5IiB4PSI2MDIuNDI0Mjg1IiB4bGluazpocmVmPSIjQzRfMF80ODBiNDE0MTNhIi8+JiN4YTsgICAgPC9nPiYjeGE7ICAgIDxnIGNsaXAtcGF0aD0idXJsKCNwZGU3MmJjYzI0NykiPiYjeGE7ICAgICA8dXNlIHN0eWxlPSJmaWxsOiAjZTM3MjIyOyBzdHJva2U6ICM0ZTRlNGUiIHk9Ijc0NS44NTU5MDkiIHg9IjU2OC43NDc4NzYiIHhsaW5rOmhyZWY9IiNDNF8wXzQ4MGI0MTQxM2EiLz4mI3hhOyAgICA8L2c+JiN4YTsgICAgPGcgY2xpcC1wYXRoPSJ1cmwoI3BkZTcyYmNjMjQ3KSI+JiN4YTsgICAgIDx1c2Ugc3R5bGU9ImZpbGw6ICNlMzcyMjI7IHN0cm9rZTogIzRlNGU0ZSIgeT0iNzQ1Ljg1NTkwOSIgeD0iNTY5LjkwNzAyIiB4bGluazpocmVmPSIjQzRfMF80ODBiNDE0MTNhIi8+JiN4YTsgICAgPC9nPiYjeGE7ICAgIDxnIGNsaXAtcGF0aD0idXJsKCNwZGU3MmJjYzI0NykiPiYjeGE7ICAgICA8dXNlIHN0eWxlPSJmaWxsOiAjZTM3MjIyOyBzdHJva2U6ICM0ZTRlNGUiIHk9Ijc0NS44NTU5MDkiIHg9IjYxMy44MTM2NzUiIHhsaW5rOmhyZWY9IiNDNF8wXzQ4MGI0MTQxM2EiLz4mI3hhOyAgICA8L2c+JiN4YTsgICAgPGcgY2xpcC1wYXRoPSJ1cmwoI3BkZTcyYmNjMjQ3KSI+JiN4YTsgICAgIDx1c2Ugc3R5bGU9ImZpbGw6ICNlMzcyMjI7IHN0cm9rZTogIzRlNGU0ZSIgeT0iNzQ1Ljg1NTkwOSIgeD0iNjA0LjA3NzMxNiIgeGxpbms6aHJlZj0iI0M0XzBfNDgwYjQxNDEzYSIvPiYjeGE7ICAgIDwvZz4mI3hhOyAgICA8ZyBjbGlwLXBhdGg9InVybCgjcGRlNzJiY2MyNDcpIj4mI3hhOyAgICAgPHVzZSBzdHlsZT0iZmlsbDogI2UzNzIyMjsgc3Ryb2tlOiAjNGU0ZTRlIiB5PSI3NDUuODU1OTA5IiB4PSI2MTYuODI4ODc5IiB4bGluazpocmVmPSIjQzRfMF80ODBiNDE0MTNhIi8+JiN4YTsgICAgPC9nPiYjeGE7ICAgIDxnIGNsaXAtcGF0aD0idXJsKCNwZGU3MmJjYzI0NykiPiYjeGE7ICAgICA8dXNlIHN0eWxlPSJmaWxsOiAjZTM3MjIyOyBzdHJva2U6ICM0ZTRlNGUiIHk9Ijc0NS44NTU5MDkiIHg9IjYwMS4xMjk2NzYiIHhsaW5rOmhyZWY9IiNDNF8wXzQ4MGI0MTQxM2EiLz4mI3hhOyAgICA8L2c+JiN4YTsgICAgPGcgY2xpcC1wYXRoPSJ1cmwoI3BkZTcyYmNjMjQ3KSI+JiN4YTsgICAgIDx1c2Ugc3R5bGU9ImZpbGw6ICNlMzcyMjI7IHN0cm9rZTogIzRlNGU0ZSIgeT0iNzQ1Ljg1NTkwOSIgeD0iNTg0LjYzNTEyNSIgeGxpbms6aHJlZj0iI0M0XzBfNDgwYjQxNDEzYSIvPiYjeGE7ICAgIDwvZz4mI3hhOyAgICA8ZyBjbGlwLXBhdGg9InVybCgjcGRlNzJiY2MyNDcpIj4mI3hhOyAgICAgPHVzZSBzdHlsZT0iZmlsbDogI2UzNzIyMjsgc3Ryb2tlOiAjNGU0ZTRlIiB5PSI3NDUuODU1OTA5IiB4PSI1OTcuMTI1NDA1IiB4bGluazpocmVmPSIjQzRfMF80ODBiNDE0MTNhIi8+JiN4YTsgICAgPC9nPiYjeGE7ICAgIDxnIGNsaXAtcGF0aD0idXJsKCNwZGU3MmJjYzI0NykiPiYjeGE7ICAgICA8dXNlIHN0eWxlPSJmaWxsOiAjZTM3MjIyOyBzdHJva2U6ICM0ZTRlNGUiIHk9Ijc0NS44NTU5MDkiIHg9IjU4OS41MTM4OSIgeGxpbms6aHJlZj0iI0M0XzBfNDgwYjQxNDEzYSIvPiYjeGE7ICAgIDwvZz4mI3hhOyAgICA8ZyBjbGlwLXBhdGg9InVybCgjcGRlNzJiY2MyNDcpIj4mI3hhOyAgICAgPHVzZSBzdHlsZT0iZmlsbDogI2UzNzIyMjsgc3Ryb2tlOiAjNGU0ZTRlIiB5PSI3NDUuODU1OTA5IiB4PSI2MDguODA4NDk2IiB4bGluazpocmVmPSIjQzRfMF80ODBiNDE0MTNhIi8+JiN4YTsgICAgPC9nPiYjeGE7ICAgIDxnIGNsaXAtcGF0aD0idXJsKCNwZGU3MmJjYzI0NykiPiYjeGE7ICAgICA8dXNlIHN0eWxlPSJmaWxsOiAjZTM3MjIyOyBzdHJva2U6ICM0ZTRlNGUiIHk9Ijc0NS44NTU5MDkiIHg9IjU5My40MjY2NDIiIHhsaW5rOmhyZWY9IiNDNF8wXzQ4MGI0MTQxM2EiLz4mI3hhOyAgICA8L2c+JiN4YTsgICAgPGcgY2xpcC1wYXRoPSJ1cmwoI3BkZTcyYmNjMjQ3KSI+JiN4YTsgICAgIDx1c2Ugc3R5bGU9ImZpbGw6ICNlMzcyMjI7IHN0cm9rZTogIzRlNGU0ZSIgeT0iNzQ1Ljg1NTkwOSIgeD0iNjE1Ljk0MDc5OSIgeGxpbms6aHJlZj0iI0M0XzBfNDgwYjQxNDEzYSIvPiYjeGE7ICAgIDwvZz4mI3hhOyAgICA8ZyBjbGlwLXBhdGg9InVybCgjcGRlNzJiY2MyNDcpIj4mI3hhOyAgICAgPHVzZSBzdHlsZT0iZmlsbDogI2UzNzIyMjsgc3Ryb2tlOiAjNGU0ZTRlIiB5PSI3NDUuODU1OTA5IiB4PSI1ODUuODU0NjI4IiB4bGluazpocmVmPSIjQzRfMF80ODBiNDE0MTNhIi8+JiN4YTsgICAgPC9nPiYjeGE7ICAgPC9nPiYjeGE7ICAgPGcgaWQ9IlBhdGhDb2xsZWN0aW9uXzciPiYjeGE7ICAgIDxkZWZzPiYjeGE7ICAgICA8cGF0aCBkPSJNIDAgNCAmIzEwO0MgMS4wNjA4MTIgNCAyLjA3ODMxOSAzLjU3ODUzNSAyLjgyODQyNyAyLjgyODQyNyAmIzEwO0MgMy41Nzg1MzUgMi4wNzgzMTkgNCAxLjA2MDgxMiA0IC0wICYjMTA7QyA0IC0xLjA2MDgxMiAzLjU3ODUzNSAtMi4wNzgzMTkgMi44Mjg0MjcgLTIuODI4NDI3ICYjMTA7QyAyLjA3ODMxOSAtMy41Nzg1MzUgMS4wNjA4MTIgLTQgMCAtNCAmIzEwO0MgLTEuMDYwODEyIC00IC0yLjA3ODMxOSAtMy41Nzg1MzUgLTIuODI4NDI3IC0yLjgyODQyNyAmIzEwO0MgLTMuNTc4NTM1IC0yLjA3ODMxOSAtNCAtMS4wNjA4MTIgLTQgMCAmIzEwO0MgLTQgMS4wNjA4MTIgLTMuNTc4NTM1IDIuMDc4MzE5IC0yLjgyODQyNyAyLjgyODQyNyAmIzEwO0MgLTIuMDc4MzE5IDMuNTc4NTM1IC0xLjA2MDgxMiA0IDAgNCAmIzEwO3oiIGlkPSJDNV8wXzdjMjI3ZDA1MzQiLz4mI3hhOyAgICA8L2RlZnM+JiN4YTsgICAgPGcgY2xpcC1wYXRoPSJ1cmwoI3BkZTcyYmNjMjQ3KSI+JiN4YTsgICAgIDx1c2Ugc3R5bGU9ImZpbGw6ICNlMzcyMjI7IHN0cm9rZTogIzRlNGU0ZSIgeT0iNzQ1Ljg1NTkwOSIgeD0iNzIxLjk1MTA5NiIgeGxpbms6aHJlZj0iI0M1XzBfN2MyMjdkMDUzNCIvPiYjeGE7ICAgIDwvZz4mI3hhOyAgICA8ZyBjbGlwLXBhdGg9InVybCgjcGRlNzJiY2MyNDcpIj4mI3hhOyAgICAgPHVzZSBzdHlsZT0iZmlsbDogI2UzNzIyMjsgc3Ryb2tlOiAjNGU0ZTRlIiB5PSI3NDUuODU1OTA5IiB4PSI2NzAuNjUxMjk3IiB4bGluazpocmVmPSIjQzVfMF83YzIyN2QwNTM0Ii8+JiN4YTsgICAgPC9nPiYjeGE7ICAgIDxnIGNsaXAtcGF0aD0idXJsKCNwZGU3MmJjYzI0NykiPiYjeGE7ICAgICA8dXNlIHN0eWxlPSJmaWxsOiAjZTM3MjIyOyBzdHJva2U6ICM0ZTRlNGUiIHk9Ijc0NS44NTU5MDkiIHg9IjcyMS4wOTc4MTMiIHhsaW5rOmhyZWY9IiNDNV8wXzdjMjI3ZDA1MzQiLz4mI3hhOyAgICA8L2c+JiN4YTsgICAgPGcgY2xpcC1wYXRoPSJ1cmwoI3BkZTcyYmNjMjQ3KSI+JiN4YTsgICAgIDx1c2Ugc3R5bGU9ImZpbGw6ICNlMzcyMjI7IHN0cm9rZTogIzRlNGU0ZSIgeT0iNzQ1Ljg1NTkwOSIgeD0iNjkxLjIzMDQyMSIgeGxpbms6aHJlZj0iI0M1XzBfN2MyMjdkMDUzNCIvPiYjeGE7ICAgIDwvZz4mI3hhOyAgICA8ZyBjbGlwLXBhdGg9InVybCgjcGRlNzJiY2MyNDcpIj4mI3hhOyAgICAgPHVzZSBzdHlsZT0iZmlsbDogI2UzNzIyMjsgc3Ryb2tlOiAjNGU0ZTRlIiB5PSI3NDUuODU1OTA5IiB4PSI2OTQuNDUzMzc2IiB4bGluazpocmVmPSIjQzVfMF83YzIyN2QwNTM0Ii8+JiN4YTsgICAgPC9nPiYjeGE7ICAgIDxnIGNsaXAtcGF0aD0idXJsKCNwZGU3MmJjYzI0NykiPiYjeGE7ICAgICA8dXNlIHN0eWxlPSJmaWxsOiAjZTM3MjIyOyBzdHJva2U6ICM0ZTRlNGUiIHk9Ijc0NS44NTU5MDkiIHg9IjY3Ni45MDQyOTMiIHhsaW5rOmhyZWY9IiNDNV8wXzdjMjI3ZDA1MzQiLz4mI3hhOyAgICA8L2c+JiN4YTsgICAgPGcgY2xpcC1wYXRoPSJ1cmwoI3BkZTcyYmNjMjQ3KSI+JiN4YTsgICAgIDx1c2Ugc3R5bGU9ImZpbGw6ICNlMzcyMjI7IHN0cm9rZTogIzRlNGU0ZSIgeT0iNzQ1Ljg1NTkwOSIgeD0iNjc0LjcwNTgwNCIgeGxpbms6aHJlZj0iI0M1XzBfN2MyMjdkMDUzNCIvPiYjeGE7ICAgIDwvZz4mI3hhOyAgICA8ZyBjbGlwLXBhdGg9InVybCgjcGRlNzJiY2MyNDcpIj4mI3hhOyAgICAgPHVzZSBzdHlsZT0iZmlsbDogI2UzNzIyMjsgc3Ryb2tlOiAjNGU0ZTRlIiB5PSI3NDUuODU1OTA5IiB4PSI2NzMuMjA5MzcyIiB4bGluazpocmVmPSIjQzVfMF83YzIyN2QwNTM0Ii8+JiN4YTsgICAgPC9nPiYjeGE7ICAgIDxnIGNsaXAtcGF0aD0idXJsKCNwZGU3MmJjYzI0NykiPiYjeGE7ICAgICA8dXNlIHN0eWxlPSJmaWxsOiAjZTM3MjIyOyBzdHJva2U6ICM0ZTRlNGUiIHk9Ijc0NS44NTU5MDkiIHg9IjY4MS40MzMyNzQiIHhsaW5rOmhyZWY9IiNDNV8wXzdjMjI3ZDA1MzQiLz4mI3hhOyAgICA8L2c+JiN4YTsgICAgPGcgY2xpcC1wYXRoPSJ1cmwoI3BkZTcyYmNjMjQ3KSI+JiN4YTsgICAgIDx1c2Ugc3R5bGU9ImZpbGw6ICNlMzcyMjI7IHN0cm9rZTogIzRlNGU0ZSIgeT0iNzQ1Ljg1NTkwOSIgeD0iNzE1LjIwNTc1IiB4bGluazpocmVmPSIjQzVfMF83YzIyN2QwNTM0Ii8+JiN4YTsgICAgPC9nPiYjeGE7ICAgIDxnIGNsaXAtcGF0aD0idXJsKCNwZGU3MmJjYzI0NykiPiYjeGE7ICAgICA8dXNlIHN0eWxlPSJmaWxsOiAjZTM3MjIyOyBzdHJva2U6ICM0ZTRlNGUiIHk9Ijc0NS44NTU5MDkiIHg9IjY4OC41NDQwNzUiIHhsaW5rOmhyZWY9IiNDNV8wXzdjMjI3ZDA1MzQiLz4mI3hhOyAgICA8L2c+JiN4YTsgICAgPGcgY2xpcC1wYXRoPSJ1cmwoI3BkZTcyYmNjMjQ3KSI+JiN4YTsgICAgIDx1c2Ugc3R5bGU9ImZpbGw6ICNlMzcyMjI7IHN0cm9rZTogIzRlNGU0ZSIgeT0iNzQ1Ljg1NTkwOSIgeD0iNzI0LjU5ODMxNiIgeGxpbms6aHJlZj0iI0M1XzBfN2MyMjdkMDUzNCIvPiYjeGE7ICAgIDwvZz4mI3hhOyAgICA8ZyBjbGlwLXBhdGg9InVybCgjcGRlNzJiY2MyNDcpIj4mI3hhOyAgICAgPHVzZSBzdHlsZT0iZmlsbDogI2UzNzIyMjsgc3Ryb2tlOiAjNGU0ZTRlIiB5PSI3NDUuODU1OTA5IiB4PSI2NzEuNDAwOTE1IiB4bGluazpocmVmPSIjQzVfMF83YzIyN2QwNTM0Ii8+JiN4YTsgICAgPC9nPiYjeGE7ICAgIDxnIGNsaXAtcGF0aD0idXJsKCNwZGU3MmJjYzI0NykiPiYjeGE7ICAgICA8dXNlIHN0eWxlPSJmaWxsOiAjZTM3MjIyOyBzdHJva2U6ICM0ZTRlNGUiIHk9Ijc0NS44NTU5MDkiIHg9IjcxOS41ODM0MzciIHhsaW5rOmhyZWY9IiNDNV8wXzdjMjI3ZDA1MzQiLz4mI3hhOyAgICA8L2c+JiN4YTsgICAgPGcgY2xpcC1wYXRoPSJ1cmwoI3BkZTcyYmNjMjQ3KSI+JiN4YTsgICAgIDx1c2Ugc3R5bGU9ImZpbGw6ICNlMzcyMjI7IHN0cm9rZTogIzRlNGU0ZSIgeT0iNzQ1Ljg1NTkwOSIgeD0iNjc4Ljc3OTU5OSIgeGxpbms6aHJlZj0iI0M1XzBfN2MyMjdkMDUzNCIvPiYjeGE7ICAgIDwvZz4mI3hhOyAgICA8ZyBjbGlwLXBhdGg9InVybCgjcGRlNzJiY2MyNDcpIj4mI3hhOyAgICAgPHVzZSBzdHlsZT0iZmlsbDogI2UzNzIyMjsgc3Ryb2tlOiAjNGU0ZTRlIiB5PSI3NDUuODU1OTA5IiB4PSI2NjUuOTUyNDQiIHhsaW5rOmhyZWY9IiNDNV8wXzdjMjI3ZDA1MzQiLz4mI3hhOyAgICA8L2c+JiN4YTsgICAgPGcgY2xpcC1wYXRoPSJ1cmwoI3BkZTcyYmNjMjQ3KSI+JiN4YTsgICAgIDx1c2Ugc3R5bGU9ImZpbGw6ICNlMzcyMjI7IHN0cm9rZTogIzRlNGU0ZSIgeT0iNzQ1Ljg1NTkwOSIgeD0iNzI1LjczNjc0IiB4bGluazpocmVmPSIjQzVfMF83YzIyN2QwNTM0Ii8+JiN4YTsgICAgPC9nPiYjeGE7ICAgIDxnIGNsaXAtcGF0aD0idXJsKCNwZGU3MmJjYzI0NykiPiYjeGE7ICAgICA8dXNlIHN0eWxlPSJmaWxsOiAjZTM3MjIyOyBzdHJva2U6ICM0ZTRlNGUiIHk9Ijc0NS44NTU5MDkiIHg9IjY5Ny44NjUzMTkiIHhsaW5rOmhyZWY9IiNDNV8wXzdjMjI3ZDA1MzQiLz4mI3hhOyAgICA8L2c+JiN4YTsgICAgPGcgY2xpcC1wYXRoPSJ1cmwoI3BkZTcyYmNjMjQ3KSI+JiN4YTsgICAgIDx1c2Ugc3R5bGU9ImZpbGw6ICNlMzcyMjI7IHN0cm9rZTogIzRlNGU0ZSIgeT0iNzQ1Ljg1NTkwOSIgeD0iNzA0Ljg3Nzc4NyIgeGxpbms6aHJlZj0iI0M1XzBfN2MyMjdkMDUzNCIvPiYjeGE7ICAgIDwvZz4mI3hhOyAgICA8ZyBjbGlwLXBhdGg9InVybCgjcGRlNzJiY2MyNDcpIj4mI3hhOyAgICAgPHVzZSBzdHlsZT0iZmlsbDogI2UzNzIyMjsgc3Ryb2tlOiAjNGU0ZTRlIiB5PSI3NDUuODU1OTA5IiB4PSI2OTQuOTU2NTIyIiB4bGluazpocmVmPSIjQzVfMF83YzIyN2QwNTM0Ii8+JiN4YTsgICAgPC9nPiYjeGE7ICAgIDxnIGNsaXAtcGF0aD0idXJsKCNwZGU3MmJjYzI0NykiPiYjeGE7ICAgICA8dXNlIHN0eWxlPSJmaWxsOiAjZTM3MjIyOyBzdHJva2U6ICM0ZTRlNGUiIHk9Ijc0NS44NTU5MDkiIHg9IjY3NS45OTg1MTkiIHhsaW5rOmhyZWY9IiNDNV8wXzdjMjI3ZDA1MzQiLz4mI3hhOyAgICA8L2c+JiN4YTsgICAgPGcgY2xpcC1wYXRoPSJ1cmwoI3BkZTcyYmNjMjQ3KSI+JiN4YTsgICAgIDx1c2Ugc3R5bGU9ImZpbGw6ICNlMzcyMjI7IHN0cm9rZTogIzRlNGU0ZSIgeT0iNzQ1Ljg1NTkwOSIgeD0iNjk2LjExNTM3MSIgeGxpbms6aHJlZj0iI0M1XzBfN2MyMjdkMDUzNCIvPiYjeGE7ICAgIDwvZz4mI3hhOyAgICA8ZyBjbGlwLXBhdGg9InVybCgjcGRlNzJiY2MyNDcpIj4mI3hhOyAgICAgPHVzZSBzdHlsZT0iZmlsbDogI2UzNzIyMjsgc3Ryb2tlOiAjNGU0ZTRlIiB5PSI3NDUuODU1OTA5IiB4PSI2OTEuOTg4Njc1IiB4bGluazpocmVmPSIjQzVfMF83YzIyN2QwNTM0Ii8+JiN4YTsgICAgPC9nPiYjeGE7ICAgIDxnIGNsaXAtcGF0aD0idXJsKCNwZGU3MmJjYzI0NykiPiYjeGE7ICAgICA8dXNlIHN0eWxlPSJmaWxsOiAjZTM3MjIyOyBzdHJva2U6ICM0ZTRlNGUiIHk9Ijc0NS44NTU5MDkiIHg9IjcyMi40Mjc4ODciIHhsaW5rOmhyZWY9IiNDNV8wXzdjMjI3ZDA1MzQiLz4mI3hhOyAgICA8L2c+JiN4YTsgICAgPGcgY2xpcC1wYXRoPSJ1cmwoI3BkZTcyYmNjMjQ3KSI+JiN4YTsgICAgIDx1c2Ugc3R5bGU9ImZpbGw6ICNlMzcyMjI7IHN0cm9rZTogIzRlNGU0ZSIgeT0iNzQ1Ljg1NTkwOSIgeD0iNjk4Ljg4MzgyMiIgeGxpbms6aHJlZj0iI0M1XzBfN2MyMjdkMDUzNCIvPiYjeGE7ICAgIDwvZz4mI3hhOyAgICA8ZyBjbGlwLXBhdGg9InVybCgjcGRlNzJiY2MyNDcpIj4mI3hhOyAgICAgPHVzZSBzdHlsZT0iZmlsbDogI2UzNzIyMjsgc3Ryb2tlOiAjNGU0ZTRlIiB5PSI3NDUuODU1OTA5IiB4PSI2ODIuODM1MTEyIiB4bGluazpocmVmPSIjQzVfMF83YzIyN2QwNTM0Ii8+JiN4YTsgICAgPC9nPiYjeGE7ICAgIDxnIGNsaXAtcGF0aD0idXJsKCNwZGU3MmJjYzI0NykiPiYjeGE7ICAgICA8dXNlIHN0eWxlPSJmaWxsOiAjZTM3MjIyOyBzdHJva2U6ICM0ZTRlNGUiIHk9Ijc0NS44NTU5MDkiIHg9IjcyMy4zOTI1MzEiIHhsaW5rOmhyZWY9IiNDNV8wXzdjMjI3ZDA1MzQiLz4mI3hhOyAgICA8L2c+JiN4YTsgICAgPGcgY2xpcC1wYXRoPSJ1cmwoI3BkZTcyYmNjMjQ3KSI+JiN4YTsgICAgIDx1c2Ugc3R5bGU9ImZpbGw6ICNlMzcyMjI7IHN0cm9rZTogIzRlNGU0ZSIgeT0iNzQ1Ljg1NTkwOSIgeD0iNjY1LjQyNDg2OCIgeGxpbms6aHJlZj0iI0M1XzBfN2MyMjdkMDUzNCIvPiYjeGE7ICAgIDwvZz4mI3hhOyAgICA8ZyBjbGlwLXBhdGg9InVybCgjcGRlNzJiY2MyNDcpIj4mI3hhOyAgICAgPHVzZSBzdHlsZT0iZmlsbDogI2UzNzIyMjsgc3Ryb2tlOiAjNGU0ZTRlIiB5PSI3NDUuODU1OTA5IiB4PSI2NjUuMzYxMzU4IiB4bGluazpocmVmPSIjQzVfMF83YzIyN2QwNTM0Ii8+JiN4YTsgICAgPC9nPiYjeGE7ICAgIDxnIGNsaXAtcGF0aD0idXJsKCNwZGU3MmJjYzI0NykiPiYjeGE7ICAgICA8dXNlIHN0eWxlPSJmaWxsOiAjZTM3MjIyOyBzdHJva2U6ICM0ZTRlNGUiIHk9Ijc0NS44NTU5MDkiIHg9IjY3OS40NzMwMiIgeGxpbms6aHJlZj0iI0M1XzBfN2MyMjdkMDUzNCIvPiYjeGE7ICAgIDwvZz4mI3hhOyAgIDwvZz4mI3hhOyAgIDxnIGlkPSJQYXRoQ29sbGVjdGlvbl84Ij4mI3hhOyAgICA8ZGVmcz4mI3hhOyAgICAgPHBhdGggZD0iTSAwIDQgJiMxMDtDIDEuMDYwODEyIDQgMi4wNzgzMTkgMy41Nzg1MzUgMi44Mjg0MjcgMi44Mjg0MjcgJiMxMDtDIDMuNTc4NTM1IDIuMDc4MzE5IDQgMS4wNjA4MTIgNCAtMCAmIzEwO0MgNCAtMS4wNjA4MTIgMy41Nzg1MzUgLTIuMDc4MzE5IDIuODI4NDI3IC0yLjgyODQyNyAmIzEwO0MgMi4wNzgzMTkgLTMuNTc4NTM1IDEuMDYwODEyIC00IDAgLTQgJiMxMDtDIC0xLjA2MDgxMiAtNCAtMi4wNzgzMTkgLTMuNTc4NTM1IC0yLjgyODQyNyAtMi44Mjg0MjcgJiMxMDtDIC0zLjU3ODUzNSAtMi4wNzgzMTkgLTQgLTEuMDYwODEyIC00IDAgJiMxMDtDIC00IDEuMDYwODEyIC0zLjU3ODUzNSAyLjA3ODMxOSAtMi44Mjg0MjcgMi44Mjg0MjcgJiMxMDtDIC0yLjA3ODMxOSAzLjU3ODUzNSAtMS4wNjA4MTIgNCAwIDQgJiMxMDt6IiBpZD0iQzZfMF85YTM0ZmEzYzIxIi8+JiN4YTsgICAgPC9kZWZzPiYjeGE7ICAgIDxnIGNsaXAtcGF0aD0idXJsKCNwZGU3MmJjYzI0NykiPiYjeGE7ICAgICA8dXNlIHN0eWxlPSJmaWxsOiAjZTM3MjIyOyBzdHJva2U6ICM0ZTRlNGUiIHk9Ijc0NS44NTU5MDkiIHg9IjgyMi41MDMxMDMiIHhsaW5rOmhyZWY9IiNDNl8wXzlhMzRmYTNjMjEiLz4mI3hhOyAgICA8L2c+JiN4YTsgICAgPGcgY2xpcC1wYXRoPSJ1cmwoI3BkZTcyYmNjMjQ3KSI+JiN4YTsgICAgIDx1c2Ugc3R5bGU9ImZpbGw6ICNlMzcyMjI7IHN0cm9rZTogIzRlNGU0ZSIgeT0iNzQ1Ljg1NTkwOSIgeD0iNzczLjg5ODI2MyIgeGxpbms6aHJlZj0iI0M2XzBfOWEzNGZhM2MyMSIvPiYjeGE7ICAgIDwvZz4mI3hhOyAgICA8ZyBjbGlwLXBhdGg9InVybCgjcGRlNzJiY2MyNDcpIj4mI3hhOyAgICAgPHVzZSBzdHlsZT0iZmlsbDogI2UzNzIyMjsgc3Ryb2tlOiAjNGU0ZTRlIiB5PSI3NDUuODU1OTA5IiB4PSI4MTIuMzk5NjgiIHhsaW5rOmhyZWY9IiNDNl8wXzlhMzRmYTNjMjEiLz4mI3hhOyAgICA8L2c+JiN4YTsgICAgPGcgY2xpcC1wYXRoPSJ1cmwoI3BkZTcyYmNjMjQ3KSI+JiN4YTsgICAgIDx1c2Ugc3R5bGU9ImZpbGw6ICNlMzcyMjI7IHN0cm9rZTogIzRlNGU0ZSIgeT0iNzQ1Ljg1NTkwOSIgeD0iODMxLjgwMjMzOSIgeGxpbms6aHJlZj0iI0M2XzBfOWEzNGZhM2MyMSIvPiYjeGE7ICAgIDwvZz4mI3hhOyAgICA8ZyBjbGlwLXBhdGg9InVybCgjcGRlNzJiY2MyNDcpIj4mI3hhOyAgICAgPHVzZSBzdHlsZT0iZmlsbDogI2UzNzIyMjsgc3Ryb2tlOiAjNGU0ZTRlIiB5PSI3NDUuODU1OTA5IiB4PSI3ODguMjE4NDE3IiB4bGluazpocmVmPSIjQzZfMF85YTM0ZmEzYzIxIi8+JiN4YTsgICAgPC9nPiYjeGE7ICAgIDxnIGNsaXAtcGF0aD0idXJsKCNwZGU3MmJjYzI0NykiPiYjeGE7ICAgICA8dXNlIHN0eWxlPSJmaWxsOiAjZTM3MjIyOyBzdHJva2U6ICM0ZTRlNGUiIHk9Ijc0NS44NTU5MDkiIHg9IjgxMC43MjQwNzMiIHhsaW5rOmhyZWY9IiNDNl8wXzlhMzRmYTNjMjEiLz4mI3hhOyAgICA8L2c+JiN4YTsgICAgPGcgY2xpcC1wYXRoPSJ1cmwoI3BkZTcyYmNjMjQ3KSI+JiN4YTsgICAgIDx1c2Ugc3R5bGU9ImZpbGw6ICNlMzcyMjI7IHN0cm9rZTogIzRlNGU0ZSIgeT0iNzQ1Ljg1NTkwOSIgeD0iODE1LjM3NjIyOCIgeGxpbms6aHJlZj0iI0M2XzBfOWEzNGZhM2MyMSIvPiYjeGE7ICAgIDwvZz4mI3hhOyAgICA8ZyBjbGlwLXBhdGg9InVybCgjcGRlNzJiY2MyNDcpIj4mI3hhOyAgICAgPHVzZSBzdHlsZT0iZmlsbDogI2UzNzIyMjsgc3Ryb2tlOiAjNGU0ZTRlIiB5PSI3NDUuODU1OTA5IiB4PSI4MTMuNTI5NDQyIiB4bGluazpocmVmPSIjQzZfMF85YTM0ZmEzYzIxIi8+JiN4YTsgICAgPC9nPiYjeGE7ICAgIDxnIGNsaXAtcGF0aD0idXJsKCNwZGU3MmJjYzI0NykiPiYjeGE7ICAgICA8dXNlIHN0eWxlPSJmaWxsOiAjZTM3MjIyOyBzdHJva2U6ICM0ZTRlNGUiIHk9Ijc0NS44NTU5MDkiIHg9IjgzMy4wOTUwOSIgeGxpbms6aHJlZj0iI0M2XzBfOWEzNGZhM2MyMSIvPiYjeGE7ICAgIDwvZz4mI3hhOyAgICA8ZyBjbGlwLXBhdGg9InVybCgjcGRlNzJiY2MyNDcpIj4mI3hhOyAgICAgPHVzZSBzdHlsZT0iZmlsbDogI2UzNzIyMjsgc3Ryb2tlOiAjNGU0ZTRlIiB5PSI3NDUuODU1OTA5IiB4PSI3ODkuMTAwNTgiIHhsaW5rOmhyZWY9IiNDNl8wXzlhMzRmYTNjMjEiLz4mI3hhOyAgICA8L2c+JiN4YTsgICAgPGcgY2xpcC1wYXRoPSJ1cmwoI3BkZTcyYmNjMjQ3KSI+JiN4YTsgICAgIDx1c2Ugc3R5bGU9ImZpbGw6ICNlMzcyMjI7IHN0cm9rZTogIzRlNGU0ZSIgeT0iNzQ1Ljg1NTkwOSIgeD0iNzcyLjc3NTEwOSIgeGxpbms6aHJlZj0iI0M2XzBfOWEzNGZhM2MyMSIvPiYjeGE7ICAgIDwvZz4mI3hhOyAgICA8ZyBjbGlwLXBhdGg9InVybCgjcGRlNzJiY2MyNDcpIj4mI3hhOyAgICAgPHVzZSBzdHlsZT0iZmlsbDogI2UzNzIyMjsgc3Ryb2tlOiAjNGU0ZTRlIiB5PSI3NDUuODU1OTA5IiB4PSI3ODAuODMxMTUiIHhsaW5rOmhyZWY9IiNDNl8wXzlhMzRmYTNjMjEiLz4mI3hhOyAgICA8L2c+JiN4YTsgICAgPGcgY2xpcC1wYXRoPSJ1cmwoI3BkZTcyYmNjMjQ3KSI+JiN4YTsgICAgIDx1c2Ugc3R5bGU9ImZpbGw6ICNlMzcyMjI7IHN0cm9rZTogIzRlNGU0ZSIgeT0iNzQ1Ljg1NTkwOSIgeD0iODA0LjM5ODU1MSIgeGxpbms6aHJlZj0iI0M2XzBfOWEzNGZhM2MyMSIvPiYjeGE7ICAgIDwvZz4mI3hhOyAgICA8ZyBjbGlwLXBhdGg9InVybCgjcGRlNzJiY2MyNDcpIj4mI3hhOyAgICAgPHVzZSBzdHlsZT0iZmlsbDogI2UzNzIyMjsgc3Ryb2tlOiAjNGU0ZTRlIiB5PSI3NDUuODU1OTA5IiB4PSI3NzAuODM4OTU5IiB4bGluazpocmVmPSIjQzZfMF85YTM0ZmEzYzIxIi8+JiN4YTsgICAgPC9nPiYjeGE7ICAgIDxnIGNsaXAtcGF0aD0idXJsKCNwZGU3MmJjYzI0NykiPiYjeGE7ICAgICA8dXNlIHN0eWxlPSJmaWxsOiAjZTM3MjIyOyBzdHJva2U6ICM0ZTRlNGUiIHk9Ijc0NS44NTU5MDkiIHg9IjgwOS40OTQwNDYiIHhsaW5rOmhyZWY9IiNDNl8wXzlhMzRmYTNjMjEiLz4mI3hhOyAgICA8L2c+JiN4YTsgICAgPGcgY2xpcC1wYXRoPSJ1cmwoI3BkZTcyYmNjMjQ3KSI+JiN4YTsgICAgIDx1c2Ugc3R5bGU9ImZpbGw6ICNlMzcyMjI7IHN0cm9rZTogIzRlNGU0ZSIgeT0iNzQ1Ljg1NTkwOSIgeD0iODMxLjEyMDQ0IiB4bGluazpocmVmPSIjQzZfMF85YTM0ZmEzYzIxIi8+JiN4YTsgICAgPC9nPiYjeGE7ICAgIDxnIGNsaXAtcGF0aD0idXJsKCNwZGU3MmJjYzI0NykiPiYjeGE7ICAgICA8dXNlIHN0eWxlPSJmaWxsOiAjZTM3MjIyOyBzdHJva2U6ICM0ZTRlNGUiIHk9Ijc0NS44NTU5MDkiIHg9IjgyOS4yOTg4NzQiIHhsaW5rOmhyZWY9IiNDNl8wXzlhMzRmYTNjMjEiLz4mI3hhOyAgICA8L2c+JiN4YTsgICAgPGcgY2xpcC1wYXRoPSJ1cmwoI3BkZTcyYmNjMjQ3KSI+JiN4YTsgICAgIDx1c2Ugc3R5bGU9ImZpbGw6ICNlMzcyMjI7IHN0cm9rZTogIzRlNGU0ZSIgeT0iNzQ1Ljg1NTkwOSIgeD0iODE4LjUwNTEyNCIgeGxpbms6aHJlZj0iI0M2XzBfOWEzNGZhM2MyMSIvPiYjeGE7ICAgIDwvZz4mI3hhOyAgICA8ZyBjbGlwLXBhdGg9InVybCgjcGRlNzJiY2MyNDcpIj4mI3hhOyAgICAgPHVzZSBzdHlsZT0iZmlsbDogI2UzNzIyMjsgc3Ryb2tlOiAjNGU0ZTRlIiB5PSI3NDUuODU1OTA5IiB4PSI4MTYuNTg4MDc5IiB4bGluazpocmVmPSIjQzZfMF85YTM0ZmEzYzIxIi8+JiN4YTsgICAgPC9nPiYjeGE7ICAgIDxnIGNsaXAtcGF0aD0idXJsKCNwZGU3MmJjYzI0NykiPiYjeGE7ICAgICA8dXNlIHN0eWxlPSJmaWxsOiAjZTM3MjIyOyBzdHJva2U6ICM0ZTRlNGUiIHk9Ijc0NS44NTU5MDkiIHg9IjgwMi40NTI0MzkiIHhsaW5rOmhyZWY9IiNDNl8wXzlhMzRmYTNjMjEiLz4mI3hhOyAgICA8L2c+JiN4YTsgICAgPGcgY2xpcC1wYXRoPSJ1cmwoI3BkZTcyYmNjMjQ3KSI+JiN4YTsgICAgIDx1c2Ugc3R5bGU9ImZpbGw6ICNlMzcyMjI7IHN0cm9rZTogIzRlNGU0ZSIgeT0iNzQ1Ljg1NTkwOSIgeD0iODAyLjczNTUwMyIgeGxpbms6aHJlZj0iI0M2XzBfOWEzNGZhM2MyMSIvPiYjeGE7ICAgIDwvZz4mI3hhOyAgICA8ZyBjbGlwLXBhdGg9InVybCgjcGRlNzJiY2MyNDcpIj4mI3hhOyAgICAgPHVzZSBzdHlsZT0iZmlsbDogI2UzNzIyMjsgc3Ryb2tlOiAjNGU0ZTRlIiB5PSI3NDUuODU1OTA5IiB4PSI4MTUuNTc5OTA1IiB4bGluazpocmVmPSIjQzZfMF85YTM0ZmEzYzIxIi8+JiN4YTsgICAgPC9nPiYjeGE7ICAgIDxnIGNsaXAtcGF0aD0idXJsKCNwZGU3MmJjYzI0NykiPiYjeGE7ICAgICA8dXNlIHN0eWxlPSJmaWxsOiAjZTM3MjIyOyBzdHJva2U6ICM0ZTRlNGUiIHk9Ijc0NS44NTU5MDkiIHg9Ijc5MC4yNzI2NTIiIHhsaW5rOmhyZWY9IiNDNl8wXzlhMzRmYTNjMjEiLz4mI3hhOyAgICA8L2c+JiN4YTsgICAgPGcgY2xpcC1wYXRoPSJ1cmwoI3BkZTcyYmNjMjQ3KSI+JiN4YTsgICAgIDx1c2Ugc3R5bGU9ImZpbGw6ICNlMzcyMjI7IHN0cm9rZTogIzRlNGU0ZSIgeT0iNzQ1Ljg1NTkwOSIgeD0iNzg2LjE5OTM5NiIgeGxpbms6aHJlZj0iI0M2XzBfOWEzNGZhM2MyMSIvPiYjeGE7ICAgIDwvZz4mI3hhOyAgICA8ZyBjbGlwLXBhdGg9InVybCgjcGRlNzJiY2MyNDcpIj4mI3hhOyAgICAgPHVzZSBzdHlsZT0iZmlsbDogI2UzNzIyMjsgc3Ryb2tlOiAjNGU0ZTRlIiB5PSI3NDUuODU1OTA5IiB4PSI4MjcuNzQ4MzU1IiB4bGluazpocmVmPSIjQzZfMF85YTM0ZmEzYzIxIi8+JiN4YTsgICAgPC9nPiYjeGE7ICAgIDxnIGNsaXAtcGF0aD0idXJsKCNwZGU3MmJjYzI0NykiPiYjeGE7ICAgICA8dXNlIHN0eWxlPSJmaWxsOiAjZTM3MjIyOyBzdHJva2U6ICM0ZTRlNGUiIHk9Ijc0NS44NTU5MDkiIHg9IjgxOS4wOTk4MjIiIHhsaW5rOmhyZWY9IiNDNl8wXzlhMzRmYTNjMjEiLz4mI3hhOyAgICA8L2c+JiN4YTsgICAgPGcgY2xpcC1wYXRoPSJ1cmwoI3BkZTcyYmNjMjQ3KSI+JiN4YTsgICAgIDx1c2Ugc3R5bGU9ImZpbGw6ICNlMzcyMjI7IHN0cm9rZTogIzRlNGU0ZSIgeT0iNzQ1Ljg1NTkwOSIgeD0iODMzLjY2MjYyOSIgeGxpbms6aHJlZj0iI0M2XzBfOWEzNGZhM2MyMSIvPiYjeGE7ICAgIDwvZz4mI3hhOyAgICA8ZyBjbGlwLXBhdGg9InVybCgjcGRlNzJiY2MyNDcpIj4mI3hhOyAgICAgPHVzZSBzdHlsZT0iZmlsbDogI2UzNzIyMjsgc3Ryb2tlOiAjNGU0ZTRlIiB5PSI3NDUuODU1OTA5IiB4PSI4MjcuMTcxMjQiIHhsaW5rOmhyZWY9IiNDNl8wXzlhMzRmYTNjMjEiLz4mI3hhOyAgICA8L2c+JiN4YTsgICAgPGcgY2xpcC1wYXRoPSJ1cmwoI3BkZTcyYmNjMjQ3KSI+JiN4YTsgICAgIDx1c2Ugc3R5bGU9ImZpbGw6ICNlMzcyMjI7IHN0cm9rZTogIzRlNGU0ZSIgeT0iNzQ1Ljg1NTkwOSIgeD0iNzgzLjUxMTg1NSIgeGxpbms6aHJlZj0iI0M2XzBfOWEzNGZhM2MyMSIvPiYjeGE7ICAgIDwvZz4mI3hhOyAgICA8ZyBjbGlwLXBhdGg9InVybCgjcGRlNzJiY2MyNDcpIj4mI3hhOyAgICAgPHVzZSBzdHlsZT0iZmlsbDogI2UzNzIyMjsgc3Ryb2tlOiAjNGU0ZTRlIiB5PSI3NDUuODU1OTA5IiB4PSI4MTYuMTEwMDcyIiB4bGluazpocmVmPSIjQzZfMF85YTM0ZmEzYzIxIi8+JiN4YTsgICAgPC9nPiYjeGE7ICAgPC9nPiYjeGE7ICAgPGcgaWQ9IlBhdGhDb2xsZWN0aW9uXzkiPiYjeGE7ICAgIDxkZWZzPiYjeGE7ICAgICA8cGF0aCBkPSJNIDAgNCAmIzEwO0MgMS4wNjA4MTIgNCAyLjA3ODMxOSAzLjU3ODUzNSAyLjgyODQyNyAyLjgyODQyNyAmIzEwO0MgMy41Nzg1MzUgMi4wNzgzMTkgNCAxLjA2MDgxMiA0IC0wICYjMTA7QyA0IC0xLjA2MDgxMiAzLjU3ODUzNSAtMi4wNzgzMTkgMi44Mjg0MjcgLTIuODI4NDI3ICYjMTA7QyAyLjA3ODMxOSAtMy41Nzg1MzUgMS4wNjA4MTIgLTQgMCAtNCAmIzEwO0MgLTEuMDYwODEyIC00IC0yLjA3ODMxOSAtMy41Nzg1MzUgLTIuODI4NDI3IC0yLjgyODQyNyAmIzEwO0MgLTMuNTc4NTM1IC0yLjA3ODMxOSAtNCAtMS4wNjA4MTIgLTQgMCAmIzEwO0MgLTQgMS4wNjA4MTIgLTMuNTc4NTM1IDIuMDc4MzE5IC0yLjgyODQyNyAyLjgyODQyNyAmIzEwO0MgLTIuMDc4MzE5IDMuNTc4NTM1IC0xLjA2MDgxMiA0IDAgNCAmIzEwO3oiIGlkPSJDN18wXzI1Y2ZkNTg1Y2IiLz4mI3hhOyAgICA8L2RlZnM+JiN4YTsgICAgPGcgY2xpcC1wYXRoPSJ1cmwoI3BkZTcyYmNjMjQ3KSI+JiN4YTsgICAgIDx1c2Ugc3R5bGU9ImZpbGw6ICNlMzcyMjI7IHN0cm9rZTogIzRlNGU0ZSIgeT0iNzQ1Ljg1NTkwOSIgeD0iOTM0Ljc3MjIyNCIgeGxpbms6aHJlZj0iI0M3XzBfMjVjZmQ1ODVjYiIvPiYjeGE7ICAgIDwvZz4mI3hhOyAgICA8ZyBjbGlwLXBhdGg9InVybCgjcGRlNzJiY2MyNDcpIj4mI3hhOyAgICAgPHVzZSBzdHlsZT0iZmlsbDogI2UzNzIyMjsgc3Ryb2tlOiAjNGU0ZTRlIiB5PSI3NDUuODU1OTA5IiB4PSI4ODIuOTM2NyIgeGxpbms6aHJlZj0iI0M3XzBfMjVjZmQ1ODVjYiIvPiYjeGE7ICAgIDwvZz4mI3hhOyAgICA8ZyBjbGlwLXBhdGg9InVybCgjcGRlNzJiY2MyNDcpIj4mI3hhOyAgICAgPHVzZSBzdHlsZT0iZmlsbDogI2UzNzIyMjsgc3Ryb2tlOiAjNGU0ZTRlIiB5PSI3NDUuODU1OTA5IiB4PSI5MTEuNzgzMzU3IiB4bGluazpocmVmPSIjQzdfMF8yNWNmZDU4NWNiIi8+JiN4YTsgICAgPC9nPiYjeGE7ICAgIDxnIGNsaXAtcGF0aD0idXJsKCNwZGU3MmJjYzI0NykiPiYjeGE7ICAgICA8dXNlIHN0eWxlPSJmaWxsOiAjZTM3MjIyOyBzdHJva2U6ICM0ZTRlNGUiIHk9Ijc0NS44NTU5MDkiIHg9IjkzOS42ODk1MDEiIHhsaW5rOmhyZWY9IiNDN18wXzI1Y2ZkNTg1Y2IiLz4mI3hhOyAgICA8L2c+JiN4YTsgICAgPGcgY2xpcC1wYXRoPSJ1cmwoI3BkZTcyYmNjMjQ3KSI+JiN4YTsgICAgIDx1c2Ugc3R5bGU9ImZpbGw6ICNlMzcyMjI7IHN0cm9rZTogIzRlNGU0ZSIgeT0iNzQ1Ljg1NTkwOSIgeD0iOTMxLjExNDg2MyIgeGxpbms6aHJlZj0iI0M3XzBfMjVjZmQ1ODVjYiIvPiYjeGE7ICAgIDwvZz4mI3hhOyAgICA8ZyBjbGlwLXBhdGg9InVybCgjcGRlNzJiY2MyNDcpIj4mI3hhOyAgICAgPHVzZSBzdHlsZT0iZmlsbDogI2UzNzIyMjsgc3Ryb2tlOiAjNGU0ZTRlIiB5PSI3NDUuODU1OTA5IiB4PSI5MzguOTU4ODkyIiB4bGluazpocmVmPSIjQzdfMF8yNWNmZDU4NWNiIi8+JiN4YTsgICAgPC9nPiYjeGE7ICAgIDxnIGNsaXAtcGF0aD0idXJsKCNwZGU3MmJjYzI0NykiPiYjeGE7ICAgICA8dXNlIHN0eWxlPSJmaWxsOiAjZTM3MjIyOyBzdHJva2U6ICM0ZTRlNGUiIHk9Ijc0NS44NTU5MDkiIHg9IjkxNC4yOTI0NDgiIHhsaW5rOmhyZWY9IiNDN18wXzI1Y2ZkNTg1Y2IiLz4mI3hhOyAgICA8L2c+JiN4YTsgICAgPGcgY2xpcC1wYXRoPSJ1cmwoI3BkZTcyYmNjMjQ3KSI+JiN4YTsgICAgIDx1c2Ugc3R5bGU9ImZpbGw6ICNlMzcyMjI7IHN0cm9rZTogIzRlNGU0ZSIgeT0iNzQ1Ljg1NTkwOSIgeD0iOTAxLjE4MTgyOCIgeGxpbms6aHJlZj0iI0M3XzBfMjVjZmQ1ODVjYiIvPiYjeGE7ICAgIDwvZz4mI3hhOyAgICA8ZyBjbGlwLXBhdGg9InVybCgjcGRlNzJiY2MyNDcpIj4mI3hhOyAgICAgPHVzZSBzdHlsZT0iZmlsbDogI2UzNzIyMjsgc3Ryb2tlOiAjNGU0ZTRlIiB5PSI3NDUuODU1OTA5IiB4PSI4ODAuNjU2MDE5IiB4bGluazpocmVmPSIjQzdfMF8yNWNmZDU4NWNiIi8+JiN4YTsgICAgPC9nPiYjeGE7ICAgIDxnIGNsaXAtcGF0aD0idXJsKCNwZGU3MmJjYzI0NykiPiYjeGE7ICAgICA8dXNlIHN0eWxlPSJmaWxsOiAjZTM3MjIyOyBzdHJva2U6ICM0ZTRlNGUiIHk9Ijc0NS44NTU5MDkiIHg9Ijk0MS44MTU3NyIgeGxpbms6aHJlZj0iI0M3XzBfMjVjZmQ1ODVjYiIvPiYjeGE7ICAgIDwvZz4mI3hhOyAgICA8ZyBjbGlwLXBhdGg9InVybCgjcGRlNzJiY2MyNDcpIj4mI3hhOyAgICAgPHVzZSBzdHlsZT0iZmlsbDogI2UzNzIyMjsgc3Ryb2tlOiAjNGU0ZTRlIiB5PSI3NDUuODU1OTA5IiB4PSI5MzEuNTE0MzEzIiB4bGluazpocmVmPSIjQzdfMF8yNWNmZDU4NWNiIi8+JiN4YTsgICAgPC9nPiYjeGE7ICAgIDxnIGNsaXAtcGF0aD0idXJsKCNwZGU3MmJjYzI0NykiPiYjeGE7ICAgICA8dXNlIHN0eWxlPSJmaWxsOiAjZTM3MjIyOyBzdHJva2U6ICM0ZTRlNGUiIHk9Ijc0NS44NTU5MDkiIHg9IjkzNi4xMjg4MjkiIHhsaW5rOmhyZWY9IiNDN18wXzI1Y2ZkNTg1Y2IiLz4mI3hhOyAgICA8L2c+JiN4YTsgICAgPGcgY2xpcC1wYXRoPSJ1cmwoI3BkZTcyYmNjMjQ3KSI+JiN4YTsgICAgIDx1c2Ugc3R5bGU9ImZpbGw6ICNlMzcyMjI7IHN0cm9rZTogIzRlNGU0ZSIgeT0iNzQ1Ljg1NTkwOSIgeD0iOTM4Ljk5NjgzIiB4bGluazpocmVmPSIjQzdfMF8yNWNmZDU4NWNiIi8+JiN4YTsgICAgPC9nPiYjeGE7ICAgIDxnIGNsaXAtcGF0aD0idXJsKCNwZGU3MmJjYzI0NykiPiYjeGE7ICAgICA8dXNlIHN0eWxlPSJmaWxsOiAjZTM3MjIyOyBzdHJva2U6ICM0ZTRlNGUiIHk9Ijc0NS44NTU5MDkiIHg9Ijg4MS40MDM5NTYiIHhsaW5rOmhyZWY9IiNDN18wXzI1Y2ZkNTg1Y2IiLz4mI3hhOyAgICA8L2c+JiN4YTsgICAgPGcgY2xpcC1wYXRoPSJ1cmwoI3BkZTcyYmNjMjQ3KSI+JiN4YTsgICAgIDx1c2Ugc3R5bGU9ImZpbGw6ICNlMzcyMjI7IHN0cm9rZTogIzRlNGU0ZSIgeT0iNzQ1Ljg1NTkwOSIgeD0iOTMyLjM2NzA0NiIgeGxpbms6aHJlZj0iI0M3XzBfMjVjZmQ1ODVjYiIvPiYjeGE7ICAgIDwvZz4mI3hhOyAgICA8ZyBjbGlwLXBhdGg9InVybCgjcGRlNzJiY2MyNDcpIj4mI3hhOyAgICAgPHVzZSBzdHlsZT0iZmlsbDogI2UzNzIyMjsgc3Ryb2tlOiAjNGU0ZTRlIiB5PSI3NDUuODU1OTA5IiB4PSI4OTUuMTU1MDEyIiB4bGluazpocmVmPSIjQzdfMF8yNWNmZDU4NWNiIi8+JiN4YTsgICAgPC9nPiYjeGE7ICAgIDxnIGNsaXAtcGF0aD0idXJsKCNwZGU3MmJjYzI0NykiPiYjeGE7ICAgICA8dXNlIHN0eWxlPSJmaWxsOiAjZTM3MjIyOyBzdHJva2U6ICM0ZTRlNGUiIHk9Ijc0NS44NTU5MDkiIHg9Ijg4Mi4wNDkzMjUiIHhsaW5rOmhyZWY9IiNDN18wXzI1Y2ZkNTg1Y2IiLz4mI3hhOyAgICA8L2c+JiN4YTsgICAgPGcgY2xpcC1wYXRoPSJ1cmwoI3BkZTcyYmNjMjQ3KSI+JiN4YTsgICAgIDx1c2Ugc3R5bGU9ImZpbGw6ICNlMzcyMjI7IHN0cm9rZTogIzRlNGU0ZSIgeT0iNzQ1Ljg1NTkwOSIgeD0iOTI3LjYwNTgzMiIgeGxpbms6aHJlZj0iI0M3XzBfMjVjZmQ1ODVjYiIvPiYjeGE7ICAgIDwvZz4mI3hhOyAgICA8ZyBjbGlwLXBhdGg9InVybCgjcGRlNzJiY2MyNDcpIj4mI3hhOyAgICAgPHVzZSBzdHlsZT0iZmlsbDogI2UzNzIyMjsgc3Ryb2tlOiAjNGU0ZTRlIiB5PSI3NDUuODU1OTA5IiB4PSI4ODYuOTYwNzcyIiB4bGluazpocmVmPSIjQzdfMF8yNWNmZDU4NWNiIi8+JiN4YTsgICAgPC9nPiYjeGE7ICAgIDxnIGNsaXAtcGF0aD0idXJsKCNwZGU3MmJjYzI0NykiPiYjeGE7ICAgICA8dXNlIHN0eWxlPSJmaWxsOiAjZTM3MjIyOyBzdHJva2U6ICM0ZTRlNGUiIHk9Ijc0NS44NTU5MDkiIHg9Ijg5OC44Njk5NDEiIHhsaW5rOmhyZWY9IiNDN18wXzI1Y2ZkNTg1Y2IiLz4mI3hhOyAgICA8L2c+JiN4YTsgICAgPGcgY2xpcC1wYXRoPSJ1cmwoI3BkZTcyYmNjMjQ3KSI+JiN4YTsgICAgIDx1c2Ugc3R5bGU9ImZpbGw6ICNlMzcyMjI7IHN0cm9rZTogIzRlNGU0ZSIgeT0iNzQ1Ljg1NTkwOSIgeD0iOTM0LjQzNzI4MiIgeGxpbms6aHJlZj0iI0M3XzBfMjVjZmQ1ODVjYiIvPiYjeGE7ICAgIDwvZz4mI3hhOyAgICA8ZyBjbGlwLXBhdGg9InVybCgjcGRlNzJiY2MyNDcpIj4mI3hhOyAgICAgPHVzZSBzdHlsZT0iZmlsbDogI2UzNzIyMjsgc3Ryb2tlOiAjNGU0ZTRlIiB5PSI3NDUuODU1OTA5IiB4PSI5MjMuMTc5NjQxIiB4bGluazpocmVmPSIjQzdfMF8yNWNmZDU4NWNiIi8+JiN4YTsgICAgPC9nPiYjeGE7ICAgIDxnIGNsaXAtcGF0aD0idXJsKCNwZGU3MmJjYzI0NykiPiYjeGE7ICAgICA8dXNlIHN0eWxlPSJmaWxsOiAjZTM3MjIyOyBzdHJva2U6ICM0ZTRlNGUiIHk9Ijc0NS44NTU5MDkiIHg9IjkzNy4xNDAyODQiIHhsaW5rOmhyZWY9IiNDN18wXzI1Y2ZkNTg1Y2IiLz4mI3hhOyAgICA8L2c+JiN4YTsgICAgPGcgY2xpcC1wYXRoPSJ1cmwoI3BkZTcyYmNjMjQ3KSI+JiN4YTsgICAgIDx1c2Ugc3R5bGU9ImZpbGw6ICNlMzcyMjI7IHN0cm9rZTogIzRlNGU0ZSIgeT0iNzQ1Ljg1NTkwOSIgeD0iODg4LjczNzk0NSIgeGxpbms6aHJlZj0iI0M3XzBfMjVjZmQ1ODVjYiIvPiYjeGE7ICAgIDwvZz4mI3hhOyAgICA8ZyBjbGlwLXBhdGg9InVybCgjcGRlNzJiY2MyNDcpIj4mI3hhOyAgICAgPHVzZSBzdHlsZT0iZmlsbDogI2UzNzIyMjsgc3Ryb2tlOiAjNGU0ZTRlIiB5PSI3NDUuODU1OTA5IiB4PSI5MjYuOTA4NjI1IiB4bGluazpocmVmPSIjQzdfMF8yNWNmZDU4NWNiIi8+JiN4YTsgICAgPC9nPiYjeGE7ICAgIDxnIGNsaXAtcGF0aD0idXJsKCNwZGU3MmJjYzI0NykiPiYjeGE7ICAgICA8dXNlIHN0eWxlPSJmaWxsOiAjZTM3MjIyOyBzdHJva2U6ICM0ZTRlNGUiIHk9Ijc0NS44NTU5MDkiIHg9Ijg4MC4xNzYzODMiIHhsaW5rOmhyZWY9IiNDN18wXzI1Y2ZkNTg1Y2IiLz4mI3hhOyAgICA8L2c+JiN4YTsgICAgPGcgY2xpcC1wYXRoPSJ1cmwoI3BkZTcyYmNjMjQ3KSI+JiN4YTsgICAgIDx1c2Ugc3R5bGU9ImZpbGw6ICNlMzcyMjI7IHN0cm9rZTogIzRlNGU0ZSIgeT0iNzQ1Ljg1NTkwOSIgeD0iOTM4LjgyMzgxMSIgeGxpbms6aHJlZj0iI0M3XzBfMjVjZmQ1ODVjYiIvPiYjeGE7ICAgIDwvZz4mI3hhOyAgICA8ZyBjbGlwLXBhdGg9InVybCgjcGRlNzJiY2MyNDcpIj4mI3hhOyAgICAgPHVzZSBzdHlsZT0iZmlsbDogI2UzNzIyMjsgc3Ryb2tlOiAjNGU0ZTRlIiB5PSI3NDUuODU1OTA5IiB4PSI4ODcuMDY4NDg1IiB4bGluazpocmVmPSIjQzdfMF8yNWNmZDU4NWNiIi8+JiN4YTsgICAgPC9nPiYjeGE7ICAgIDxnIGNsaXAtcGF0aD0idXJsKCNwZGU3MmJjYzI0NykiPiYjeGE7ICAgICA8dXNlIHN0eWxlPSJmaWxsOiAjZTM3MjIyOyBzdHJva2U6ICM0ZTRlNGUiIHk9Ijc0NS44NTU5MDkiIHg9Ijg4MC41NjM4ODEiIHhsaW5rOmhyZWY9IiNDN18wXzI1Y2ZkNTg1Y2IiLz4mI3hhOyAgICA8L2c+JiN4YTsgICAgPGcgY2xpcC1wYXRoPSJ1cmwoI3BkZTcyYmNjMjQ3KSI+JiN4YTsgICAgIDx1c2Ugc3R5bGU9ImZpbGw6ICNlMzcyMjI7IHN0cm9rZTogIzRlNGU0ZSIgeT0iNzQ1Ljg1NTkwOSIgeD0iOTQyLjMxMDE5IiB4bGluazpocmVmPSIjQzdfMF8yNWNmZDU4NWNiIi8+JiN4YTsgICAgPC9nPiYjeGE7ICAgPC9nPiYjeGE7ICAgPGcgaWQ9IlBhdGhDb2xsZWN0aW9uXzEwIj4mI3hhOyAgICA8ZGVmcz4mI3hhOyAgICAgPHBhdGggZD0iTSAwIDQgJiMxMDtDIDEuMDYwODEyIDQgMi4wNzgzMTkgMy41Nzg1MzUgMi44Mjg0MjcgMi44Mjg0MjcgJiMxMDtDIDMuNTc4NTM1IDIuMDc4MzE5IDQgMS4wNjA4MTIgNCAtMCAmIzEwO0MgNCAtMS4wNjA4MTIgMy41Nzg1MzUgLTIuMDc4MzE5IDIuODI4NDI3IC0yLjgyODQyNyAmIzEwO0MgMi4wNzgzMTkgLTMuNTc4NTM1IDEuMDYwODEyIC00IDAgLTQgJiMxMDtDIC0xLjA2MDgxMiAtNCAtMi4wNzgzMTkgLTMuNTc4NTM1IC0yLjgyODQyNyAtMi44Mjg0MjcgJiMxMDtDIC0zLjU3ODUzNSAtMi4wNzgzMTkgLTQgLTEuMDYwODEyIC00IDAgJiMxMDtDIC00IDEuMDYwODEyIC0zLjU3ODUzNSAyLjA3ODMxOSAtMi44Mjg0MjcgMi44Mjg0MjcgJiMxMDtDIC0yLjA3ODMxOSAzLjU3ODUzNSAtMS4wNjA4MTIgNCAwIDQgJiMxMDt6IiBpZD0iQzhfMF9jNWZjOTcyZWE0Ii8+JiN4YTsgICAgPC9kZWZzPiYjeGE7ICAgIDxnIGNsaXAtcGF0aD0idXJsKCNwZGU3MmJjYzI0NykiPiYjeGE7ICAgICA8dXNlIHN0eWxlPSJmaWxsOiAjZTM3MjIyOyBzdHJva2U6ICM0ZTRlNGUiIHk9Ijc0NS44NTU5MDkiIHg9IjEwMTYuMTEzMzg2IiB4bGluazpocmVmPSIjQzhfMF9jNWZjOTcyZWE0Ii8+JiN4YTsgICAgPC9nPiYjeGE7ICAgIDxnIGNsaXAtcGF0aD0idXJsKCNwZGU3MmJjYzI0NykiPiYjeGE7ICAgICA8dXNlIHN0eWxlPSJmaWxsOiAjZTM3MjIyOyBzdHJva2U6ICM0ZTRlNGUiIHk9Ijc0NS44NTU5MDkiIHg9IjEwMzMuNTY1MjYzIiB4bGluazpocmVmPSIjQzhfMF9jNWZjOTcyZWE0Ii8+JiN4YTsgICAgPC9nPiYjeGE7ICAgIDxnIGNsaXAtcGF0aD0idXJsKCNwZGU3MmJjYzI0NykiPiYjeGE7ICAgICA8dXNlIHN0eWxlPSJmaWxsOiAjZTM3MjIyOyBzdHJva2U6ICM0ZTRlNGUiIHk9Ijc0NS44NTU5MDkiIHg9IjEwMjAuNTYxMjMyIiB4bGluazpocmVmPSIjQzhfMF9jNWZjOTcyZWE0Ii8+JiN4YTsgICAgPC9nPiYjeGE7ICAgIDxnIGNsaXAtcGF0aD0idXJsKCNwZGU3MmJjYzI0NykiPiYjeGE7ICAgICA8dXNlIHN0eWxlPSJmaWxsOiAjZTM3MjIyOyBzdHJva2U6ICM0ZTRlNGUiIHk9Ijc0NS44NTU5MDkiIHg9IjEwMDEuMjU4Mzc1IiB4bGluazpocmVmPSIjQzhfMF9jNWZjOTcyZWE0Ii8+JiN4YTsgICAgPC9nPiYjeGE7ICAgIDxnIGNsaXAtcGF0aD0idXJsKCNwZGU3MmJjYzI0NykiPiYjeGE7ICAgICA8dXNlIHN0eWxlPSJmaWxsOiAjZTM3MjIyOyBzdHJva2U6ICM0ZTRlNGUiIHk9Ijc0NS44NTU5MDkiIHg9Ijk5NS43NzUzNjMiIHhsaW5rOmhyZWY9IiNDOF8wX2M1ZmM5NzJlYTQiLz4mI3hhOyAgICA8L2c+JiN4YTsgICAgPGcgY2xpcC1wYXRoPSJ1cmwoI3BkZTcyYmNjMjQ3KSI+JiN4YTsgICAgIDx1c2Ugc3R5bGU9ImZpbGw6ICNlMzcyMjI7IHN0cm9rZTogIzRlNGU0ZSIgeT0iNzQ1Ljg1NTkwOSIgeD0iMTAyNC4wNTc2ODgiIHhsaW5rOmhyZWY9IiNDOF8wX2M1ZmM5NzJlYTQiLz4mI3hhOyAgICA8L2c+JiN4YTsgICAgPGcgY2xpcC1wYXRoPSJ1cmwoI3BkZTcyYmNjMjQ3KSI+JiN4YTsgICAgIDx1c2Ugc3R5bGU9ImZpbGw6ICNlMzcyMjI7IHN0cm9rZTogIzRlNGU0ZSIgeT0iNzQ1Ljg1NTkwOSIgeD0iMTA0My44NjU4MzQiIHhsaW5rOmhyZWY9IiNDOF8wX2M1ZmM5NzJlYTQiLz4mI3hhOyAgICA8L2c+JiN4YTsgICAgPGcgY2xpcC1wYXRoPSJ1cmwoI3BkZTcyYmNjMjQ3KSI+JiN4YTsgICAgIDx1c2Ugc3R5bGU9ImZpbGw6ICNlMzcyMjI7IHN0cm9rZTogIzRlNGU0ZSIgeT0iNzQ1Ljg1NTkwOSIgeD0iMTAwNi44Mjc5MTIiIHhsaW5rOmhyZWY9IiNDOF8wX2M1ZmM5NzJlYTQiLz4mI3hhOyAgICA8L2c+JiN4YTsgICAgPGcgY2xpcC1wYXRoPSJ1cmwoI3BkZTcyYmNjMjQ3KSI+JiN4YTsgICAgIDx1c2Ugc3R5bGU9ImZpbGw6ICNlMzcyMjI7IHN0cm9rZTogIzRlNGU0ZSIgeT0iNzQ1Ljg1NTkwOSIgeD0iMTA0Ny4xMzQyMyIgeGxpbms6aHJlZj0iI0M4XzBfYzVmYzk3MmVhNCIvPiYjeGE7ICAgIDwvZz4mI3hhOyAgICA8ZyBjbGlwLXBhdGg9InVybCgjcGRlNzJiY2MyNDcpIj4mI3hhOyAgICAgPHVzZSBzdHlsZT0iZmlsbDogI2UzNzIyMjsgc3Ryb2tlOiAjNGU0ZTRlIiB5PSI3NDUuODU1OTA5IiB4PSIxMDA0LjkyODMzOCIgeGxpbms6aHJlZj0iI0M4XzBfYzVmYzk3MmVhNCIvPiYjeGE7ICAgIDwvZz4mI3hhOyAgICA8ZyBjbGlwLXBhdGg9InVybCgjcGRlNzJiY2MyNDcpIj4mI3hhOyAgICAgPHVzZSBzdHlsZT0iZmlsbDogI2UzNzIyMjsgc3Ryb2tlOiAjNGU0ZTRlIiB5PSI3NDUuODU1OTA5IiB4PSIxMDIzLjQyMTkyMyIgeGxpbms6aHJlZj0iI0M4XzBfYzVmYzk3MmVhNCIvPiYjeGE7ICAgIDwvZz4mI3hhOyAgICA8ZyBjbGlwLXBhdGg9InVybCgjcGRlNzJiY2MyNDcpIj4mI3hhOyAgICAgPHVzZSBzdHlsZT0iZmlsbDogI2UzNzIyMjsgc3Ryb2tlOiAjNGU0ZTRlIiB5PSI3NDUuODU1OTA5IiB4PSI5OTUuMjY3MTg3IiB4bGluazpocmVmPSIjQzhfMF9jNWZjOTcyZWE0Ii8+JiN4YTsgICAgPC9nPiYjeGE7ICAgIDxnIGNsaXAtcGF0aD0idXJsKCNwZGU3MmJjYzI0NykiPiYjeGE7ICAgICA8dXNlIHN0eWxlPSJmaWxsOiAjZTM3MjIyOyBzdHJva2U6ICM0ZTRlNGUiIHk9Ijc0NS44NTU5MDkiIHg9IjEwMDguMDUyNzA0IiB4bGluazpocmVmPSIjQzhfMF9jNWZjOTcyZWE0Ii8+JiN4YTsgICAgPC9nPiYjeGE7ICAgIDxnIGNsaXAtcGF0aD0idXJsKCNwZGU3MmJjYzI0NykiPiYjeGE7ICAgICA8dXNlIHN0eWxlPSJmaWxsOiAjZTM3MjIyOyBzdHJva2U6ICM0ZTRlNGUiIHk9Ijc0NS44NTU5MDkiIHg9IjEwMjYuMzA3ODg3IiB4bGluazpocmVmPSIjQzhfMF9jNWZjOTcyZWE0Ii8+JiN4YTsgICAgPC9nPiYjeGE7ICAgIDxnIGNsaXAtcGF0aD0idXJsKCNwZGU3MmJjYzI0NykiPiYjeGE7ICAgICA8dXNlIHN0eWxlPSJmaWxsOiAjZTM3MjIyOyBzdHJva2U6ICM0ZTRlNGUiIHk9Ijc0NS44NTU5MDkiIHg9Ijk4OC45MTcyODUiIHhsaW5rOmhyZWY9IiNDOF8wX2M1ZmM5NzJlYTQiLz4mI3hhOyAgICA8L2c+JiN4YTsgICAgPGcgY2xpcC1wYXRoPSJ1cmwoI3BkZTcyYmNjMjQ3KSI+JiN4YTsgICAgIDx1c2Ugc3R5bGU9ImZpbGw6ICNlMzcyMjI7IHN0cm9rZTogIzRlNGU0ZSIgeT0iNzQ1Ljg1NTkwOSIgeD0iMTAyNS40OTUzMzIiIHhsaW5rOmhyZWY9IiNDOF8wX2M1ZmM5NzJlYTQiLz4mI3hhOyAgICA8L2c+JiN4YTsgICAgPGcgY2xpcC1wYXRoPSJ1cmwoI3BkZTcyYmNjMjQ3KSI+JiN4YTsgICAgIDx1c2Ugc3R5bGU9ImZpbGw6ICNlMzcyMjI7IHN0cm9rZTogIzRlNGU0ZSIgeT0iNzQ1Ljg1NTkwOSIgeD0iOTg4LjUzMzQxMiIgeGxpbms6aHJlZj0iI0M4XzBfYzVmYzk3MmVhNCIvPiYjeGE7ICAgIDwvZz4mI3hhOyAgICA8ZyBjbGlwLXBhdGg9InVybCgjcGRlNzJiY2MyNDcpIj4mI3hhOyAgICAgPHVzZSBzdHlsZT0iZmlsbDogI2UzNzIyMjsgc3Ryb2tlOiAjNGU0ZTRlIiB5PSI3NDUuODU1OTA5IiB4PSIxMDQ3LjA5NTE4NyIgeGxpbms6aHJlZj0iI0M4XzBfYzVmYzk3MmVhNCIvPiYjeGE7ICAgIDwvZz4mI3hhOyAgICA8ZyBjbGlwLXBhdGg9InVybCgjcGRlNzJiY2MyNDcpIj4mI3hhOyAgICAgPHVzZSBzdHlsZT0iZmlsbDogI2UzNzIyMjsgc3Ryb2tlOiAjNGU0ZTRlIiB5PSI3NDUuODU1OTA5IiB4PSIxMDI0LjgwNzkiIHhsaW5rOmhyZWY9IiNDOF8wX2M1ZmM5NzJlYTQiLz4mI3hhOyAgICA8L2c+JiN4YTsgICAgPGcgY2xpcC1wYXRoPSJ1cmwoI3BkZTcyYmNjMjQ3KSI+JiN4YTsgICAgIDx1c2Ugc3R5bGU9ImZpbGw6ICNlMzcyMjI7IHN0cm9rZTogIzRlNGU0ZSIgeT0iNzQ1Ljg1NTkwOSIgeD0iOTk0Ljk1MzQ1IiB4bGluazpocmVmPSIjQzhfMF9jNWZjOTcyZWE0Ii8+JiN4YTsgICAgPC9nPiYjeGE7ICAgIDxnIGNsaXAtcGF0aD0idXJsKCNwZGU3MmJjYzI0NykiPiYjeGE7ICAgICA8dXNlIHN0eWxlPSJmaWxsOiAjZTM3MjIyOyBzdHJva2U6ICM0ZTRlNGUiIHk9Ijc0NS44NTU5MDkiIHg9IjEwMzQuNTExMjg4IiB4bGluazpocmVmPSIjQzhfMF9jNWZjOTcyZWE0Ii8+JiN4YTsgICAgPC9nPiYjeGE7ICAgIDxnIGNsaXAtcGF0aD0idXJsKCNwZGU3MmJjYzI0NykiPiYjeGE7ICAgICA8dXNlIHN0eWxlPSJmaWxsOiAjZTM3MjIyOyBzdHJva2U6ICM0ZTRlNGUiIHk9Ijc0NS44NTU5MDkiIHg9IjEwMTYuOTY2OTk3IiB4bGluazpocmVmPSIjQzhfMF9jNWZjOTcyZWE0Ii8+JiN4YTsgICAgPC9nPiYjeGE7ICAgIDxnIGNsaXAtcGF0aD0idXJsKCNwZGU3MmJjYzI0NykiPiYjeGE7ICAgICA8dXNlIHN0eWxlPSJmaWxsOiAjZTM3MjIyOyBzdHJva2U6ICM0ZTRlNGUiIHk9Ijc0NS44NTU5MDkiIHg9Ijk5Mi4yMDAwNzIiIHhsaW5rOmhyZWY9IiNDOF8wX2M1ZmM5NzJlYTQiLz4mI3hhOyAgICA8L2c+JiN4YTsgICAgPGcgY2xpcC1wYXRoPSJ1cmwoI3BkZTcyYmNjMjQ3KSI+JiN4YTsgICAgIDx1c2Ugc3R5bGU9ImZpbGw6ICNlMzcyMjI7IHN0cm9rZTogIzRlNGU0ZSIgeT0iNzQ1Ljg1NTkwOSIgeD0iMTAyNy4zODIzOTMiIHhsaW5rOmhyZWY9IiNDOF8wX2M1ZmM5NzJlYTQiLz4mI3hhOyAgICA8L2c+JiN4YTsgICAgPGcgY2xpcC1wYXRoPSJ1cmwoI3BkZTcyYmNjMjQ3KSI+JiN4YTsgICAgIDx1c2Ugc3R5bGU9ImZpbGw6ICNlMzcyMjI7IHN0cm9rZTogIzRlNGU0ZSIgeT0iNzQ1Ljg1NTkwOSIgeD0iMTAzMy41Njk5MDYiIHhsaW5rOmhyZWY9IiNDOF8wX2M1ZmM5NzJlYTQiLz4mI3hhOyAgICA8L2c+JiN4YTsgICAgPGcgY2xpcC1wYXRoPSJ1cmwoI3BkZTcyYmNjMjQ3KSI+JiN4YTsgICAgIDx1c2Ugc3R5bGU9ImZpbGw6ICNlMzcyMjI7IHN0cm9rZTogIzRlNGU0ZSIgeT0iNzQ1Ljg1NTkwOSIgeD0iMTAwMi4xMDUyMjQiIHhsaW5rOmhyZWY9IiNDOF8wX2M1ZmM5NzJlYTQiLz4mI3hhOyAgICA8L2c+JiN4YTsgICAgPGcgY2xpcC1wYXRoPSJ1cmwoI3BkZTcyYmNjMjQ3KSI+JiN4YTsgICAgIDx1c2Ugc3R5bGU9ImZpbGw6ICNlMzcyMjI7IHN0cm9rZTogIzRlNGU0ZSIgeT0iNzQ1Ljg1NTkwOSIgeD0iOTg5LjY2MzA2NCIgeGxpbms6aHJlZj0iI0M4XzBfYzVmYzk3MmVhNCIvPiYjeGE7ICAgIDwvZz4mI3hhOyAgICA8ZyBjbGlwLXBhdGg9InVybCgjcGRlNzJiY2MyNDcpIj4mI3hhOyAgICAgPHVzZSBzdHlsZT0iZmlsbDogI2UzNzIyMjsgc3Ryb2tlOiAjNGU0ZTRlIiB5PSI3NDUuODU1OTA5IiB4PSI5OTkuNjYyOTI4IiB4bGluazpocmVmPSIjQzhfMF9jNWZjOTcyZWE0Ii8+JiN4YTsgICAgPC9nPiYjeGE7ICAgIDxnIGNsaXAtcGF0aD0idXJsKCNwZGU3MmJjYzI0NykiPiYjeGE7ICAgICA8dXNlIHN0eWxlPSJmaWxsOiAjZTM3MjIyOyBzdHJva2U6ICM0ZTRlNGUiIHk9Ijc0NS44NTU5MDkiIHg9IjEwMjMuNDYwNzM1IiB4bGluazpocmVmPSIjQzhfMF9jNWZjOTcyZWE0Ii8+JiN4YTsgICAgPC9nPiYjeGE7ICAgIDxnIGNsaXAtcGF0aD0idXJsKCNwZGU3MmJjYzI0NykiPiYjeGE7ICAgICA8dXNlIHN0eWxlPSJmaWxsOiAjZTM3MjIyOyBzdHJva2U6ICM0ZTRlNGUiIHk9Ijc0NS44NTU5MDkiIHg9IjEwMDIuMTEzNDA5IiB4bGluazpocmVmPSIjQzhfMF9jNWZjOTcyZWE0Ii8+JiN4YTsgICAgPC9nPiYjeGE7ICAgPC9nPiYjeGE7ICAgPGcgaWQ9IlBhdGhDb2xsZWN0aW9uXzExIj4mI3hhOyAgICA8ZGVmcz4mI3hhOyAgICAgPHBhdGggZD0iTSAwIDQgJiMxMDtDIDEuMDYwODEyIDQgMi4wNzgzMTkgMy41Nzg1MzUgMi44Mjg0MjcgMi44Mjg0MjcgJiMxMDtDIDMuNTc4NTM1IDIuMDc4MzE5IDQgMS4wNjA4MTIgNCAtMCAmIzEwO0MgNCAtMS4wNjA4MTIgMy41Nzg1MzUgLTIuMDc4MzE5IDIuODI4NDI3IC0yLjgyODQyNyAmIzEwO0MgMi4wNzgzMTkgLTMuNTc4NTM1IDEuMDYwODEyIC00IDAgLTQgJiMxMDtDIC0xLjA2MDgxMiAtNCAtMi4wNzgzMTkgLTMuNTc4NTM1IC0yLjgyODQyNyAtMi44Mjg0MjcgJiMxMDtDIC0zLjU3ODUzNSAtMi4wNzgzMTkgLTQgLTEuMDYwODEyIC00IDAgJiMxMDtDIC00IDEuMDYwODEyIC0zLjU3ODUzNSAyLjA3ODMxOSAtMi44Mjg0MjcgMi44Mjg0MjcgJiMxMDtDIC0yLjA3ODMxOSAzLjU3ODUzNSAtMS4wNjA4MTIgNCAwIDQgJiMxMDt6IiBpZD0iQzlfMF85ZTU0YmRkMTU1Ii8+JiN4YTsgICAgPC9kZWZzPiYjeGE7ICAgIDxnIGNsaXAtcGF0aD0idXJsKCNwZGU3MmJjYzI0NykiPiYjeGE7ICAgICA8dXNlIHN0eWxlPSJmaWxsOiAjZTM3MjIyOyBzdHJva2U6ICM0ZTRlNGUiIHk9Ijc0NS44NTU5MDkiIHg9IjExMjQuNjgyMDg0IiB4bGluazpocmVmPSIjQzlfMF85ZTU0YmRkMTU1Ii8+JiN4YTsgICAgPC9nPiYjeGE7ICAgIDxnIGNsaXAtcGF0aD0idXJsKCNwZGU3MmJjYzI0NykiPiYjeGE7ICAgICA8dXNlIHN0eWxlPSJmaWxsOiAjZTM3MjIyOyBzdHJva2U6ICM0ZTRlNGUiIHk9Ijc0NS44NTU5MDkiIHg9IjExMzguNzYzMDg1IiB4bGluazpocmVmPSIjQzlfMF85ZTU0YmRkMTU1Ii8+JiN4YTsgICAgPC9nPiYjeGE7ICAgIDxnIGNsaXAtcGF0aD0idXJsKCNwZGU3MmJjYzI0NykiPiYjeGE7ICAgICA8dXNlIHN0eWxlPSJmaWxsOiAjZTM3MjIyOyBzdHJva2U6ICM0ZTRlNGUiIHk9Ijc0NS44NTU5MDkiIHg9IjExMjcuNzE1MzA5IiB4bGluazpocmVmPSIjQzlfMF85ZTU0YmRkMTU1Ii8+JiN4YTsgICAgPC9nPiYjeGE7ICAgIDxnIGNsaXAtcGF0aD0idXJsKCNwZGU3MmJjYzI0NykiPiYjeGE7ICAgICA8dXNlIHN0eWxlPSJmaWxsOiAjZTM3MjIyOyBzdHJva2U6ICM0ZTRlNGUiIHk9Ijc0NS44NTU5MDkiIHg9IjExNDguOTAyNjY5IiB4bGluazpocmVmPSIjQzlfMF85ZTU0YmRkMTU1Ii8+JiN4YTsgICAgPC9nPiYjeGE7ICAgIDxnIGNsaXAtcGF0aD0idXJsKCNwZGU3MmJjYzI0NykiPiYjeGE7ICAgICA8dXNlIHN0eWxlPSJmaWxsOiAjZTM3MjIyOyBzdHJva2U6ICM0ZTRlNGUiIHk9Ijc0NS44NTU5MDkiIHg9IjExMTEuMDEwMTE2IiB4bGluazpocmVmPSIjQzlfMF85ZTU0YmRkMTU1Ii8+JiN4YTsgICAgPC9nPiYjeGE7ICAgIDxnIGNsaXAtcGF0aD0idXJsKCNwZGU3MmJjYzI0NykiPiYjeGE7ICAgICA8dXNlIHN0eWxlPSJmaWxsOiAjZTM3MjIyOyBzdHJva2U6ICM0ZTRlNGUiIHk9Ijc0NS44NTU5MDkiIHg9IjExNDUuNzc0NzM4IiB4bGluazpocmVmPSIjQzlfMF85ZTU0YmRkMTU1Ii8+JiN4YTsgICAgPC9nPiYjeGE7ICAgIDxnIGNsaXAtcGF0aD0idXJsKCNwZGU3MmJjYzI0NykiPiYjeGE7ICAgICA8dXNlIHN0eWxlPSJmaWxsOiAjZTM3MjIyOyBzdHJva2U6ICM0ZTRlNGUiIHk9Ijc0NS44NTU5MDkiIHg9IjExMjUuODIyMzI0IiB4bGluazpocmVmPSIjQzlfMF85ZTU0YmRkMTU1Ii8+JiN4YTsgICAgPC9nPiYjeGE7ICAgIDxnIGNsaXAtcGF0aD0idXJsKCNwZGU3MmJjYzI0NykiPiYjeGE7ICAgICA8dXNlIHN0eWxlPSJmaWxsOiAjZTM3MjIyOyBzdHJva2U6ICM0ZTRlNGUiIHk9Ijc0NS44NTU5MDkiIHg9IjExMjYuODc4MDAyIiB4bGluazpocmVmPSIjQzlfMF85ZTU0YmRkMTU1Ii8+JiN4YTsgICAgPC9nPiYjeGE7ICAgIDxnIGNsaXAtcGF0aD0idXJsKCNwZGU3MmJjYzI0NykiPiYjeGE7ICAgICA8dXNlIHN0eWxlPSJmaWxsOiAjZTM3MjIyOyBzdHJva2U6ICM0ZTRlNGUiIHk9Ijc0NS44NTU5MDkiIHg9IjExMTguMTIzMDU1IiB4bGluazpocmVmPSIjQzlfMF85ZTU0YmRkMTU1Ii8+JiN4YTsgICAgPC9nPiYjeGE7ICAgIDxnIGNsaXAtcGF0aD0idXJsKCNwZGU3MmJjYzI0NykiPiYjeGE7ICAgICA8dXNlIHN0eWxlPSJmaWxsOiAjZTM3MjIyOyBzdHJva2U6ICM0ZTRlNGUiIHk9Ijc0NS44NTU5MDkiIHg9IjExNDQuMTAyNzgyIiB4bGluazpocmVmPSIjQzlfMF85ZTU0YmRkMTU1Ii8+JiN4YTsgICAgPC9nPiYjeGE7ICAgIDxnIGNsaXAtcGF0aD0idXJsKCNwZGU3MmJjYzI0NykiPiYjeGE7ICAgICA8dXNlIHN0eWxlPSJmaWxsOiAjZTM3MjIyOyBzdHJva2U6ICM0ZTRlNGUiIHk9Ijc0NS44NTU5MDkiIHg9IjExNDAuMjMwNzg4IiB4bGluazpocmVmPSIjQzlfMF85ZTU0YmRkMTU1Ii8+JiN4YTsgICAgPC9nPiYjeGE7ICAgIDxnIGNsaXAtcGF0aD0idXJsKCNwZGU3MmJjYzI0NykiPiYjeGE7ICAgICA8dXNlIHN0eWxlPSJmaWxsOiAjZTM3MjIyOyBzdHJva2U6ICM0ZTRlNGUiIHk9Ijc0NS44NTU5MDkiIHg9IjExMTIuMTgxMTE3IiB4bGluazpocmVmPSIjQzlfMF85ZTU0YmRkMTU1Ii8+JiN4YTsgICAgPC9nPiYjeGE7ICAgIDxnIGNsaXAtcGF0aD0idXJsKCNwZGU3MmJjYzI0NykiPiYjeGE7ICAgICA8dXNlIHN0eWxlPSJmaWxsOiAjZTM3MjIyOyBzdHJva2U6ICM0ZTRlNGUiIHk9Ijc0NS44NTU5MDkiIHg9IjExMjQuMzE1NDk4IiB4bGluazpocmVmPSIjQzlfMF85ZTU0YmRkMTU1Ii8+JiN4YTsgICAgPC9nPiYjeGE7ICAgIDxnIGNsaXAtcGF0aD0idXJsKCNwZGU3MmJjYzI0NykiPiYjeGE7ICAgICA8dXNlIHN0eWxlPSJmaWxsOiAjZTM3MjIyOyBzdHJva2U6ICM0ZTRlNGUiIHk9Ijc0NS44NTU5MDkiIHg9IjExMzUuODU1ODQzIiB4bGluazpocmVmPSIjQzlfMF85ZTU0YmRkMTU1Ii8+JiN4YTsgICAgPC9nPiYjeGE7ICAgIDxnIGNsaXAtcGF0aD0idXJsKCNwZGU3MmJjYzI0NykiPiYjeGE7ICAgICA8dXNlIHN0eWxlPSJmaWxsOiAjZTM3MjIyOyBzdHJva2U6ICM0ZTRlNGUiIHk9Ijc0NS44NTU5MDkiIHg9IjExNTguMDkwNjk0IiB4bGluazpocmVmPSIjQzlfMF85ZTU0YmRkMTU1Ii8+JiN4YTsgICAgPC9nPiYjeGE7ICAgIDxnIGNsaXAtcGF0aD0idXJsKCNwZGU3MmJjYzI0NykiPiYjeGE7ICAgICA8dXNlIHN0eWxlPSJmaWxsOiAjZTM3MjIyOyBzdHJva2U6ICM0ZTRlNGUiIHk9Ijc0NS44NTU5MDkiIHg9IjExMDYuNDYyNjEyIiB4bGluazpocmVmPSIjQzlfMF85ZTU0YmRkMTU1Ii8+JiN4YTsgICAgPC9nPiYjeGE7ICAgIDxnIGNsaXAtcGF0aD0idXJsKCNwZGU3MmJjYzI0NykiPiYjeGE7ICAgICA8dXNlIHN0eWxlPSJmaWxsOiAjZTM3MjIyOyBzdHJva2U6ICM0ZTRlNGUiIHk9Ijc0NS44NTU5MDkiIHg9IjExNDMuNTMxMjE3IiB4bGluazpocmVmPSIjQzlfMF85ZTU0YmRkMTU1Ii8+JiN4YTsgICAgPC9nPiYjeGE7ICAgIDxnIGNsaXAtcGF0aD0idXJsKCNwZGU3MmJjYzI0NykiPiYjeGE7ICAgICA8dXNlIHN0eWxlPSJmaWxsOiAjZTM3MjIyOyBzdHJva2U6ICM0ZTRlNGUiIHk9Ijc0NS44NTU5MDkiIHg9IjExMjguNTg5MDQ1IiB4bGluazpocmVmPSIjQzlfMF85ZTU0YmRkMTU1Ii8+JiN4YTsgICAgPC9nPiYjeGE7ICAgIDxnIGNsaXAtcGF0aD0idXJsKCNwZGU3MmJjYzI0NykiPiYjeGE7ICAgICA8dXNlIHN0eWxlPSJmaWxsOiAjZTM3MjIyOyBzdHJva2U6ICM0ZTRlNGUiIHk9Ijc0NS44NTU5MDkiIHg9IjExNTAuOTcyOTU4IiB4bGluazpocmVmPSIjQzlfMF85ZTU0YmRkMTU1Ii8+JiN4YTsgICAgPC9nPiYjeGE7ICAgIDxnIGNsaXAtcGF0aD0idXJsKCNwZGU3MmJjYzI0NykiPiYjeGE7ICAgICA8dXNlIHN0eWxlPSJmaWxsOiAjZTM3MjIyOyBzdHJva2U6ICM0ZTRlNGUiIHk9Ijc0NS44NTU5MDkiIHg9IjExNDMuMDgyMjI0IiB4bGluazpocmVmPSIjQzlfMF85ZTU0YmRkMTU1Ii8+JiN4YTsgICAgPC9nPiYjeGE7ICAgIDxnIGNsaXAtcGF0aD0idXJsKCNwZGU3MmJjYzI0NykiPiYjeGE7ICAgICA8dXNlIHN0eWxlPSJmaWxsOiAjZTM3MjIyOyBzdHJva2U6ICM0ZTRlNGUiIHk9Ijc0NS44NTU5MDkiIHg9IjExMTkuODU3ODg4IiB4bGluazpocmVmPSIjQzlfMF85ZTU0YmRkMTU1Ii8+JiN4YTsgICAgPC9nPiYjeGE7ICAgIDxnIGNsaXAtcGF0aD0idXJsKCNwZGU3MmJjYzI0NykiPiYjeGE7ICAgICA8dXNlIHN0eWxlPSJmaWxsOiAjZTM3MjIyOyBzdHJva2U6ICM0ZTRlNGUiIHk9Ijc0NS44NTU5MDkiIHg9IjExMTguMjM1OTE3IiB4bGluazpocmVmPSIjQzlfMF85ZTU0YmRkMTU1Ii8+JiN4YTsgICAgPC9nPiYjeGE7ICAgIDxnIGNsaXAtcGF0aD0idXJsKCNwZGU3MmJjYzI0NykiPiYjeGE7ICAgICA8dXNlIHN0eWxlPSJmaWxsOiAjZTM3MjIyOyBzdHJva2U6ICM0ZTRlNGUiIHk9Ijc0NS44NTU5MDkiIHg9IjExMDAuMTMzMDE3IiB4bGluazpocmVmPSIjQzlfMF85ZTU0YmRkMTU1Ii8+JiN4YTsgICAgPC9nPiYjeGE7ICAgIDxnIGNsaXAtcGF0aD0idXJsKCNwZGU3MmJjYzI0NykiPiYjeGE7ICAgICA8dXNlIHN0eWxlPSJmaWxsOiAjZTM3MjIyOyBzdHJva2U6ICM0ZTRlNGUiIHk9Ijc0NS44NTU5MDkiIHg9IjExMzguMzE4MTE1IiB4bGluazpocmVmPSIjQzlfMF85ZTU0YmRkMTU1Ii8+JiN4YTsgICAgPC9nPiYjeGE7ICAgIDxnIGNsaXAtcGF0aD0idXJsKCNwZGU3MmJjYzI0NykiPiYjeGE7ICAgICA8dXNlIHN0eWxlPSJmaWxsOiAjZTM3MjIyOyBzdHJva2U6ICM0ZTRlNGUiIHk9Ijc0NS44NTU5MDkiIHg9IjExNTIuNTQ0ODQxIiB4bGluazpocmVmPSIjQzlfMF85ZTU0YmRkMTU1Ii8+JiN4YTsgICAgPC9nPiYjeGE7ICAgIDxnIGNsaXAtcGF0aD0idXJsKCNwZGU3MmJjYzI0NykiPiYjeGE7ICAgICA8dXNlIHN0eWxlPSJmaWxsOiAjZTM3MjIyOyBzdHJva2U6ICM0ZTRlNGUiIHk9Ijc0NS44NTU5MDkiIHg9IjExMzAuNTc4NjU1IiB4bGluazpocmVmPSIjQzlfMF85ZTU0YmRkMTU1Ii8+JiN4YTsgICAgPC9nPiYjeGE7ICAgIDxnIGNsaXAtcGF0aD0idXJsKCNwZGU3MmJjYzI0NykiPiYjeGE7ICAgICA8dXNlIHN0eWxlPSJmaWxsOiAjZTM3MjIyOyBzdHJva2U6ICM0ZTRlNGUiIHk9Ijc0NS44NTU5MDkiIHg9IjExMTMuMTM4NzY5IiB4bGluazpocmVmPSIjQzlfMF85ZTU0YmRkMTU1Ii8+JiN4YTsgICAgPC9nPiYjeGE7ICAgIDxnIGNsaXAtcGF0aD0idXJsKCNwZGU3MmJjYzI0NykiPiYjeGE7ICAgICA8dXNlIHN0eWxlPSJmaWxsOiAjZTM3MjIyOyBzdHJva2U6ICM0ZTRlNGUiIHk9Ijc0NS44NTU5MDkiIHg9IjExNTMuNDY0ODY4IiB4bGluazpocmVmPSIjQzlfMF85ZTU0YmRkMTU1Ii8+JiN4YTsgICAgPC9nPiYjeGE7ICAgIDxnIGNsaXAtcGF0aD0idXJsKCNwZGU3MmJjYzI0NykiPiYjeGE7ICAgICA8dXNlIHN0eWxlPSJmaWxsOiAjZTM3MjIyOyBzdHJva2U6ICM0ZTRlNGUiIHk9Ijc0NS44NTU5MDkiIHg9IjExNTkuMDc2MTE2IiB4bGluazpocmVmPSIjQzlfMF85ZTU0YmRkMTU1Ii8+JiN4YTsgICAgPC9nPiYjeGE7ICAgIDxnIGNsaXAtcGF0aD0idXJsKCNwZGU3MmJjYzI0NykiPiYjeGE7ICAgICA8dXNlIHN0eWxlPSJmaWxsOiAjZTM3MjIyOyBzdHJva2U6ICM0ZTRlNGUiIHk9Ijc0NS44NTU5MDkiIHg9IjExNTcuNzc2NzAzIiB4bGluazpocmVmPSIjQzlfMF85ZTU0YmRkMTU1Ii8+JiN4YTsgICAgPC9nPiYjeGE7ICAgPC9nPiYjeGE7ICAgPGcgaWQ9IlBhdGhDb2xsZWN0aW9uXzEyIj4mI3hhOyAgICA8ZGVmcz4mI3hhOyAgICAgPHBhdGggZD0iTSAwIDQgJiMxMDtDIDEuMDYwODEyIDQgMi4wNzgzMTkgMy41Nzg1MzUgMi44Mjg0MjcgMi44Mjg0MjcgJiMxMDtDIDMuNTc4NTM1IDIuMDc4MzE5IDQgMS4wNjA4MTIgNCAtMCAmIzEwO0MgNCAtMS4wNjA4MTIgMy41Nzg1MzUgLTIuMDc4MzE5IDIuODI4NDI3IC0yLjgyODQyNyAmIzEwO0MgMi4wNzgzMTkgLTMuNTc4NTM1IDEuMDYwODEyIC00IDAgLTQgJiMxMDtDIC0xLjA2MDgxMiAtNCAtMi4wNzgzMTkgLTMuNTc4NTM1IC0yLjgyODQyNyAtMi44Mjg0MjcgJiMxMDtDIC0zLjU3ODUzNSAtMi4wNzgzMTkgLTQgLTEuMDYwODEyIC00IDAgJiMxMDtDIC00IDEuMDYwODEyIC0zLjU3ODUzNSAyLjA3ODMxOSAtMi44Mjg0MjcgMi44Mjg0MjcgJiMxMDtDIC0yLjA3ODMxOSAzLjU3ODUzNSAtMS4wNjA4MTIgNCAwIDQgJiMxMDt6IiBpZD0iQ2FfMF9kN2E1MTIwOGRjIi8+JiN4YTsgICAgPC9kZWZzPiYjeGE7ICAgIDxnIGNsaXAtcGF0aD0idXJsKCNwZGU3MmJjYzI0NykiPiYjeGE7ICAgICA8dXNlIHN0eWxlPSJmaWxsOiAjZTM3MjIyOyBzdHJva2U6ICM0ZTRlNGUiIHk9Ijc0NS44NTU5MDkiIHg9IjEyNDIuMDk1NTU2IiB4bGluazpocmVmPSIjQ2FfMF9kN2E1MTIwOGRjIi8+JiN4YTsgICAgPC9nPiYjeGE7ICAgIDxnIGNsaXAtcGF0aD0idXJsKCNwZGU3MmJjYzI0NykiPiYjeGE7ICAgICA8dXNlIHN0eWxlPSJmaWxsOiAjZTM3MjIyOyBzdHJva2U6ICM0ZTRlNGUiIHk9Ijc0NS44NTU5MDkiIHg9IjEyNDMuNDk2NjU0IiB4bGluazpocmVmPSIjQ2FfMF9kN2E1MTIwOGRjIi8+JiN4YTsgICAgPC9nPiYjeGE7ICAgIDxnIGNsaXAtcGF0aD0idXJsKCNwZGU3MmJjYzI0NykiPiYjeGE7ICAgICA8dXNlIHN0eWxlPSJmaWxsOiAjZTM3MjIyOyBzdHJva2U6ICM0ZTRlNGUiIHk9Ijc0NS44NTU5MDkiIHg9IjEyNjIuMzYxMDg0IiB4bGluazpocmVmPSIjQ2FfMF9kN2E1MTIwOGRjIi8+JiN4YTsgICAgPC9nPiYjeGE7ICAgIDxnIGNsaXAtcGF0aD0idXJsKCNwZGU3MmJjYzI0NykiPiYjeGE7ICAgICA8dXNlIHN0eWxlPSJmaWxsOiAjZTM3MjIyOyBzdHJva2U6ICM0ZTRlNGUiIHk9Ijc0NS44NTU5MDkiIHg9IjEyMTguNTUxMDkxIiB4bGluazpocmVmPSIjQ2FfMF9kN2E1MTIwOGRjIi8+JiN4YTsgICAgPC9nPiYjeGE7ICAgIDxnIGNsaXAtcGF0aD0idXJsKCNwZGU3MmJjYzI0NykiPiYjeGE7ICAgICA8dXNlIHN0eWxlPSJmaWxsOiAjZTM3MjIyOyBzdHJva2U6ICM0ZTRlNGUiIHk9Ijc0NS44NTU5MDkiIHg9IjEyMTQuMTk5NzYyIiB4bGluazpocmVmPSIjQ2FfMF9kN2E1MTIwOGRjIi8+JiN4YTsgICAgPC9nPiYjeGE7ICAgIDxnIGNsaXAtcGF0aD0idXJsKCNwZGU3MmJjYzI0NykiPiYjeGE7ICAgICA8dXNlIHN0eWxlPSJmaWxsOiAjZTM3MjIyOyBzdHJva2U6ICM0ZTRlNGUiIHk9Ijc0NS44NTU5MDkiIHg9IjEyMjcuMjk2NDEyIiB4bGluazpocmVmPSIjQ2FfMF9kN2E1MTIwOGRjIi8+JiN4YTsgICAgPC9nPiYjeGE7ICAgIDxnIGNsaXAtcGF0aD0idXJsKCNwZGU3MmJjYzI0NykiPiYjeGE7ICAgICA8dXNlIHN0eWxlPSJmaWxsOiAjZTM3MjIyOyBzdHJva2U6ICM0ZTRlNGUiIHk9Ijc0NS44NTU5MDkiIHg9IjEyNTkuNzMzNTA2IiB4bGluazpocmVmPSIjQ2FfMF9kN2E1MTIwOGRjIi8+JiN4YTsgICAgPC9nPiYjeGE7ICAgIDxnIGNsaXAtcGF0aD0idXJsKCNwZGU3MmJjYzI0NykiPiYjeGE7ICAgICA8dXNlIHN0eWxlPSJmaWxsOiAjZTM3MjIyOyBzdHJva2U6ICM0ZTRlNGUiIHk9Ijc0NS44NTU5MDkiIHg9IjEyMzIuNzkyMTYzIiB4bGluazpocmVmPSIjQ2FfMF9kN2E1MTIwOGRjIi8+JiN4YTsgICAgPC9nPiYjeGE7ICAgIDxnIGNsaXAtcGF0aD0idXJsKCNwZGU3MmJjYzI0NykiPiYjeGE7ICAgICA8dXNlIHN0eWxlPSJmaWxsOiAjZTM3MjIyOyBzdHJva2U6ICM0ZTRlNGUiIHk9Ijc0NS44NTU5MDkiIHg9IjEyNjMuMDE4MjYzIiB4bGluazpocmVmPSIjQ2FfMF9kN2E1MTIwOGRjIi8+JiN4YTsgICAgPC9nPiYjeGE7ICAgIDxnIGNsaXAtcGF0aD0idXJsKCNwZGU3MmJjYzI0NykiPiYjeGE7ICAgICA8dXNlIHN0eWxlPSJmaWxsOiAjZTM3MjIyOyBzdHJva2U6ICM0ZTRlNGUiIHk9Ijc0NS44NTU5MDkiIHg9IjEyMDguNjg0MDUxIiB4bGluazpocmVmPSIjQ2FfMF9kN2E1MTIwOGRjIi8+JiN4YTsgICAgPC9nPiYjeGE7ICAgIDxnIGNsaXAtcGF0aD0idXJsKCNwZGU3MmJjYzI0NykiPiYjeGE7ICAgICA8dXNlIHN0eWxlPSJmaWxsOiAjZTM3MjIyOyBzdHJva2U6ICM0ZTRlNGUiIHk9Ijc0NS44NTU5MDkiIHg9IjEyNTUuODYyOTM1IiB4bGluazpocmVmPSIjQ2FfMF9kN2E1MTIwOGRjIi8+JiN4YTsgICAgPC9nPiYjeGE7ICAgIDxnIGNsaXAtcGF0aD0idXJsKCNwZGU3MmJjYzI0NykiPiYjeGE7ICAgICA8dXNlIHN0eWxlPSJmaWxsOiAjZTM3MjIyOyBzdHJva2U6ICM0ZTRlNGUiIHk9Ijc0NS44NTU5MDkiIHg9IjEyMjcuNjY1MTk3IiB4bGluazpocmVmPSIjQ2FfMF9kN2E1MTIwOGRjIi8+JiN4YTsgICAgPC9nPiYjeGE7ICAgIDxnIGNsaXAtcGF0aD0idXJsKCNwZGU3MmJjYzI0NykiPiYjeGE7ICAgICA8dXNlIHN0eWxlPSJmaWxsOiAjZTM3MjIyOyBzdHJva2U6ICM0ZTRlNGUiIHk9Ijc0NS44NTU5MDkiIHg9IjEyMTMuMzAxNjk5IiB4bGluazpocmVmPSIjQ2FfMF9kN2E1MTIwOGRjIi8+JiN4YTsgICAgPC9nPiYjeGE7ICAgIDxnIGNsaXAtcGF0aD0idXJsKCNwZGU3MmJjYzI0NykiPiYjeGE7ICAgICA8dXNlIHN0eWxlPSJmaWxsOiAjZTM3MjIyOyBzdHJva2U6ICM0ZTRlNGUiIHk9Ijc0NS44NTU5MDkiIHg9IjEyMTEuMjIyMDUyIiB4bGluazpocmVmPSIjQ2FfMF9kN2E1MTIwOGRjIi8+JiN4YTsgICAgPC9nPiYjeGE7ICAgIDxnIGNsaXAtcGF0aD0idXJsKCNwZGU3MmJjYzI0NykiPiYjeGE7ICAgICA8dXNlIHN0eWxlPSJmaWxsOiAjZTM3MjIyOyBzdHJva2U6ICM0ZTRlNGUiIHk9Ijc0NS44NTU5MDkiIHg9IjEyMTUuNzI4MTIiIHhsaW5rOmhyZWY9IiNDYV8wX2Q3YTUxMjA4ZGMiLz4mI3hhOyAgICA8L2c+JiN4YTsgICAgPGcgY2xpcC1wYXRoPSJ1cmwoI3BkZTcyYmNjMjQ3KSI+JiN4YTsgICAgIDx1c2Ugc3R5bGU9ImZpbGw6ICNlMzcyMjI7IHN0cm9rZTogIzRlNGU0ZSIgeT0iNzQ1Ljg1NTkwOSIgeD0iMTI1NC4yMjQ3NTkiIHhsaW5rOmhyZWY9IiNDYV8wX2Q3YTUxMjA4ZGMiLz4mI3hhOyAgICA8L2c+JiN4YTsgICAgPGcgY2xpcC1wYXRoPSJ1cmwoI3BkZTcyYmNjMjQ3KSI+JiN4YTsgICAgIDx1c2Ugc3R5bGU9ImZpbGw6ICNlMzcyMjI7IHN0cm9rZTogIzRlNGU0ZSIgeT0iNzQ1Ljg1NTkwOSIgeD0iMTIxOC40NTI1OTgiIHhsaW5rOmhyZWY9IiNDYV8wX2Q3YTUxMjA4ZGMiLz4mI3hhOyAgICA8L2c+JiN4YTsgICAgPGcgY2xpcC1wYXRoPSJ1cmwoI3BkZTcyYmNjMjQ3KSI+JiN4YTsgICAgIDx1c2Ugc3R5bGU9ImZpbGw6ICNlMzcyMjI7IHN0cm9rZTogIzRlNGU0ZSIgeT0iNzQ1Ljg1NTkwOSIgeD0iMTIwNy44OTk4NTQiIHhsaW5rOmhyZWY9IiNDYV8wX2Q3YTUxMjA4ZGMiLz4mI3hhOyAgICA8L2c+JiN4YTsgICAgPGcgY2xpcC1wYXRoPSJ1cmwoI3BkZTcyYmNjMjQ3KSI+JiN4YTsgICAgIDx1c2Ugc3R5bGU9ImZpbGw6ICNlMzcyMjI7IHN0cm9rZTogIzRlNGU0ZSIgeT0iNzQ1Ljg1NTkwOSIgeD0iMTIxMy4xNjcyMDIiIHhsaW5rOmhyZWY9IiNDYV8wX2Q3YTUxMjA4ZGMiLz4mI3hhOyAgICA8L2c+JiN4YTsgICAgPGcgY2xpcC1wYXRoPSJ1cmwoI3BkZTcyYmNjMjQ3KSI+JiN4YTsgICAgIDx1c2Ugc3R5bGU9ImZpbGw6ICNlMzcyMjI7IHN0cm9rZTogIzRlNGU0ZSIgeT0iNzQ1Ljg1NTkwOSIgeD0iMTIzNC4xMDY5MTciIHhsaW5rOmhyZWY9IiNDYV8wX2Q3YTUxMjA4ZGMiLz4mI3hhOyAgICA8L2c+JiN4YTsgICAgPGcgY2xpcC1wYXRoPSJ1cmwoI3BkZTcyYmNjMjQ3KSI+JiN4YTsgICAgIDx1c2Ugc3R5bGU9ImZpbGw6ICNlMzcyMjI7IHN0cm9rZTogIzRlNGU0ZSIgeT0iNzQ1Ljg1NTkwOSIgeD0iMTIxOS44OTEwNjIiIHhsaW5rOmhyZWY9IiNDYV8wX2Q3YTUxMjA4ZGMiLz4mI3hhOyAgICA8L2c+JiN4YTsgICAgPGcgY2xpcC1wYXRoPSJ1cmwoI3BkZTcyYmNjMjQ3KSI+JiN4YTsgICAgIDx1c2Ugc3R5bGU9ImZpbGw6ICNlMzcyMjI7IHN0cm9rZTogIzRlNGU0ZSIgeT0iNzQ1Ljg1NTkwOSIgeD0iMTI1My44NDQ1MyIgeGxpbms6aHJlZj0iI0NhXzBfZDdhNTEyMDhkYyIvPiYjeGE7ICAgIDwvZz4mI3hhOyAgICA8ZyBjbGlwLXBhdGg9InVybCgjcGRlNzJiY2MyNDcpIj4mI3hhOyAgICAgPHVzZSBzdHlsZT0iZmlsbDogI2UzNzIyMjsgc3Ryb2tlOiAjNGU0ZTRlIiB5PSI3NDUuODU1OTA5IiB4PSIxMjU4Ljk3NzU4MyIgeGxpbms6aHJlZj0iI0NhXzBfZDdhNTEyMDhkYyIvPiYjeGE7ICAgIDwvZz4mI3hhOyAgICA8ZyBjbGlwLXBhdGg9InVybCgjcGRlNzJiY2MyNDcpIj4mI3hhOyAgICAgPHVzZSBzdHlsZT0iZmlsbDogI2UzNzIyMjsgc3Ryb2tlOiAjNGU0ZTRlIiB5PSI3NDUuODU1OTA5IiB4PSIxMjMyLjA3MjU1MyIgeGxpbms6aHJlZj0iI0NhXzBfZDdhNTEyMDhkYyIvPiYjeGE7ICAgIDwvZz4mI3hhOyAgICA8ZyBjbGlwLXBhdGg9InVybCgjcGRlNzJiY2MyNDcpIj4mI3hhOyAgICAgPHVzZSBzdHlsZT0iZmlsbDogI2UzNzIyMjsgc3Ryb2tlOiAjNGU0ZTRlIiB5PSI3NDUuODU1OTA5IiB4PSIxMjYxLjg3NTIwNSIgeGxpbms6aHJlZj0iI0NhXzBfZDdhNTEyMDhkYyIvPiYjeGE7ICAgIDwvZz4mI3hhOyAgICA8ZyBjbGlwLXBhdGg9InVybCgjcGRlNzJiY2MyNDcpIj4mI3hhOyAgICAgPHVzZSBzdHlsZT0iZmlsbDogI2UzNzIyMjsgc3Ryb2tlOiAjNGU0ZTRlIiB5PSI3NDUuODU1OTA5IiB4PSIxMjMwLjI0NzkxIiB4bGluazpocmVmPSIjQ2FfMF9kN2E1MTIwOGRjIi8+JiN4YTsgICAgPC9nPiYjeGE7ICAgIDxnIGNsaXAtcGF0aD0idXJsKCNwZGU3MmJjYzI0NykiPiYjeGE7ICAgICA8dXNlIHN0eWxlPSJmaWxsOiAjZTM3MjIyOyBzdHJva2U6ICM0ZTRlNGUiIHk9Ijc0NS44NTU5MDkiIHg9IjEyMTQuOTEyNDQiIHhsaW5rOmhyZWY9IiNDYV8wX2Q3YTUxMjA4ZGMiLz4mI3hhOyAgICA8L2c+JiN4YTsgICAgPGcgY2xpcC1wYXRoPSJ1cmwoI3BkZTcyYmNjMjQ3KSI+JiN4YTsgICAgIDx1c2Ugc3R5bGU9ImZpbGw6ICNlMzcyMjI7IHN0cm9rZTogIzRlNGU0ZSIgeT0iNzQ1Ljg1NTkwOSIgeD0iMTIzOC40MzQyMTQiIHhsaW5rOmhyZWY9IiNDYV8wX2Q3YTUxMjA4ZGMiLz4mI3hhOyAgICA8L2c+JiN4YTsgICAgPGcgY2xpcC1wYXRoPSJ1cmwoI3BkZTcyYmNjMjQ3KSI+JiN4YTsgICAgIDx1c2Ugc3R5bGU9ImZpbGw6ICNlMzcyMjI7IHN0cm9rZTogIzRlNGU0ZSIgeT0iNzQ1Ljg1NTkwOSIgeD0iMTIyMS43NDk1NzYiIHhsaW5rOmhyZWY9IiNDYV8wX2Q3YTUxMjA4ZGMiLz4mI3hhOyAgICA8L2c+JiN4YTsgICAgPGcgY2xpcC1wYXRoPSJ1cmwoI3BkZTcyYmNjMjQ3KSI+JiN4YTsgICAgIDx1c2Ugc3R5bGU9ImZpbGw6ICNlMzcyMjI7IHN0cm9rZTogIzRlNGU0ZSIgeT0iNzQ1Ljg1NTkwOSIgeD0iMTIyNC4wNDk2NDEiIHhsaW5rOmhyZWY9IiNDYV8wX2Q3YTUxMjA4ZGMiLz4mI3hhOyAgICA8L2c+JiN4YTsgICA8L2c+JiN4YTsgICA8ZyBpZD0ibGVnZW5kXzEiPiYjeGE7ICAgIDxnIGlkPSJwYXRjaF83Ij4mI3hhOyAgICAgPHBhdGggc3R5bGU9ImZpbGw6ICNmZmZmZmY7IG9wYWNpdHk6IDAuODsgc3Ryb2tlOiAjY2NjY2NjOyBzdHJva2Utd2lkdGg6IDEuNTsgc3Ryb2tlLWxpbmVqb2luOiBtaXRlciIgZD0iTSA3ODguMTE3ODEzIDgyLjAzNzgxMyAmIzEwO0wgMTI2NS43IDgyLjAzNzgxMyAmIzEwO1EgMTI3Mi4zIDgyLjAzNzgxMyAxMjcyLjMgNzUuNDM3ODEzICYjMTA7TCAxMjcyLjMgMzAuMyAmIzEwO1EgMTI3Mi4zIDIzLjcgMTI2NS43IDIzLjcgJiMxMDtMIDc4OC4xMTc4MTMgMjMuNyAmIzEwO1EgNzgxLjUxNzgxMiAyMy43IDc4MS41MTc4MTIgMzAuMyAmIzEwO0wgNzgxLjUxNzgxMiA3NS40Mzc4MTMgJiMxMDtRIDc4MS41MTc4MTIgODIuMDM3ODEzIDc4OC4xMTc4MTMgODIuMDM3ODEzICYjMTA7eiIvPiYjeGE7ICAgIDwvZz4mI3hhOyAgICA8ZyBpZD0iUGF0aENvbGxlY3Rpb25fMTMiPiYjeGE7ICAgICA8ZGVmcz4mI3hhOyAgICAgIDxwYXRoIHN0eWxlPSJzdHJva2U6ICNlMzcyMjI7IHN0cm9rZS13aWR0aDogMS41IiBkPSJNIDAgNC41ICYjMTA7QyAxLjE5MzQxNCA0LjUgMi4zMzgxMDkgNC4wMjU4NTIgMy4xODE5ODEgMy4xODE5ODEgJiMxMDtDIDQuMDI1ODUyIDIuMzM4MTA5IDQuNSAxLjE5MzQxNCA0LjUgMCAmIzEwO0MgNC41IC0xLjE5MzQxNCA0LjAyNTg1MiAtMi4zMzgxMDkgMy4xODE5ODEgLTMuMTgxOTgxICYjMTA7QyAyLjMzODEwOSAtNC4wMjU4NTIgMS4xOTM0MTQgLTQuNSAwIC00LjUgJiMxMDtDIC0xLjE5MzQxNCAtNC41IC0yLjMzODEwOSAtNC4wMjU4NTIgLTMuMTgxOTgxIC0zLjE4MTk4MSAmIzEwO0MgLTQuMDI1ODUyIC0yLjMzODEwOSAtNC41IC0xLjE5MzQxNCAtNC41IDAgJiMxMDtDIC00LjUgMS4xOTM0MTQgLTQuMDI1ODUyIDIuMzM4MTA5IC0zLjE4MTk4MSAzLjE4MTk4MSAmIzEwO0MgLTIuMzM4MTA5IDQuMDI1ODUyIC0xLjE5MzQxNCA0LjUgMCA0LjUgJiMxMDt6IiBpZD0ibTFiMTQ0YjViOTEiLz4mI3hhOyAgICAgPC9kZWZzPiYjeGE7ICAgICA8Zz4mI3hhOyAgICAgIDx1c2Ugc3R5bGU9ImZpbGw6ICNlMzcyMjI7IHN0cm9rZTogI2UzNzIyMjsgc3Ryb2tlLXdpZHRoOiAxLjUiIHk9IjUzLjMxMjM0NCIgeD0iODI3LjcxNzgxMyIgeGxpbms6aHJlZj0iI20xYjE0NGI1YjkxIi8+JiN4YTsgICAgIDwvZz4mI3hhOyAgICA8L2c+JiN4YTsgICAgPGcgaWQ9InRleHRfMTkiPiYjeGE7ICAgICAmI3hhOyAgICAgPGcgdHJhbnNmb3JtPSJ0cmFuc2xhdGUoODg3LjExNzgxMyA2MS45NzQ4NDQpIHNjYWxlKDAuMzMgLTAuMzMpIiBzdHlsZT0iZmlsbDogIzI2MjYyNiI+JiN4YTsgICAgICA8dXNlIHhsaW5rOmhyZWY9IiNEZWphVnVTYW5zLTY0Ii8+JiN4YTsgICAgICA8dXNlIHg9IjYzLjQ3NjU2MiIgeGxpbms6aHJlZj0iI0RlamFWdVNhbnMtNzkiLz4mI3hhOyAgICAgIDx1c2UgeD0iMTIyLjY1NjI1IiB4bGluazpocmVmPSIjRGVqYVZ1U2Fucy02ZSIvPiYjeGE7ICAgICAgPHVzZSB4PSIxODYuMDM1MTU2IiB4bGluazpocmVmPSIjRGVqYVZ1U2Fucy02MSIvPiYjeGE7ICAgICAgPHVzZSB4PSIyNDcuMzE0NDUzIiB4bGluazpocmVmPSIjRGVqYVZ1U2Fucy02ZCIvPiYjeGE7ICAgICAgPHVzZSB4PSIzNDQuNzI2NTYyIiB4bGluazpocmVmPSIjRGVqYVZ1U2Fucy02OSIvPiYjeGE7ICAgICAgPHVzZSB4PSIzNzIuNTA5NzY2IiB4bGluazpocmVmPSIjRGVqYVZ1U2Fucy02MyIvPiYjeGE7ICAgICAgPHVzZSB4PSI0MjcuNDkwMjM0IiB4bGluazpocmVmPSIjRGVqYVZ1U2Fucy0yMCIvPiYjeGE7ICAgICAgPHVzZSB4PSI0NTkuMjc3MzQ0IiB4bGluazpocmVmPSIjRGVqYVZ1U2Fucy02MiIvPiYjeGE7ICAgICAgPHVzZSB4PSI1MjIuNzUzOTA2IiB4bGluazpocmVmPSIjRGVqYVZ1U2Fucy03NSIvPiYjeGE7ICAgICAgPHVzZSB4PSI1ODYuMTMyODEyIiB4bGluazpocmVmPSIjRGVqYVZ1U2Fucy03NCIvPiYjeGE7ICAgICAgPHVzZSB4PSI2MjUuMzQxNzk3IiB4bGluazpocmVmPSIjRGVqYVZ1U2Fucy0yMCIvPiYjeGE7ICAgICAgPHVzZSB4PSI2NTcuMTI4OTA2IiB4bGluazpocmVmPSIjRGVqYVZ1U2Fucy02ZSIvPiYjeGE7ICAgICAgPHVzZSB4PSI3MjAuNTA3ODEyIiB4bGluazpocmVmPSIjRGVqYVZ1U2Fucy02ZiIvPiYjeGE7ICAgICAgPHVzZSB4PSI3ODEuNjg5NDUzIiB4bGluazpocmVmPSIjRGVqYVZ1U2Fucy03NCIvPiYjeGE7ICAgICAgPHVzZSB4PSI4MjAuODk4NDM4IiB4bGluazpocmVmPSIjRGVqYVZ1U2Fucy0yMCIvPiYjeGE7ICAgICAgPHVzZSB4PSI4NTIuNjg1NTQ3IiB4bGluazpocmVmPSIjRGVqYVZ1U2Fucy03MyIvPiYjeGE7ICAgICAgPHVzZSB4PSI5MDQuNzg1MTU2IiB4bGluazpocmVmPSIjRGVqYVZ1U2Fucy03NCIvPiYjeGE7ICAgICAgPHVzZSB4PSI5NDMuOTk0MTQxIiB4bGluazpocmVmPSIjRGVqYVZ1U2Fucy02MSIvPiYjeGE7ICAgICAgPHVzZSB4PSIxMDA1LjI3MzQzOCIgeGxpbms6aHJlZj0iI0RlamFWdVNhbnMtNzQiLz4mI3hhOyAgICAgIDx1c2UgeD0iMTA0NC40ODI0MjIiIHhsaW5rOmhyZWY9IiNEZWphVnVTYW5zLTY5Ii8+JiN4YTsgICAgICA8dXNlIHg9IjEwNzIuMjY1NjI1IiB4bGluazpocmVmPSIjRGVqYVZ1U2Fucy02MyIvPiYjeGE7ICAgICA8L2c+JiN4YTsgICAgPC9nPiYjeGE7ICAgPC9nPiYjeGE7ICA8L2c+JiN4YTsgPC9nPiYjeGE7IDxkZWZzPiYjeGE7ICA8Y2xpcFBhdGggaWQ9InBkZTcyYmNjMjQ3Ij4mI3hhOyAgIDxyZWN0IGhlaWdodD0iNzczLjgzIiB3aWR0aD0iMTE4OC42IiB5PSI3LjIiIHg9IjEwMC4yIi8+JiN4YTsgIDwvY2xpcFBhdGg+JiN4YTsgPC9kZWZzPiYjeGE7PC9zdmc+;" parent="1" vertex="1">
          <mxGeometry width="1812" height="1510" as="geometry" />
        </mxCell>
        <mxCell id="r4pLe7dvoOiZwpvnHv7R-7" value="" style="rounded=0;whiteSpace=wrap;html=1;fillColor=none;strokeWidth=2;" parent="1" vertex="1">
          <mxGeometry x="620" y="40" width="140" height="850" as="geometry" />
        </mxCell>
        <mxCell id="caCWcGmRqrgMISpOO_uC-3" value="&lt;font style=&quot;font-size: 50px;&quot;&gt;cross-process&lt;br&gt;(53 different tests)&lt;br&gt;&lt;/font&gt;" style="text;html=1;align=center;verticalAlign=middle;resizable=0;points=[];autosize=1;strokeColor=none;fillColor=none;rotation=-90;" parent="1" vertex="1">
          <mxGeometry x="475" y="380" width="430" height="130" as="geometry" />
        </mxCell>
        <mxCell id="d02JYNSvsxa3_hofFgR7-3" value="" style="endArrow=classic;html=1;rounded=0;strokeWidth=2;startSize=7;endSize=11;" parent="1" source="d02JYNSvsxa3_hofFgR7-4" edge="1">
          <mxGeometry width="50" height="50" relative="1" as="geometry">
            <mxPoint x="870" y="900" as="sourcePoint" />
            <mxPoint x="850" y="1020" as="targetPoint" />
          </mxGeometry>
        </mxCell>
        <mxCell id="d02JYNSvsxa3_hofFgR7-4" value="&lt;font style=&quot;font-size: 50px;&quot;&gt;test process crashed&lt;br&gt;no traces written&lt;br&gt;(1 test)&lt;br&gt;&lt;/font&gt;" style="text;html=1;align=center;verticalAlign=middle;resizable=0;points=[];autosize=1;strokeColor=none;fillColor=none;rotation=0;" parent="1" vertex="1">
          <mxGeometry x="835" y="680" width="490" height="190" as="geometry" />
        </mxCell>
        <mxCell id="d02JYNSvsxa3_hofFgR7-5" value="" style="rounded=0;whiteSpace=wrap;html=1;fillColor=none;strokeWidth=2;rotation=0;" parent="1" vertex="1">
          <mxGeometry x="1971" y="30" width="140" height="550" as="geometry" />
        </mxCell>
        <mxCell id="d02JYNSvsxa3_hofFgR7-6" value="&lt;font style=&quot;font-size: 50px;&quot;&gt;dynamic dispatch&lt;br&gt;(770 tests)&lt;br&gt;&lt;/font&gt;" style="text;html=1;align=center;verticalAlign=middle;resizable=0;points=[];autosize=1;strokeColor=none;fillColor=none;rotation=-90;" parent="1" vertex="1">
          <mxGeometry x="1836" y="284" width="410" height="130" as="geometry" />
        </mxCell>
      </root>
    </mxGraphModel>
  </diagram>
</mxfile>
